<?xml version="1.0" encoding="utf-8"?>
<!-- Generator: Adobe Illustrator 21.0.2, SVG Export Plug-In . SVG Version: 6.00 Build 0)  -->
<svg version="1.1" id="Layer_1" xmlns="http://www.w3.org/2000/svg" xmlns:xlink="http://www.w3.org/1999/xlink" x="0px" y="0px"
	 viewBox="0 0 680.3 680.3" style="enable-background:new 0 0 680.3 680.3;" xml:space="preserve">
<style type="text/css">
	.st0{fill:none;stroke:#ED2024;stroke-width:55;stroke-linecap:round;stroke-linejoin:round;stroke-miterlimit:10;}
	.st1{fill:#FFFFFF;}
	.st2{fill:#4D4D4E;stroke:#FFFFFF;stroke-miterlimit:10;}
	.st3{fill:#EC2326;}
	.st4{font-family:'ArialMT';}
	.st5{font-size:400px;}
</style>
<rect x="74" y="139.9" class="st0" width="532" height="436"/>
<rect x="364" y="23.9" class="st1" width="307" height="316.3"/>
<g>
	<path class="st2" d="M652.6,173.6c0,5.2-0.3,9.6-0.8,13.1c-0.6,3.5-1.4,6.4-2.5,8.5c-1.1,2.1-2.4,3.7-3.9,4.6
		c-1.5,0.9-3.1,1.4-4.7,1.4H554v94.4c0,1.9-0.5,3.5-1.4,4.9c-0.9,1.4-2.5,2.6-4.7,3.6c-2.2,1-5.2,1.8-8.9,2.4
		c-3.7,0.6-8.4,0.8-13.9,0.8s-10.2-0.3-13.9-0.8c-3.7-0.6-6.7-1.3-8.9-2.4c-2.2-1-3.9-2.2-4.9-3.6c-1-1.4-1.5-3-1.5-4.9v-94.4h-86.3
		c-1.7,0-3.2-0.5-4.6-1.4c-1.4-0.9-2.6-2.5-3.8-4.6c-1.1-2.1-2-5-2.6-8.5c-0.7-3.5-1-7.9-1-13.1c0-5,0.3-9.3,0.8-13
		c0.6-3.6,1.3-6.5,2.4-8.6c1-2.1,2.2-3.7,3.5-4.6c1.3-0.9,2.8-1.4,4.5-1.4h87.2V51.9c0-1.9,0.5-3.6,1.5-5.2c1-1.6,2.6-2.9,4.9-3.9
		c2.2-1,5.2-1.8,8.9-2.4c3.7-0.6,8.4-0.8,13.9-0.8s10.2,0.3,13.9,0.8c3.7,0.6,6.7,1.3,8.9,2.4c2.2,1,3.8,2.3,4.7,3.9
		c0.9,1.6,1.4,3.3,1.4,5.2v94.1h87.5c1.5,0,2.9,0.5,4.3,1.4c1.4,0.9,2.6,2.5,3.6,4.6c1,2.1,1.8,5,2.4,8.6
		C652.3,164.3,652.6,168.6,652.6,173.6z"/>
</g>
<text transform="matrix(1.245 0 0 1 224.001 478.89)" class="st3 st4 st5">x</text>
</svg>
