<?xml version="1.0" encoding="utf-8"?>
<!-- Generator: Adobe Illustrator 21.0.2, SVG Export Plug-In . SVG Version: 6.00 Build 0)  -->
<svg version="1.1" id="Layer_1" xmlns="http://www.w3.org/2000/svg" xmlns:xlink="http://www.w3.org/1999/xlink" x="0px" y="0px"
	 viewBox="0 0 680.3 680.3" style="enable-background:new 0 0 680.3 680.3;" xml:space="preserve">
<style type="text/css">
	.st0{fill:#2B9245;}
</style>
<g>
	<path class="st0" d="M638,68.6c-66.4,74.3-128.7,151.2-186.7,230.7c-58.1,79.5-111.5,161-160.2,244.6c-3.6,6.2-8.1,14.8-13.5,25.8
		c-16.7,33.4-40.4,50.2-71.2,50.2c-13.1,0-23.8-1.9-32.3-5.8c-8.5-3.9-16.3-10.5-23.5-20.1c-5.9-8.2-11.4-19-16.5-32.2
		c-5.1-13.2-11.2-32.7-18.1-58.5c-0.5-1.5-1-3.5-1.5-5.8c-6.2-27.9-10.9-48.2-11.9-53.6c-11.3-60.5-34.9-91.6-21.7-117.2
		c13.3-25.8,57.5-34.7,80.9-17.3c12.4,9.2,17.8,25,26.4,50.1c5.2,15.2,5.6,22.1,15.2,51.1c4.9,14.7,7.9,21.3,9.6,26.2
		c8.7,24.7,16,37,21.9,37c5.1,0,25.4-28.2,60.8-84.5c33.8-53.8,62.9-98.9,87.3-135.4C417.1,203,443,166,460.9,143.2
		c17.8-22.8,33.9-40.1,48.3-51.9c22.3-18.4,43.8-23,48.5-24.3C592,57.3,621.6,63.5,638,68.6z"/>
</g>
</svg>
