<?xml version="1.0" encoding="utf-8"?>
<!-- Generator: Adobe Illustrator 21.0.2, SVG Export Plug-In . SVG Version: 6.00 Build 0)  -->
<svg version="1.1" id="Layer_1" xmlns="http://www.w3.org/2000/svg" xmlns:xlink="http://www.w3.org/1999/xlink" x="0px" y="0px"
	 viewBox="0 0 680.3 680.3" style="enable-background:new 0 0 680.3 680.3;" xml:space="preserve">
<style type="text/css">
	.st0{fill:none;stroke:#787878;stroke-width:55;stroke-linecap:round;stroke-linejoin:round;stroke-miterlimit:10;}
	.st1{fill:#FFFFFF;}
	.st2{fill:#4D4D4E;stroke:#FFFFFF;stroke-miterlimit:10;}
</style>
<rect x="74" y="139.9" class="st0" width="532" height="436"/>
<rect x="364" y="23.9" class="st1" width="307" height="316.3"/>
<g>
	<path class="st2" d="M652.6,173.6c0,5.2-0.3,9.6-0.8,13.1c-0.6,3.5-1.4,6.4-2.5,8.5s-2.4,3.7-3.9,4.6c-1.5,0.9-3.1,1.4-4.7,1.4H554
		v94.4c0,1.9-0.5,3.5-1.4,4.9s-2.5,2.6-4.7,3.6s-5.2,1.8-8.9,2.4s-8.4,0.8-13.9,0.8s-10.2-0.3-13.9-0.8c-3.7-0.6-6.7-1.3-8.9-2.4
		c-2.2-1-3.9-2.2-4.9-3.6s-1.5-3-1.5-4.9v-94.4h-86.3c-1.7,0-3.2-0.5-4.6-1.4s-2.6-2.5-3.8-4.6c-1.1-2.1-2-5-2.6-8.5
		c-0.7-3.5-1-7.9-1-13.1c0-5,0.3-9.3,0.8-13c0.6-3.6,1.3-6.5,2.4-8.6c1-2.1,2.2-3.7,3.5-4.6c1.3-0.9,2.8-1.4,4.5-1.4H496V51.9
		c0-1.9,0.5-3.6,1.5-5.2c1-1.6,2.6-2.9,4.9-3.9c2.2-1,5.2-1.8,8.9-2.4c3.7-0.6,8.4-0.8,13.9-0.8s10.2,0.3,13.9,0.8
		c3.7,0.6,6.7,1.3,8.9,2.4c2.2,1,3.8,2.3,4.7,3.9c0.9,1.6,1.4,3.3,1.4,5.2V146h87.5c1.5,0,2.9,0.5,4.3,1.4c1.4,0.9,2.6,2.5,3.6,4.6
		s1.8,5,2.4,8.6C652.3,164.3,652.6,168.6,652.6,173.6z"/>
</g>
<g>
	<path d="M246.5,415.7c0,5.6-0.7,10.6-2.2,15.1c-1.4,4.5-3.5,8.5-6,12c-2.6,3.5-5.6,6.5-9.2,9c-3.5,2.5-7.5,4.6-11.7,6.2
		c-4.3,1.6-8.8,2.8-13.7,3.6c-4.8,0.8-10.2,1.2-16.2,1.2h-39.4c-2.5,0-4.6-0.8-6.4-2.4c-1.7-1.6-2.6-4.1-2.6-7.7V316
		c0-3.6,0.9-6.1,2.6-7.7c1.7-1.6,3.8-2.4,6.4-2.4h37.2c9.1,0,16.8,0.8,23.1,2.4c6.3,1.6,11.6,4.1,15.9,7.3c4.3,3.3,7.6,7.4,9.9,12.4
		c2.3,5,3.4,10.9,3.4,17.7c0,3.8-0.5,7.4-1.4,10.7c-0.9,3.4-2.3,6.4-4,9.1c-1.8,2.7-3.9,5.2-6.5,7.3c-2.6,2.1-5.5,3.8-8.8,5.1
		c4.2,0.8,8.1,2.2,11.6,4.2c3.5,2,6.6,4.6,9.3,7.8c2.6,3.2,4.7,6.9,6.2,11.2C245.8,405.5,246.5,410.3,246.5,415.7z M207.6,349.6
		c0-3.2-0.5-6-1.4-8.5c-0.9-2.5-2.3-4.6-4.1-6.2c-1.8-1.7-4.1-2.9-6.9-3.8c-2.8-0.9-6.5-1.3-11.2-1.3h-15.2v40.7h16.8
		c4.3,0,7.8-0.5,10.4-1.6c2.6-1.1,4.7-2.6,6.5-4.5c1.7-1.9,3-4.1,3.8-6.7C207.2,355.2,207.6,352.5,207.6,349.6z M215.3,416.8
		c0-3.6-0.6-6.9-1.7-9.8c-1.1-2.9-2.8-5.3-5-7.2c-2.2-1.9-5-3.4-8.5-4.5c-3.4-1-7.9-1.6-13.4-1.6h-17.8v44.6h21.7
		c4.2,0,7.7-0.5,10.6-1.4c2.9-0.9,5.3-2.3,7.4-4.1c2.1-1.8,3.7-4.1,4.9-6.8C214.7,423.3,215.3,420.2,215.3,416.8z"/>
	<path d="M363.8,458.7c0,0.8-0.2,1.5-0.6,2.1c-0.4,0.6-1.2,1.1-2.3,1.5c-1.1,0.4-2.6,0.6-4.5,0.8c-1.9,0.2-4.4,0.3-7.4,0.3
		c-3.1,0-5.7-0.1-7.6-0.2c-1.9-0.2-3.5-0.4-4.8-0.8c-1.3-0.4-2.2-0.9-2.9-1.5c-0.7-0.6-1.3-1.5-1.8-2.5l-34-57v57.2
		c0,0.8-0.2,1.5-0.7,2.1c-0.5,0.6-1.2,1.1-2.3,1.5c-1.1,0.4-2.6,0.7-4.4,0.9c-1.8,0.2-4.2,0.3-7,0.3c-2.8,0-5.1-0.1-7-0.3
		c-1.8-0.2-3.3-0.5-4.4-0.9c-1.1-0.4-1.9-0.9-2.3-1.5c-0.5-0.6-0.7-1.3-0.7-2.1V299.2c0-0.8,0.2-1.5,0.7-2.2
		c0.5-0.6,1.2-1.2,2.3-1.6c1.1-0.4,2.6-0.8,4.4-1c1.8-0.2,4.2-0.4,7-0.4c2.8,0,5.1,0.1,7,0.4c1.8,0.2,3.3,0.6,4.4,1
		c1.1,0.4,1.9,1,2.3,1.6c0.5,0.6,0.7,1.4,0.7,2.2v94.9l30.2-43c0.6-1,1.3-1.8,2.1-2.5c0.8-0.7,1.8-1.3,3-1.7
		c1.3-0.4,2.8-0.7,4.7-0.9c1.9-0.2,4.3-0.3,7.2-0.3c2.8,0,5.2,0.1,7.2,0.3c1.9,0.2,3.5,0.5,4.7,0.9c1.2,0.4,2,0.9,2.5,1.5
		c0.5,0.6,0.7,1.4,0.7,2.2c0,1.2-0.3,2.5-0.9,3.9c-0.6,1.4-1.4,2.8-2.6,4.4l-29.9,35.9l34.6,56.6c0.9,1.6,1.6,3,2,4.2
		C363.6,456.7,363.8,457.7,363.8,458.7z"/>
	<path d="M473.4,358c0,3.9-0.4,6.7-1.3,8.6c-0.8,1.9-1.9,2.8-3.1,2.8h-12c1.7,1.9,2.9,4.1,3.6,6.6c0.7,2.5,1.1,5,1.1,7.7
		c0,6.3-1,11.9-3,16.8c-2,4.9-4.8,9-8.5,12.4c-3.7,3.4-8.2,5.9-13.4,7.6c-5.2,1.7-11,2.6-17.4,2.6c-3.3,0-6.4-0.4-9.4-1.3
		c-3-0.8-5.3-1.8-6.9-3c-0.9,1.1-1.7,2.3-2.5,3.8c-0.7,1.5-1.1,3.1-1.1,4.8c0,2.3,1,4.3,2.9,5.8c1.9,1.5,4.7,2.3,8.2,2.5l24.8,1
		c5.8,0.2,11,1.1,15.5,2.6c4.5,1.5,8.4,3.6,11.4,6.3c3.1,2.7,5.5,6,7.1,9.8c1.6,3.8,2.5,8.1,2.5,13c0,5.3-1.1,10.4-3.3,15.1
		c-2.2,4.7-5.5,8.8-10,12.3c-4.4,3.5-10,6.2-16.6,8.2c-6.7,2-14.5,3-23.4,3c-8.7,0-16.1-0.7-22.3-2.2c-6.1-1.5-11.2-3.5-15.1-6.1
		c-3.9-2.6-6.8-5.7-8.6-9.3c-1.8-3.6-2.7-7.5-2.7-11.8c0-2.7,0.3-5.2,1-7.6c0.6-2.4,1.6-4.7,2.9-7c1.3-2.2,2.8-4.3,4.6-6.4
		c1.8-2,3.9-4,6.3-5.8c-3.3-1.9-5.8-4.4-7.6-7.6c-1.8-3.2-2.7-6.7-2.7-10.5c0-4.8,1-9.1,3.1-13c2.1-3.9,4.7-7.5,8-10.6
		c-2.7-2.8-4.8-6.2-6.4-10.2c-1.6-4-2.4-8.9-2.4-14.8c0-6.3,1-11.9,3.1-16.9c2.1-5,5-9.2,8.8-12.6c3.7-3.4,8.2-6.1,13.4-7.9
		c5.2-1.8,10.9-2.7,17.2-2.7c3.2,0,6.3,0.2,9.2,0.6c2.9,0.4,5.7,1,8.2,1.7h32.4c1.3,0,2.3,0.9,3.1,2.7
		C473,350.8,473.4,353.8,473.4,358z M443.2,469.8c0-3.6-1.4-6.4-4.1-8.4c-2.7-1.9-6.5-3-11.3-3.2l-20.5-0.6c-2,1.5-3.6,3-4.7,4.4
		s-2.1,2.8-2.9,4.1c-0.7,1.3-1.2,2.5-1.4,3.8s-0.3,2.5-0.3,3.8c0,4,1.9,7.1,5.8,9.2c3.9,2.1,9.3,3.2,16.3,3.2c4.3,0,8-0.5,11-1.4
		c3-0.9,5.4-2.2,7.2-3.7c1.8-1.5,3.1-3.3,3.9-5.1C442.8,473.9,443.2,471.9,443.2,469.8z M436.5,383.6c0-5.8-1.5-10.3-4.6-13.6
		c-3.1-3.2-7.4-4.8-12.9-4.8c-2.8,0-5.3,0.5-7.4,1.5c-2.1,1-3.9,2.4-5.3,4.1c-1.4,1.7-2.5,3.8-3.1,6.1c-0.7,2.3-1,4.7-1,7.2
		c0,5.5,1.5,9.8,4.6,13c3.1,3.2,7.3,4.8,12.7,4.8c2.9,0,5.4-0.5,7.6-1.5c2.1-1,3.9-2.3,5.3-4c1.4-1.7,2.5-3.7,3.2-5.9
		C436.1,388.3,436.5,386,436.5,383.6z"/>
	<path d="M558.1,360.5c0,2.9-0.1,5.3-0.2,7.1c-0.2,1.9-0.4,3.3-0.7,4.4c-0.3,1.1-0.7,1.8-1.2,2.2c-0.5,0.4-1.1,0.6-1.9,0.6
		c-0.6,0-1.3-0.1-2.1-0.4c-0.8-0.3-1.6-0.6-2.6-0.9c-1-0.3-2-0.6-3.1-0.9c-1.1-0.3-2.4-0.4-3.8-0.4c-1.6,0-3.2,0.3-4.8,1
		c-1.6,0.7-3.3,1.8-5,3.2c-1.7,1.5-3.5,3.4-5.4,5.8s-3.9,5.4-6,9v67.4c0,0.8-0.2,1.5-0.7,2.1c-0.5,0.6-1.2,1.1-2.3,1.5
		c-1.1,0.4-2.6,0.7-4.4,0.9c-1.8,0.2-4.2,0.3-7,0.3c-2.8,0-5.1-0.1-7-0.3c-1.8-0.2-3.3-0.5-4.4-0.9c-1.1-0.4-1.9-0.9-2.3-1.5
		c-0.5-0.6-0.7-1.3-0.7-2.1V350.5c0-0.8,0.2-1.5,0.6-2.1c0.4-0.6,1.1-1.1,2.1-1.5c1-0.4,2.3-0.7,3.8-0.9c1.6-0.2,3.5-0.3,5.9-0.3
		c2.4,0,4.5,0.1,6.1,0.3c1.6,0.2,2.8,0.5,3.7,0.9c0.9,0.4,1.5,0.9,1.9,1.5c0.4,0.6,0.6,1.3,0.6,2.1v13.5c2.7-4,5.2-7.4,7.6-10
		c2.4-2.6,4.6-4.7,6.8-6.2c2.1-1.5,4.3-2.6,6.4-3.2c2.1-0.6,4.3-0.9,6.4-0.9c1,0,2.1,0.1,3.2,0.2c1.1,0.1,2.3,0.3,3.5,0.6
		c1.2,0.3,2.3,0.6,3.2,1c0.9,0.4,1.6,0.7,2,1.2c0.4,0.4,0.7,0.8,0.9,1.3c0.2,0.5,0.4,1.2,0.5,2c0.2,0.8,0.3,2.1,0.3,3.8
		C558.1,355.3,558.1,357.6,558.1,360.5z"/>
</g>
</svg>
