<svg xmlns="http://www.w3.org/2000/svg" id="Layer_1" viewBox="0 0 983.22 870.1" width="983.22" height="870.1"><defs><style>.cls-1{fill:#464646}</style></defs><rect width="423.69" height="172.61" x="560.37" y="124.14" class="cls-1" rx="11.43" ry="11.43" transform="rotate(-135 772.21 210.441)"/><path d="M828.26 440.93L541.73 154.39a11.42 11.42 0 0 0-14.28-1.52l-182 122.23a11.43 11.43 0 0 0-4.18 4.84L117.94 782.83a11.43 11.43 0 0 0 2.31 12.84l11.93 11.93c.22-.26.3-.58.54-.82l239.89-239.89A47 47 0 1 1 415.77 610L175.88 849.93c-.24.24-.56.33-.82.54L187 862.4a11.43 11.43 0 0 0 12.84 2.31l502.87-223.32a11.42 11.42 0 0 0 4.84-4.18l122.23-182a11.43 11.43 0 0 0-1.52-14.28z" class="cls-1"/><path d="M131.57 861a14.25 14.25 0 0 1-5.12-.95C62.22 835.48 23 798.29 9.79 749.48-14.77 658.61 61.35 562.7 64.6 558.66c.25-.35 49.67-66.53 38.5-138.16-6.18-39.6-29.88-74.14-70.44-102.65a14.34 14.34 0 1 1 16.49-23.46c47.27 33.22 75 74.24 82.33 121.93 12.95 83.81-42 157-44.31 160-.92 1.17-70.47 89-49.67 165.75 10.69 39.4 44.06 70.07 99.19 91.13a14.34 14.34 0 0 1-5.12 27.8z" class="cls-1"/></svg>