<?xml version="1.0" ?><svg id="Layer_1" style="enable-background:new 0 0 24 24;" version="1.1" viewBox="0 0 24 24" xml:space="preserve" xmlns="http://www.w3.org/2000/svg" xmlns:xlink="http://www.w3.org/1999/xlink"><path d="M15.886,3.023l0.433,0.147l0.145,0.439C16.541,3.842,16.757,4,17,4  c0.243,0,0.459-0.158,0.535-0.391L17.68,3.17l0.434-0.147C18.344,2.945,18.5,2.727,18.5,2.48c0-0.246-0.156-0.465-0.385-0.543  L17.68,1.791l-0.145-0.44c-0.154-0.468-0.919-0.467-1.071,0l-0.145,0.44l-0.433,0.147C15.655,2.015,15.5,2.234,15.5,2.48  C15.5,2.727,15.655,2.945,15.886,3.023z M22.643,3.481l-0.86-0.29l-0.287-0.868c-0.142-0.431-0.849-0.431-0.991,0l-0.287,0.868  l-0.861,0.29C19.144,3.553,19,3.754,19,3.981c0,0.227,0.144,0.428,0.357,0.5l0.861,0.29l0.287,0.868C20.576,5.855,20.775,6,21,6  c0.225,0,0.424-0.145,0.495-0.36l0.287-0.868l0.86-0.29C22.856,4.41,23,4.208,23,3.981C23,3.754,22.856,3.553,22.643,3.481z   M21.658,9.197l-0.384-0.128l-0.128-0.384c-0.137-0.409-0.813-0.408-0.948,0l-0.128,0.384l-0.384,0.128  c-0.204,0.068-0.342,0.259-0.342,0.474c0,0.215,0.138,0.406,0.342,0.474l0.384,0.128l0.128,0.384C20.265,10.862,20.456,11,20.671,11  c0.215,0,0.406-0.138,0.474-0.341l0.128-0.385l0.385-0.128C21.862,10.078,22,9.886,22,9.671C22,9.456,21.862,9.265,21.658,9.197z   M15.586,5.586l-14,14C1.208,19.963,1,20.465,1,21c0,0.534,0.208,1.036,0.586,1.414C1.964,22.792,2.466,23,3,23  c0.534,0,1.036-0.208,1.414-0.586l14-14C18.792,8.036,19,7.534,19,7c0-0.535-0.208-1.037-0.586-1.414  C17.658,4.83,16.342,4.83,15.586,5.586z M17.707,7.707L17,8.414L15.586,7l0.707-0.707c0.378-0.378,1.036-0.378,1.414,0  C17.896,6.482,18,6.733,18,7C18,7.267,17.896,7.518,17.707,7.707z" id="XMLID_76_" style="fill:#303C42;"/><g/><g/><g/><g/><g/><g/><g/><g/><g/><g/><g/><g/><g/><g/><g/></svg>