<?xml version="1.0" encoding="UTF-8" standalone="no"?>
<svg
   viewBox="0 0 32 32"
   xml:space="preserve"
   enable-background="new 0 0 32 32"
   version="1.1"
   id="svg4"
   sodipodi:docname="3d_dark.svg"
   inkscape:version="1.2.2 (732a01da63, 2022-12-09)"
   xmlns:inkscape="http://www.inkscape.org/namespaces/inkscape"
   xmlns:sodipodi="http://sodipodi.sourceforge.net/DTD/sodipodi-0.dtd"
   xmlns="http://www.w3.org/2000/svg"
   xmlns:svg="http://www.w3.org/2000/svg"><defs
     id="defs8" /><sodipodi:namedview
     id="namedview6"
     pagecolor="#ffffff"
     bordercolor="#666666"
     borderopacity="1.0"
     inkscape:pageshadow="2"
     inkscape:pageopacity="0.0"
     inkscape:pagecheckerboard="0"
     showgrid="false"
     inkscape:zoom="23.53125"
     inkscape:cx="13.641434"
     inkscape:cy="15.978752"
     inkscape:window-width="1920"
     inkscape:window-height="1137"
     inkscape:window-x="-8"
     inkscape:window-y="-8"
     inkscape:window-maximized="1"
     inkscape:current-layer="svg4"
     inkscape:showpageshadow="2"
     inkscape:deskcolor="#d1d1d1" /><path
     style="fill:#4d4d4d;stroke:#f0f0f0;stroke-width:0;stroke-linecap:round;stroke-linejoin:round;stroke-dashoffset:17;fill-opacity:1"
     d="M 3.311006,8.0339475 C 2.3585885,8.1460719 1.5810694,8.998183 1.5481408,9.9555943 c -0.071305,2.4482427 -0.028548,4.8987797 -0.042165,7.3479417 0.00825,1.967005 -0.016519,3.935623 0.01243,5.901617 0.032049,0.878139 0.7208367,1.625099 1.5548815,1.842356 3.5958852,1.278623 7.1853737,2.578367 10.7853047,3.843657 0.959296,0.323099 2.092099,-0.223295 2.445992,-1.169817 0.255599,-0.70924 0.103422,-1.480451 0.146747,-2.218359 -0.0032,-3.898389 0.03688,-7.797358 -0.01483,-11.695387 C 16.39312,12.930966 15.726482,12.174553 14.88966,11.948618 11.313666,10.658761 7.73393,9.3760143 4.1486232,8.1141675 3.8778583,8.0288162 3.5928738,8.0077635 3.311006,8.0339475 Z"
     id="path862" /><path
     style="fill:#4d4d4d;stroke:#f0f0f0;stroke-width:0;stroke-linecap:round;stroke-linejoin:round;stroke-dashoffset:17;fill-opacity:1"
     d="M 15.658532,2.5127822 C 14.645255,2.7876149 13.670918,3.1944281 12.675375,3.5277451 10.381672,4.3531552 8.0759469,5.1485934 5.7972984,6.0138241 4.9042798,6.3987574 4.4015976,7.4766864 4.6943838,8.4066152 c 0.201277,0.7238619 0.838984,1.2369201 1.5451125,1.4351 3.0459169,1.1081758 6.0930117,2.2148938 9.1586607,3.2671828 0.675582,0.218116 1.355885,-0.04534 1.987698,-0.276029 2.935984,-1.03384 5.876552,-2.057342 8.790772,-3.1509303 0.923848,-0.3840523 1.444991,-1.5093666 1.110636,-2.457333 C 27.077545,6.5113523 26.431298,6.0298921 25.738639,5.8310218 22.691216,4.7254776 19.643459,3.6189925 16.577274,2.5667331 16.277984,2.4836069 15.965439,2.4730418 15.658532,2.5127822 Z"
     id="path901" /><path
     style="fill:#4d4d4d;stroke:#f0f0f0;stroke-width:0;stroke-linecap:round;stroke-linejoin:round;stroke-dashoffset:17;fill-opacity:1"
     d="m 28.320966,8.0282204 c -0.736431,0.086611 -1.40472,0.4472731 -2.108563,0.6613526 -3.136144,1.1255298 -6.28044,2.231453 -9.411035,3.370511 -0.83439,0.317055 -1.328027,1.225454 -1.250659,2.09878 -0.0016,4.309196 -0.02523,8.619435 -0.01293,12.927979 0.01675,1.012119 0.910937,1.896558 1.921311,1.913164 0.723174,0.0091 1.366339,-0.386261 2.045573,-0.584975 3.244246,-1.168734 6.498889,-2.311553 9.738963,-3.489967 0.835477,-0.317426 1.329585,-1.227784 1.250402,-2.10219 -0.01068,-4.162768 0.02327,-8.325916 -0.02219,-12.488441 C 30.498636,9.5557674 30.17222,8.7407263 29.482882,8.3308334 29.138428,8.1113858 28.727105,8.0182998 28.320966,8.0282204 Z"
     id="path940" /><path
     d="M31.5 7.84a1.535 1.535 0 0 0-.996-1.412l-14-5a1.515 1.515 0 0 0-1.008 0l-14 5A1.535 1.535 0 0 0 .5 7.84v16.322c.007.622.408 1.2.996 1.411l14 5c.32.112.688.114 1.008 0l14-5a1.55 1.55 0 0 0 .86-.793c.085-.196.126-.405.136-.618V7.841zm-28 2.13 11 3.928v13.135l-11-3.93V9.97zm14 3.928 11-3.928v13.134l-11 3.929V13.898zM16 4.434l9.54 3.407L16 11.248 6.46 7.841 16 4.434z"
     fill="#f0f0f0"
     class="fill-000000"
     id="path2" /></svg>
