<?xml version="1.0" encoding="UTF-8" standalone="no"?>
<!-- Generator: Adobe Illustrator 21.0.2, SVG Export Plug-In . SVG Version: 6.00 Build 0)  -->

<svg
   version="1.1"
   id="Layer_1"
   x="0px"
   y="0px"
   viewBox="0 0 680.3 680.3"
   style="enable-background:new 0 0 680.3 680.3;"
   xml:space="preserve"
   sodipodi:docname="add_crop_ROI.svg"
   inkscape:version="1.3 (0e150ed6c4, 2023-07-21)"
   xmlns:inkscape="http://www.inkscape.org/namespaces/inkscape"
   xmlns:sodipodi="http://sodipodi.sourceforge.net/DTD/sodipodi-0.dtd"
   xmlns="http://www.w3.org/2000/svg"
   xmlns:svg="http://www.w3.org/2000/svg"><defs
   id="defs6" /><sodipodi:namedview
   id="namedview6"
   pagecolor="#ffffff"
   bordercolor="#000000"
   borderopacity="0.25"
   inkscape:showpageshadow="2"
   inkscape:pageopacity="0.0"
   inkscape:pagecheckerboard="0"
   inkscape:deskcolor="#d1d1d1"
   inkscape:zoom="1.3214758"
   inkscape:cx="339.77164"
   inkscape:cy="340.15001"
   inkscape:window-width="1920"
   inkscape:window-height="1137"
   inkscape:window-x="-8"
   inkscape:window-y="-8"
   inkscape:window-maximized="1"
   inkscape:current-layer="Layer_1"
   showgrid="false" />&#10;<style
   type="text/css"
   id="style1">&#10;	.st0{fill:none;stroke:#787878;stroke-width:55;stroke-linecap:round;stroke-linejoin:round;stroke-miterlimit:10;}&#10;	.st1{fill:#FFFFFF;}&#10;	.st2{fill:#4D4D4E;stroke:#FFFFFF;stroke-miterlimit:10;}&#10;</style>&#10;<path
   id="rect1"
   style="fill:none;stroke:#f00000;stroke-width:55;stroke-linecap:round;stroke-linejoin:round;stroke-miterlimit:10"
   class="st0"
   d="m 74,139.89999 h 532 v 436 H 74 Z" />&#10;<rect
   x="364"
   y="23.9"
   class="st1"
   width="307"
   height="316.3"
   id="rect2" />&#10;<g
   id="g2">&#10;	<path
   class="st2"
   d="M652.6,173.6c0,5.2-0.3,9.6-0.8,13.1c-0.6,3.5-1.4,6.4-2.5,8.5s-2.4,3.7-3.9,4.6c-1.5,0.9-3.1,1.4-4.7,1.4H554   v94.4c0,1.9-0.5,3.5-1.4,4.9s-2.5,2.6-4.7,3.6s-5.2,1.8-8.9,2.4s-8.4,0.8-13.9,0.8s-10.2-0.3-13.9-0.8c-3.7-0.6-6.7-1.3-8.9-2.4   c-2.2-1-3.9-2.2-4.9-3.6s-1.5-3-1.5-4.9v-94.4h-86.3c-1.7,0-3.2-0.5-4.6-1.4s-2.6-2.5-3.8-4.6c-1.1-2.1-2-5-2.6-8.5   c-0.7-3.5-1-7.9-1-13.1c0-5,0.3-9.3,0.8-13c0.6-3.6,1.3-6.5,2.4-8.6c1-2.1,2.2-3.7,3.5-4.6c1.3-0.9,2.8-1.4,4.5-1.4H496V51.9   c0-1.9,0.5-3.6,1.5-5.2c1-1.6,2.6-2.9,4.9-3.9c2.2-1,5.2-1.8,8.9-2.4c3.7-0.6,8.4-0.8,13.9-0.8s10.2,0.3,13.9,0.8   c3.7,0.6,6.7,1.3,8.9,2.4c2.2,1,3.8,2.3,4.7,3.9c0.9,1.6,1.4,3.3,1.4,5.2V146h87.5c1.5,0,2.9,0.5,4.3,1.4c1.4,0.9,2.6,2.5,3.6,4.6   s1.8,5,2.4,8.6C652.3,164.3,652.6,168.6,652.6,173.6z"
   id="path2" />&#10;</g>&#10;<g
   id="g6">&#10;	&#10;	&#10;	&#10;	&#10;</g>&#10;<text
   xml:space="preserve"
   style="font-weight:bold;font-size:180.472px;font-family:sans-serif;-inkscape-font-specification:'sans-serif Bold';fill:#4d4d4d;fill-opacity:1;stroke:none;stroke-width:10.061;stroke-opacity:1"
   x="104.23202"
   y="468.23077"
   id="text6"><tspan
     sodipodi:role="line"
     id="tspan6"
     x="104.23202"
     y="468.23077"
     style="stroke-width:10.061">Crop</tspan></text></svg>
