<?xml version="1.0" encoding="UTF-8" standalone="no"?>
<!-- Generator: Adobe Illustrator 21.0.2, SVG Export Plug-In . SVG Version: 6.00 Build 0)  -->

<svg
   version="1.1"
   id="Layer_1"
   x="0px"
   y="0px"
   viewBox="0 0 680.3 680.3"
   style="enable-background:new 0 0 680.3 680.3;"
   xml:space="preserve"
   sodipodi:docname="add_crop_ROI_dark.svg"
   inkscape:version="1.3 (0e150ed6c4, 2023-07-21)"
   xmlns:inkscape="http://www.inkscape.org/namespaces/inkscape"
   xmlns:sodipodi="http://sodipodi.sourceforge.net/DTD/sodipodi-0.dtd"
   xmlns="http://www.w3.org/2000/svg"
   xmlns:svg="http://www.w3.org/2000/svg"><defs
   id="defs6" /><sodipodi:namedview
   id="namedview6"
   pagecolor="#ffffff"
   bordercolor="#000000"
   borderopacity="0.25"
   inkscape:showpageshadow="2"
   inkscape:pageopacity="0.0"
   inkscape:pagecheckerboard="0"
   inkscape:deskcolor="#d1d1d1"
   inkscape:zoom="0.6607379"
   inkscape:cx="-48.430701"
   inkscape:cy="117.29311"
   inkscape:window-width="1920"
   inkscape:window-height="1137"
   inkscape:window-x="-8"
   inkscape:window-y="-8"
   inkscape:window-maximized="1"
   inkscape:current-layer="Layer_1"
   showgrid="false" />&#10;<style
   type="text/css"
   id="style1">&#10;	.st0{fill:none;stroke:#787878;stroke-width:55;stroke-linecap:round;stroke-linejoin:round;stroke-miterlimit:10;}&#10;	.st1{fill:#FFFFFF;}&#10;	.st2{fill:#4D4D4E;stroke:#FFFFFF;stroke-miterlimit:10;}&#10;</style>&#10;&#10;&#10;<g
   id="g2"
   style="fill:#d9d9d9;fill-opacity:1">&#10;	<path
   class="st2"
   d="M652.6,173.6c0,5.2-0.3,9.6-0.8,13.1c-0.6,3.5-1.4,6.4-2.5,8.5s-2.4,3.7-3.9,4.6c-1.5,0.9-3.1,1.4-4.7,1.4H554   v94.4c0,1.9-0.5,3.5-1.4,4.9s-2.5,2.6-4.7,3.6s-5.2,1.8-8.9,2.4s-8.4,0.8-13.9,0.8s-10.2-0.3-13.9-0.8c-3.7-0.6-6.7-1.3-8.9-2.4   c-2.2-1-3.9-2.2-4.9-3.6s-1.5-3-1.5-4.9v-94.4h-86.3c-1.7,0-3.2-0.5-4.6-1.4s-2.6-2.5-3.8-4.6c-1.1-2.1-2-5-2.6-8.5   c-0.7-3.5-1-7.9-1-13.1c0-5,0.3-9.3,0.8-13c0.6-3.6,1.3-6.5,2.4-8.6c1-2.1,2.2-3.7,3.5-4.6c1.3-0.9,2.8-1.4,4.5-1.4H496V51.9   c0-1.9,0.5-3.6,1.5-5.2c1-1.6,2.6-2.9,4.9-3.9c2.2-1,5.2-1.8,8.9-2.4c3.7-0.6,8.4-0.8,13.9-0.8s10.2,0.3,13.9,0.8   c3.7,0.6,6.7,1.3,8.9,2.4c2.2,1,3.8,2.3,4.7,3.9c0.9,1.6,1.4,3.3,1.4,5.2V146h87.5c1.5,0,2.9,0.5,4.3,1.4c1.4,0.9,2.6,2.5,3.6,4.6   s1.8,5,2.4,8.6C652.3,164.3,652.6,168.6,652.6,173.6z"
   id="path2"
   style="fill:#d9d9d9;fill-opacity:1" />&#10;</g>&#10;<g
   id="g6">&#10;	&#10;	&#10;	&#10;	&#10;</g>&#10;<g
   aria-label="ROI"
   id="text351"
   style="font-weight:bold;font-size:242.944px;font-family:Helvetica;-inkscape-font-specification:'Helvetica Bold';text-align:center;text-anchor:middle;fill:#d9d9d9;stroke:#ff0000;stroke-width:0;fill-opacity:1"><path
     d="m 130.94679,488.23705 c 0,11.90425 7.7742,19.92141 19.9214,19.92141 12.1472,0 19.92141,-8.01716 19.92141,-19.92141 v -51.26119 h 39.35693 c 21.86496,0 27.45267,12.39015 27.45267,43.00109 0,7.04538 1.70061,28.18151 23.56557,28.18151 9.23187,0 18.70669,-6.31655 18.70669,-15.54842 0,-8.2601 -5.34477,-15.79136 -5.34477,-35.95571 0,-17.73491 -3.64416,-32.5545 -24.05146,-35.46983 v -0.48588 c 18.94964,-4.373 30.12506,-23.07969 30.12506,-42.02932 0,-22.59379 -12.63309,-48.5888 -60.00717,-48.5888 h -66.32371 c -14.09075,0 -23.32262,5.58771 -23.32262,23.32263 z m 39.84281,-127.5456 h 41.05754 c 17.49197,0 28.91033,4.85888 28.91033,23.56556 0,19.67847 -15.06252,23.56557 -30.12505,23.56557 H 170.7896 Z"
     id="path1416"
     style="fill:#d9d9d9;fill-opacity:1" /><path
     d="m 303.19389,415.35385 c 0,52.96179 25.75207,93.77638 88.43162,93.77638 59.76422,0 88.43162,-44.45875 88.43162,-93.77638 0,-51.26119 -31.09684,-89.4034 -88.43162,-89.4034 -57.33478,0 -88.43162,38.14221 -88.43162,89.4034 z m 39.84282,0 c 0,-33.52628 16.0343,-57.33479 48.5888,-57.33479 32.5545,0 48.5888,23.80851 48.5888,57.33479 0,33.52627 -12.39014,61.70777 -48.5888,61.70777 -37.41338,0 -48.5888,-28.1815 -48.5888,-61.70777 z"
     id="path1418"
     style="fill:#d9d9d9;fill-opacity:1" /><path
     d="m 509.2104,488.23705 c 0,11.90425 7.7742,19.92141 19.9214,19.92141 12.1472,0 19.92141,-8.01716 19.92141,-19.92141 V 346.84364 c 0,-11.90426 -7.77421,-19.92141 -19.92141,-19.92141 -12.1472,0 -19.9214,8.01715 -19.9214,19.92141 z"
     id="path1420"
     style="fill:#d9d9d9;fill-opacity:1" /></g><path
   id="path364"
   style="fill:none;stroke:#ff0000;stroke-width:55;stroke-linecap:round;stroke-linejoin:round;stroke-dasharray:none;stroke-opacity:1"
   d="M 606.98879,575.89999 V 329.6991 M 334,139.89999 H 74.98879 v 436 h 532" /></svg>
