<?xml version="1.0" encoding="UTF-8" standalone="no"?>
<!-- Generator: Adobe Illustrator 21.0.2, SVG Export Plug-In . SVG Version: 6.00 Build 0)  -->

<svg
   version="1.1"
   id="Layer_1"
   x="0px"
   y="0px"
   viewBox="0 0 680.3 680.3"
   style="enable-background:new 0 0 680.3 680.3;"
   xml:space="preserve"
   sodipodi:docname="addCustomDelRoi.svg"
   inkscape:version="1.1.2 (b8e25be8, 2022-02-05)"
   xmlns:inkscape="http://www.inkscape.org/namespaces/inkscape"
   xmlns:sodipodi="http://sodipodi.sourceforge.net/DTD/sodipodi-0.dtd"
   xmlns="http://www.w3.org/2000/svg"
   xmlns:svg="http://www.w3.org/2000/svg"><defs
   id="defs839"><inkscape:path-effect
     effect="spiro"
     id="path-effect956"
     is_visible="true"
     lpeversion="1" /></defs><sodipodi:namedview
   id="namedview837"
   pagecolor="#ffffff"
   bordercolor="#666666"
   borderopacity="1.0"
   inkscape:pageshadow="2"
   inkscape:pageopacity="0.0"
   inkscape:pagecheckerboard="0"
   showgrid="false"
   inkscape:zoom="0.52191662"
   inkscape:cx="449.30548"
   inkscape:cy="427.27131"
   inkscape:window-width="1680"
   inkscape:window-height="926"
   inkscape:window-x="0"
   inkscape:window-y="25"
   inkscape:window-maximized="1"
   inkscape:current-layer="Layer_1" />
<style
   type="text/css"
   id="style824">
	.st0{fill:none;stroke:#ED2024;stroke-width:55;stroke-linecap:round;stroke-linejoin:round;stroke-miterlimit:10;}
	.st1{fill:#FFFFFF;}
	.st2{fill:#4D4D4E;stroke:#FFFFFF;stroke-miterlimit:10;}
	.st3{fill:#EC2326;}
	.st4{font-family:'ArialMT';}
	.st5{font-size:400px;}
</style>
<path
   style="fill:none;stroke:#ff0000;stroke-width:52.91338583;stroke-linecap:butt;stroke-linejoin:miter;stroke-opacity:1;stroke-miterlimit:4;stroke-dasharray:none"
   d="m 214.59366,65.144505 c -42.02922,7.721237 -83.49141,27.187983 -109.21284,61.312475 -6.413645,8.50895 -11.791315,17.8615 -15.278319,27.93016 -3.487003,10.06866 -5.048926,20.87503 -3.881832,31.4663 1.958057,17.76918 11.374411,33.86905 22.259841,48.04949 10.88543,14.18045 23.4571,27.08327 33.30459,42.00321 24.54798,37.19269 30.16822,83.83245 28.74022,128.37299 -0.87952,27.43308 -4.1667,54.8111 -3.37406,82.24683 0.79264,27.43573 5.9739,55.48437 20.6182,78.69842 12.537,19.87357 31.54451,35.25549 52.81057,45.24999 21.26605,9.99451 44.73113,14.78646 68.19645,16.01695 46.93064,2.46096 93.30472,-8.95406 139.571,-17.1986 23.42604,-4.17446 47.04716,-7.56141 70.00874,-13.80408 22.96159,-6.24267 45.44943,-15.50273 64.1123,-30.26426 19.819,-15.67598 34.70372,-37.20408 43.7565,-60.79595 9.05278,-23.59187 12.39597,-49.18879 11.19475,-74.42936 C 635.01734,379.51794 614.88043,331.46651 590.13258,287.40223 552.09464,219.67454 501.50489,157.68545 436.46655,115.21265 371.42821,72.739856 290.99346,51.109009 214.59366,65.144505 Z"
   id="path954"
   inkscape:path-effect="#path-effect956"
   inkscape:original-d="M 214.59366,65.144505 C 89.413027,-8.9424027 141.7861,106.02049 105.38082,126.45698 c -36.405285,20.43649 -12.772435,39.59864 -19.160151,59.39646 -6.387717,19.79782 37.043951,60.03613 55.564431,90.0527 18.52048,30.01657 19.16115,85.583 28.74022,128.37299 9.57908,42.79 11.49709,107.29784 17.24414,160.94525 5.74704,53.64742 173.71968,29.3799 260.57802,44.06834 86.85834,14.68845 89.41502,-29.37789 134.12104,-44.06834 44.70601,-14.69044 5.11037,-185.21377 7.66406,-277.82215 C 592.68626,194.79384 339.7743,139.23141 214.59366,65.144505 Z" />
<rect
   x="364"
   y="23.9"
   class="st1"
   width="307"
   height="316.3"
   id="rect828" />

<text
   transform="matrix(1.245 0 0 1 224.001 478.89)"
   class="st3 st4 st5"
   id="text834">x</text>
<g
   id="g832">
	<path
   class="st2"
   d="M652.6,173.6c0,5.2-0.3,9.6-0.8,13.1c-0.6,3.5-1.4,6.4-2.5,8.5c-1.1,2.1-2.4,3.7-3.9,4.6   c-1.5,0.9-3.1,1.4-4.7,1.4H554v94.4c0,1.9-0.5,3.5-1.4,4.9c-0.9,1.4-2.5,2.6-4.7,3.6c-2.2,1-5.2,1.8-8.9,2.4   c-3.7,0.6-8.4,0.8-13.9,0.8s-10.2-0.3-13.9-0.8c-3.7-0.6-6.7-1.3-8.9-2.4c-2.2-1-3.9-2.2-4.9-3.6c-1-1.4-1.5-3-1.5-4.9v-94.4h-86.3   c-1.7,0-3.2-0.5-4.6-1.4c-1.4-0.9-2.6-2.5-3.8-4.6c-1.1-2.1-2-5-2.6-8.5c-0.7-3.5-1-7.9-1-13.1c0-5,0.3-9.3,0.8-13   c0.6-3.6,1.3-6.5,2.4-8.6c1-2.1,2.2-3.7,3.5-4.6c1.3-0.9,2.8-1.4,4.5-1.4h87.2V51.9c0-1.9,0.5-3.6,1.5-5.2c1-1.6,2.6-2.9,4.9-3.9   c2.2-1,5.2-1.8,8.9-2.4c3.7-0.6,8.4-0.8,13.9-0.8s10.2,0.3,13.9,0.8c3.7,0.6,6.7,1.3,8.9,2.4c2.2,1,3.8,2.3,4.7,3.9   c0.9,1.6,1.4,3.3,1.4,5.2v94.1h87.5c1.5,0,2.9,0.5,4.3,1.4c1.4,0.9,2.6,2.5,3.6,4.6c1,2.1,1.8,5,2.4,8.6   C652.3,164.3,652.6,168.6,652.6,173.6z"
   id="path830" />
</g></svg>
