<?xml version="1.0" encoding="UTF-8" standalone="no"?>
<!-- Generator: Adobe Illustrator 21.0.2, SVG Export Plug-In . SVG Version: 6.00 Build 0)  -->

<svg
   version="1.1"
   id="Layer_1"
   x="0px"
   y="0px"
   viewBox="0 0 680.3 680.3"
   style="enable-background:new 0 0 680.3 680.3;"
   xml:space="preserve"
   sodipodi:docname="addDelRoi_dark.svg"
   inkscape:version="1.2.2 (732a01da63, 2022-12-09)"
   xmlns:inkscape="http://www.inkscape.org/namespaces/inkscape"
   xmlns:sodipodi="http://sodipodi.sourceforge.net/DTD/sodipodi-0.dtd"
   xmlns="http://www.w3.org/2000/svg"
   xmlns:svg="http://www.w3.org/2000/svg"><defs
   id="defs17" /><sodipodi:namedview
   id="namedview15"
   pagecolor="#ffffff"
   bordercolor="#000000"
   borderopacity="0.25"
   inkscape:showpageshadow="2"
   inkscape:pageopacity="0.0"
   inkscape:pagecheckerboard="0"
   inkscape:deskcolor="#d1d1d1"
   showgrid="false"
   inkscape:zoom="0.98119772"
   inkscape:cx="269.05892"
   inkscape:cy="225.23493"
   inkscape:window-width="1920"
   inkscape:window-height="1137"
   inkscape:window-x="-8"
   inkscape:window-y="-8"
   inkscape:window-maximized="1"
   inkscape:current-layer="Layer_1" />
<style
   type="text/css"
   id="style2">
	.st0{fill:none;stroke:#ED2024;stroke-width:55;stroke-linecap:round;stroke-linejoin:round;stroke-miterlimit:10;}
	.st1{fill:#FFFFFF;}
	.st2{fill:#4D4D4E;stroke:#FFFFFF;stroke-miterlimit:10;}
	.st3{fill:#EC2326;}
	.st4{font-family:'ArialMT';}
	.st5{font-size:400px;}
</style>
<path
   id="rect4"
   class="st0"
   d="M 346.67424,139.90039 H 74 v 436 H 606 V 340.19922"
   sodipodi:nodetypes="ccccc" />

<g
   id="g10"
   style="fill:#f0f0f0;fill-opacity:1">
	<path
   class="st2"
   d="M652.6,173.6c0,5.2-0.3,9.6-0.8,13.1c-0.6,3.5-1.4,6.4-2.5,8.5c-1.1,2.1-2.4,3.7-3.9,4.6   c-1.5,0.9-3.1,1.4-4.7,1.4H554v94.4c0,1.9-0.5,3.5-1.4,4.9c-0.9,1.4-2.5,2.6-4.7,3.6c-2.2,1-5.2,1.8-8.9,2.4   c-3.7,0.6-8.4,0.8-13.9,0.8s-10.2-0.3-13.9-0.8c-3.7-0.6-6.7-1.3-8.9-2.4c-2.2-1-3.9-2.2-4.9-3.6c-1-1.4-1.5-3-1.5-4.9v-94.4h-86.3   c-1.7,0-3.2-0.5-4.6-1.4c-1.4-0.9-2.6-2.5-3.8-4.6c-1.1-2.1-2-5-2.6-8.5c-0.7-3.5-1-7.9-1-13.1c0-5,0.3-9.3,0.8-13   c0.6-3.6,1.3-6.5,2.4-8.6c1-2.1,2.2-3.7,3.5-4.6c1.3-0.9,2.8-1.4,4.5-1.4h87.2V51.9c0-1.9,0.5-3.6,1.5-5.2c1-1.6,2.6-2.9,4.9-3.9   c2.2-1,5.2-1.8,8.9-2.4c3.7-0.6,8.4-0.8,13.9-0.8s10.2,0.3,13.9,0.8c3.7,0.6,6.7,1.3,8.9,2.4c2.2,1,3.8,2.3,4.7,3.9   c0.9,1.6,1.4,3.3,1.4,5.2v94.1h87.5c1.5,0,2.9,0.5,4.3,1.4c1.4,0.9,2.6,2.5,3.6,4.6c1,2.1,1.8,5,2.4,8.6   C652.3,164.3,652.6,168.6,652.6,173.6z"
   id="path8"
   style="fill:#f0f0f0;fill-opacity:1" />
</g>
<text
   transform="scale(1.1157957,0.89622142)"
   class="st3 st4 st5"
   id="text12"
   x="186.35591"
   y="508.42575"
   style="stroke-width:1.1158">x</text>
</svg>
