<?xml version="1.0" encoding="UTF-8" standalone="no"?>
<svg
   version="1.1"
   width="32"
   height="32"
   viewBox="0 0 32 32"
   id="svg6"
   sodipodi:docname="addPlotSpots.svg"
   inkscape:version="1.2.2 (732a01da63, 2022-12-09)"
   xmlns:inkscape="http://www.inkscape.org/namespaces/inkscape"
   xmlns:sodipodi="http://sodipodi.sourceforge.net/DTD/sodipodi-0.dtd"
   xmlns:xlink="http://www.w3.org/1999/xlink"
   xmlns="http://www.w3.org/2000/svg"
   xmlns:svg="http://www.w3.org/2000/svg"
   xmlns:rdf="http://www.w3.org/1999/02/22-rdf-syntax-ns#"
   xmlns:cc="http://creativecommons.org/ns#"
   xmlns:dc="http://purl.org/dc/elements/1.1/">
  <metadata
     id="metadata12">
    <rdf:RDF>
      <cc:Work
         rdf:about="">
        <dc:format>image/svg+xml</dc:format>
        <dc:type
           rdf:resource="http://purl.org/dc/dcmitype/StillImage" />
        <dc:title>pencil2</dc:title>
      </cc:Work>
    </rdf:RDF>
  </metadata>
  <defs
     id="defs10">
    <radialGradient
       inkscape:collect="always"
       xlink:href="#linearGradient1007"
       id="radialGradient861-5"
       cx="8.5882416"
       cy="16.154852"
       fx="8.5882416"
       fy="16.154852"
       r="2.2216778"
       gradientTransform="matrix(2.8503701,3.1863632,-2.9246488,2.9463926,1.3136821,-64.657724)"
       gradientUnits="userSpaceOnUse" />
    <linearGradient
       inkscape:collect="always"
       id="linearGradient1007">
      <stop
         style="stop-color:#fff000;stop-opacity:1"
         offset="0"
         id="stop1003" />
      <stop
         style="stop-color:#e0da00;stop-opacity:0.80784315"
         offset="0.4431904"
         id="stop1011" />
      <stop
         style="stop-color:#01bc00;stop-opacity:0.44979918"
         offset="0.70114923"
         id="stop1009" />
      <stop
         style="stop-color:#6759b3;stop-opacity:0"
         offset="1"
         id="stop1005" />
    </linearGradient>
  </defs>
  <sodipodi:namedview
     pagecolor="#ffffff"
     bordercolor="#666666"
     borderopacity="1"
     objecttolerance="10"
     gridtolerance="10"
     guidetolerance="10"
     inkscape:pageopacity="0"
     inkscape:pageshadow="2"
     inkscape:window-width="1920"
     inkscape:window-height="1017"
     id="namedview8"
     showgrid="false"
     inkscape:zoom="19.180271"
     inkscape:cx="9.5671224"
     inkscape:cy="11.782941"
     inkscape:window-x="-8"
     inkscape:window-y="-8"
     inkscape:window-maximized="1"
     inkscape:current-layer="svg6"
     inkscape:showpageshadow="2"
     inkscape:pagecheckerboard="0"
     inkscape:deskcolor="#d1d1d1" />
  <title
     id="title2">pencil2</title>
  <g
     id="g548"
     transform="translate(6.7722335,2.2011303)">
    <ellipse
       style="fill:url(#radialGradient861-5);fill-opacity:1;fill-rule:evenodd;stroke:none;stroke-width:0.608183;stroke-linecap:round;stroke-linejoin:round;stroke-miterlimit:4;stroke-dasharray:none"
       id="path853-3"
       cx="-21.545393"
       cy="9.8206863"
       rx="10.745234"
       ry="10.57435"
       transform="rotate(-90)" />
    <circle
       style="fill:#ff0000;fill-opacity:1;fill-rule:evenodd;stroke:none;stroke-width:2.8272;stroke-linecap:round;stroke-linejoin:round;stroke-opacity:1"
       id="path858"
       cx="10.33503"
       cy="21.661039"
       r="1.8910267" />
  </g>
  <path
     fill="#4d4d4d"
     d="M 11.870535,14.968066 11.304859,12.269327 5.1163608,1.6960418 3.5954979,2.5621122 9.7839951,13.135397 Z m 3.795889,2.901371 c -1.411012,0.251745 -2.21996,0.711862 -3.145904,1.791465 L 7.888039,16.44749 7.0608275,13.678671 1.7563979,4.6158571 0.8012111,8.1806652 6.1056408,17.24348 17.175121,24.030288 16.75168,11.180993 11.447251,2.1181783 7.8398523,1.151578 l 5.3044287,9.062814 2.017287,2.091119 z"
     id="path4"
     style="stroke-width:0.618757" />
  <g
     id="g10"
     transform="matrix(0.06144381,0,0,0.06144381,-8.2842778,-2.085059)"
     style="fill:#ff0000;fill-opacity:1;stroke:none">
	<path
   class="st2"
   d="m 652.6,173.6 c 0,5.2 -0.3,9.6 -0.8,13.1 -0.6,3.5 -1.4,6.4 -2.5,8.5 -1.1,2.1 -2.4,3.7 -3.9,4.6 -1.5,0.9 -3.1,1.4 -4.7,1.4 H 554 v 94.4 c 0,1.9 -0.5,3.5 -1.4,4.9 -0.9,1.4 -2.5,2.6 -4.7,3.6 -2.2,1 -5.2,1.8 -8.9,2.4 -3.7,0.6 -8.4,0.8 -13.9,0.8 -5.5,0 -10.2,-0.3 -13.9,-0.8 -3.7,-0.6 -6.7,-1.3 -8.9,-2.4 -2.2,-1 -3.9,-2.2 -4.9,-3.6 -1,-1.4 -1.5,-3 -1.5,-4.9 v -94.4 h -86.3 c -1.7,0 -3.2,-0.5 -4.6,-1.4 -1.4,-0.9 -2.6,-2.5 -3.8,-4.6 -1.1,-2.1 -2,-5 -2.6,-8.5 -0.7,-3.5 -1,-7.9 -1,-13.1 0,-5 0.3,-9.3 0.8,-13 0.6,-3.6 1.3,-6.5 2.4,-8.6 1,-2.1 2.2,-3.7 3.5,-4.6 1.3,-0.9 2.8,-1.4 4.5,-1.4 H 496 V 51.9 c 0,-1.9 0.5,-3.6 1.5,-5.2 1,-1.6 2.6,-2.9 4.9,-3.9 2.2,-1 5.2,-1.8 8.9,-2.4 3.7,-0.6 8.4,-0.8 13.9,-0.8 5.5,0 10.2,0.3 13.9,0.8 3.7,0.6 6.7,1.3 8.9,2.4 2.2,1 3.8,2.3 4.7,3.9 0.9,1.6 1.4,3.3 1.4,5.2 V 146 h 87.5 c 1.5,0 2.9,0.5 4.3,1.4 1.4,0.9 2.6,2.5 3.6,4.6 1,2.1 1.8,5 2.4,8.6 0.4,3.7 0.7,8 0.7,13 z"
   id="path8"
   style="fill:#ff0000;stroke:none;stroke-miterlimit:10;fill-opacity:1" />

</g>
</svg>
