<?xml version="1.0" ?><svg data-name="Layer 1" id="Layer_1" viewBox="0 0 512 512" xmlns="http://www.w3.org/2000/svg"><path d="M260.12,277a5.11,5.11,0,0,0,.67-.63,6,6,0,0,0,1.5-4,7,7,0,0,0-1.24-3.92,6.48,6.48,0,0,0-3.72-2.55l-.27-.05-6.89-21.06q-2.35-7-4.21-12.8-1.92-6-3.73-10.15a31.1,31.1,0,0,0-4-7c-2.28-2.86-4.7-3.46-6.33-3.46-2.3,0-4.41,1.18-6.29,3.51a33.37,33.37,0,0,0-4.1,7.07c-1.28,2.82-2.58,6.16-3.94,10s-2.68,7.93-4.13,12.46L197.78,293a7,7,0,0,0-.16,1.52,5.63,5.63,0,0,0,2.13,4.55,6.47,6.47,0,0,0,4,1.34c1.75,0,4.31-.66,6.53-3.75a3.26,3.26,0,0,0,.48-1l5.33-17.42h30.8l4.65,18.07a6.44,6.44,0,0,0,6.05,3.77c3.93,0,6.61-2.36,7-6.16a3.47,3.47,0,0,0-.1-1.2Zm-25.93-36.39,6.55,19.47c.53,1.69,1,3.31,1.55,4.88H220.7l10.83-32.1Q232.7,236.37,234.19,240.59Z"/><path d="M298.26,271.26c.17-4.44.33-9.17.49-14.12l.78-26.7c.05-2,.09-3.75.12-5.23.47,0,1,0,1.54,0,2.38.1,4.44.21,6.2.34,3.66.25,6.44-1.92,7-6.21a6.68,6.68,0,0,0-5.6-6.7c-1-.14-2.47-.29-4.54-.47s-9.79-.09-22.4.24c-6.84-.19-13.29.28-14.5,5-1,4.11.42,6.14,1.81,7.12a6.88,6.88,0,0,0,5.05,1.22,32.71,32.71,0,0,1,3.37-.21l6.61-.1,2.33,0c0,.58,0,1.2,0,1.88,0,2.26-.09,4.89-.2,7.92l-1,27.72q-.51,12.46-.68,18.32-.12,3.39-.24,5.93c-5.8-.1-9.53-.14-11.22-.14a7.6,7.6,0,0,0-3.75.95c-1.25.69-2.73,2.18-2.73,5.28-.06,1.4.33,4.84,5.31,6.54a3.19,3.19,0,0,0,1,.19l34.51.58a6.11,6.11,0,0,0,6.46-5.89,6.34,6.34,0,0,0-1.42-4.88,7.37,7.37,0,0,0-5.47-2.28l-9.59-.14c.12-1.26.21-2.69.29-4.28C297.94,279.67,298.11,275.7,298.26,271.26Z"/><path d="M431.89,312.77v-22.7a26.7,26.7,0,0,0-26.66-26.67H355.37V248.59h49.86a26.69,26.69,0,0,0,26.66-26.66v-22.7a29.65,29.65,0,1,0-13.38,0v22.7a13.3,13.3,0,0,1-13.28,13.29H355.37V180.66a24.06,24.06,0,0,0-24-24H276.77V106.78a13.3,13.3,0,0,1,13.29-13.29h22.72a29.65,29.65,0,1,0,0-13.38H290.06a26.7,26.7,0,0,0-26.66,26.67v49.85H248.6V106.78a26.7,26.7,0,0,0-26.67-26.67H199.22a29.65,29.65,0,1,0,0,13.38h22.71a13.3,13.3,0,0,1,13.29,13.29v49.85H180.66a24.06,24.06,0,0,0-24,24v54.56H106.77a13.29,13.29,0,0,1-13.28-13.29v-22.7a29.65,29.65,0,1,0-13.38,0v22.7a26.69,26.69,0,0,0,26.66,26.66h49.86V263.4H106.77a26.7,26.7,0,0,0-26.66,26.67v22.7a29.65,29.65,0,1,0,13.38,0v-22.7a13.29,13.29,0,0,1,13.28-13.29h49.86v54.56a24.06,24.06,0,0,0,24,24h54.56v49.85a13.3,13.3,0,0,1-13.29,13.29H199.22a29.65,29.65,0,1,0,0,13.38h22.71a26.7,26.7,0,0,0,26.67-26.67V355.37h14.8v49.85a26.7,26.7,0,0,0,26.66,26.67h22.72a29.65,29.65,0,1,0,0-13.38H290.06a13.3,13.3,0,0,1-13.29-13.29V355.37h54.57a24.06,24.06,0,0,0,24-24V276.78h49.86a13.3,13.3,0,0,1,13.28,13.29v22.7a29.65,29.65,0,1,0,13.38,0Zm-23-142.37a16.28,16.28,0,1,1,16.28,16.28A16.3,16.3,0,0,1,408.92,170.4ZM341.6,70.53A16.28,16.28,0,1,1,325.33,86.8,16.29,16.29,0,0,1,341.6,70.53ZM170.4,103.08A16.28,16.28,0,1,1,186.67,86.8,16.3,16.3,0,0,1,170.4,103.08ZM70.53,170.4A16.28,16.28,0,1,1,86.8,186.68,16.29,16.29,0,0,1,70.53,170.4Zm32.55,171.2A16.28,16.28,0,1,1,86.8,325.32,16.3,16.3,0,0,1,103.08,341.6Zm67.32,99.87a16.28,16.28,0,1,1,16.27-16.27A16.29,16.29,0,0,1,170.4,441.47Zm171.2-32.55a16.28,16.28,0,1,1-16.27,16.28A16.3,16.3,0,0,1,341.6,408.92Zm.39-77.58A10.67,10.67,0,0,1,331.34,342H180.66A10.67,10.67,0,0,1,170,331.34V180.66A10.67,10.67,0,0,1,180.66,170H331.34A10.67,10.67,0,0,1,342,180.66Zm83.21,26.53a16.28,16.28,0,1,1,16.27-16.27A16.3,16.3,0,0,1,425.2,357.87Z"/></svg>