<?xml version="1.0" encoding="UTF-8" standalone="no"?>
<!-- Created with Inkscape (http://www.inkscape.org/) -->

<svg
   width="32mm"
   height="32mm"
   viewBox="0 0 32 32"
   version="1.1"
   id="svg5"
   xml:space="preserve"
   inkscape:version="1.2.2 (732a01da63, 2022-12-09)"
   sodipodi:docname="AICS_logo.svg"
   xmlns:inkscape="http://www.inkscape.org/namespaces/inkscape"
   xmlns:sodipodi="http://sodipodi.sourceforge.net/DTD/sodipodi-0.dtd"
   xmlns="http://www.w3.org/2000/svg"
   xmlns:svg="http://www.w3.org/2000/svg"><sodipodi:namedview
     id="namedview7"
     pagecolor="#ffffff"
     bordercolor="#000000"
     borderopacity="0.25"
     inkscape:showpageshadow="2"
     inkscape:pageopacity="0.0"
     inkscape:pagecheckerboard="0"
     inkscape:deskcolor="#d1d1d1"
     inkscape:document-units="mm"
     showgrid="false"
     inkscape:zoom="4"
     inkscape:cx="44.875"
     inkscape:cy="86.75"
     inkscape:window-width="1920"
     inkscape:window-height="1137"
     inkscape:window-x="-8"
     inkscape:window-y="-8"
     inkscape:window-maximized="1"
     inkscape:current-layer="layer1" /><defs
     id="defs2"><inkscape:path-effect
       effect="copy_rotate"
       starting_point="107.52794,223.81798"
       origin="98.300795,223.81798"
       id="path-effect2095"
       is_visible="true"
       lpeversion="1.2"
       lpesatellites=""
       method="normal"
       num_copies="6"
       starting_angle="0"
       rotation_angle="60"
       gap="-0.01"
       copies_to_360="true"
       mirror_copies="false"
       split_items="false"
       link_styles="false" /><inkscape:path-effect
       effect="copy_rotate"
       starting_point="110.18046,95.849342"
       origin="100.92004,95.849342"
       id="path-effect2026"
       is_visible="true"
       lpeversion="1.2"
       lpesatellites=""
       method="normal"
       num_copies="6"
       starting_angle="0"
       rotation_angle="60"
       gap="-0.01"
       copies_to_360="true"
       mirror_copies="false"
       split_items="false"
       link_styles="false" /><inkscape:path-effect
       effect="copy_rotate"
       starting_point="110.15255,95.849342"
       origin="100.92004,95.849342"
       id="path-effect1821"
       is_visible="true"
       lpeversion="1.2"
       lpesatellites=""
       method="normal"
       num_copies="6"
       starting_angle="0"
       rotation_angle="60"
       gap="-0.01"
       copies_to_360="true"
       mirror_copies="false"
       split_items="false"
       link_styles="false" /><inkscape:path-effect
       effect="powerstroke"
       id="path-effect1754"
       is_visible="true"
       lpeversion="1"
       offset_points="3,0.036712449"
       not_jump="false"
       sort_points="true"
       interpolator_type="CentripetalCatmullRom"
       interpolator_beta="0.2"
       start_linecap_type="zerowidth"
       linejoin_type="round"
       miter_limit="4"
       scale_width="1"
       end_linecap_type="zerowidth" /><inkscape:path-effect
       effect="fillet_chamfer"
       id="path-effect1752"
       is_visible="true"
       lpeversion="1"
       nodesatellites_param="IF,0,0,1,0,0,0,1 @ IF,0,0,1,0,0,0,1 @ IF,0,0,1,0,0,0,1 @ IF,0,0,1,0,0,0,1 @ IF,0,0,1,0,0,0,1 @ IF,0,0,1,0,0,0,1"
       unit="px"
       method="auto"
       mode="IF"
       radius="0"
       chamfer_steps="1"
       flexible="false"
       use_knot_distance="true"
       apply_no_radius="true"
       apply_with_radius="true"
       only_selected="false"
       hide_knots="false" /><inkscape:path-effect
       effect="copy_rotate"
       starting_point="111.28244,95.849342"
       origin="100.92004,95.849342"
       id="path-effect1692"
       is_visible="true"
       lpeversion="1.2"
       lpesatellites=""
       method="normal"
       num_copies="6"
       starting_angle="0"
       rotation_angle="60"
       gap="-0.01"
       copies_to_360="true"
       mirror_copies="false"
       split_items="false"
       link_styles="false" /><inkscape:path-effect
       effect="copy_rotate"
       starting_point="118.6233,95.849342"
       origin="100.92004,95.849342"
       id="path-effect1690"
       is_visible="true"
       lpeversion="1.2"
       lpesatellites=""
       method="normal"
       num_copies="6"
       starting_angle="0"
       rotation_angle="60"
       gap="-0.01"
       copies_to_360="true"
       mirror_copies="false"
       split_items="false"
       link_styles="false" /></defs><g
     inkscape:label="Layer 1"
     inkscape:groupmode="layer"
     id="layer1"><g
       id="g5210"
       transform="matrix(0.23636108,0,0,0.23636108,-7.8535696,-6.655054)"
       style="stroke-width:4.23081"><path
         style="fill:#847aa3;fill-opacity:1;stroke:none;stroke-width:0.423082;stroke-linecap:round;stroke-linejoin:miter;stroke-dasharray:none;stroke-opacity:1"
         d="m 59.828905,47.525781 c 5.744884,4.958751 12.279081,8.795846 19.699531,11.373529 1.347027,-7.594562 1.386882,-15.189123 0,-22.783685 -7.547749,2.732943 -14.092008,6.560603 -19.699531,11.410156 z M 38.525041,107.27353 c 7.166846,-2.49584 13.756967,-6.23607 19.699531,-11.373532 -5.903571,-4.96384 -12.460726,-8.795636 -19.73125,-11.391842 -1.407077,7.903014 -1.364356,15.484338 0.03172,22.765374 z m 41.091135,48.32356 c 1.421962,-7.45459 1.477886,-15.03192 0,-22.74706 -7.250598,2.63072 -13.847608,6.39349 -19.73125,11.39184 6.140672,5.17007 12.727652,8.92374 19.73125,11.35522 z M 142.01117,144.1729 c -5.74488,-4.95875 -12.27908,-8.79584 -19.69953,-11.37353 -1.34702,7.59457 -1.38688,15.18913 0,22.78369 7.54775,-2.73294 14.09201,-6.5606 19.69953,-11.41016 z m 21.30387,-59.747744 c -7.16685,2.49584 -13.75697,6.236073 -19.69953,11.37353 5.90357,4.963844 12.46072,8.795634 19.73125,11.391844 1.40707,-7.903016 1.36435,-15.48434 -0.0317,-22.765374 z M 122.2239,36.101595 c -1.42196,7.454591 -1.47788,15.031919 0,22.747059 7.2506,-2.630722 13.84761,-6.393487 19.73125,-11.391843 C 135.81448,42.28674 129.2275,38.533076 122.2239,36.101595 Z"
         id="path1357"
         sodipodi:nodetypes="cccc"
         inkscape:path-effect="#path-effect1692"
         inkscape:original-d="m 59.828905,47.525781 c 5.744884,4.958751 12.279081,8.795846 19.699531,11.373529 1.347027,-7.594562 1.386882,-15.189123 0,-22.783685 -7.547749,2.732943 -14.092008,6.560603 -19.699531,11.410156 z"
         class="UnoptimicedTransforms" /><path
         style="fill:#847aa3;fill-opacity:1;stroke:none;stroke-width:0.423082;stroke-linecap:round;stroke-linejoin:miter;stroke-dasharray:none;stroke-opacity:1"
         d="m 83.160903,34.995576 c 11.61767,-3.382437 23.414697,-3.476877 35.406527,0 -1.56465,9.036438 -1.61022,17.397731 0,25.023117 -12.05278,3.508421 -23.852651,3.476192 -35.406527,0 1.910007,-7.863537 1.612505,-16.278952 0,-25.023117 z M 39.339564,80.802323 C 42.219123,69.049907 48.035849,58.786162 57.042828,50.139371 64.086288,56.012617 71.304595,60.232728 78.713483,62.650929 75.725474,74.843154 69.797628,85.046027 61.010219,93.313881 55.1552,87.727998 47.718486,83.777935 39.339564,80.802323 Z M 57.098701,141.65609 C 48.36059,133.28611 42.380289,123.1168 39.395438,110.99314 c 8.60811,-3.1632 15.871987,-7.30438 21.670655,-12.511562 9.064771,8.683802 14.936796,18.918902 17.703263,30.662952 -7.765026,2.27765 -14.904238,6.74301 -21.670655,12.51156 z m 61.580479,15.04702 c -11.61767,3.38243 -23.4147,3.47687 -35.40653,0 1.56465,-9.03644 1.61022,-17.39773 0,-25.02312 12.05278,-3.50842 23.85265,-3.47619 35.40653,0 -1.91001,7.86354 -1.61251,16.27895 0,25.02312 z m 43.82134,-45.80675 c -2.87956,11.75242 -8.69629,22.01616 -17.70327,30.66295 -7.04346,-5.87324 -14.26176,-10.09335 -21.67065,-12.51156 2.98801,-12.19222 8.91585,-22.39509 17.70326,-30.662947 5.85502,5.585887 13.29173,9.535947 21.67066,12.511557 z M 144.74138,50.042595 c 8.73811,8.369979 14.71841,18.539284 17.70326,30.662952 -8.60811,3.163192 -15.87198,7.304374 -21.67065,12.511559 -9.06477,-8.683804 -14.9368,-18.918906 -17.70327,-30.662952 7.76503,-2.277654 14.90424,-6.743006 21.67066,-12.511559 z"
         id="path1511"
         sodipodi:nodetypes="ccccc"
         inkscape:path-effect="#path-effect1690"
         inkscape:original-d="m 83.160903,34.995576 c 11.61767,-3.382437 23.414697,-3.476877 35.406527,0 -1.56465,9.036438 -1.61022,17.397731 0,25.023117 -12.05278,3.508421 -23.852651,3.476192 -35.406527,0 1.910007,-7.863537 1.612505,-16.278952 0,-25.023117 z"
         class="UnoptimicedTransforms" /><path
         style="fill:#847aa3;fill-opacity:1;stroke:none;stroke-width:0.423082;stroke-linecap:round;stroke-linejoin:miter;stroke-dasharray:none;stroke-opacity:1"
         d="m 162.48862,110.96637 c -2.87955,11.75241 -8.69629,22.01615 -17.70326,30.66298 -7.04349,-5.87324 -14.26176,-10.09338 -21.67065,-12.5116 2.98802,-12.1922 8.91586,-22.3951 17.70325,-30.662975 5.85501,5.585885 13.29174,9.535985 21.67066,12.511595 z"
         id="path1511-8-7"
         sodipodi:nodetypes="ccccc" /><path
         style="fill:#003056;fill-opacity:1;fill-rule:nonzero;stroke:none;stroke-width:0.423081;stroke-linecap:round;stroke-linejoin:miter;stroke-dasharray:none;stroke-opacity:1"
         d="m 82.515425,127.59484 c -0.0232,-0.0679 -0.23604,-0.81795 -0.47308,-1.66686 -2.93799,-10.52184 -8.49715,-20.13511 -16.62048,-28.74123 l -1.21382,-1.28595 1.48776,-1.57335 c 5.90426,-6.24392 10.0102,-12.47635 13.3538,-20.26981 1.15853,-2.70036 2.55346,-6.64286 3.23531,-9.14395 0.12273,-0.45019 0.26141,-0.81852 0.30819,-0.81852 0.0468,0 0.83771,0.18883 1.75762,0.41961 8.16664,2.04884 16.535385,2.53176 25.054945,1.4458 2.87803,-0.36686 6.38087,-1.03087 9.03007,-1.71178 l 0.84494,-0.21717 0.45587,1.64541 c 2.96464,10.7006 8.80797,20.75336 16.99511,29.23812 l 0.89986,0.93256 -1.47569,1.54636 c -4.64518,4.86762 -7.90585,9.41738 -11.19781,15.62478 -1.91175,3.60484 -4.13989,9.2572 -5.35673,13.58897 -0.24891,0.88609 -0.3383,1.09169 -0.45828,1.05413 -0.70043,-0.21932 -3.43283,-0.86412 -4.93814,-1.16533 -8.65041,-1.7309 -17.579785,-1.70135 -26.738475,0.0885 -1.28525,0.25117 -4.24298,0.92564 -4.74471,1.08197 -0.0916,0.0286 -0.18276,-0.003 -0.20626,-0.0722 z"
         id="path5189" /></g></g></svg>
