<?xml version="1.0" encoding="UTF-8" standalone="no"?>
<!-- Created with Inkscape (http://www.inkscape.org/) -->

<svg
   width="32mm"
   height="32mm"
   viewBox="0 0 32 32"
   version="1.1"
   id="svg1"
   inkscape:version="1.3 (0e150ed6c4, 2023-07-21)"
   sodipodi:docname="make_new_object.svg"
   xmlns:inkscape="http://www.inkscape.org/namespaces/inkscape"
   xmlns:sodipodi="http://sodipodi.sourceforge.net/DTD/sodipodi-0.dtd"
   xmlns="http://www.w3.org/2000/svg"
   xmlns:svg="http://www.w3.org/2000/svg">
  <sodipodi:namedview
     id="namedview1"
     pagecolor="#ffffff"
     bordercolor="#000000"
     borderopacity="0.25"
     inkscape:showpageshadow="2"
     inkscape:pageopacity="0.0"
     inkscape:pagecheckerboard="0"
     inkscape:deskcolor="#d1d1d1"
     inkscape:document-units="mm"
     inkscape:zoom="2.2450641"
     inkscape:cx="107.79202"
     inkscape:cy="-1.5589756"
     inkscape:window-width="1920"
     inkscape:window-height="1129"
     inkscape:window-x="-8"
     inkscape:window-y="-8"
     inkscape:window-maximized="1"
     inkscape:current-layer="layer1"
     showguides="true">
    <sodipodi:guide
       position="1.0000012,7.2512627"
       orientation="1,0"
       id="guide1"
       inkscape:locked="false" />
    <sodipodi:guide
       position="4.5372683,0.88591463"
       orientation="0,-1"
       id="guide2"
       inkscape:locked="false" />
  </sodipodi:namedview>
  <defs
     id="defs1">
    <inkscape:path-effect
       effect="fillet_chamfer"
       id="path-effect1"
       is_visible="true"
       lpeversion="1"
       nodesatellites_param="F,0,0,1,0,0.33599408,0,1 @ F,0,0,1,0,0,0,1 @ F,0,0,1,0,0.33118481,0,1 @ F,0,0,1,0,0,0,1 @ F,0,0,1,0,0.30630636,0,1 @ F,0,0,1,0,0,0,1 @ F,0,0,1,0,0.33883291,0,1 @ F,0,0,1,0,0,0,1"
       radius="0"
       unit="px"
       method="auto"
       mode="F"
       chamfer_steps="1"
       flexible="false"
       use_knot_distance="true"
       apply_no_radius="true"
       apply_with_radius="true"
       only_selected="false"
       hide_knots="false" />
    <inkscape:path-effect
       effect="fillet_chamfer"
       id="path-effect1-0"
       is_visible="true"
       lpeversion="1"
       nodesatellites_param="F,0,0,1,0,0.33599408,0,1 @ F,0,0,1,0,0,0,1 @ F,0,0,1,0,0.33118481,0,1 @ F,0,0,1,0,0,0,1 @ F,0,0,1,0,0.30630636,0,1 @ F,0,0,1,0,0,0,1 @ F,0,0,1,0,0.33883291,0,1 @ F,0,0,1,0,0,0,1"
       radius="0"
       unit="px"
       method="auto"
       mode="F"
       chamfer_steps="1"
       flexible="false"
       use_knot_distance="true"
       apply_no_radius="true"
       apply_with_radius="true"
       only_selected="false"
       hide_knots="false" />
    <inkscape:path-effect
       effect="fillet_chamfer"
       id="path-effect1-02"
       is_visible="true"
       lpeversion="1"
       nodesatellites_param="F,0,0,1,0,0.33599408,0,1 @ F,0,0,1,0,0,0,1 @ F,0,0,1,0,0.33118481,0,1 @ F,0,0,1,0,0,0,1 @ F,0,0,1,0,0.30630636,0,1 @ F,0,0,1,0,0,0,1 @ F,0,0,1,0,0.33883291,0,1 @ F,0,0,1,0,0,0,1"
       radius="0"
       unit="px"
       method="auto"
       mode="F"
       chamfer_steps="1"
       flexible="false"
       use_knot_distance="true"
       apply_no_radius="true"
       apply_with_radius="true"
       only_selected="false"
       hide_knots="false" />
    <inkscape:path-effect
       effect="spiro"
       id="path-effect1318"
       is_visible="true"
       lpeversion="1" />
  </defs>
  <g
     inkscape:label="Layer 1"
     inkscape:groupmode="layer"
     id="layer1">
    <path
       style="font-weight:bold;font-size:33.1324px;line-height:1.2;font-family:Arial;-inkscape-font-specification:'Arial Bold';text-align:end;text-anchor:end;fill:#d23b3b;fill-opacity:0.403922;stroke:#d43d3d;stroke-width:2;stroke-linecap:round;stroke-linejoin:round"
       d="M 1.3913293,30.722757 V 7.0059121 H 6.1799965 V 30.722757 Z M 10.725995,7.0059121 h 8.75226 q 2.960561,0 4.513642,0.452982 2.086953,0.6147613 3.575323,2.1840205 1.488369,1.5692594 2.26491,3.8503474 0.776541,2.26491 0.776541,5.597564 0,2.928205 -0.728007,5.047514 -0.889786,2.588469 -2.539935,4.190084 -1.245701,1.213344 -3.36501,1.892818 -1.585437,0.501515 -4.238617,0.501515 h -9.011107 z m 4.788667,4.0121269 v 15.70877 h 3.575323 q 2.006063,0 2.895849,-0.226491 1.164811,-0.291203 1.925174,-0.986854 0.77654,-0.695651 1.261878,-2.281088 0.485338,-1.601615 0.485338,-4.351863 0,-2.750248 -0.485338,-4.22244 -0.485338,-1.472192 -1.358946,-2.297266 -0.873608,-0.825075 -2.216376,-1.116277 -1.003032,-0.226491 -3.931237,-0.226491 z"
       id="text1-5"
       aria-label="ID" />
    <g
       id="g1"
       transform="matrix(1.1858984,0,0,1.1858984,-3.1924079,-5.7218295)">
      <path
         sodipodi:type="star"
         style="fill:#595959;fill-opacity:1;stroke:none;stroke-width:0.0485854;stroke-linecap:round;stroke-linejoin:round"
         id="path1"
         inkscape:flatsided="false"
         sodipodi:sides="4"
         sodipodi:cx="2.875"
         sodipodi:cy="7.2083335"
         sodipodi:r1="3.1252775"
         sodipodi:r2="1.3438693"
         sodipodi:arg1="0"
         sodipodi:arg2="0.78539816"
         inkscape:rounded="0"
         inkscape:randomized="0"
         d="M 5.6923859,7.3428504 3.8252591,8.1585926 3.0075915,10.030126 a 0.14469367,0.14469367 4.021361e-8 0 1 -0.265183,0 L 1.9247409,8.1585926 0.03040941,7.3309648 a 0.13382434,0.13382434 90 0 1 0,-0.2452626 L 1.9247409,6.2580744 2.7393465,4.3935489 a 0.1480351,0.1480351 4.0213941e-8 0 1 0.271307,0 l 0.8146056,1.8645255 1.8671268,0.8157422 a 0.14679482,0.14679482 90 0 1 0,0.2690338 z"
         inkscape:path-effect="#path-effect1"
         transform="matrix(2.0582313,0,0,2.0582313,13.851915,-1.9729233)" />
      <path
         sodipodi:type="star"
         style="fill:#595959;fill-opacity:1;stroke:none;stroke-width:0.0971708;stroke-linecap:round;stroke-linejoin:round"
         id="path1-9"
         inkscape:flatsided="false"
         sodipodi:sides="4"
         sodipodi:cx="2.875"
         sodipodi:cy="7.2083335"
         sodipodi:r1="3.1252775"
         sodipodi:r2="1.3438693"
         sodipodi:arg1="0"
         sodipodi:arg2="0.78539816"
         inkscape:rounded="0"
         inkscape:randomized="0"
         d="M 5.6923859,7.3428504 3.8252591,8.1585926 3.0075915,10.030126 a 0.14469367,0.14469367 4.021361e-8 0 1 -0.265183,0 L 1.9247409,8.1585926 0.03040941,7.3309648 a 0.13382434,0.13382434 90 0 1 0,-0.2452626 L 1.9247409,6.2580744 2.7393465,4.3935489 a 0.1480351,0.1480351 4.0213941e-8 0 1 0.271307,0 l 0.8146056,1.8645255 1.8671268,0.8157422 a 0.14679482,0.14679482 90 0 1 0,0.2690338 z"
         inkscape:path-effect="#path-effect1-0"
         transform="matrix(1.0291157,0,0,1.0291157,23.349951,0.93210943)" />
      <path
         sodipodi:type="star"
         style="fill:#595959;fill-opacity:1;stroke:none;stroke-width:0.0971708;stroke-linecap:round;stroke-linejoin:round"
         id="path1-97"
         inkscape:flatsided="false"
         sodipodi:sides="4"
         sodipodi:cx="2.875"
         sodipodi:cy="7.2083335"
         sodipodi:r1="3.1252775"
         sodipodi:r2="1.3438693"
         sodipodi:arg1="0"
         sodipodi:arg2="0.78539816"
         inkscape:rounded="0"
         inkscape:randomized="0"
         d="M 5.6923859,7.3428504 3.8252591,8.1585926 3.0075915,10.030126 a 0.14469367,0.14469367 4.021361e-8 0 1 -0.265183,0 L 1.9247409,8.1585926 0.03040941,7.3309648 a 0.13382434,0.13382434 90 0 1 0,-0.2452626 L 1.9247409,6.2580744 2.7393465,4.3935489 a 0.1480351,0.1480351 4.0213941e-8 0 1 0.271307,0 l 0.8146056,1.8645255 1.8671268,0.8157422 a 0.14679482,0.14679482 90 0 1 0,0.2690338 z"
         inkscape:path-effect="#path-effect1-02"
         transform="matrix(1.0291157,0,0,1.0291157,23.349951,10.117517)" />
    </g>
  </g>
</svg>
