<!-- Generated by IcoMoon.io -->
<svg
  version="1.1"
  xmlns="http://www.w3.org/2000/svg"
  width="32" height="32" viewBox="0 0 34 34">
<title>bin</title>
<defs id="defs3051">
  <style type="text/css" id="current-color-scheme">
    .ColorScheme-Text {
      color:#4d4d4d;
    }
    </style>
</defs>
<path
  style="fill:currentColor;fill-opacity:1;stroke:none"
  d="M4 10v20c0 1.1 0.9 2 2 2h18c1.1 0 2-0.9 2-2v-20h-22zM10 28h-2v-14h2v14zM14 28h-2v-14h2v14zM18 28h-2v-14h2v14zM22 28h-2v-14h2v14z"
  class="ColorScheme-Text">
</path>
<path
  style="fill:currentColor;fill-opacity:1;stroke:none"
  d="M26.5 4h-6.5v-2.5c0-0.825-0.675-1.5-1.5-1.5h-7c-0.825 0-1.5 0.675-1.5 1.5v2.5h-6.5c-0.825 0-1.5 0.675-1.5 1.5v2.5h26v-2.5c0-0.825-0.675-1.5-1.5-1.5zM18 4h-6v-1.975h6v1.975z"
  class="ColorScheme-Text">
</path>
</svg>
