<?xml version="1.0" encoding="UTF-8" standalone="no"?>
<!-- Generator: Adobe Illustrator 21.0.2, SVG Export Plug-In . SVG Version: 6.00 Build 0)  -->

<svg
   version="1.1"
   id="Layer_1"
   x="0px"
   y="0px"
   viewBox="0 0 680.3 680.3"
   style="enable-background:new 0 0 680.3 680.3;"
   xml:space="preserve"
   sodipodi:docname="bkgrRoi_dark.svg"
   inkscape:version="1.2.2 (732a01da63, 2022-12-09)"
   xmlns:inkscape="http://www.inkscape.org/namespaces/inkscape"
   xmlns:sodipodi="http://sodipodi.sourceforge.net/DTD/sodipodi-0.dtd"
   xmlns="http://www.w3.org/2000/svg"
   xmlns:svg="http://www.w3.org/2000/svg"><defs
   id="defs25" /><sodipodi:namedview
   id="namedview23"
   pagecolor="#ffffff"
   bordercolor="#000000"
   borderopacity="0.25"
   inkscape:showpageshadow="2"
   inkscape:pageopacity="0.0"
   inkscape:pagecheckerboard="0"
   inkscape:deskcolor="#d1d1d1"
   showgrid="false"
   inkscape:zoom="0.69381155"
   inkscape:cx="745.15912"
   inkscape:cy="343.03263"
   inkscape:window-width="1920"
   inkscape:window-height="1137"
   inkscape:window-x="-8"
   inkscape:window-y="-8"
   inkscape:window-maximized="1"
   inkscape:current-layer="Layer_1"
   showguides="true"><sodipodi:guide
     position="606.00001,540.40001"
     orientation="0,-1"
     id="guide470"
     inkscape:locked="false" /><sodipodi:guide
     position="606.00001,540.40001"
     orientation="1,0"
     id="guide472"
     inkscape:locked="false" /></sodipodi:namedview>
<style
   type="text/css"
   id="style2">
	.st0{fill:none;stroke:#787878;stroke-width:55;stroke-linecap:round;stroke-linejoin:round;stroke-miterlimit:10;}
	.st1{fill:#FFFFFF;}
	.st2{fill:#4D4D4E;stroke:#FFFFFF;stroke-miterlimit:10;}
</style>


<g
   id="g10"
   style="fill:#f0f0f0;fill-opacity:1">
	<path
   class="st2"
   d="M652.6,173.6c0,5.2-0.3,9.6-0.8,13.1c-0.6,3.5-1.4,6.4-2.5,8.5s-2.4,3.7-3.9,4.6c-1.5,0.9-3.1,1.4-4.7,1.4H554   v94.4c0,1.9-0.5,3.5-1.4,4.9s-2.5,2.6-4.7,3.6s-5.2,1.8-8.9,2.4s-8.4,0.8-13.9,0.8s-10.2-0.3-13.9-0.8c-3.7-0.6-6.7-1.3-8.9-2.4   c-2.2-1-3.9-2.2-4.9-3.6s-1.5-3-1.5-4.9v-94.4h-86.3c-1.7,0-3.2-0.5-4.6-1.4s-2.6-2.5-3.8-4.6c-1.1-2.1-2-5-2.6-8.5   c-0.7-3.5-1-7.9-1-13.1c0-5,0.3-9.3,0.8-13c0.6-3.6,1.3-6.5,2.4-8.6c1-2.1,2.2-3.7,3.5-4.6c1.3-0.9,2.8-1.4,4.5-1.4H496V51.9   c0-1.9,0.5-3.6,1.5-5.2c1-1.6,2.6-2.9,4.9-3.9c2.2-1,5.2-1.8,8.9-2.4c3.7-0.6,8.4-0.8,13.9-0.8s10.2,0.3,13.9,0.8   c3.7,0.6,6.7,1.3,8.9,2.4c2.2,1,3.8,2.3,4.7,3.9c0.9,1.6,1.4,3.3,1.4,5.2V146h87.5c1.5,0,2.9,0.5,4.3,1.4c1.4,0.9,2.6,2.5,3.6,4.6   s1.8,5,2.4,8.6C652.3,164.3,652.6,168.6,652.6,173.6z"
   id="path8"
   style="fill:#f0f0f0;fill-opacity:1" />
</g>
<g
   id="g20"
   style="fill:#ffffff;fill-opacity:1"
   transform="translate(0,16)">
	<path
   d="m 246.5,415.7 c 0,5.6 -0.7,10.6 -2.2,15.1 -1.4,4.5 -3.5,8.5 -6,12 -2.6,3.5 -5.6,6.5 -9.2,9 -3.5,2.5 -7.5,4.6 -11.7,6.2 -4.3,1.6 -8.8,2.8 -13.7,3.6 -4.8,0.8 -10.2,1.2 -16.2,1.2 h -39.4 c -2.5,0 -4.6,-0.8 -6.4,-2.4 -1.7,-1.6 -2.6,-4.1 -2.6,-7.7 V 316 c 0,-3.6 0.9,-6.1 2.6,-7.7 1.7,-1.6 3.8,-2.4 6.4,-2.4 h 37.2 c 9.1,0 16.8,0.8 23.1,2.4 6.3,1.6 11.6,4.1 15.9,7.3 4.3,3.3 7.6,7.4 9.9,12.4 2.3,5 3.4,10.9 3.4,17.7 0,3.8 -0.5,7.4 -1.4,10.7 -0.9,3.4 -2.3,6.4 -4,9.1 -1.8,2.7 -3.9,5.2 -6.5,7.3 -2.6,2.1 -5.5,3.8 -8.8,5.1 4.2,0.8 8.1,2.2 11.6,4.2 3.5,2 6.6,4.6 9.3,7.8 2.6,3.2 4.7,6.9 6.2,11.2 1.8,4.4 2.5,9.2 2.5,14.6 z m -38.9,-66.1 c 0,-3.2 -0.5,-6 -1.4,-8.5 -0.9,-2.5 -2.3,-4.6 -4.1,-6.2 -1.8,-1.7 -4.1,-2.9 -6.9,-3.8 -2.8,-0.9 -6.5,-1.3 -11.2,-1.3 h -15.2 v 40.7 h 16.8 c 4.3,0 7.8,-0.5 10.4,-1.6 2.6,-1.1 4.7,-2.6 6.5,-4.5 1.7,-1.9 3,-4.1 3.8,-6.7 0.9,-2.5 1.3,-5.2 1.3,-8.1 z m 7.7,67.2 c 0,-3.6 -0.6,-6.9 -1.7,-9.8 -1.1,-2.9 -2.8,-5.3 -5,-7.2 -2.2,-1.9 -5,-3.4 -8.5,-4.5 -3.4,-1 -7.9,-1.6 -13.4,-1.6 h -17.8 v 44.6 h 21.7 c 4.2,0 7.7,-0.5 10.6,-1.4 2.9,-0.9 5.3,-2.3 7.4,-4.1 2.1,-1.8 3.7,-4.1 4.9,-6.8 1.2,-2.7 1.8,-5.8 1.8,-9.2 z"
   id="path12"
   style="fill:#ffffff;fill-opacity:1" />
	<path
   d="m 363.8,458.7 c 0,0.8 -0.2,1.5 -0.6,2.1 -0.4,0.6 -1.2,1.1 -2.3,1.5 -1.1,0.4 -2.6,0.6 -4.5,0.8 -1.9,0.2 -4.4,0.3 -7.4,0.3 -3.1,0 -5.7,-0.1 -7.6,-0.2 -1.9,-0.2 -3.5,-0.4 -4.8,-0.8 -1.3,-0.4 -2.2,-0.9 -2.9,-1.5 -0.7,-0.6 -1.3,-1.5 -1.8,-2.5 l -34,-57 v 57.2 c 0,0.8 -0.2,1.5 -0.7,2.1 -0.5,0.6 -1.2,1.1 -2.3,1.5 -1.1,0.4 -2.6,0.7 -4.4,0.9 -1.8,0.2 -4.2,0.3 -7,0.3 -2.8,0 -5.1,-0.1 -7,-0.3 -1.8,-0.2 -3.3,-0.5 -4.4,-0.9 -1.1,-0.4 -1.9,-0.9 -2.3,-1.5 -0.5,-0.6 -0.7,-1.3 -0.7,-2.1 V 299.2 c 0,-0.8 0.2,-1.5 0.7,-2.2 0.5,-0.6 1.2,-1.2 2.3,-1.6 1.1,-0.4 2.6,-0.8 4.4,-1 1.8,-0.2 4.2,-0.4 7,-0.4 2.8,0 5.1,0.1 7,0.4 1.8,0.2 3.3,0.6 4.4,1 1.1,0.4 1.9,1 2.3,1.6 0.5,0.6 0.7,1.4 0.7,2.2 v 94.9 l 30.2,-43 c 0.6,-1 1.3,-1.8 2.1,-2.5 0.8,-0.7 1.8,-1.3 3,-1.7 1.3,-0.4 2.8,-0.7 4.7,-0.9 1.9,-0.2 4.3,-0.3 7.2,-0.3 2.8,0 5.2,0.1 7.2,0.3 1.9,0.2 3.5,0.5 4.7,0.9 1.2,0.4 2,0.9 2.5,1.5 0.5,0.6 0.7,1.4 0.7,2.2 0,1.2 -0.3,2.5 -0.9,3.9 -0.6,1.4 -1.4,2.8 -2.6,4.4 l -29.9,35.9 34.6,56.6 c 0.9,1.6 1.6,3 2,4.2 0.2,1.1 0.4,2.1 0.4,3.1 z"
   id="path14"
   style="fill:#ffffff;fill-opacity:1" />
	<path
   d="m 473.4,358 c 0,3.9 -0.4,6.7 -1.3,8.6 -0.8,1.9 -1.9,2.8 -3.1,2.8 h -12 c 1.7,1.9 2.9,4.1 3.6,6.6 0.7,2.5 1.1,5 1.1,7.7 0,6.3 -1,11.9 -3,16.8 -2,4.9 -4.8,9 -8.5,12.4 -3.7,3.4 -8.2,5.9 -13.4,7.6 -5.2,1.7 -11,2.6 -17.4,2.6 -3.3,0 -6.4,-0.4 -9.4,-1.3 -3,-0.8 -5.3,-1.8 -6.9,-3 -0.9,1.1 -1.7,2.3 -2.5,3.8 -0.7,1.5 -1.1,3.1 -1.1,4.8 0,2.3 1,4.3 2.9,5.8 1.9,1.5 4.7,2.3 8.2,2.5 l 24.8,1 c 5.8,0.2 11,1.1 15.5,2.6 4.5,1.5 8.4,3.6 11.4,6.3 3.1,2.7 5.5,6 7.1,9.8 1.6,3.8 2.5,8.1 2.5,13 0,5.3 -1.1,10.4 -3.3,15.1 -2.2,4.7 -5.5,8.8 -10,12.3 -4.4,3.5 -10,6.2 -16.6,8.2 -6.7,2 -14.5,3 -23.4,3 -8.7,0 -16.1,-0.7 -22.3,-2.2 -6.1,-1.5 -11.2,-3.5 -15.1,-6.1 -3.9,-2.6 -6.8,-5.7 -8.6,-9.3 -1.8,-3.6 -2.7,-7.5 -2.7,-11.8 0,-2.7 0.3,-5.2 1,-7.6 0.6,-2.4 1.6,-4.7 2.9,-7 1.3,-2.2 2.8,-4.3 4.6,-6.4 1.8,-2 3.9,-4 6.3,-5.8 -3.3,-1.9 -5.8,-4.4 -7.6,-7.6 -1.8,-3.2 -2.7,-6.7 -2.7,-10.5 0,-4.8 1,-9.1 3.1,-13 2.1,-3.9 4.7,-7.5 8,-10.6 -2.7,-2.8 -4.8,-6.2 -6.4,-10.2 -1.6,-4 -2.4,-8.9 -2.4,-14.8 0,-6.3 1,-11.9 3.1,-16.9 2.1,-5 5,-9.2 8.8,-12.6 3.7,-3.4 8.2,-6.1 13.4,-7.9 5.2,-1.8 10.9,-2.7 17.2,-2.7 3.2,0 6.3,0.2 9.2,0.6 2.9,0.4 5.7,1 8.2,1.7 H 469 c 1.3,0 2.3,0.9 3.1,2.7 0.9,1.8 1.3,4.8 1.3,9 z m -30.2,111.8 c 0,-3.6 -1.4,-6.4 -4.1,-8.4 -2.7,-1.9 -6.5,-3 -11.3,-3.2 l -20.5,-0.6 c -2,1.5 -3.6,3 -4.7,4.4 -1.1,1.4 -2.1,2.8 -2.9,4.1 -0.7,1.3 -1.2,2.5 -1.4,3.8 -0.2,1.3 -0.3,2.5 -0.3,3.8 0,4 1.9,7.1 5.8,9.2 3.9,2.1 9.3,3.2 16.3,3.2 4.3,0 8,-0.5 11,-1.4 3,-0.9 5.4,-2.2 7.2,-3.7 1.8,-1.5 3.1,-3.3 3.9,-5.1 0.6,-2 1,-4 1,-6.1 z m -6.7,-86.2 c 0,-5.8 -1.5,-10.3 -4.6,-13.6 -3.1,-3.2 -7.4,-4.8 -12.9,-4.8 -2.8,0 -5.3,0.5 -7.4,1.5 -2.1,1 -3.9,2.4 -5.3,4.1 -1.4,1.7 -2.5,3.8 -3.1,6.1 -0.7,2.3 -1,4.7 -1,7.2 0,5.5 1.5,9.8 4.6,13 3.1,3.2 7.3,4.8 12.7,4.8 2.9,0 5.4,-0.5 7.6,-1.5 2.1,-1 3.9,-2.3 5.3,-4 1.4,-1.7 2.5,-3.7 3.2,-5.9 0.5,-2.2 0.9,-4.5 0.9,-6.9 z"
   id="path16"
   style="fill:#ffffff;fill-opacity:1" />
	<path
   d="m 558.1,360.5 c 0,2.9 -0.1,5.3 -0.2,7.1 -0.2,1.9 -0.4,3.3 -0.7,4.4 -0.3,1.1 -0.7,1.8 -1.2,2.2 -0.5,0.4 -1.1,0.6 -1.9,0.6 -0.6,0 -1.3,-0.1 -2.1,-0.4 -0.8,-0.3 -1.6,-0.6 -2.6,-0.9 -1,-0.3 -2,-0.6 -3.1,-0.9 -1.1,-0.3 -2.4,-0.4 -3.8,-0.4 -1.6,0 -3.2,0.3 -4.8,1 -1.6,0.7 -3.3,1.8 -5,3.2 -1.7,1.5 -3.5,3.4 -5.4,5.8 -1.9,2.4 -3.9,5.4 -6,9 v 67.4 c 0,0.8 -0.2,1.5 -0.7,2.1 -0.5,0.6 -1.2,1.1 -2.3,1.5 -1.1,0.4 -2.6,0.7 -4.4,0.9 -1.8,0.2 -4.2,0.3 -7,0.3 -2.8,0 -5.1,-0.1 -7,-0.3 -1.8,-0.2 -3.3,-0.5 -4.4,-0.9 -1.1,-0.4 -1.9,-0.9 -2.3,-1.5 -0.5,-0.6 -0.7,-1.3 -0.7,-2.1 V 350.5 c 0,-0.8 0.2,-1.5 0.6,-2.1 0.4,-0.6 1.1,-1.1 2.1,-1.5 1,-0.4 2.3,-0.7 3.8,-0.9 1.6,-0.2 3.5,-0.3 5.9,-0.3 2.4,0 4.5,0.1 6.1,0.3 1.6,0.2 2.8,0.5 3.7,0.9 0.9,0.4 1.5,0.9 1.9,1.5 0.4,0.6 0.6,1.3 0.6,2.1 V 364 c 2.7,-4 5.2,-7.4 7.6,-10 2.4,-2.6 4.6,-4.7 6.8,-6.2 2.1,-1.5 4.3,-2.6 6.4,-3.2 2.1,-0.6 4.3,-0.9 6.4,-0.9 1,0 2.1,0.1 3.2,0.2 1.1,0.1 2.3,0.3 3.5,0.6 1.2,0.3 2.3,0.6 3.2,1 0.9,0.4 1.6,0.7 2,1.2 0.4,0.4 0.7,0.8 0.9,1.3 0.2,0.5 0.4,1.2 0.5,2 0.2,0.8 0.3,2.1 0.3,3.8 0.1,1.5 0.1,3.8 0.1,6.7 z"
   id="path18"
   style="fill:#ffffff;fill-opacity:1" />
</g>
<path
   id="path364"
   style="fill:none;stroke:#d9d9d9;stroke-width:50;stroke-linecap:round;stroke-linejoin:round;stroke-dasharray:none"
   d="M 606,575.89999 V 329.6991 M 333.01121,139.89999 H 74 v 436 h 532" /></svg>
