<?xml version="1.0" encoding="UTF-8" standalone="no"?>
<svg
   height="100%"
   style="fill-rule:evenodd;clip-rule:evenodd;stroke-linejoin:round;stroke-miterlimit:2;"
   version="1.1"
   viewBox="0 0 64 64"
   width="100%"
   xml:space="preserve"
   id="svg7"
   sodipodi:docname="browser.svg"
   inkscape:version="1.3 (0e150ed6c4, 2023-07-21)"
   xmlns:inkscape="http://www.inkscape.org/namespaces/inkscape"
   xmlns:sodipodi="http://sodipodi.sourceforge.net/DTD/sodipodi-0.dtd"
   xmlns="http://www.w3.org/2000/svg"
   xmlns:svg="http://www.w3.org/2000/svg"><defs
     id="defs7" /><sodipodi:namedview
     id="namedview7"
     pagecolor="#ffffff"
     bordercolor="#000000"
     borderopacity="0.25"
     inkscape:showpageshadow="2"
     inkscape:pageopacity="0.0"
     inkscape:pagecheckerboard="0"
     inkscape:deskcolor="#d1d1d1"
     inkscape:zoom="9.9326406"
     inkscape:cx="16.611897"
     inkscape:cy="21.192753"
     inkscape:window-width="1920"
     inkscape:window-height="1137"
     inkscape:window-x="-8"
     inkscape:window-y="-8"
     inkscape:window-maximized="1"
     inkscape:current-layer="svg7" /><g
     id="g7"
     style="stroke:none;stroke-opacity:1;stroke-width:0.5;stroke-dasharray:none;fill:#4d4d4d;fill-opacity:1"><g
       transform="translate(-303,-78)"
       id="g1"
       style="stroke:none;stroke-opacity:1;stroke-width:0.5;stroke-dasharray:none;fill:#4d4d4d;fill-opacity:1"><path
         d="m 335,80.75 c -16.144,0 -29.25,13.106 -29.25,29.25 0,16.144 13.106,29.25 29.25,29.25 16.144,0 29.25,-13.106 29.25,-29.25 0,-16.144 -13.106,-29.25 -29.25,-29.25 z m 0,2.5 c 14.764,0 26.75,11.986 26.75,26.75 0,14.764 -11.986,26.75 -26.75,26.75 -14.764,0 -26.75,-11.986 -26.75,-26.75 0,-14.764 11.986,-26.75 26.75,-26.75 z"
         id="path1"
         style="stroke:none;stroke-opacity:1;stroke-width:0.5;stroke-dasharray:none;fill:#4d4d4d;fill-opacity:1" /></g><g
       transform="matrix(0.5,0,0,1,-135.5,-78)"
       id="g2"
       style="stroke:none;stroke-opacity:1;stroke-width:0.70710678;stroke-dasharray:none;fill:#4d4d4d;fill-opacity:1"><path
         d="m 335,80.75 c -6.91,0 -13.417,2.153 -18.597,5.951 -7.171,5.258 -11.903,13.734 -11.903,23.299 0,9.565 4.732,18.041 11.903,23.299 5.18,3.798 11.687,5.951 18.597,5.951 6.91,0 13.417,-2.153 18.597,-5.951 7.171,-5.258 11.903,-13.734 11.903,-23.299 0,-9.565 -4.732,-18.041 -11.903,-23.299 C 348.417,82.903 341.91,80.75 335,80.75 Z m 0,2.5 c 5.454,0 10.378,1.862 14.466,4.86 6.732,4.936 11.034,12.911 11.034,21.89 0,8.979 -4.302,16.954 -11.034,21.89 -4.088,2.998 -9.012,4.86 -14.466,4.86 -5.454,0 -10.378,-1.862 -14.466,-4.86 C 313.802,126.954 309.5,118.979 309.5,110 c 0,-8.979 4.302,-16.954 11.034,-21.89 4.088,-2.998 9.012,-4.86 14.466,-4.86 z"
         id="path2"
         style="stroke:none;stroke-opacity:1;stroke-width:0.70710678;stroke-dasharray:none;fill:#4d4d4d;fill-opacity:1" /></g><g
       transform="matrix(1,0,0,-1,-303,142)"
       id="g3"
       style="stroke:none;stroke-opacity:1;stroke-width:0.5;stroke-dasharray:none;fill:#4d4d4d;fill-opacity:1"><path
         d="m 312.077,93.64 c -0.455,-0.445 -0.502,-1.162 -0.109,-1.664 5.356,-6.833 13.685,-11.226 23.032,-11.226 9.347,0 17.676,4.393 23.032,11.226 0.393,0.502 0.346,1.219 -0.109,1.664 -5.333,5.225 -13.616,8.61 -22.923,8.61 -9.307,0 -17.59,-3.385 -22.923,-8.61 z m 2.584,-1.008 c 4.931,4.372 12.222,7.118 20.339,7.118 8.117,0 15.408,-2.746 20.339,-7.118 -4.908,-5.74 -12.202,-9.382 -20.339,-9.382 -8.137,0 -15.431,3.642 -20.339,9.382 z"
         id="path3"
         style="stroke:none;stroke-opacity:1;stroke-width:0.5;stroke-dasharray:none;fill:#4d4d4d;fill-opacity:1" /></g><g
       transform="translate(-303,-78)"
       id="g4"
       style="stroke:none;stroke-opacity:1;stroke-width:0.5;stroke-dasharray:none;fill:#4d4d4d;fill-opacity:1"><path
         d="m 311.968,91.976 c -0.393,0.502 -0.346,1.219 0.109,1.664 5.333,5.225 13.616,8.61 22.923,8.61 9.307,0 17.59,-3.385 22.923,-8.61 0.455,-0.445 0.502,-1.162 0.109,-1.664 C 352.676,85.143 344.347,80.75 335,80.75 c -9.347,0 -17.676,4.393 -23.032,11.226 z m 2.693,0.656 c 4.908,-5.74 12.202,-9.382 20.339,-9.382 8.137,0 15.431,3.642 20.339,9.382 -4.931,4.372 -12.222,7.118 -20.339,7.118 -8.117,0 -15.408,-2.746 -20.339,-7.118 z"
         id="path4"
         style="stroke:none;stroke-opacity:1;stroke-width:0.5;stroke-dasharray:none;fill:#4d4d4d;fill-opacity:1" /></g><g
       transform="translate(-303,-78)"
       id="g5"
       style="stroke:none;stroke-opacity:1;stroke-width:0.5;stroke-dasharray:none;fill:#4d4d4d;fill-opacity:1"><path
         d="m 307,111.25 h 56 c 0.69,0 1.25,-0.56 1.25,-1.25 0,-0.69 -0.56,-1.25 -1.25,-1.25 h -56 c -0.69,0 -1.25,0.56 -1.25,1.25 0,0.69 0.56,1.25 1.25,1.25 z"
         id="path5"
         style="stroke:none;stroke-opacity:1;stroke-width:0.5;stroke-dasharray:none;fill:#4d4d4d;fill-opacity:1" /></g><g
       transform="rotate(-90,144.5,222.5)"
       id="g6"
       style="stroke:none;stroke-opacity:1;stroke-width:0.5;stroke-dasharray:none;fill:#4d4d4d;fill-opacity:1"><path
         d="m 307,111.25 h 56 c 0.69,0 1.25,-0.56 1.25,-1.25 0,-0.69 -0.56,-1.25 -1.25,-1.25 h -56 c -0.69,0 -1.25,0.56 -1.25,1.25 0,0.69 0.56,1.25 1.25,1.25 z"
         id="path6"
         style="stroke:none;stroke-opacity:1;stroke-width:0.5;stroke-dasharray:none;fill:#4d4d4d;fill-opacity:1" /></g></g></svg>
