<!-- Generated by IcoMoon.io -->
<svg
  version="1.1" xmlns="http://www.w3.org/2000/svg"
  width="32" height="32" viewBox="0 0 34 34">
<title>brush</title>
<defs id="defs3051">
  <style type="text/css" id="current-color-scheme">
    .ColorScheme-Text {
      color:#f0f0f0;
    }
    </style>
</defs>
<path
  style="fill:currentColor;fill-opacity:1;stroke:none"
  class="ColorScheme-Text"
  d="M27.555 8.42c-1.355 1.647-5.070 6.195-8.021 9.81l-3.747-3.804c3.389-3.016 7.584-6.744 9.1-8.079 2.697-2.377 5.062-3.791 5.576-3.213 0.322 0.32-0.533 2.396-2.908 5.286zM18.879 19.030c-1.143 1.399-2.127 2.604-2.729 3.343l-4.436-4.323c0.719-0.64 1.916-1.705 3.304-2.939l3.861 3.919zM15.489 23.183v-0.012c-2.575 9.88-14.018 4.2-14.018 4.2s4.801 0.605 4.801-3.873c0-4.341 4.412-4.733 4.683-4.753l4.543 4.427c0 0.001-0.009 0.011-0.009 0.011z">
</path>
</svg>
