<?xml version="1.0" encoding="UTF-8" standalone="no"?>
<svg
   viewBox="0 0 32 32"
   xml:space="preserve"
   version="1.1"
   id="svg6"
   sodipodi:docname="clear_points_dark.svg"
   inkscape:version="1.2.2 (732a01da63, 2022-12-09)"
   xmlns:inkscape="http://www.inkscape.org/namespaces/inkscape"
   xmlns:sodipodi="http://sodipodi.sourceforge.net/DTD/sodipodi-0.dtd"
   xmlns="http://www.w3.org/2000/svg"
   xmlns:svg="http://www.w3.org/2000/svg"><defs
     id="defs10"><inkscape:path-effect
       effect="spiro"
       id="path-effect15386"
       is_visible="true"
       lpeversion="1" /><inkscape:path-effect
       effect="spiro"
       id="path-effect11637"
       is_visible="true"
       lpeversion="1" /><inkscape:path-effect
       effect="spiro"
       id="path-effect11507"
       is_visible="true"
       lpeversion="1" /><inkscape:path-effect
       effect="spiro"
       id="path-effect7871"
       is_visible="true"
       lpeversion="1" /><inkscape:path-effect
       effect="spiro"
       id="path-effect7378"
       is_visible="true"
       lpeversion="1" /><inkscape:path-effect
       effect="bspline"
       id="path-effect7374"
       is_visible="true"
       lpeversion="1"
       weight="33.333333"
       steps="2"
       helper_size="0"
       apply_no_weight="true"
       apply_with_weight="true"
       only_selected="false" /><inkscape:path-effect
       effect="spiro"
       id="path-effect7307"
       is_visible="true"
       lpeversion="1" /><inkscape:path-effect
       effect="spiro"
       id="path-effect11637-2"
       is_visible="true"
       lpeversion="1" /><inkscape:path-effect
       effect="spiro"
       id="path-effect11637-1"
       is_visible="true"
       lpeversion="1" /><inkscape:path-effect
       effect="spiro"
       id="path-effect15386-8"
       is_visible="true"
       lpeversion="1" /></defs><sodipodi:namedview
     id="namedview8"
     pagecolor="#ffffff"
     bordercolor="#666666"
     borderopacity="1.0"
     inkscape:pageshadow="2"
     inkscape:pageopacity="0.0"
     inkscape:pagecheckerboard="0"
     showgrid="false"
     inkscape:zoom="11.313709"
     inkscape:cx="12.948893"
     inkscape:cy="12.374369"
     inkscape:window-width="1920"
     inkscape:window-height="1017"
     inkscape:window-x="-8"
     inkscape:window-y="-8"
     inkscape:window-maximized="1"
     inkscape:current-layer="svg6"
     showguides="true"
     inkscape:guide-bbox="true"
     inkscape:showpageshadow="2"
     inkscape:deskcolor="#d1d1d1"><sodipodi:guide
       position="-22.978962,38.552595"
       orientation="1,0"
       id="guide5416"
       inkscape:locked="false" /></sodipodi:namedview><path
     style="fill:#d9d9d9;fill-opacity:1;stroke:none;stroke-width:1;stroke-linecap:round;stroke-dasharray:none;stroke-opacity:1;paint-order:markers fill stroke;stop-color:#000000"
     d="m 13.377011,16.323704 c -0.620878,0.326725 -1.27627,0.587816 -1.951734,0.77752 -1.173693,0.329631 -2.3988812,0.441888 -3.6178472,0.460165 -1.0642922,0.01596 -2.1286824,-0.03857 -3.189419,-0.126942 -0.6758733,-0.05631 -1.3522637,-0.126627 -2.0152048,-0.269752 -0.1569733,-0.03389 -0.3205281,-0.07183 -0.4760326,-0.03174 -0.057008,0.0147 -0.11175,0.04003 -0.1570451,0.07764 -0.045295,0.03761 -0.080806,0.08786 -0.096839,0.144511 -0.01927,0.06808 -0.00973,0.141737 0.013853,0.208448 0.02358,0.06671 0.060522,0.127752 0.097221,0.188246 0.4211019,0.694134 0.8442445,1.38703 1.2694203,2.078676 0.4891544,0.06869 0.9820011,0.111091 1.4757012,0.126942 0.3383878,0.01086 0.6771009,0.0093 1.0155362,0 0.5139468,-0.01407 1.027409,-0.04584 1.5391721,-0.09521 -0.1812969,0.112144 -0.3727459,0.207869 -0.5712391,0.28562 -0.3289747,0.128862 -0.6749093,0.207663 -1.0155363,0.301487 -0.2956906,0.08145 -0.5885279,0.174559 -0.8885942,0.238016 -0.2454609,0.05191 -0.495155,0.08379 -0.7457844,0.09521 0.297309,0.420177 0.6323116,0.813672 0.9996685,1.174214 0.4260667,0.418162 0.8941778,0.790827 1.3646268,1.158346 0.3001367,0.23447 0.6016308,0.467202 0.904462,0.698181 0.445943,-0.04264 0.8856569,-0.149891 1.3011561,-0.317355 0.3645777,-0.14694 0.7090315,-0.339248 1.047271,-0.539504 0.4269652,-0.252786 0.8466582,-0.519677 1.2376852,-0.825123 0.20988,-0.163945 0.411233,-0.338804 0.602975,-0.523636 -0.139798,0.350898 -0.327167,0.682809 -0.555371,0.983801 -0.267132,0.352336 -0.588118,0.660285 -0.92033,0.952065 -0.2887793,0.253633 -0.5875469,0.496591 -0.9044622,0.714049 -0.2095331,0.143775 -0.4268113,0.276262 -0.650578,0.396694 0.1705906,0.09822 0.3398668,0.198733 0.507768,0.301487 0.3621841,0.221654 0.7184664,0.454047 1.0948752,0.650578 0.4262,0.222527 0.875188,0.397514 1.317024,0.587107 0.326278,0.140007 0.649056,0.288167 0.967933,0.444297 0.252499,-0.303969 0.480887,-0.627962 0.682313,-0.967933 0.335822,-0.566808 0.59545,-1.175563 0.825123,-1.793056 0.2094,-0.562988 0.394749,-1.134921 0.555372,-1.713717 0.065,0.494159 0.07034,0.996138 0.01587,1.491568 -0.07169,0.652007 -0.246334,1.289728 -0.476032,1.904131 -0.170893,0.45711 -0.372488,0.90274 -0.602975,1.332891 0.227584,0.08064 0.461168,0.144345 0.698181,0.190413 0.32533,0.06323 0.656127,0.09313 0.983801,0.14281 0.09349,0.01417 0.187205,0.03 0.281758,0.03026 0.09455,2.61e-4 0.191062,-0.01588 0.273613,-0.06199 0.09588,-0.05355 0.166271,-0.143477 0.222149,-0.238017 0.106823,-0.180734 0.169092,-0.383979 0.222149,-0.587107 0.249476,-0.955113 0.314766,-1.94855 0.333222,-2.935534 0.02188,-1.170073 -0.02049,-2.341348 -0.126942,-3.506774 -0.05623,-0.615529 -0.130317,-1.229427 -0.222148,-1.840659 0.121822,0.04746 0.263374,0.04156 0.380826,-0.01587 0.115509,-0.05648 0.203446,-0.157601 0.272346,-0.266158 0.0689,-0.108556 0.121804,-0.226481 0.187819,-0.336817 0.03974,-0.06643 0.08418,-0.13 0.122493,-0.197258 0.03831,-0.06726 0.0707,-0.139012 0.08379,-0.215303 0.01951,-0.113707 -0.0058,-0.233294 -0.06347,-0.333223 -0.0396,-0.06863 -0.09412,-0.128604 -0.158678,-0.174545 l -2.364295,-1.69785 c -0.09513,-0.07935 -0.229014,-0.109778 -0.349091,-0.07934 -0.07079,0.01795 -0.135492,0.05539 -0.192629,0.10087 -0.05714,0.04548 -0.10729,0.09902 -0.156462,0.153014 -0.197555,0.216931 -0.383059,0.444836 -0.555371,0.682314 -0.04284,0.116088 -0.04847,0.245589 -0.01587,0.364958 0.02584,0.09462 0.07537,0.182667 0.14281,0.253884 z"
     id="path11505"
     inkscape:path-effect="#path-effect11507"
     inkscape:original-d="m 13.377011,16.323704 c 0,0 -1.300156,0.519347 -1.951734,0.77752 -0.651578,0.258173 -2.4108982,0.307777 -3.6178472,0.460165 C 6.60048,17.713777 5.6821503,17.477759 4.6180108,17.434447 3.5538713,17.391137 3.275541,17.255612 2.602806,17.164695 c -0.6727349,-0.09092 -0.316355,-0.02016 -0.4760326,-0.03174 -0.1596775,-0.01158 -0.168256,0.149099 -0.253884,0.222148 -0.085628,0.07305 0.07505,0.265463 0.1110742,0.396694 0.036025,0.131231 1.2694203,2.078676 1.2694203,2.078676 0,0 0.9848008,0.08563 1.4757012,0.126942 0.4909003,0.04131 0.6780241,10e-4 1.0155362,0 0.3375121,-0.001 1.5391721,-0.09521 1.5391721,-0.09521 0,0 -0.3798261,0.191413 -0.5712391,0.28562 -0.1914131,0.09421 -0.6760242,0.201991 -1.0155363,0.301487 -0.339512,0.0995 -0.5913961,0.159678 -0.8885942,0.238016 -0.297198,0.07834 -0.7457844,0.09521 -0.7457844,0.09521 0,0 0.6674457,0.783809 0.9996685,1.174214 0.3322228,0.390404 0.9107512,0.77323 1.3646268,1.158346 0.4538756,0.385115 0.904462,0.698181 0.904462,0.698181 0,0 0.8684371,-0.21057 1.3011561,-0.317355 0.432718,-0.106785 0.699181,-0.358669 1.047271,-0.539504 0.3480912,-0.180834 0.8261242,-0.549082 1.2376852,-0.825123 0.411562,-0.276041 0.602975,-0.523636 0.602975,-0.523636 0,0 -0.369248,0.656867 -0.555371,0.983801 -0.186124,0.326933 -0.612554,0.63571 -0.92033,0.952065 -0.3077772,0.316355 -0.6019752,0.477033 -0.9044622,0.714049 -0.302487,0.237016 -0.650578,0.396694 -0.650578,0.396694 0,0 0.339512,0.201991 0.507768,0.301487 0.168256,0.0995 0.730917,0.434719 1.0948752,0.650578 0.363958,0.215859 0.879016,0.392405 1.317024,0.587107 0.438007,0.194702 0.967933,0.444297 0.967933,0.444297 0,0 0.455875,-0.644289 0.682313,-0.967933 0.226438,-0.323644 0.551082,-1.194371 0.825123,-1.793056 0.274041,-0.598685 0.555372,-1.713717 0.555372,-1.713717 0,0 0.01158,0.995379 0.01587,1.491568 0.0043,0.49619 -0.316355,1.270421 -0.476032,1.904131 -0.159678,0.63371 -0.602975,1.332891 -0.602975,1.332891 0,0 0.466454,0.127942 0.698181,0.190413 0.231727,0.06247 0.656867,0.09621 0.983801,0.14281 0.326934,0.0466 0.371248,-0.02016 0.555371,-0.03173 0.184124,-0.01158 0.149099,-0.157678 0.222149,-0.238017 0.07305,-0.08034 0.149099,-0.390404 0.222149,-0.587107 0.07305,-0.196702 0.223148,-1.956023 0.333222,-2.935534 0.110075,-0.979512 -0.08363,-2.336849 -0.126942,-3.506774 -0.04331,-1.169924 -0.222148,-1.840659 -0.222148,-1.840659 0,0 0.254884,-0.0096 0.380826,-0.01587 0.125942,-0.0063 0.307776,-0.400983 0.460165,-0.602975 0.152388,-0.201991 0.13852,-0.274041 0.206281,-0.412561 0.06776,-0.138521 -0.04131,-0.221149 -0.06347,-0.333223 -0.02216,-0.112074 -0.158678,-0.174545 -0.158678,-0.174545 0,0 -2.364295,-1.69785 -2.364295,-1.69785 0,0 -0.231727,-0.05189 -0.349091,-0.07934 -0.117363,-0.02745 -0.231727,0.170256 -0.349091,0.253884 -0.117363,0.08363 -0.555371,0.682314 -0.555371,0.682314 0,0 -0.0096,0.244305 -0.01587,0.364958 -0.0063,0.120653 0.14281,0.253884 0.14281,0.253884 z" /><g
     id="g15416"
     transform="rotate(124.88125,16.71357,7.8185989)"
     inkscape:transform-center-x="3.8200553"
     inkscape:transform-center-y="5.5035091"
     style="stroke:#d9d9d9;stroke-opacity:1"><path
       style="fill:#4d4d4d;fill-opacity:1;stroke:#d9d9d9;stroke-width:1.8;stroke-linecap:round;stroke-dasharray:none;stroke-opacity:1;paint-order:markers fill stroke;stop-color:#000000"
       d="M 8.2353643,4.1414838 H 20.818493"
       id="path15384"
       inkscape:path-effect="#path-effect15386"
       inkscape:original-d="M 8.2353643,4.1414838 H 20.818493" /><path
       style="fill:#4d4d4d;fill-opacity:1;stroke:#d9d9d9;stroke-width:1.8;stroke-linecap:square;stroke-dasharray:none;stroke-opacity:1;paint-order:markers fill stroke;stop-color:#000000"
       d="m 20.818493,4.1414838 h 0.734375"
       id="path15384-8"
       inkscape:path-effect="#path-effect15386-8"
       inkscape:original-d="m 20.818493,4.1414838 h 0.734375"
       sodipodi:nodetypes="cc" /></g><ellipse
     style="fill:#ffa5a5;fill-opacity:1;fill-rule:evenodd;stroke:#ff0000;stroke-width:1.42953;stroke-linecap:square;stroke-linejoin:round;stroke-miterlimit:10;stroke-dashoffset:10;stroke-opacity:1"
     id="path1025-0"
     cx="24.873022"
     cy="17.546246"
     rx="2.7250326"
     ry="2.7450697" /><ellipse
     style="fill:#ffa5a5;fill-opacity:1;fill-rule:evenodd;stroke:#ff0000;stroke-width:1.42953;stroke-linecap:square;stroke-linejoin:round;stroke-miterlimit:10;stroke-dashoffset:10;stroke-opacity:1"
     id="path1025-0-4"
     cx="22.47645"
     cy="26.169403"
     rx="2.7250326"
     ry="2.7450697" /></svg>
