<svg viewBox="0 0 30 30" xml:space="preserve" xmlns="http://www.w3.org/2000/svg" enable-background="new 0 0 30 30"><path d="M27 14h-.172c-.478 0-.904-.337-.98-.809a10.886 10.886 0 0 0-.132-.68c-.106-.464.158-.933.597-1.115l.156-.065a1 1 0 1 0-.766-1.848l-.16.066a.986.986 0 0 1-1.214-.37c-.122-.196-.25-.388-.384-.576-.277-.388-.213-.924.124-1.261l.122-.122a.999.999 0 1 0-1.414-1.414l-.121.124c-.337.337-.873.401-1.261.124-.188-.134-.38-.262-.576-.384-.405-.252-.553-.773-.37-1.214l.066-.16a1.001 1.001 0 0 0-1.848-.766l-.065.156c-.182.439-.651.703-1.115.597a10.886 10.886 0 0 0-.68-.132c-.47-.075-.807-.501-.807-.979V3a1 1 0 0 0-2 0v.172c0 .478-.337.904-.809.98-.229.037-.456.081-.68.132-.464.106-.933-.158-1.115-.597l-.065-.156a1 1 0 1 0-1.848.766l.066.16c.184.44.037.961-.369 1.213-.196.122-.388.25-.575.383-.388.277-.924.214-1.261-.123l-.122-.122a1 1 0 0 0-1.414 1.414l.122.122c.337.337.4.872.123 1.261-.133.187-.261.379-.383.575-.252.406-.773.553-1.214.37l-.16-.066a1.001 1.001 0 0 0-.766 1.848l.156.065c.439.182.703.651.597 1.115-.051.224-.095.451-.132.68-.075.471-.501.808-.979.808H3a1 1 0 0 0 0 2h.172c.478 0 .904.337.98.809.037.229.081.456.132.68.106.464-.158.933-.597 1.115l-.156.065a1 1 0 1 0 .766 1.848l.16-.066a.986.986 0 0 1 1.214.37c.122.196.25.388.384.576.277.388.213.924-.124 1.261l-.122.122a.999.999 0 1 0 1.414 1.414l.122-.122c.337-.337.873-.401 1.261-.124.188.134.38.262.576.384.405.252.553.773.37 1.214l-.066.16a1.001 1.001 0 0 0 1.848.766l.065-.156c.182-.439.651-.703 1.115-.597.224.051.451.095.68.132.469.073.806.499.806.977V27a1 1 0 0 0 2 0v-.172c0-.478.337-.904.809-.98.229-.037.456-.081.68-.132.464-.106.933.158 1.115.597l.065.156a1 1 0 1 0 1.848-.766l-.066-.16a.986.986 0 0 1 .37-1.214c.196-.122.388-.25.576-.384.388-.277.924-.213 1.261.124l.122.122a.999.999 0 1 0 1.414-1.414l-.122-.122c-.337-.337-.401-.873-.124-1.261.134-.188.262-.38.384-.576.252-.405.773-.553 1.214-.37l.16.066a1.001 1.001 0 0 0 .766-1.848l-.156-.065c-.439-.182-.703-.651-.597-1.115.051-.224.095-.451.132-.68.073-.469.499-.806.977-.806H27a1 1 0 0 0 0-2zm-12 9a8 8 0 1 1 0-16 8 8 0 0 1 0 16z" fill="#f0f0f0" class="fill-000000"></path><path d="M19 15h-7v-3l1.506-.86 5.962 2.98zM19 15h-7v3l1.506.86 5.962-2.98z" fill="#f0f0f0" class="fill-000000"></path><circle cx="19" cy="15" r="1" fill="#f0f0f0" class="fill-000000"></circle><circle cx="13" cy="12" r="1" fill="#f0f0f0" class="fill-000000"></circle><circle cx="13" cy="18" r="1" fill="#f0f0f0" class="fill-000000"></circle></svg>