<?xml version="1.0" encoding="UTF-8" standalone="no"?>
<svg
   viewBox="0 0 32 32"
   xml:space="preserve"
   version="1.1"
   id="svg6"
   sodipodi:docname="compute-zoom.svg"
   inkscape:version="1.2.2 (732a01da63, 2022-12-09)"
   xmlns:inkscape="http://www.inkscape.org/namespaces/inkscape"
   xmlns:sodipodi="http://sodipodi.sourceforge.net/DTD/sodipodi-0.dtd"
   xmlns="http://www.w3.org/2000/svg"
   xmlns:svg="http://www.w3.org/2000/svg"><defs
     id="defs10" /><sodipodi:namedview
     id="namedview8"
     pagecolor="#ffffff"
     bordercolor="#666666"
     borderopacity="1.0"
     inkscape:pageshadow="2"
     inkscape:pageopacity="0.0"
     inkscape:pagecheckerboard="0"
     showgrid="false"
     inkscape:zoom="16.076266"
     inkscape:cx="17.074861"
     inkscape:cy="13.435956"
     inkscape:window-width="1920"
     inkscape:window-height="1017"
     inkscape:window-x="-8"
     inkscape:window-y="-8"
     inkscape:window-maximized="1"
     inkscape:current-layer="svg6"
     showguides="true"
     inkscape:guide-bbox="true"
     inkscape:showpageshadow="2"
     inkscape:deskcolor="#d1d1d1"><sodipodi:guide
       position="8.8941867,11.340521"
       orientation="1,0"
       id="guide5416"
       inkscape:locked="false" /></sodipodi:namedview><g
     id="g4032"
     transform="matrix(0.5583602,0,0,0.5583602,8.2225984,-3.6539291)"><path
       fill="none"
       d="m -12.657177,9.4230503 h 32 V 41.42305 h -32 z"
       id="path2-0" /><path
       d="m -12.657177,39.42305 4,-8 h 24 l 4,8 z m 4,-28 v 18 h 24 v -18 z m 22,16 h -20 v -14 h 20 z"
       fill="#4d4d4d"
       class="fill-000000"
       id="path4" /><path
       style="fill:#ffffff;fill-opacity:1;stroke:none;stroke-width:0.431125px;stroke-linecap:butt;stroke-linejoin:miter;stroke-opacity:1"
       d="M -3.3484679,38.30781 -1.675646,34.752254 H 8.361291 l 1.672823,3.555556 z"
       id="path2717-3"
       sodipodi:nodetypes="ccccc" /><rect
       style="fill:#4d4d4d;fill-opacity:1;stroke:none;stroke-width:0.764291;stroke-linecap:square;stroke-linejoin:miter;stroke-miterlimit:4;stroke-dasharray:none;stroke-opacity:1;paint-order:normal"
       id="rect4633"
       width="32"
       height="0.9593733"
       x="-12.657177"
       y="39.42305" /></g><ellipse
     style="fill:#d9d9d9;fill-opacity:1;stroke:none;stroke-width:3.11906;stroke-linecap:round;stroke-dasharray:none;paint-order:markers fill stroke;stop-color:#000000;stroke-opacity:1"
     id="path4449"
     cx="18.973352"
     cy="18.974039"
     rx="8.0263786"
     ry="8.0260658" /><path
     fill="none"
     d="M 4.7825859,4.1040801 H 25.511897 V 24.833391 H 4.7825859 Z"
     id="path2"
     style="stroke-width:0.647791" /><path
     d="m 30,28.586 -4.689,-4.688 c 2.600924,-3.347597 2.150554,-8.140729 -1.027286,-10.944261 -3.177729,-2.803433 -7.98655,-2.650197 -10.983861,0.347114 -2.997311,2.997311 -3.150547,7.806132 -0.347114,10.983861 2.803532,3.17784 7.596664,3.62821 10.944261,1.027286 L 28.586,30 Z M 19,25 C 13.654199,25 10.977981,18.537169 14.757575,14.757575 18.537169,10.977981 25,13.654199 25,19 c -0.0039,3.312109 -2.687891,5.996143 -6,6 z"
     fill="#4d4d4d"
     class="fill-000000"
     id="path2991"
     sodipodi:nodetypes="ccsssccccscc" /></svg>
