<?xml version="1.0" encoding="UTF-8" standalone="no"?>
<svg
   version="1.1"
   id="Layer_1"
   x="0px"
   y="0px"
   viewBox="0 0 680.3 680.3"
   style="enable-background:new 0 0 680.3 680.3;"
   xml:space="preserve"
   sodipodi:docname="contribute.svg"
   inkscape:version="1.1 (c68e22c387, 2021-05-23)"
   xmlns:inkscape="http://www.inkscape.org/namespaces/inkscape"
   xmlns:sodipodi="http://sodipodi.sourceforge.net/DTD/sodipodi-0.dtd"
   xmlns="http://www.w3.org/2000/svg"
   xmlns:svg="http://www.w3.org/2000/svg"
   xmlns:rdf="http://www.w3.org/1999/02/22-rdf-syntax-ns#"
   xmlns:cc="http://creativecommons.org/ns#"
   xmlns:dc="http://purl.org/dc/elements/1.1/"><metadata
   id="metadata844"><rdf:RDF><cc:Work
       rdf:about=""><dc:format>image/svg+xml</dc:format><dc:type
         rdf:resource="http://purl.org/dc/dcmitype/StillImage" /><dc:title /></cc:Work></rdf:RDF></metadata><defs
   id="defs842"><inkscape:path-effect
     effect="spiro"
     id="path-effect11623"
     is_visible="true"
     lpeversion="1" /><inkscape:path-effect
     effect="spiro"
     id="path-effect11449"
     is_visible="true"
     lpeversion="1" /><inkscape:path-effect
     effect="spiro"
     id="path-effect11445"
     is_visible="true"
     lpeversion="1" /><inkscape:path-effect
     effect="spiro"
     id="path-effect11441"
     is_visible="true"
     lpeversion="1" /><inkscape:path-effect
     effect="spiro"
     id="path-effect11437"
     is_visible="true"
     lpeversion="1" /><inkscape:path-effect
     effect="spiro"
     id="path-effect11433"
     is_visible="true"
     lpeversion="1" /><inkscape:path-effect
     effect="spiro"
     id="path-effect11429"
     is_visible="true"
     lpeversion="1" /><inkscape:path-effect
     effect="spiro"
     id="path-effect11308"
     is_visible="true"
     lpeversion="1" /><inkscape:path-effect
     effect="spiro"
     id="path-effect11304"
     is_visible="true"
     lpeversion="1" /><inkscape:path-effect
     effect="spiro"
     id="path-effect11300"
     is_visible="true"
     lpeversion="1" /><inkscape:path-effect
     effect="spiro"
     id="path-effect9463"
     is_visible="true"
     lpeversion="1" /><inkscape:path-effect
     effect="spiro"
     id="path-effect9459"
     is_visible="true"
     lpeversion="1" /><inkscape:path-effect
     effect="spiro"
     id="path-effect8425"
     is_visible="true"
     lpeversion="1" /><inkscape:path-effect
     effect="spiro"
     id="path-effect7037"
     is_visible="true"
     lpeversion="1" /><inkscape:path-effect
     effect="spiro"
     id="path-effect6723"
     is_visible="true"
     lpeversion="1" /><inkscape:path-effect
     effect="spiro"
     id="path-effect5663"
     is_visible="true"
     lpeversion="1" /><inkscape:path-effect
     effect="spiro"
     id="path-effect5659"
     is_visible="true"
     lpeversion="1" /><inkscape:path-effect
     effect="spiro"
     id="path-effect5458"
     is_visible="true"
     lpeversion="1" /><inkscape:path-effect
     effect="spiro"
     id="path-effect5242"
     is_visible="true"
     lpeversion="1" /><inkscape:path-effect
     effect="spiro"
     id="path-effect1385"
     is_visible="true"
     lpeversion="1" /><inkscape:path-effect
     effect="spiro"
     id="path-effect1381"
     is_visible="true"
     lpeversion="1" /><inkscape:path-effect
     effect="spiro"
     id="path-effect1377"
     is_visible="true"
     lpeversion="1" /><inkscape:path-effect
     effect="spiro"
     id="path-effect1373"
     is_visible="true"
     lpeversion="1" /><inkscape:path-effect
     effect="spiro"
     id="path-effect1369"
     is_visible="true"
     lpeversion="1" /><inkscape:path-effect
     effect="spiro"
     id="path-effect1139"
     is_visible="true"
     lpeversion="1" /><inkscape:path-effect
     effect="spiro"
     id="path-effect1135"
     is_visible="true"
     lpeversion="1" /><inkscape:path-effect
     effect="spiro"
     id="path-effect1018"
     is_visible="true"
     lpeversion="1" /><inkscape:path-effect
     effect="bspline"
     id="path-effect821"
     is_visible="true"
     lpeversion="1"
     weight="33.333333"
     steps="2"
     helper_size="0"
     apply_no_weight="true"
     apply_with_weight="true"
     only_selected="false" /><inkscape:path-effect
     effect="spiro"
     id="path-effect2007"
     is_visible="true"
     lpeversion="1" /><inkscape:path-effect
     effect="spiro"
     id="path-effect1891"
     is_visible="true"
     lpeversion="1" /><marker
     style="overflow:visible;"
     id="Arrow2Send"
     refX="0.0"
     refY="0.0"
     orient="auto"
     inkscape:stockid="Arrow2Send"
     inkscape:isstock="true"><path
       transform="scale(0.3) rotate(180) translate(-2.3,0)"
       d="M 8.7185878,4.0337352 L -2.2072895,0.016013256 L 8.7185884,-4.0017078 C 6.9730900,-1.6296469 6.9831476,1.6157441 8.7185878,4.0337352 z "
       style="fill-rule:evenodd;stroke-width:0.625;stroke-linejoin:round;stroke:#666666;stroke-opacity:1;fill:#666666;fill-opacity:1"
       id="path1501" /></marker><marker
     style="overflow:visible;"
     id="Arrow1Mend"
     refX="0.0"
     refY="0.0"
     orient="auto"
     inkscape:stockid="Arrow1Mend"
     inkscape:isstock="true"><path
       transform="scale(0.4) rotate(180) translate(10,0)"
       style="fill-rule:evenodd;stroke:#000000;stroke-width:1pt;stroke-opacity:1;fill:#000000;fill-opacity:1"
       d="M 0.0,0.0 L 5.0,-5.0 L -12.5,0.0 L 5.0,5.0 L 0.0,0.0 z "
       id="path1477" /></marker><marker
     style="overflow:visible;"
     id="Arrow1Lend"
     refX="0.0"
     refY="0.0"
     orient="auto"
     inkscape:stockid="Arrow1Lend"
     inkscape:isstock="true"><path
       transform="scale(0.8) rotate(180) translate(12.5,0)"
       style="fill-rule:evenodd;stroke:#000000;stroke-width:1pt;stroke-opacity:1;fill:#000000;fill-opacity:1"
       d="M 0.0,0.0 L 5.0,-5.0 L -12.5,0.0 L 5.0,5.0 L 0.0,0.0 z "
       id="path1471" /></marker><inkscape:path-effect
     effect="spiro"
     id="path-effect1466"
     is_visible="true"
     lpeversion="1" /><inkscape:path-effect
     effect="spiro"
     id="path-effect866"
     is_visible="true"
     lpeversion="1" /><inkscape:path-effect
     effect="spiro"
     id="path-effect862"
     is_visible="true"
     lpeversion="1" /><marker
     style="overflow:visible"
     id="Arrow2Send-9"
     refX="0"
     refY="0"
     orient="auto"
     inkscape:stockid="Arrow2Send"
     inkscape:isstock="true"><path
       transform="matrix(-0.3,0,0,-0.3,0.69,0)"
       d="M 8.7185878,4.0337352 -2.2072895,0.01601326 8.7185884,-4.0017078 c -1.7454984,2.3720609 -1.7354408,5.6174519 -6e-7,8.035443 z"
       style="fill:#666666;fill-opacity:1;fill-rule:evenodd;stroke:#666666;stroke-width:0.625;stroke-linejoin:round;stroke-opacity:1"
       id="path1501-8" /></marker><marker
     style="overflow:visible"
     id="Arrow2Send-9-0"
     refX="0"
     refY="0"
     orient="auto"
     inkscape:stockid="Arrow2Send"
     inkscape:isstock="true"><path
       transform="matrix(-0.3,0,0,-0.3,0.69,0)"
       d="M 8.7185878,4.0337352 -2.2072895,0.01601326 8.7185884,-4.0017078 c -1.7454984,2.3720609 -1.7354408,5.6174519 -6e-7,8.035443 z"
       style="fill:#666666;fill-opacity:1;fill-rule:evenodd;stroke:#666666;stroke-width:0.625;stroke-linejoin:round;stroke-opacity:1"
       id="path1501-8-6" /></marker></defs><sodipodi:namedview
   pagecolor="#ffffff"
   bordercolor="#666666"
   borderopacity="1"
   objecttolerance="10"
   gridtolerance="10"
   guidetolerance="10"
   inkscape:pageopacity="0"
   inkscape:pageshadow="2"
   inkscape:window-width="1920"
   inkscape:window-height="1137"
   id="namedview840"
   showgrid="false"
   inkscape:object-paths="false"
   inkscape:zoom="0.71991335"
   inkscape:cx="482.69698"
   inkscape:cy="320.17742"
   inkscape:window-x="-8"
   inkscape:window-y="-8"
   inkscape:window-maximized="1"
   inkscape:current-layer="Layer_1"
   inkscape:pagecheckerboard="0" />
<style
   type="text/css"
   id="style833">
	.st0{fill:#2B9245;}
</style>

<circle
   style="fill:#f0f0f0;fill-opacity:1;fill-rule:evenodd;stroke-width:0;stroke-miterlimit:4;stroke-dasharray:none"
   id="path704"
   cx="283.32446"
   cy="163.21553"
   r="76.265488" /><path
   style="fill:#f0f0f0;fill-opacity:1;stroke:#000000;stroke-width:0;stroke-linecap:butt;stroke-linejoin:miter;stroke-miterlimit:4;stroke-dasharray:none;stroke-opacity:1"
   d="m 155.72584,355.47319 c -4.4645,-10.16938 -8.78416,-20.4449 -11.72489,-31.15472 -2.66238,-9.69609 -4.17214,-19.66679 -6.36495,-29.47974 -1.4798,-6.6222 -3.28401,-13.37958 -2.34498,-20.09982 0.67857,-4.85627 2.78808,-9.45097 5.69495,-13.39988 2.95112,-4.00903 6.80399,-7.44321 11.3899,-9.37991 5.35733,-2.26249 11.51983,-2.35832 17.08485,-0.67 5.08443,1.54252 9.73775,4.56735 13.06488,8.70993 2.71732,3.38332 4.52602,7.46634 5.35995,11.72489 0.6474,3.30605 0.71766,6.69334 1.00499,10.04991 0.822,9.60261 3.42343,18.96188 6.36495,28.13975 3.14152,9.8019 6.69089,19.48763 11.0549,28.80974 5.55683,11.87012 12.42766,23.12359 20.43481,33.4997 6.96033,9.01958 14.76975,17.36854 23.1148,25.12477 7.20945,6.70075 14.82357,12.96546 22.77979,18.75984 6.98935,5.09022 14.2453,9.81925 21.77481,14.06987 9.77654,5.51913 20.04636,10.24136 30.81972,13.39988 6.2946,1.84545 12.8727,3.20688 18.42484,6.69994 5.49551,3.45743 9.66516,8.9176 11.72489,15.07487 2.06791,6.18173 1.99729,13.14707 -0.66999,19.09482 -2.1659,4.82971 -5.94686,8.84031 -10.38491,11.7249 -4.08651,2.6561 -8.86154,4.42611 -13.73488,4.35496 -5.72379,-0.0836 -11.07049,-2.63897 -16.41485,-4.68996 -7.38637,-2.83464 -15.09531,-4.776 -22.4448,-7.70493 -7.10428,-2.83121 -13.81193,-6.56078 -20.43482,-10.38491 -7.81224,-4.51087 -15.54057,-9.16985 -23.11479,-14.06987 -8.72699,-5.64579 -17.26465,-11.62381 -25.12477,-18.42483 -8.12499,-7.0302 -15.47839,-14.89763 -22.7798,-22.7798 -9.5529,-10.31275 -19.09278,-20.7383 -26.79976,-32.49471 -7.10012,-10.83068 -12.54898,-22.6466 -17.75484,-34.50469 z"
   id="path1016"
   inkscape:path-effect="#path-effect1018"
   inkscape:original-d="m 155.72584,355.47319 c -5.91928,-11.50256 -7.8156,-20.76881 -11.72489,-31.15472 -3.9093,-10.38591 -4.2423,-19.65216 -6.36495,-29.47974 -2.12264,-9.82757 -1.56232,-13.39888 -2.34498,-20.09982 -0.78266,-6.70094 3.79764,-8.93225 5.69495,-13.39988 1.89732,-4.46762 7.59427,-6.25227 11.3899,-9.37991 3.79563,-3.12764 11.3909,-0.44566 17.08485,-0.67 5.69395,-0.22433 8.71092,5.80762 13.06488,8.70993 4.35396,2.9023 3.5743,7.81759 5.35995,11.72489 1.78565,3.9073 0.671,6.70094 1.00499,10.04991 0.334,3.34897 4.2443,18.76083 6.36495,28.13975 2.12064,9.37891 7.37093,19.20749 11.0549,28.80974 3.68396,9.60225 13.62421,22.33413 20.43481,33.4997 6.81061,11.16557 15.41087,16.75085 23.1148,25.12477 7.70393,8.37393 15.18753,12.50756 22.77979,18.75984 7.59227,6.25227 14.51754,9.38091 21.77481,14.06987 7.25727,4.68896 20.54748,8.93425 30.81972,13.39988 10.27224,4.46563 12.28422,4.46763 18.42484,6.69994 6.14061,2.23231 7.81759,10.05091 11.72489,15.07487 3.9073,5.02395 -0.44566,12.73088 -0.66999,19.09482 -0.22433,6.36395 -6.92227,7.8176 -10.38491,11.7249 -3.46264,3.9073 -9.15558,2.90431 -13.73488,4.35496 -4.57929,1.45065 -10.94223,-3.12564 -16.41485,-4.68996 -5.47262,-1.56432 -14.9622,-5.13562 -22.4448,-7.70493 -7.4826,-2.56931 -13.62221,-6.92227 -20.43482,-10.38491 -6.8126,-3.46263 -15.40886,-9.37891 -23.11479,-14.06987 -7.70593,-4.69096 -16.74885,-12.28222 -25.12477,-18.42483 -8.37593,-6.14262 -15.18553,-15.18553 -22.7798,-22.7798 -7.59426,-7.59427 -17.86551,-21.66214 -26.79976,-32.49471 -8.93425,-10.83257 -11.83556,-23.00213 -17.75484,-34.50469 z" /><path
   style="fill:#f0f0f0;fill-opacity:1;stroke:#000000;stroke-width:0;stroke-linecap:butt;stroke-linejoin:miter;stroke-miterlimit:4;stroke-dasharray:none;stroke-opacity:1"
   d="m 203.23848,309.91421 c -3.10452,-7.4815 -5.09064,-15.42596 -5.87206,-23.48823 -0.58114,-5.99583 -0.50706,-12.09567 -1.95735,-17.9424 -1.87063,-7.54128 -6.31523,-14.41125 -12.39657,-19.24731 -5.38964,-4.286 -12.05514,-6.97695 -18.92108,-7.50318 -6.92941,-0.5311 -14.03328,1.16736 -19.89976,4.89338 -5.48851,3.48596 -9.83839,8.70256 -12.39656,14.68014 -3.47876,8.1287 -3.62056,17.28277 -2.93603,26.09804 1.00591,12.95389 3.67582,25.75201 7.50318,38.16839 4.32913,14.04417 10.13038,27.60102 16.6375,40.77818 2.70442,5.47656 5.53234,10.89213 8.48087,16.24121 -3.32121,5.6016 -6.20235,11.46404 -8.60815,17.51553 -1.3391,3.36833 -2.53112,6.79513 -3.57154,10.26736 2.50321,-0.36471 5.00762,-0.72122 7.51317,-1.06954 6.8796,-0.95639 13.76779,-1.85095 20.66347,-2.68354 3.65207,4.61026 7.39608,9.14768 11.22906,13.60866 7.04108,8.1947 14.39386,16.14265 22.40201,23.39521 6.28329,5.69045 12.95431,10.93863 19.7535,16.00144 5.67353,4.22462 11.44108,8.32411 17.3257,12.24937 7.06559,4.71301 14.29915,9.1742 21.68234,13.37225 -15.77456,13.06679 -31.51025,26.18052 -47.20678,39.34095 -13.61522,11.4154 -27.20359,22.86806 -41.14433,33.88356 -10.57949,8.35956 -21.369,16.47327 -31.4633,25.41267 -5.4347,4.81291 -10.82456,9.96574 -17.54685,12.70634 -6.82596,2.78287 -14.4805,2.82614 -21.78229,1.81519 -5.27233,-0.72997 -10.5046,-1.99866 -15.337208,-4.2294 -4.832607,-2.23075 -9.264468,-5.45748 -12.495712,-9.68706 -4.468918,-5.84966 -6.409596,-13.26018 -7.260763,-20.57217 -0.559891,-4.80977 -0.691508,-9.69996 0.08288,-14.47989 0.774388,-4.77993 2.484395,-9.45909 5.362692,-13.35303 2.80718,-3.79773 6.606997,-6.72004 10.286081,-9.68102 10.35621,-8.33481 20.14573,-17.37362 29.27861,-27.03336 -4.09347,1.00563 -8.26864,1.67846 -12.47079,2.00969 -5.19435,0.40943 -10.432457,0.29605 -15.597693,-0.389 C 82.66829,499.67879 73.128328,496.27731 64.136739,491.91669 52.764862,486.40171 42.01954,479.20097 33.88356,469.52934 27.724586,462.20787 23.136708,453.48135 21.177225,444.11667 18.207882,429.9257 21.3313,415.23251 24.807607,401.15715 c 5.174455,-20.95107 11.169045,-41.75158 19.362034,-61.71648 6.928886,-16.8845 15.4202,-33.13269 25.41267,-48.40509 8.770551,-13.40483 18.671608,-26.02644 28.437989,-38.72407 9.01095,-11.71547 18.22485,-23.79214 30.85824,-31.4633 12.03996,-7.31082 26.45872,-10.06439 40.53926,-9.68102 10.26195,0.2794 20.47875,2.15979 30.16773,5.55233 4.21759,1.88128 8.04127,4.6403 11.15613,8.04984 4.43724,4.85702 7.37639,10.95044 9.13432,17.28995 2.69473,9.71783 2.70284,20.02558 1.3049,30.01275 -0.93896,6.70809 -2.51399,13.36388 -5.21961,19.57352 -2.98352,6.84745 -7.33493,13.09563 -12.72279,18.26863"
   id="path1379"
   inkscape:original-d="m 203.23848,309.91421 c -1.95636,-7.82841 -3.91371,-15.65782 -5.87206,-23.48823 -1.95835,-7.83041 -1.3039,-11.9606 -1.95735,-17.9424 -0.65345,-5.98181 -8.26338,-12.83054 -12.39657,-19.24731 -4.13319,-6.41677 -12.61305,-5.00112 -18.92108,-7.50318 -6.30803,-2.50207 -13.2655,3.26325 -19.89976,4.89338 -6.63425,1.63012 -8.26337,9.78776 -12.39656,14.68014 -4.13319,4.89239 -1.95636,17.3997 -2.93603,26.09804 -0.97968,8.69835 5.00312,25.44659 7.50318,38.16839 2.50007,12.72179 11.09267,27.18645 16.6375,40.77818 5.54484,13.59173 5.78176,10.62763 8.48087,16.24121 -3.12207,6.24118 -5.67434,11.5776 -8.60815,17.51553 -2.9338,5.93793 -3.0376,6.9366 -3.57154,10.26736 2.9362,-0.46889 5.12315,-0.70069 7.51317,-1.06954 2.39002,-0.36885 13.22427,-1.6876 20.66347,-2.68354 4.02021,4.487 7.62514,9.04833 11.22906,13.60866 3.60392,4.56033 14.93567,15.5978 22.40201,23.39521 7.46634,7.7974 13.17,10.66862 19.7535,16.00144 6.5835,5.33281 11.55147,8.16725 17.3257,12.24937 5.77423,4.08213 14.85139,8.52034 21.68234,13.37225 -16.52558,13.90563 -33.49301,28.04543 -47.20678,39.34095 -13.71378,11.29552 -30.65756,25.41167 -41.14433,33.88356 -10.48677,8.47189 -25.61535,21.17623 -31.4633,25.41267 -5.84795,4.23645 -10.28708,12.10027 -17.54685,12.70634 -7.25976,0.60606 -12.50564,6.45301 -21.78229,1.81519 -9.27664,-4.63782 -25.413666,-7.06008 -27.83292,-13.91646 -2.419254,-6.85639 -9.076954,-11.29552 -7.260763,-20.57217 1.816191,-9.27664 2.015879,-24.60691 5.445572,-27.83292 3.429694,-3.22601 0.402375,-0.80775 10.286081,-9.68102 9.88371,-8.87326 19.76641,-17.74753 29.27861,-27.03336 -4.40227,0.39719 -7.02621,2.41207 -12.47079,2.00969 -5.44457,-0.4024 -5.67507,-1.11488 -15.597693,-0.389 -95.686782,6.99992 -80.426074,5.60311 -28.437988,-9.07595 12.071863,-3.40854 -26.018734,-13.91746 -30.253179,-22.38735 -4.234445,-8.46989 -13.917462,-11.09384 -12.706335,-25.41267 1.211127,-14.31884 -2.82463,-22.38836 3.630382,-42.95952 6.455011,-20.57116 10.890144,-45.58245 19.362034,-61.71648 8.47189,-16.13403 15.932341,-35.49807 25.41267,-48.40509 9.48033,-12.90702 18.150908,-28.2373 28.437989,-38.72407 10.28708,-10.48677 17.34416,-28.2373 30.85824,-31.4633 13.51409,-3.22601 30.05049,-11.6989 40.53926,-9.68102 10.48877,2.01788 18.38538,3.03816 30.16773,5.55233 4.58343,3.01648 7.87028,5.53366 11.15613,8.04984 3.28586,2.51618 6.09055,11.52763 9.13432,17.28995 3.04377,5.76232 0.87093,20.0095 1.3049,30.01275 0.43397,10.00324 -3.47874,13.05001 -5.21961,19.57352 -1.74087,6.52351 -8.48086,12.18009 -12.72279,18.26863"
   inkscape:path-effect="#path-effect1381"
   sodipodi:nodetypes="cssssssssscscscsssscssssssssscssssssssssscssssc" /><path
   style="fill:#f0f0f0;fill-opacity:1;stroke:#000000;stroke-width:0;stroke-linecap:butt;stroke-linejoin:miter;stroke-miterlimit:4;stroke-dasharray:none;stroke-opacity:1"
   d="m 295.06774,420.84784 c -3.84053,-2.1213 -7.49365,-4.56267 -11.13463,-7.0107 -5.23924,-3.52262 -10.4686,-7.0688 -15.46477,-10.92843 -3.85988,-2.98183 -7.57708,-6.14833 -11.13463,-9.48506 4.58581,-1.04696 9.3612,-1.25764 14.02139,-0.61859 5.13279,0.70386 10.11002,2.43468 14.63998,4.94873 4.33905,2.40811 8.28288,5.54098 11.54702,9.27886 3.77663,4.32475 6.64024,9.4844 8.04168,15.05237 0.3195,1.26937 0.5634,2.55776 0.72998,3.85608 -3.87557,-1.3966 -7.64,-3.10149 -11.24602,-5.09326 z"
   id="path5657"
   inkscape:path-effect="#path-effect5659"
   inkscape:original-d="m 295.06774,420.84784 c -3.71054,-2.3359 -5.98071,-3.36889 -11.13463,-7.0107 -5.15392,-3.64181 -11.75422,-7.76775 -15.46477,-10.92843 -3.71054,-3.16069 -7.42209,-6.32237 -11.13463,-9.48506 4.6748,-0.2052 9.34859,-0.41139 14.02139,-0.61859 4.67279,-0.20719 9.76098,3.30015 14.63998,4.94873 4.87899,1.64857 7.69901,6.1869 11.54702,9.27886 3.84801,3.09195 5.36212,10.03591 8.04168,15.05237 2.67956,5.01646 0.36124,1.93965 0.72998,3.85608 -3.68447,-1.38072 -7.53548,-2.75736 -11.24602,-5.09326 z"
   sodipodi:nodetypes="ssscsssscs" /><path
   style="fill:#f0f0f0;fill-opacity:1;stroke:#000000;stroke-width:0;stroke-linecap:butt;stroke-linejoin:miter;stroke-miterlimit:4;stroke-dasharray:none;stroke-opacity:1"
   d="m 389.50591,484.35648 c 1.90847,-2.5271 4.1525,-4.7929 6.5983,-6.8045 2.47582,-2.03629 5.15361,-3.81126 7.83548,-5.56732 2.27276,-1.48819 4.59866,-2.98697 7.21689,-3.71154 1.40503,-0.38883 2.87839,-0.5455 4.33014,-0.41239 2.94492,0.27002 5.64115,1.69636 8.24787,3.09295 5.50257,2.94808 11.0091,5.88886 16.49575,8.86647 6.48953,3.52188 12.95113,7.09524 19.38251,10.72223 2.68013,1.51147 5.38274,3.05239 7.62929,5.15493 3.54879,3.3213 5.72268,7.80629 8.24787,11.95941 0.96156,1.58146 1.98344,3.1271 2.88676,4.74253 1.2268,2.19392 2.23869,4.53622 2.68056,7.0107 0.46866,2.62448 0.26739,5.40348 -0.82479,7.83548 -0.94967,2.11467 -2.5328,3.89713 -4.33014,5.36112 -5.31514,4.32938 -12.28288,5.91469 -18.97011,7.42309 -2.71788,0.61306 -5.4617,1.23758 -8.24787,1.23718 -3.28552,-4.7e-4 -6.49993,-0.86851 -9.69126,-1.64958 -6.49569,-1.5898 -13.06896,-2.84203 -19.5887,-4.33013 -7.31363,-1.6693 -14.55653,-3.63462 -21.85687,-5.36112 -1.54802,-0.3661 -3.11577,-0.72756 -4.53633,-1.44338 -1.44972,-0.73051 -2.70775,-1.81713 -3.71155,-3.09295 -1.78141,-2.26415 -2.74247,-5.05739 -3.50534,-7.83548 -0.96476,-3.51333 -1.66374,-7.10069 -2.06197,-10.72224 -0.33902,-3.08308 -0.45895,-6.21134 0,-9.27886 0.71789,-4.79817 2.84969,-9.32503 5.77351,-13.1966 z"
   id="path6721"
   inkscape:original-d="m 389.50591,484.35648 c 1.92351,-4.39987 4.39987,-4.53533 6.5983,-6.8045 2.19843,-2.26917 5.22466,-3.71054 7.83548,-5.56732 2.61083,-1.85677 4.81226,-2.47336 7.21689,-3.71154 2.40463,-1.23818 2.88776,-0.27393 4.33014,-0.41239 1.44238,-0.13847 5.49958,2.06297 8.24787,3.09295 2.7483,1.02998 10.99817,5.91198 16.49575,8.86647 5.49759,2.95448 12.92268,7.14915 19.38251,10.72223 6.45984,3.57308 5.08719,3.43762 7.62929,5.15493 2.54209,1.7173 5.49958,7.97394 8.24787,11.95941 2.74829,3.98548 1.92551,3.16269 2.88676,4.74253 0.96125,1.57985 1.78804,4.6748 2.68056,7.0107 0.89252,2.3359 -0.54886,5.22465 -0.82479,7.83548 -0.27593,2.61083 -2.88576,3.57508 -4.33014,5.36112 -1.44437,1.78604 -12.64574,4.94972 -18.97011,7.42309 -6.32437,2.47336 -5.49758,0.82578 -8.24787,1.23718 -2.7503,0.41139 -6.45984,-1.09872 -9.69126,-1.64958 -3.23141,-0.55086 -13.05813,-2.88575 -19.5887,-4.33013 -6.53057,-1.44438 -14.57025,-3.57308 -21.85687,-5.36112 -7.28662,-1.78804 -3.02322,-0.96125 -4.53633,-1.44338 -1.51311,-0.48213 -2.47336,-2.06097 -3.71155,-3.09295 -1.23818,-1.03199 -2.33589,-5.22266 -3.50534,-7.83548 -1.16945,-2.61283 -1.37365,-7.14716 -2.06197,-10.72224 -0.68832,-3.57508 0.001,-6.18491 0,-9.27886 -10e-4,-3.09396 3.85001,-8.79674 5.77351,-13.1966 z"
   inkscape:path-effect="#path-effect6723" /><path
   style="fill:#f0f0f0;fill-opacity:1;stroke:#000000;stroke-width:0;stroke-linecap:butt;stroke-linejoin:miter;stroke-miterlimit:4;stroke-dasharray:none;stroke-opacity:1"
   d="m 391.38108,485.20883 -13.62839,-5.59488 2.26816,-4.74253 -3.71154,-1.85577 -1.85577,4.33013 -10.51604,-4.74253 c -0.13647,3.36889 1.09871,7.62829 -0.4124,10.10365 -1.51111,2.47536 -3.02322,4.94973 -4.53633,7.42309 l 9.27886,2.68056 -1.44338,4.94872 3.91774,1.44338 2.06197,-5.77351 13.00981,4.56389 z"
   id="path7237"
   sodipodi:nodetypes="ccccccsccccccc" /><g
   id="g15743"
   transform="matrix(1.1640474,0,0,1.2356148,-103.09472,-140.2673)"><path
     style="fill:#f0f0f0;fill-opacity:1;stroke-width:0;stroke-miterlimit:4;stroke-dasharray:none"
     d="m 509.09607,557.05025 c 0.15916,-1.1134 0.34825,-5.72493 0.77388,-10.22267 1.87155,-19.777 5.63498,-34.92477 12.22668,-49.21232 l 2.09554,-4.54211 -1.18585,-6.50844 c -2.21535,-12.15873 -6.97165,-27.37851 -11.14026,-35.64796 l -2.25682,-3.19309 0.76187,-3.16476 c 0,0 1.2822,-4.5468 1.2822,-4.96408 0,-1.55736 2.17808,3.43382 4.8445,8.76336 3.97133,7.93775 9.60523,23.7517 11.33858,31.82658 0.60914,2.8377 1.87123,2.08425 3.87475,-2.31318 1.79122,-3.93143 6.94705,-11.87334 9.22841,-15.6401 l 4.14644,-6.8462 0.58988,5.87164 0.95658,5.76505 -6.14396,9.61419 c -13.17924,20.62314 -20.48571,43.89592 -21.47297,72.67876 l 1.52268,12.31455 -3.55674,-1.26771 c 0,0 -3.12362,0.0894 -4.61138,-0.0553 l -4.20219,3.23668 z"
     id="path12218"
     sodipodi:nodetypes="ssscsscsssssscccssccscs" /><path
     style="fill:#f0f0f0;fill-opacity:1;stroke-width:0;stroke-miterlimit:4;stroke-dasharray:none"
     d="m 561.02987,477.70569 c -5.7316,-1.01868 -11.33178,-4.67458 -13.41464,-8.75732 l -0.98278,-1.9264 2.1323,-2.73447 c 9.01124,-11.55606 17.66253,-18.61093 38.77388,-31.61895 4.49715,-2.77097 10.88839,-6.42587 14.20277,-8.122 4.24342,-2.17157 6.02798,-3.35286 6.03238,-3.99313 0.005,-0.67191 -0.29563,-0.8471 -1.15022,-0.67116 -7.69407,1.58409 -10.18587,2.27186 -15.03388,4.1496 -11.74096,4.54754 -22.16652,9.77395 -29.44791,14.76248 -3.92205,2.68702 -13.08834,11.32262 -15.70105,14.79201 l -1.35473,1.79893 10e-4,-4.36882 c 0.003,-12.42942 5.14116,-24.26309 14.35877,-33.06954 8.01426,-7.65678 17.5159,-12.32711 31.41331,-15.44057 19.98565,-4.47742 43.16868,-5.19637 59.62463,-1.84909 5.99158,1.21874 15.08667,4.10334 14.50981,4.60194 -0.23039,0.19913 -2.5005,1.23086 -5.0447,2.29273 -9.91898,4.13988 -17.7032,9.03652 -22.57468,14.20055 -3.95744,4.1951 -6.36897,8.16753 -10.74473,17.69946 -4.25895,9.27746 -6.40894,12.89327 -9.92406,16.69001 -3.74725,4.04748 -8.00209,6.81592 -18.51428,12.04645 -9.16127,4.55836 -16.55095,7.52356 -21.87503,8.77763 -4.24555,1.00002 -11.7722,1.36421 -15.28622,0.73966 z"
     id="path12296" /><path
     style="fill:#f0f0f0;fill-opacity:1;stroke-width:0;stroke-miterlimit:4;stroke-dasharray:none"
     d="m 482.88315,594.93605 -34.17959,-0.26249 5.65376,-5.55542 c 13.37596,-13.14329 24.49801,-20.56416 37.00648,-24.69154 9.13563,-3.01446 21.38568,-4.80378 29.16034,-4.25935 16.76428,1.17393 35.70141,10.04405 48.43059,22.68479 4.22921,4.19984 10.02525,11.2486 10.03753,12.207 0.005,0.39275 -34.74647,0.34828 -96.10911,-0.12299 z"
     id="path12610" /><path
     style="fill:#f0f0f0;fill-opacity:1;stroke-width:0;stroke-miterlimit:4;stroke-dasharray:none"
     d="m 484.99158,455.32273 c -8.45448,-2.28265 -15.60097,-6.20726 -27.69023,-15.2065 -14.69743,-10.94076 -17.60201,-15.15271 -22.24773,-32.26148 -3.97383,-14.6344 -6.52466,-19.76158 -13.09755,-26.32614 -2.84154,-2.83794 -8.37485,-7.33015 -12.29625,-9.98269 l -7.12982,-4.82281 5.51111,-0.78231 c 7.63825,-1.08425 25.79529,-0.45123 33.69275,1.17465 41.32876,8.5085 62.46546,21.80393 69.93513,43.99069 1.54437,4.58714 1.69824,5.89454 1.6723,14.20874 -0.0157,5.03621 -0.30626,10.29344 -0.64566,11.68274 l -0.6171,2.526 -2.33875,-4.4205 c -5.06541,-9.5742 -13.20469,-18.29654 -25.29641,-27.10853 -6.22411,-4.5359 -19.72613,-12.99169 -20.74484,-12.99169 -1.38155,0 0.21969,1.68298 7.86857,8.27018 11.23988,9.67977 24.03722,22.50119 28.60309,28.65693 4.04844,5.45813 9.13411,14.00147 9.13411,15.34425 0,0.45911 -1.38596,2.22071 -3.07992,3.91467 -2.22868,2.22868 -4.00573,3.35486 -6.42961,4.07467 -4.03365,1.19787 -10.49003,1.22366 -14.80319,0.0591 z"
     id="path14852" /></g></svg>
