<?xml version="1.0" encoding="UTF-8" standalone="no"?>
<svg
   enable-background="new 0 0 48 48"
   height="48px"
   id="Layer_1"
   version="1.1"
   viewBox="0 0 48 48"
   width="48px"
   xml:space="preserve"
   sodipodi:docname="continue_dark.svg"
   inkscape:version="1.2.2 (732a01da63, 2022-12-09)"
   xmlns:inkscape="http://www.inkscape.org/namespaces/inkscape"
   xmlns:sodipodi="http://sodipodi.sourceforge.net/DTD/sodipodi-0.dtd"
   xmlns="http://www.w3.org/2000/svg"
   xmlns:svg="http://www.w3.org/2000/svg"><defs
     id="defs830" /><sodipodi:namedview
     id="namedview828"
     pagecolor="#ffffff"
     bordercolor="#666666"
     borderopacity="1.0"
     inkscape:pageshadow="2"
     inkscape:pageopacity="0.0"
     inkscape:pagecheckerboard="0"
     showgrid="false"
     inkscape:zoom="10.210292"
     inkscape:cx="22.036588"
     inkscape:cy="28.500654"
     inkscape:window-width="1312"
     inkscape:window-height="917"
     inkscape:window-x="0"
     inkscape:window-y="25"
     inkscape:window-maximized="0"
     inkscape:current-layer="Layer_1"
     inkscape:showpageshadow="2"
     inkscape:deskcolor="#d1d1d1" /><path
     id="path292"
     style="fill:#f0f0f0;paint-order:stroke fill markers"
     transform="rotate(90,19.0595,19.0595)"
     d="M 47.991,33.866 26.32,12.197 26.336,12.183 24.033,9.881 24.02,9.895 24.006,9.881 22.979,10.907 22.97,10.897 0.007,33.859 l 0.01,0.01 -0.01,0.01 L 2.128,36 2.137,35.991 4.248,38.104 23.992,18.36 43.752,38.119 47.993,33.875 47.986,33.87 Z" /><path
     id="path303"
     style="fill:#f0f0f0;paint-order:stroke fill markers"
     transform="rotate(90,28.62,28.62)"
     d="M 4.248,38.104 23.992,18.36 43.752,38.119 47.993,33.875 47.986,33.87 47.991,33.866 26.32,12.197 26.336,12.183 24.033,9.881 24.02,9.895 24.006,9.881 22.979,10.907 22.97,10.897 0.007,33.859 l 0.01,0.01 -0.01,0.01 L 2.128,36 2.137,35.991 Z" /></svg>
