<?xml version="1.0" encoding="UTF-8" standalone="no"?>
<svg
   version="1.1"
   id="Layer_1"
   x="0px"
   y="0px"
   viewBox="0 0 680.3 680.3"
   style="enable-background:new 0 0 680.3 680.3;"
   xml:space="preserve"
   sodipodi:docname="copyContour.svg"
   inkscape:version="1.2.2 (732a01da63, 2022-12-09)"
   xmlns:inkscape="http://www.inkscape.org/namespaces/inkscape"
   xmlns:sodipodi="http://sodipodi.sourceforge.net/DTD/sodipodi-0.dtd"
   xmlns="http://www.w3.org/2000/svg"
   xmlns:svg="http://www.w3.org/2000/svg"
   xmlns:rdf="http://www.w3.org/1999/02/22-rdf-syntax-ns#"
   xmlns:cc="http://creativecommons.org/ns#"
   xmlns:dc="http://purl.org/dc/elements/1.1/"><metadata
   id="metadata844"><rdf:RDF><cc:Work
       rdf:about=""><dc:format>image/svg+xml</dc:format><dc:type
         rdf:resource="http://purl.org/dc/dcmitype/StillImage" /></cc:Work></rdf:RDF></metadata><defs
   id="defs842"><inkscape:path-effect
     effect="spiro"
     id="path-effect7499"
     is_visible="true"
     lpeversion="1" /><inkscape:path-effect
     effect="spiro"
     id="path-effect6059"
     is_visible="true"
     lpeversion="1" /><marker
     style="overflow:visible;"
     id="marker4773"
     refX="0.0"
     refY="0.0"
     orient="auto"
     inkscape:stockid="Arrow2Mend"
     inkscape:isstock="true"><path
       transform="scale(0.6) rotate(180) translate(0,0)"
       d="M 8.7185878,4.0337352 L -2.2072895,0.016013256 L 8.7185884,-4.0017078 C 6.9730900,-1.6296469 6.9831476,1.6157441 8.7185878,4.0337352 z "
       style="stroke:context-stroke;fill-rule:evenodd;fill:context-stroke;stroke-width:0.62500000;stroke-linejoin:round;"
       id="path4771" /></marker><marker
     style="overflow:visible;"
     id="marker4763"
     refX="0.0"
     refY="0.0"
     orient="auto"
     inkscape:stockid="Arrow2Send"
     inkscape:isstock="true"><path
       transform="scale(0.3) rotate(180) translate(-2.3,0)"
       d="M 8.7185878,4.0337352 L -2.2072895,0.016013256 L 8.7185884,-4.0017078 C 6.9730900,-1.6296469 6.9831476,1.6157441 8.7185878,4.0337352 z "
       style="stroke:context-stroke;fill-rule:evenodd;fill:context-stroke;stroke-width:0.62500000;stroke-linejoin:round;"
       id="path4488" /></marker><marker
     style="overflow:visible;"
     id="Arrow2Mend"
     refX="0.0"
     refY="0.0"
     orient="auto"
     inkscape:stockid="Arrow2Mend"
     inkscape:isstock="true"><path
       transform="scale(0.6) rotate(180) translate(0,0)"
       d="M 8.7185878,4.0337352 L -2.2072895,0.016013256 L 8.7185884,-4.0017078 C 6.9730900,-1.6296469 6.9831476,1.6157441 8.7185878,4.0337352 z "
       style="stroke:context-stroke;fill-rule:evenodd;fill:context-stroke;stroke-width:0.62500000;stroke-linejoin:round;"
       id="path4482" /></marker><marker
     style="overflow:visible;"
     id="marker4716"
     refX="0.0"
     refY="0.0"
     orient="auto"
     inkscape:stockid="Arrow1Mend"
     inkscape:isstock="true"><path
       transform="scale(0.4) rotate(180) translate(10,0)"
       style="fill-rule:evenodd;fill:context-stroke;stroke:context-stroke;stroke-width:1.0pt;"
       d="M 0.0,0.0 L 5.0,-5.0 L -12.5,0.0 L 5.0,5.0 L 0.0,0.0 z "
       id="path4464" /></marker><inkscape:path-effect
     effect="spiro"
     id="path-effect4319"
     is_visible="true"
     lpeversion="1" /><inkscape:path-effect
     effect="spiro"
     id="path-effect4079"
     is_visible="true"
     lpeversion="1" /><inkscape:path-effect
     effect="spiro"
     id="path-effect2347"
     is_visible="true"
     lpeversion="1" /><inkscape:path-effect
     effect="spiro"
     id="path-effect2007"
     is_visible="true"
     lpeversion="1" /><inkscape:path-effect
     effect="spiro"
     id="path-effect1891"
     is_visible="true"
     lpeversion="1" /><marker
     style="overflow:visible;"
     id="Arrow2Send"
     refX="0.0"
     refY="0.0"
     orient="auto"
     inkscape:stockid="Arrow2Send"
     inkscape:isstock="true"><path
       transform="scale(0.3) rotate(180) translate(-2.3,0)"
       d="M 8.7185878,4.0337352 L -2.2072895,0.016013256 L 8.7185884,-4.0017078 C 6.9730900,-1.6296469 6.9831476,1.6157441 8.7185878,4.0337352 z "
       style="fill-rule:evenodd;stroke-width:0.625;stroke-linejoin:round;stroke:#666666;stroke-opacity:1;fill:#666666;fill-opacity:1"
       id="path1501" /></marker><marker
     style="overflow:visible;"
     id="Arrow1Mend"
     refX="0.0"
     refY="0.0"
     orient="auto"
     inkscape:stockid="Arrow1Mend"
     inkscape:isstock="true"><path
       transform="scale(0.4) rotate(180) translate(10,0)"
       style="fill-rule:evenodd;stroke:#000000;stroke-width:1pt;stroke-opacity:1;fill:#000000;fill-opacity:1"
       d="M 0.0,0.0 L 5.0,-5.0 L -12.5,0.0 L 5.0,5.0 L 0.0,0.0 z "
       id="path1477" /></marker><marker
     style="overflow:visible;"
     id="Arrow1Lend"
     refX="0.0"
     refY="0.0"
     orient="auto"
     inkscape:stockid="Arrow1Lend"
     inkscape:isstock="true"><path
       transform="scale(0.8) rotate(180) translate(12.5,0)"
       style="fill-rule:evenodd;stroke:#000000;stroke-width:1pt;stroke-opacity:1;fill:#000000;fill-opacity:1"
       d="M 0.0,0.0 L 5.0,-5.0 L -12.5,0.0 L 5.0,5.0 L 0.0,0.0 z "
       id="path1471" /></marker><inkscape:path-effect
     effect="spiro"
     id="path-effect1466"
     is_visible="true"
     lpeversion="1" /><inkscape:path-effect
     effect="spiro"
     id="path-effect866"
     is_visible="true"
     lpeversion="1" /><inkscape:path-effect
     effect="spiro"
     id="path-effect862"
     is_visible="true"
     lpeversion="1" /><marker
     style="overflow:visible"
     id="Arrow2Send-9"
     refX="0"
     refY="0"
     orient="auto"
     inkscape:stockid="Arrow2Send"
     inkscape:isstock="true"><path
       transform="matrix(-0.3,0,0,-0.3,0.69,0)"
       d="M 8.7185878,4.0337352 -2.2072895,0.01601326 8.7185884,-4.0017078 c -1.7454984,2.3720609 -1.7354408,5.6174519 -6e-7,8.035443 z"
       style="fill:#666666;fill-opacity:1;fill-rule:evenodd;stroke:#666666;stroke-width:0.625;stroke-linejoin:round;stroke-opacity:1"
       id="path1501-8" /></marker><marker
     style="overflow:visible"
     id="Arrow2Send-9-0"
     refX="0"
     refY="0"
     orient="auto"
     inkscape:stockid="Arrow2Send"
     inkscape:isstock="true"><path
       transform="matrix(-0.3,0,0,-0.3,0.69,0)"
       d="M 8.7185878,4.0337352 -2.2072895,0.01601326 8.7185884,-4.0017078 c -1.7454984,2.3720609 -1.7354408,5.6174519 -6e-7,8.035443 z"
       style="fill:#666666;fill-opacity:1;fill-rule:evenodd;stroke:#666666;stroke-width:0.625;stroke-linejoin:round;stroke-opacity:1"
       id="path1501-8-6" /></marker></defs><sodipodi:namedview
   pagecolor="#ffffff"
   bordercolor="#666666"
   borderopacity="1"
   objecttolerance="10"
   gridtolerance="10"
   guidetolerance="10"
   inkscape:pageopacity="0"
   inkscape:pageshadow="2"
   inkscape:window-width="1920"
   inkscape:window-height="1137"
   id="namedview840"
   showgrid="false"
   inkscape:object-paths="false"
   inkscape:zoom="0.85859355"
   inkscape:cx="262.05648"
   inkscape:cy="362.22028"
   inkscape:window-x="1912"
   inkscape:window-y="-8"
   inkscape:window-maximized="1"
   inkscape:current-layer="Layer_1"
   inkscape:pagecheckerboard="0"
   inkscape:showpageshadow="2"
   inkscape:deskcolor="#d1d1d1" />
<style
   type="text/css"
   id="style833">
	.st0{fill:#2B9245;}
</style>

<path
   style="fill:#737373;fill-opacity:0.00378788;stroke:#f5b800;stroke-width:56.994;stroke-dasharray:113.98839673, 56.994;stroke-dashoffset:0;stroke-opacity:1;stroke-linecap:butt;stroke-linejoin:miter;paint-order:normal"
   d="M 272.28145,53.581287 C 232.36166,53.220351 192.47074,64.884948 158.7953,86.325196 125.11986,107.76544 97.740145,138.86289 80.33745,174.79151 61.584743,213.50729 54.482912,257.11638 54.744923,300.1339 c 0.222251,36.48961 5.677438,73.21899 19.072179,107.16191 13.394741,33.94292 34.997048,65.04192 64.103548,87.04993 35.29899,26.69028 79.93876,38.85729 124.12379,41.32167 61.93995,3.45464 125.59875,-11.82491 176.42736,-47.39096 50.82861,-35.56606 87.70899,-92.08439 94.8535,-153.70783 5.19415,-44.80104 -5.20358,-90.81346 -26.49628,-130.57189 C 485.53631,164.2383 453.68989,130.60406 416.87928,104.54467 374.51802,74.555804 324.18124,54.05054 272.28145,53.581287 Z"
   id="path7497"
   inkscape:path-effect="#path-effect7499"
   inkscape:original-d="M 272.28145,53.581287 C 224.08109,36.592308 144.31989,134.38928 80.33745,174.79151 16.355017,215.19373 63.276853,258.35428 54.744923,300.1339 c -8.53195,41.77961 55.451577,129.47574 83.175727,194.21184 27.72415,64.73609 82.75029,27.54897 124.12379,41.32167 C 303.41795,549.44011 442.89945,401.60274 533.3253,334.56862 623.75116,267.53452 455.69571,181.22051 416.87928,104.54467 378.06283,27.868846 320.48183,70.570266 272.28145,53.581287 Z" /><path
   style="color:#4d4d4d;fill:currentColor;fill-opacity:1;stroke:none;stroke-width:23.8754"
   d="M 533.3253,334.56862 H 270.69609 c -13.17922,0 -23.87541,10.69618 -23.87541,23.87516 v 262.6297 c 0,13.17922 10.69619,23.8754 23.87541,23.8754 H 533.3253 c 13.17946,0 23.87565,-10.69618 23.87565,-23.8754 v -262.6297 c 0,-13.17898 -10.69619,-23.87516 -23.87565,-23.87516 z M 604.95152,262.9424 H 366.19771 c -13.17946,0 -23.87565,10.69619 -23.87565,23.87541 v 23.8754 h 23.87565 v -11.93794 c 0,-6.58937 5.34833,-11.93746 11.9377,-11.93746 h 214.8784 c 6.58985,0 11.93771,5.34809 11.93771,11.93746 v 214.87888 c 0,6.58938 -5.34786,11.93771 -11.93771,11.93771 h -11.93746 v 23.87516 h 23.87517 c 13.17946,0 23.87564,-10.69618 23.87564,-23.87516 V 286.81781 c 0,-13.17922 -10.69618,-23.87541 -23.87564,-23.87541 z"
   class="ColorScheme-Text"
   id="path10250" /></svg>
