<?xml version="1.0" encoding="UTF-8" standalone="no"?>
<!-- Generated by IcoMoon.io -->

<svg
   version="1.1"
   width="32"
   height="32"
   viewBox="0 0 34 34"
   id="svg2"
   sodipodi:docname="del_obj_click.svg"
   inkscape:version="1.3.2 (091e20e, 2023-11-25, custom)"
   xmlns:inkscape="http://www.inkscape.org/namespaces/inkscape"
   xmlns:sodipodi="http://sodipodi.sourceforge.net/DTD/sodipodi-0.dtd"
   xmlns="http://www.w3.org/2000/svg"
   xmlns:svg="http://www.w3.org/2000/svg"
   xmlns:rdf="http://www.w3.org/1999/02/22-rdf-syntax-ns#"
   xmlns:cc="http://creativecommons.org/ns#"
   xmlns:dc="http://purl.org/dc/elements/1.1/">
  <sodipodi:namedview
     id="namedview2"
     pagecolor="#ffffff"
     bordercolor="#000000"
     borderopacity="0.25"
     inkscape:showpageshadow="2"
     inkscape:pageopacity="0.0"
     inkscape:pagecheckerboard="0"
     inkscape:deskcolor="#d1d1d1"
     inkscape:zoom="19.865281"
     inkscape:cx="13.1385"
     inkscape:cy="14.472486"
     inkscape:window-width="1920"
     inkscape:window-height="1137"
     inkscape:window-x="-8"
     inkscape:window-y="-8"
     inkscape:window-maximized="1"
     inkscape:current-layer="svg2" />
  <title
     id="title1">bin</title>
  <defs
     id="defs3051">
    <style
       type="text/css"
       id="current-color-scheme">
    .ColorScheme-Text {
      color:#4d4d4d;
    }
    </style>
    <inkscape:path-effect
       effect="spiro"
       id="path-effect1318"
       is_visible="true"
       lpeversion="1" />
  </defs>
  <path
     style="fill:#d43d3d;fill-opacity:0.403226;stroke:#d43d3d;stroke-width:1.68029;stroke-linecap:butt;stroke-linejoin:miter;stroke-miterlimit:4;stroke-dasharray:none;stroke-opacity:1"
     d="M 5.2374706,1.6520706 C 4.5232463,1.7740836 3.8335213,2.0510038 3.245494,2.4743562 2.6574666,2.8977086 2.1732146,3.468498 1.8705293,4.1268179 1.5634457,4.794704 1.4465363,5.5483932 1.5342051,6.2782469 c 0.087669,0.7298536 0.3793387,1.4337709 0.8314622,2.0133885 0.6079966,0.7794451 1.4724842,1.3097724 2.3193971,1.8196086 0.8469128,0.509837 1.7145721,1.032305 2.3349022,1.801971 0.5925439,0.73519 0.917388,1.643969 1.2468664,2.528875 0.3294785,0.884905 0.6875655,1.78697 1.3278536,2.480976 0.7779124,0.843176 1.9315884,1.300874 3.0787324,1.313311 1.147144,0.01244 2.279542,-0.400135 3.209523,-1.071871 1.221851,-0.882557 2.107165,-2.215828 2.460864,-3.680998 0.353699,-1.46517 0.175896,-3.050282 -0.480313,-4.4071963 C 17.301981,7.9152127 16.412865,6.9374318 15.417343,6.1174425 14.421821,5.2974532 13.316271,4.623428 12.218918,3.9457385 11.152219,3.2869799 10.082214,2.6183474 8.9172166,2.1551082 7.7522192,1.6918689 6.4732856,1.4409527 5.2374706,1.6520706 Z"
     id="path1190-6"
     inkscape:original-d="M 5.2374706,1.6520706 C 2.9100293,0.88716101 2.9931353,3.3022576 1.8705293,4.1268179 c -1.12260405,0.8245603 0.330384,2.7769005 0.495138,4.1648175 0.164756,1.3879168 3.1031593,2.4147426 4.6542993,3.6215796 1.551141,1.206837 1.716771,3.340257 2.57472,5.009851 0.8579474,1.669596 4.1924614,0.161316 6.2882554,0.24144 2.095794,0.08012 1.320659,-5.391775 1.980551,-8.0881943 C 18.523389,6.3798893 14.100735,5.656285 12.218918,3.9457385 10.337103,2.2351921 7.5649116,2.4169825 5.2374706,1.6520706 Z"
     inkscape:path-effect="#path-effect1318"
     transform="matrix(1.4136584,0,0,1.4145319,-0.82033662,-0.47686764)" />
  <g
     id="g3"
     transform="translate(0.16045582,-0.35998597)">
    <path
       class="cls-2"
       d="M 10.750968,8.1333619 A 1.0625,1.0625 0 0 1 10.351057,6.6849546 l 1.572744,-2.7724773 a 1.0625,1.0625 0 0 1 1.848318,1.0484964 L 12.199375,7.733451 a 1.0625,1.0625 0 0 1 -1.448407,0.3999109 z"
       id="path2-9"
       style="fill:#4d4d4d;fill-opacity:1;stroke:none;stroke-width:1.0625;stroke-opacity:1" />
    <path
       class="cls-2"
       d="M 7.4062527,7.3109675 A 1.0625,1.0625 0 0 1 6.9021317,6.6707451 L 6.0595631,3.59088 A 1.0625,1.0625 0 0 1 8.1018174,3.0270057 l 0.8570527,3.075866 A 1.0625,1.0625 0 0 1 8.2144376,7.4151776 1.0625,1.0625 0 0 1 7.4062527,7.3109675 Z"
       id="path3"
       style="fill:#4d4d4d;fill-opacity:1;stroke:none;stroke-width:1.0625;stroke-opacity:1" />
    <path
       class="cls-2"
       d="M 4.9573382,9.7330055 2.1848609,8.1602609 A 1.0625,1.0625 0 0 1 3.2333573,6.3119427 L 6.0058347,7.8846873 A 1.0625,1.0625 0 0 1 4.9573382,9.7330055 Z"
       id="path4"
       style="fill:#4d4d4d;fill-opacity:1;stroke:none;stroke-width:1.0625;stroke-opacity:1" />
    <path
       class="cls-2"
       d="M 1.0643203,13.925531 A 1.0625,1.0625 0 0 1 0.53398694,13.331517 1.0625,1.0625 0 0 1 1.2731769,12.028453 L 4.3490429,11.1714 a 1.0668474,1.0668474 0 0 1 0.5678735,2.056738 l -3.0798651,0.842569 a 1.0625,1.0625 0 0 1 -0.772731,-0.145176 z"
       id="path5"
       style="fill:#4d4d4d;fill-opacity:1;stroke:none;stroke-width:1.0625;stroke-opacity:1" />
    <path
       class="cls-2"
       d="M 13.173006,10.582276 A 1.0625,1.0625 0 0 1 12.668885,9.942054 1.0625,1.0625 0 0 1 13.413317,8.629748 l 3.079865,-0.8425686 a 1.0782805,1.0782805 0 0 1 0.610082,2.0684667 L 13.98119,10.686486 a 1.0625,1.0625 0 0 1 -0.808184,-0.10421 z"
       id="path6"
       style="fill:#4d4d4d;fill-opacity:1;stroke:none;stroke-width:1.0625;stroke-opacity:1" />
    <path
       id="path1-0"
       style="fill:#4d4d4d;fill-opacity:1;stroke:#cccccc;stroke-width:1.0625;stroke-opacity:1"
       class="cls-1"
       d="M 9.2927246,9.8509521 A 1.0625,1.0625 0 0 0 8.1306152,10.726685 L 5.4121094,26.286499 a 1.0625,1.0625 0 0 0 0.5229492,1.104004 1.0625,1.0625 0 0 0 1.243042,-0.188843 l 4.2437744,-4.162842 2.726807,9.87793 a 1.0625,1.0625 0 0 0 0.504272,0.63916 1.0625,1.0625 0 0 0 0.807251,0.10376 1.0625,1.0625 0 0 0 0.744995,-1.311523 l -2.718506,-9.844727 5.733765,1.427734 a 1.0625,1.0625 0 0 0 1.060425,-1.718261 l 0.02075,-0.03735 L 9.9858398,10.216187 A 1.0625,1.0625 0 0 0 9.2927246,9.8509521 Z" />
  </g>
  <g
     id="g2"
     transform="matrix(0.63292917,0,0,0.63292917,16.329152,-0.0756396)"
     style="stroke-width:1.57996">
    <path
       style="fill:currentColor;fill-opacity:1;stroke:none;stroke-width:1.57996"
       d="m 4,10 v 20 c 0,1.1 0.9,2 2,2 h 18 c 1.1,0 2,-0.9 2,-2 V 10 Z m 6,18 H 8 V 14 h 2 z m 4,0 H 12 V 14 h 2 z m 4,0 H 16 V 14 h 2 z m 4,0 H 20 V 14 h 2 z"
       class="ColorScheme-Text"
       id="path1" />
    <path
       style="fill:currentColor;fill-opacity:1;stroke:none;stroke-width:1.57996"
       d="M 26.5,4 H 20 V 1.5 C 20,0.675 19.325,0 18.5,0 h -7 C 10.675,0 10,0.675 10,1.5 V 4 H 3.5 C 2.675,4 2,4.675 2,5.5 V 8 H 28 V 5.5 C 28,4.675 27.325,4 26.5,4 Z M 18,4 H 12 V 2.025 h 6 z"
       class="ColorScheme-Text"
       id="path2" />
  </g>
  <metadata
     id="metadata3">
    <rdf:RDF>
      <cc:Work
         rdf:about="">
        <dc:title>bin</dc:title>
      </cc:Work>
    </rdf:RDF>
  </metadata>
</svg>
