<?xml version="1.0" encoding="UTF-8" standalone="no"?>
<svg
   version="1.1"
   id="Layer_1"
   x="0px"
   y="0px"
   viewBox="0 0 680.3 680.3"
   style="enable-background:new 0 0 680.3 680.3;"
   xml:space="preserve"
   sodipodi:docname="del_objs_out_segm.svg"
   inkscape:version="1.2.2 (732a01da63, 2022-12-09)"
   xmlns:inkscape="http://www.inkscape.org/namespaces/inkscape"
   xmlns:sodipodi="http://sodipodi.sourceforge.net/DTD/sodipodi-0.dtd"
   xmlns="http://www.w3.org/2000/svg"
   xmlns:svg="http://www.w3.org/2000/svg"
   xmlns:rdf="http://www.w3.org/1999/02/22-rdf-syntax-ns#"
   xmlns:cc="http://creativecommons.org/ns#"
   xmlns:dc="http://purl.org/dc/elements/1.1/"><metadata
   id="metadata844"><rdf:RDF><cc:Work
       rdf:about=""><dc:format>image/svg+xml</dc:format><dc:type
         rdf:resource="http://purl.org/dc/dcmitype/StillImage" /></cc:Work></rdf:RDF></metadata><defs
   id="defs842"><inkscape:path-effect
     effect="spiro"
     id="path-effect2007"
     is_visible="true"
     lpeversion="1" /><inkscape:path-effect
     effect="spiro"
     id="path-effect1891"
     is_visible="true"
     lpeversion="1" /><marker
     style="overflow:visible;"
     id="Arrow2Send"
     refX="0.0"
     refY="0.0"
     orient="auto"
     inkscape:stockid="Arrow2Send"
     inkscape:isstock="true"><path
       transform="scale(0.3) rotate(180) translate(-2.3,0)"
       d="M 8.7185878,4.0337352 L -2.2072895,0.016013256 L 8.7185884,-4.0017078 C 6.9730900,-1.6296469 6.9831476,1.6157441 8.7185878,4.0337352 z "
       style="fill-rule:evenodd;stroke-width:0.625;stroke-linejoin:round;stroke:#666666;stroke-opacity:1;fill:#666666;fill-opacity:1"
       id="path1501" /></marker><marker
     style="overflow:visible;"
     id="Arrow1Mend"
     refX="0.0"
     refY="0.0"
     orient="auto"
     inkscape:stockid="Arrow1Mend"
     inkscape:isstock="true"><path
       transform="scale(0.4) rotate(180) translate(10,0)"
       style="fill-rule:evenodd;stroke:#000000;stroke-width:1pt;stroke-opacity:1;fill:#000000;fill-opacity:1"
       d="M 0.0,0.0 L 5.0,-5.0 L -12.5,0.0 L 5.0,5.0 L 0.0,0.0 z "
       id="path1477" /></marker><marker
     style="overflow:visible;"
     id="Arrow1Lend"
     refX="0.0"
     refY="0.0"
     orient="auto"
     inkscape:stockid="Arrow1Lend"
     inkscape:isstock="true"><path
       transform="scale(0.8) rotate(180) translate(12.5,0)"
       style="fill-rule:evenodd;stroke:#000000;stroke-width:1pt;stroke-opacity:1;fill:#000000;fill-opacity:1"
       d="M 0.0,0.0 L 5.0,-5.0 L -12.5,0.0 L 5.0,5.0 L 0.0,0.0 z "
       id="path1471" /></marker><inkscape:path-effect
     effect="spiro"
     id="path-effect1466"
     is_visible="true"
     lpeversion="1" /><inkscape:path-effect
     effect="spiro"
     id="path-effect866"
     is_visible="true"
     lpeversion="1" /><inkscape:path-effect
     effect="spiro"
     id="path-effect862"
     is_visible="true"
     lpeversion="1" /><marker
     style="overflow:visible"
     id="Arrow2Send-9"
     refX="0"
     refY="0"
     orient="auto"
     inkscape:stockid="Arrow2Send"
     inkscape:isstock="true"><path
       transform="matrix(-0.3,0,0,-0.3,0.69,0)"
       d="M 8.7185878,4.0337352 -2.2072895,0.01601326 8.7185884,-4.0017078 c -1.7454984,2.3720609 -1.7354408,5.6174519 -6e-7,8.035443 z"
       style="fill:#666666;fill-opacity:1;fill-rule:evenodd;stroke:#666666;stroke-width:0.625;stroke-linejoin:round;stroke-opacity:1"
       id="path1501-8" /></marker><marker
     style="overflow:visible"
     id="Arrow2Send-9-0"
     refX="0"
     refY="0"
     orient="auto"
     inkscape:stockid="Arrow2Send"
     inkscape:isstock="true"><path
       transform="matrix(-0.3,0,0,-0.3,0.69,0)"
       d="M 8.7185878,4.0337352 -2.2072895,0.01601326 8.7185884,-4.0017078 c -1.7454984,2.3720609 -1.7354408,5.6174519 -6e-7,8.035443 z"
       style="fill:#666666;fill-opacity:1;fill-rule:evenodd;stroke:#666666;stroke-width:0.625;stroke-linejoin:round;stroke-opacity:1"
       id="path1501-8-6" /></marker></defs><sodipodi:namedview
   pagecolor="#ffffff"
   bordercolor="#666666"
   borderopacity="1"
   objecttolerance="10"
   gridtolerance="10"
   guidetolerance="10"
   inkscape:pageopacity="0"
   inkscape:pageshadow="2"
   inkscape:window-width="1920"
   inkscape:window-height="1017"
   id="namedview840"
   showgrid="false"
   inkscape:object-paths="false"
   inkscape:zoom="0.9150375"
   inkscape:cx="39.34265"
   inkscape:cy="334.41252"
   inkscape:window-x="1912"
   inkscape:window-y="-8"
   inkscape:window-maximized="1"
   inkscape:current-layer="Layer_1"
   inkscape:showpageshadow="2"
   inkscape:pagecheckerboard="0"
   inkscape:deskcolor="#d1d1d1" />
<style
   type="text/css"
   id="style833">
	.st0{fill:#2B9245;}
</style>

<path
   style="opacity:0.997;fill:#4d4d4d;fill-opacity:1;stroke:#ff2727;stroke-width:22.6772;stroke-linecap:butt;stroke-linejoin:miter;stroke-miterlimit:4;stroke-dasharray:none;stroke-opacity:1"
   d="m 376.81355,156.11675 c -45.37107,-10.98892 -94.67731,-0.85245 -134.27059,23.87937 -15.37018,9.60094 -29.48165,21.37429 -40.86627,35.47432 -11.38463,14.10003 -19.99592,30.57594 -24.04843,48.23939 -4.05252,17.66346 -3.43216,36.51996 2.76006,53.5516 6.19222,17.03165 18.088,32.10861 33.74857,41.22821 12.01986,6.99951 25.82548,10.37513 39.6113,12.22477 13.78582,1.84965 27.72595,2.25829 41.55046,3.79226 13.82451,1.53398 27.71412,4.25747 40.18547,10.41666 12.47135,6.15919 23.49606,16.07287 28.81972,28.92311 3.9937,9.63997 4.6038,20.43047 3.23265,30.77449 -1.37115,10.34401 -4.6417,20.33603 -8.19839,30.14565 -3.55668,9.80962 -7.424,19.53296 -10.05977,29.62907 -2.63578,10.09611 -4.01917,20.66697 -2.50531,30.99106 1.63393,11.14297 6.67043,21.71744 14.04111,30.23264 7.37068,8.51521 17.02802,14.9764 27.59887,18.86134 21.14171,7.76987 45.38982,4.95023 65.47363,-5.24698 20.08381,-10.19721 36.17094,-27.26984 47.55727,-46.70418 11.38634,-19.43435 18.31426,-41.19574 23.00914,-63.22528 11.01315,-51.6764 10.0035,-106.02685 -4.16459,-156.92876 -9.9443,-35.72704 -26.49602,-69.94495 -50.80116,-97.95515 -24.30513,-28.0102 -56.63066,-49.57392 -92.67374,-58.30359 z"
   id="path860"
   inkscape:path-effect="#path-effect862"
   inkscape:original-d="M 376.81355,156.11675 C 276.21023,77.969167 159.37578,246.86217 242.54296,179.99612 386.24397,65.958263 177.04288,361.71881 214.13689,358.48964 c 59.42946,-6.93431 127.33896,20.54392 150.16695,55.3568 22.82799,34.81285 -25.62982,68.40363 -17.53082,121.54027 8.09903,53.13669 134.96796,-66.99625 177.68002,-66.08246 42.71209,0.9138 -8.58135,-90.04442 -4.16459,-156.92876 4.41677,-66.88431 8.78974,-37.98118 -143.4749,-156.25874 z"
   sodipodi:nodetypes="sccsssss" /><text
   transform="scale(1.1157957,0.89622142)"
   class="st3 st4 st5"
   id="text12"
   style="font-size:446.318px;font-family:ArialMT;fill:#ff292b;stroke-width:1.1158;fill-opacity:1"
   x="0"
   y="726.5351">x</text><text
   transform="scale(1.1157957,0.89622141)"
   class="st3 st4 st5"
   id="text12-7"
   style="font-size:325.741px;font-family:ArialMT;fill:#ff2929;stroke-width:1.1158;fill-opacity:1"
   x="414.13025"
   y="191.07599">x</text><text
   transform="scale(1.1157957,0.89622142)"
   class="st3 st4 st5"
   id="text12-7-6"
   style="font-size:323.293px;font-family:ArialMT;fill:#ff292b;stroke-width:1.1158;fill-opacity:1"
   x="0.32289064"
   y="191.07599">x</text><text
   transform="scale(1.0977273,0.91097309)"
   class="st3 st4 st5"
   id="text12-2"
   style="font-size:251.692px;font-family:ArialMT;fill:#ff292b;stroke-width:1.1158;fill-opacity:1"
   x="465.6152"
   y="722.81104">x</text></svg>
