<?xml version="1.0" encoding="UTF-8" standalone="no"?>
<svg
   version="1.1"
   id="Layer_1"
   x="0px"
   y="0px"
   viewBox="0 0 680.3 680.3"
   style="enable-background:new 0 0 680.3 680.3;"
   xml:space="preserve"
   sodipodi:docname="delNewObj_dark.svg"
   inkscape:version="1.4.2 (f4327f4, 2025-05-13)"
   xmlns:inkscape="http://www.inkscape.org/namespaces/inkscape"
   xmlns:sodipodi="http://sodipodi.sourceforge.net/DTD/sodipodi-0.dtd"
   xmlns="http://www.w3.org/2000/svg"
   xmlns:svg="http://www.w3.org/2000/svg"
   xmlns:rdf="http://www.w3.org/1999/02/22-rdf-syntax-ns#"
   xmlns:cc="http://creativecommons.org/ns#"
   xmlns:dc="http://purl.org/dc/elements/1.1/"><metadata
   id="metadata19"><rdf:RDF><cc:Work
       rdf:about=""><dc:format>image/svg+xml</dc:format><dc:type
         rdf:resource="http://purl.org/dc/dcmitype/StillImage" /></cc:Work></rdf:RDF></metadata><defs
   id="defs17"><rect
     x="551.22067"
     y="474.25351"
     width="0"
     height="164.12114"
     id="rect2" /><inkscape:path-effect
     effect="spiro"
     id="path-effect1318-2"
     is_visible="true"
     lpeversion="1" /></defs><sodipodi:namedview
   pagecolor="#808080"
   bordercolor="#666666"
   borderopacity="1"
   objecttolerance="10"
   gridtolerance="10"
   guidetolerance="10"
   inkscape:pageopacity="0"
   inkscape:pageshadow="2"
   inkscape:window-width="2560"
   inkscape:window-height="1417"
   id="namedview15"
   showgrid="false"
   inkscape:zoom="0.88349372"
   inkscape:cx="122.24196"
   inkscape:cy="547.25912"
   inkscape:window-x="-8"
   inkscape:window-y="-8"
   inkscape:window-maximized="1"
   inkscape:current-layer="Layer_1"
   inkscape:document-rotation="0"
   inkscape:showpageshadow="2"
   inkscape:pagecheckerboard="0"
   inkscape:deskcolor="#d1d1d1" />
<style
   type="text/css"
   id="style2">
	.st0{fill:none;stroke:#ED2024;stroke-width:55;stroke-linecap:round;stroke-linejoin:round;stroke-miterlimit:10;}
	.st1{fill:#FFFFFF;}
	.st2{fill:#4D4D4E;stroke:#FFFFFF;stroke-miterlimit:10;}
	.st3{fill:#EC2326;}
	.st4{font-family:'ArialMT';}
	.st5{font-size:400px;}
</style>




<path
   style="fill:#d43d3d;fill-opacity:0.4275701;stroke:#d32121;stroke-width:2.23633;stroke-linecap:butt;stroke-linejoin:miter;stroke-miterlimit:4;stroke-dasharray:none;stroke-opacity:1"
   d="M 5.2374706,1.6520706 C 4.5232463,1.7740836 3.8335213,2.0510038 3.245494,2.4743562 2.6574666,2.8977086 2.1732146,3.468498 1.8705293,4.1268179 1.5634457,4.794704 1.4465363,5.5483932 1.5342051,6.2782469 c 0.087669,0.7298536 0.3793387,1.4337709 0.8314622,2.0133885 0.6079966,0.7794451 1.4724842,1.3097724 2.3193971,1.8196086 0.8469128,0.509837 1.7145721,1.032305 2.3349022,1.801971 0.5925439,0.73519 0.917388,1.643969 1.2468664,2.528875 0.3294785,0.884905 0.6875655,1.78697 1.3278536,2.480976 0.7779124,0.843176 1.9315884,1.300874 3.0787324,1.313311 1.147144,0.01244 2.279542,-0.400135 3.209523,-1.071871 1.221851,-0.882557 2.107165,-2.215828 2.460864,-3.680998 0.353699,-1.46517 0.175896,-3.050282 -0.480313,-4.4071963 C 17.301981,7.9152127 16.412865,6.9374318 15.417343,6.1174425 14.421821,5.2974532 13.316271,4.623428 12.218918,3.9457385 11.152219,3.2869799 10.082214,2.6183474 8.9172166,2.1551082 7.7522192,1.6918689 6.4732856,1.4409527 5.2374706,1.6520706 Z"
   id="path1190-6-5"
   inkscape:original-d="M 5.2374706,1.6520706 C 2.9100293,0.88716101 2.9931353,3.3022576 1.8705293,4.1268179 c -1.12260405,0.8245603 0.330384,2.7769005 0.495138,4.1648175 0.164756,1.3879168 3.1031593,2.4147426 4.6542993,3.6215796 1.551141,1.206837 1.716771,3.340257 2.57472,5.009851 0.8579474,1.669596 4.1924614,0.161316 6.2882554,0.24144 2.095794,0.08012 1.320659,-5.391775 1.980551,-8.0881943 C 18.523389,6.3798893 14.100735,5.656285 12.218918,3.9457385 10.337103,2.2351921 7.5649116,2.4169825 5.2374706,1.6520706 Z"
   inkscape:path-effect="#path-effect1318-2"
   transform="matrix(23.87008,0,0,23.87008,95.921274,180.24791)" /><g
   aria-label="X"
   id="text868-3-6-1-2"
   style="font-style:normal;font-weight:normal;font-size:37.4323px;line-height:0;font-family:sans-serif;fill:#ff0000;fill-opacity:1;stroke:none;stroke-width:0.9358"
   transform="matrix(5.9493128,0,0,5.9493128,-1676.7142,-261.10194)"><path
     d="m 381.71562,152.86858 h -24.34715 l -17.60234,-26.86961 -17.93135,26.86961 h -23.25044 l 28.95338,-41.12696 -28.35018,-40.523756 h 24.29232 L 340.479,96.66174 357.97166,71.217864 h 23.30528 l -28.51469,39.701216 z"
     style="font-style:normal;font-variant:normal;font-weight:bold;font-stretch:normal;font-size:112.304px;line-height:1.75;font-family:sans-serif;-inkscape-font-specification:'sans-serif Bold';stroke-width:0.9358"
     id="path907-2-3" /></g><text
   xml:space="preserve"
   style="font-size:252.113px;text-align:start;writing-mode:lr-tb;direction:ltr;text-anchor:start;fill:#d8d8d8;fill-opacity:1;stroke:#000000;stroke-width:8.61388"
   x="110.13381"
   y="146.63596"
   id="text1"><tspan
     sodipodi:role="line"
     id="tspan1"
     x="110.13381"
     y="146.63596"
     style="font-style:normal;font-variant:normal;font-weight:bold;font-stretch:normal;font-family:Calibri;-inkscape-font-specification:Calibri;fill:#d8d8d8;fill-opacity:1;stroke:none;stroke-width:8.61388">new</tspan></text><text
   xml:space="preserve"
   id="text2"
   style="fill:#4d4d4d;text-orientation:auto;stroke:none;stroke-width:0.41;text-align:start;writing-mode:lr-tb;direction:ltr;fill-opacity:1;-inkscape-font-specification:Calibri;font-family:Calibri;font-weight:normal;font-style:normal;font-stretch:normal;font-variant:normal;white-space:pre;shape-inside:url(#rect2)" /></svg>
