<!-- Generated by IcoMoon.io -->
<svg version="1.1" xmlns="http://www.w3.org/2000/svg" width="32" height="32"
  viewBox="0 0 34 34">
<title>drawer</title>
<defs id="defs3051">
  <style type="text/css" id="current-color-scheme">
    .ColorScheme-Text {
      color:#4d4d4d;
    }
    </style>
</defs>
<path
  style="fill:currentColor;fill-opacity:1;stroke:none"
  d="M31.781 20.375l-8-10c-0.19-0.237-0.477-0.375-0.781-0.375h-14c-0.304 0-0.591 0.138-0.781 0.375l-8 10c-0.142 0.177-0.219 0.398-0.219 0.625v9c0 1.105 0.895 2 2 2h28c1.105 0 2-0.895 2-2v-9c0-0.227-0.077-0.447-0.219-0.625zM30 22h-7l-4 4h-6l-4-4h-7v-0.649l7.481-9.351h13.039l7.481 9.351v0.649z"
  class="ColorScheme-Text">
</path>
<path
  style="fill:currentColor;fill-opacity:1;stroke:none"
  d="M23 16h-14c-0.552 0-1-0.448-1-1s0.448-1 1-1h14c0.552 0 1 0.448 1 1s-0.448 1-1 1z"
  class="ColorScheme-Text">
</path>
<path
  style="fill:currentColor;fill-opacity:1;stroke:none"
  d="M25 20h-18c-0.552 0-1-0.448-1-1s0.448-1 1-1h18c0.552 0 1 0.448 1 1s-0.448 1-1 1z"
  class="ColorScheme-Text">
</path>
</svg>
