<?xml version="1.0" encoding="UTF-8" standalone="no"?>
<!-- Generator: Adobe Illustrator 21.0.2, SVG Export Plug-In . SVG Version: 6.00 Build 0)  -->

<svg
   version="1.1"
   id="Layer_1"
   x="0px"
   y="0px"
   viewBox="0 0 680.3 680.3"
   style="enable-background:new 0 0 680.3 680.3;"
   xml:space="preserve"
   sodipodi:docname="drawFreeRoi.svg"
   inkscape:version="1.2.2 (732a01da63, 2022-12-09)"
   xmlns:inkscape="http://www.inkscape.org/namespaces/inkscape"
   xmlns:sodipodi="http://sodipodi.sourceforge.net/DTD/sodipodi-0.dtd"
   xmlns="http://www.w3.org/2000/svg"
   xmlns:svg="http://www.w3.org/2000/svg"><defs
   id="defs839"><inkscape:path-effect
     effect="bspline"
     id="path-effect2532"
     is_visible="true"
     lpeversion="1"
     weight="33.333333"
     steps="2"
     helper_size="0"
     apply_no_weight="true"
     apply_with_weight="true"
     only_selected="false" /><inkscape:path-effect
     effect="spiro"
     id="path-effect2303"
     is_visible="true"
     lpeversion="1" /><inkscape:path-effect
     effect="spiro"
     id="path-effect956"
     is_visible="true"
     lpeversion="1" /><inkscape:path-effect
     effect="bspline"
     id="path-effect4227"
     is_visible="true"
     lpeversion="1"
     weight="33.333333"
     steps="2"
     helper_size="0"
     apply_no_weight="true"
     apply_with_weight="true"
     only_selected="false" /></defs><sodipodi:namedview
   id="namedview837"
   pagecolor="#ffffff"
   bordercolor="#666666"
   borderopacity="1.0"
   inkscape:pageshadow="2"
   inkscape:pageopacity="0.0"
   inkscape:pagecheckerboard="0"
   showgrid="false"
   inkscape:zoom="1"
   inkscape:cx="287.5"
   inkscape:cy="363"
   inkscape:window-width="1920"
   inkscape:window-height="1017"
   inkscape:window-x="-8"
   inkscape:window-y="-8"
   inkscape:window-maximized="1"
   inkscape:current-layer="Layer_1"
   inkscape:showpageshadow="2"
   inkscape:deskcolor="#d1d1d1" />
<style
   type="text/css"
   id="style824">
	.st0{fill:none;stroke:#ED2024;stroke-width:55;stroke-linecap:round;stroke-linejoin:round;stroke-miterlimit:10;}
	.st1{fill:#FFFFFF;}
	.st2{fill:#4D4D4E;stroke:#FFFFFF;stroke-miterlimit:10;}
	.st3{fill:#EC2326;}
	.st4{font-family:'ArialMT';}
	.st5{font-size:400px;}
</style>




<g
   id="g297"
   transform="matrix(0.72286191,0,0,0.72286972,132.72133,158.13569)"
   style="stroke:#2b9245;stroke-width:5.53353;stroke-dasharray:none;stroke-opacity:1">
	<path
   class="st0"
   d="m 638,68.6 c -66.4,74.3 -128.7,151.2 -186.7,230.7 -58.1,79.5 -111.5,161 -160.2,244.6 -3.6,6.2 -8.1,14.8 -13.5,25.8 -16.7,33.4 -40.4,50.2 -71.2,50.2 -13.1,0 -23.8,-1.9 -32.3,-5.8 -8.5,-3.9 -16.3,-10.5 -23.5,-20.1 -5.9,-8.2 -11.4,-19 -16.5,-32.2 -5.1,-13.2 -11.2,-32.7 -18.1,-58.5 -0.5,-1.5 -1,-3.5 -1.5,-5.8 -6.2,-27.9 -10.9,-48.2 -11.9,-53.6 -11.3,-60.5 -34.9,-91.6 -21.7,-117.2 13.3,-25.8 57.5,-34.7 80.9,-17.3 12.4,9.2 17.8,25 26.4,50.1 5.2,15.2 5.6,22.1 15.2,51.1 4.9,14.7 7.9,21.3 9.6,26.2 8.7,24.7 16,37 21.9,37 5.1,0 25.4,-28.2 60.8,-84.5 33.8,-53.8 62.9,-98.9 87.3,-135.4 34.1,-50.9 60,-87.9 77.9,-110.7 17.8,-22.8 33.9,-40.1 48.3,-51.9 22.3,-18.4 43.8,-23 48.5,-24.3 34.3,-9.7 63.9,-3.5 80.3,1.6 z"
   id="path295"
   style="fill:#2b9245;stroke:#2b9245;stroke-width:5.53353;stroke-dasharray:none;stroke-opacity:1" />
</g><path
   style="fill:none;stroke:#ff0000;stroke-width:30;stroke-linecap:square;stroke-dasharray:none;stroke-opacity:1;paint-order:markers fill stroke;stop-color:#000000"
   d="m 268.14485,68.067587 c -27.13802,1.987306 -54.38144,4.025287 -80.96159,9.849133 -26.58014,5.823846 -52.65873,15.606249 -74.51211,31.81893 -37.122569,27.54065 -59.497928,72.788 -62.606863,118.9064 -2.01978,29.96171 3.508732,59.85758 8.848467,89.40874 5.339736,29.55115 10.534941,59.54986 7.846696,89.45901 -2.156103,23.98859 -9.324693,47.19844 -14.335862,70.75665 -5.01117,23.55822 -7.827015,48.33603 -1.315854,71.52452 5.099268,18.16025 15.806935,34.51956 29.519804,47.47156 13.71287,12.95201 30.353032,22.58843 47.967292,29.3364 35.22852,13.49594 73.67022,15.511 111.37694,16.6911 82.08498,2.56899 164.29412,1.90077 246.25365,7.11405 25.01625,1.59123 50.30389,3.71738 75.0136,-0.49868 12.35485,-2.10803 24.50095,-5.82186 35.545,-11.74765 11.04406,-5.9258 20.97108,-14.11577 28.21994,-24.34026 7.1688,-10.11156 11.5978,-22.05084 13.44069,-34.30804 1.84288,-12.25721 1.14679,-24.82805 -1.35936,-36.96702 -5.01231,-24.27794 -17.06176,-46.51044 -30.34031,-67.44418 -13.27855,-20.93373 -27.97888,-41.05154 -39.16835,-63.17251 -11.18946,-22.12097 -18.81906,-46.79582 -16.65746,-71.49134 2.51398,-28.72134 17.86276,-54.61613 34.27091,-78.32283 16.40816,-23.70671 34.536,-46.88342 43.98768,-74.12128 6.40832,-18.46752 8.56923,-38.46591 5.67148,-57.79772 -2.89775,-19.33181 -10.91007,-37.949531 -23.4101,-52.978337 -14.93287,-17.953804 -35.8722,-30.377054 -58.21129,-37.181086 -22.33908,-6.804032 -46.06137,-8.217472 -69.35333,-6.5399 -46.58391,3.355145 -91.4056,18.744034 -137.47109,26.443988 -25.87759,4.3255 -52.09204,6.214187 -78.25858,8.130352 z"
   id="path2301"
   inkscape:path-effect="#path-effect2303"
   inkscape:original-d="M 268.14485,68.067587 C 242.05757,70.776644 164.4968,95.847352 112.67115,109.73565 60.84549,123.62394 70.93433,189.00764 50.064287,228.64205 29.194243,268.27646 61.195485,347.88828 66.75945,407.5098 c 5.563965,59.62152 -10.433387,94.85518 -15.651716,142.28117 -5.218327,47.426 125.910446,62.33376 188.864036,93.49906 62.95358,31.16528 164.17019,4.74376 246.25365,7.11405 82.08346,2.37029 92.52012,-24.39 138.77854,-36.58659 C 671.26238,601.6209 575.6152,431.56315 550.91917,340.4344 526.22316,249.30564 603.09265,238.80606 629.17776,187.99029 655.26286,137.17453 617.3531,114.14065 611.43914,77.214233 605.52519,40.287822 434.74975,65.697294 346.40343,59.937235 258.0571,54.177174 294.23214,65.35853 268.14485,68.067587 Z" /><g
   id="g2568"
   transform="rotate(-3.8504317,-698.62611,1004.2765)"><path
     id="path3989"
     style="fill:#4d4d4d;fill-opacity:1;stroke:#4d4d4d;stroke-width:0;stroke-linecap:butt;stroke-linejoin:miter;stroke-dasharray:none;stroke-opacity:1"
     d="m 387.13398,162.17324 -14.85127,19.64089 -7.90474,-5.91655 -260.4191,344.42582 46.30156,35.93044 261.03309,-345.19932 -7.67366,-5.74183 14.99732,-19.33374 z"
     sodipodi:nodetypes="ccccccccc" /><path
     style="fill:#333333;fill-opacity:1;stroke:#d40000;stroke-width:0;stroke-linecap:butt;stroke-linejoin:miter;stroke-dasharray:none;stroke-opacity:1"
     d="m 89.642034,568.58461 c 0,0 -9.706962,32.57848 -9.706962,32.57848 0,0 28.856488,-18.48519 28.856488,-18.48519 0,0 -19.149526,-14.09329 -19.149526,-14.09329 z"
     id="path4225"
     inkscape:original-d="M 89.642034,568.58461 79.935072,601.16309 108.79156,582.6779 Z"
     inkscape:path-effect="#path-effect4227" /><path
     style="fill:#808080;fill-opacity:1;stroke:none;stroke-width:1;stroke-linecap:butt;stroke-dasharray:none;stroke-opacity:1;paint-order:markers fill stroke;stop-color:#000000"
     d="m 103.95887,520.3234 c 0,0 -14.316836,48.26121 -14.316836,48.26121 0,0 19.149526,14.09329 19.149526,14.09329 0,0 41.46887,-26.42406 41.46887,-26.42406 0,0 -46.30156,-35.93044 -46.30156,-35.93044 z"
     id="path2530"
     inkscape:original-d="m 103.95887,520.3234 -14.316836,48.26121 19.149526,14.09329 41.46887,-26.42406 z"
     inkscape:path-effect="#path-effect2532" /></g></svg>
