<?xml version="1.0" encoding="UTF-8" standalone="no"?>
<!-- Generator: Adobe Illustrator 21.0.2, SVG Export Plug-In . SVG Version: 6.00 Build 0)  -->

<svg
   version="1.1"
   id="Layer_1"
   x="0px"
   y="0px"
   viewBox="0 0 680.3 680.3"
   style="enable-background:new 0 0 680.3 680.3;"
   xml:space="preserve"
   sodipodi:docname="drawFreeRoi.svg"
   inkscape:version="1.3.2 (091e20e, 2023-11-25, custom)"
   xmlns:inkscape="http://www.inkscape.org/namespaces/inkscape"
   xmlns:sodipodi="http://sodipodi.sourceforge.net/DTD/sodipodi-0.dtd"
   xmlns="http://www.w3.org/2000/svg"
   xmlns:svg="http://www.w3.org/2000/svg"><defs
   id="defs839"><inkscape:path-effect
     effect="spiro"
     id="path-effect2"
     is_visible="true"
     lpeversion="1" /><inkscape:path-effect
     effect="bspline"
     id="path-effect1"
     is_visible="true"
     lpeversion="1.3"
     weight="33.333333"
     steps="2"
     helper_size="0"
     apply_no_weight="true"
     apply_with_weight="true"
     only_selected="false"
     uniform="false" /><inkscape:path-effect
     effect="spiro"
     id="path-effect956"
     is_visible="true"
     lpeversion="1" /><inkscape:path-effect
     effect="spiro"
     id="path-effect2303"
     is_visible="true"
     lpeversion="1" /></defs><sodipodi:namedview
   id="namedview837"
   pagecolor="#ffffff"
   bordercolor="#666666"
   borderopacity="1.0"
   inkscape:pageshadow="2"
   inkscape:pageopacity="0.0"
   inkscape:pagecheckerboard="0"
   showgrid="false"
   inkscape:zoom="0.73810156"
   inkscape:cx="98.902379"
   inkscape:cy="386.80314"
   inkscape:window-width="1920"
   inkscape:window-height="1137"
   inkscape:window-x="-8"
   inkscape:window-y="-8"
   inkscape:window-maximized="1"
   inkscape:current-layer="Layer_1"
   inkscape:showpageshadow="2"
   inkscape:deskcolor="#d1d1d1" />
<style
   type="text/css"
   id="style824">
	.st0{fill:none;stroke:#ED2024;stroke-width:55;stroke-linecap:round;stroke-linejoin:round;stroke-miterlimit:10;}
	.st1{fill:#FFFFFF;}
	.st2{fill:#4D4D4E;stroke:#FFFFFF;stroke-miterlimit:10;}
	.st3{fill:#EC2326;}
	.st4{font-family:'ArialMT';}
	.st5{font-size:400px;}
</style>




<path
   style="fill:none;stroke:#ff0000;stroke-width:50;stroke-linecap:square;stroke-dasharray:none;stroke-opacity:1;paint-order:markers fill stroke;stop-color:#000000"
   d="m 268.14485,68.067587 c -27.13802,1.987306 -54.38144,4.025287 -80.96159,9.849133 -26.58014,5.823846 -52.65873,15.606249 -74.51211,31.81893 -37.122569,27.54065 -59.497928,72.788 -62.606863,118.9064 -2.01978,29.96171 3.508732,59.85758 8.848467,89.40874 5.339736,29.55115 10.534941,59.54986 7.846696,89.45901 -2.156103,23.98859 -9.324693,47.19844 -14.335862,70.75665 -5.01117,23.55822 -7.827015,48.33603 -1.315854,71.52452 5.099268,18.16025 15.806935,34.51956 29.519804,47.47156 13.71287,12.95201 30.353032,22.58843 47.967292,29.3364 35.22852,13.49594 73.67022,15.511 111.37694,16.6911 82.08498,2.56899 164.29412,1.90077 246.25365,7.11405 25.01625,1.59123 50.30389,3.71738 75.0136,-0.49868 12.35485,-2.10803 24.50095,-5.82186 35.545,-11.74765 11.04406,-5.9258 20.97108,-14.11577 28.21994,-24.34026 7.1688,-10.11156 11.5978,-22.05084 13.44069,-34.30804 1.84288,-12.25721 1.14679,-24.82805 -1.35936,-36.96702 -5.01231,-24.27794 -17.06176,-46.51044 -30.34031,-67.44418 -13.27855,-20.93373 -27.97888,-41.05154 -39.16835,-63.17251 -11.18946,-22.12097 -18.81906,-46.79582 -16.65746,-71.49134 2.51398,-28.72134 17.86276,-54.61613 34.27091,-78.32283 16.40816,-23.70671 34.536,-46.88342 43.98768,-74.12128 6.40832,-18.46752 8.56923,-38.46591 5.67148,-57.79772 -2.89775,-19.33181 -10.91007,-37.949531 -23.4101,-52.978337 -14.93287,-17.953804 -35.8722,-30.377054 -58.21129,-37.181086 -22.33908,-6.804032 -46.06137,-8.217472 -69.35333,-6.5399 -46.58391,3.355145 -91.4056,18.744034 -137.47109,26.443988 -25.87759,4.3255 -52.09204,6.214187 -78.25858,8.130352 z"
   id="path2301"
   inkscape:path-effect="#path-effect2303"
   inkscape:original-d="M 268.14485,68.067587 C 242.05757,70.776644 164.4968,95.847352 112.67115,109.73565 60.84549,123.62394 70.93433,189.00764 50.064287,228.64205 29.194243,268.27646 61.195485,347.88828 66.75945,407.5098 c 5.563965,59.62152 -10.433387,94.85518 -15.651716,142.28117 -5.218327,47.426 125.910446,62.33376 188.864036,93.49906 62.95358,31.16528 164.17019,4.74376 246.25365,7.11405 82.08346,2.37029 92.52012,-24.39 138.77854,-36.58659 C 671.26238,601.6209 575.6152,431.56315 550.91917,340.4344 526.22316,249.30564 603.09265,238.80606 629.17776,187.99029 655.26286,137.17453 617.3531,114.14065 611.43914,77.214233 605.52519,40.287822 434.74975,65.697294 346.40343,59.937235 258.0571,54.177174 294.23214,65.35853 268.14485,68.067587 Z"
   transform="translate(10.503397,0.37779527)" /><g
   id="g1414"
   transform="matrix(6.6249465,-1.193955,1.1681568,6.7712555,50.889855,113.1013)"
   style="fill:#4d4d4d;fill-opacity:1;stroke-width:0.147037"><g
     id="g1360"
     style="fill:#4d4d4d;fill-opacity:1;stroke-width:0.147037"><path
       d="M 71.807,6.191 C 64.592,-1.025 59.178,0.058 59.178,0.058 L 33.918,25.317 5.049,54.185 0,78 23.812,72.949 52.681,44.08 77.941,18.823 c 0,0.001 1.084,-5.414 -6.134,-12.632 z M 22.395,70.086 14.278,71.834 C 13.493,70.367 12.551,68.902 10.823,67.175 9.096,65.448 7.63,64.506 6.165,63.719 l 1.75,-8.116 2.346,-2.348 c 0,0 4.418,0.088 9.404,5.078 4.988,4.987 5.078,9.407 5.078,9.407 z"
       id="path1358"
       style="fill:#4d4d4d;fill-opacity:1;stroke-width:0.147037" /></g><g
     id="g1362"
     style="fill:#4d4d4d;fill-opacity:1;stroke-width:0.147037" /><g
     id="g1364"
     style="fill:#4d4d4d;fill-opacity:1;stroke-width:0.147037" /><g
     id="g1366"
     style="fill:#4d4d4d;fill-opacity:1;stroke-width:0.147037" /><g
     id="g1368"
     style="fill:#4d4d4d;fill-opacity:1;stroke-width:0.147037" /><g
     id="g1370"
     style="fill:#4d4d4d;fill-opacity:1;stroke-width:0.147037" /><g
     id="g1372"
     style="fill:#4d4d4d;fill-opacity:1;stroke-width:0.147037" /><g
     id="g1374"
     style="fill:#4d4d4d;fill-opacity:1;stroke-width:0.147037" /><g
     id="g1376"
     style="fill:#4d4d4d;fill-opacity:1;stroke-width:0.147037" /><g
     id="g1378"
     style="fill:#4d4d4d;fill-opacity:1;stroke-width:0.147037" /><g
     id="g1380"
     style="fill:#4d4d4d;fill-opacity:1;stroke-width:0.147037" /><g
     id="g1382"
     style="fill:#4d4d4d;fill-opacity:1;stroke-width:0.147037" /><g
     id="g1384"
     style="fill:#4d4d4d;fill-opacity:1;stroke-width:0.147037" /><g
     id="g1386"
     style="fill:#4d4d4d;fill-opacity:1;stroke-width:0.147037" /><g
     id="g1388"
     style="fill:#4d4d4d;fill-opacity:1;stroke-width:0.147037" /><g
     id="g1390"
     style="fill:#4d4d4d;fill-opacity:1;stroke-width:0.147037" /></g></svg>
