<?xml version="1.0" encoding="UTF-8" standalone="no"?>
<!-- Generated by IcoMoon.io -->

<svg
   version="1.1"
   width="32"
   height="32"
   viewBox="0 0 32 32"
   id="svg828"
   sodipodi:docname="eye-checked.svg"
   inkscape:version="1.1.2 (b8e25be8, 2022-02-05)"
   xmlns:inkscape="http://www.inkscape.org/namespaces/inkscape"
   xmlns:sodipodi="http://sodipodi.sourceforge.net/DTD/sodipodi-0.dtd"
   xmlns="http://www.w3.org/2000/svg"
   xmlns:svg="http://www.w3.org/2000/svg"
   xmlns:rdf="http://www.w3.org/1999/02/22-rdf-syntax-ns#"
   xmlns:cc="http://creativecommons.org/ns#"
   xmlns:dc="http://purl.org/dc/elements/1.1/">
  <defs
     id="defs832" />
  <sodipodi:namedview
     id="namedview830"
     pagecolor="#ffffff"
     bordercolor="#666666"
     borderopacity="1.0"
     inkscape:pageshadow="2"
     inkscape:pageopacity="0.0"
     inkscape:pagecheckerboard="0"
     showgrid="false"
     inkscape:zoom="16.085289"
     inkscape:cx="16.008416"
     inkscape:cy="16.008416"
     inkscape:window-width="1312"
     inkscape:window-height="925"
     inkscape:window-x="0"
     inkscape:window-y="25"
     inkscape:window-maximized="0"
     inkscape:current-layer="svg828" />
  <title
     id="title824">eye</title>
  <rect
     style="fill:#fff9f9;stroke:#4d4d4d;stroke-width:1.51181102;stroke-linejoin:round;stroke-miterlimit:4;stroke-dasharray:none;paint-order:stroke fill markers;fill-opacity:1"
     id="rect936"
     width="31.99213"
     height="31.992132"
     x="0.0039347126"
     y="0.0039336993" />
  <path
     fill="#4d4d4d"
     d="M 16,7.25 C 9.893375,7.25 4.6005,10.806 2,16 c 2.6005,5.194 7.893375,8.75 14,8.75 6.106629,0 11.398629,-3.556 14,-8.75 C 27.3995,10.806 22.106629,7.25 16,7.25 Z m 6.902876,4.640124 c 1.645,1.049124 3.038877,2.454376 4.086248,4.109876 -1.047371,1.654629 -2.441248,3.060753 -4.086248,4.109876 C 20.836124,21.4285 18.449124,22.125 16,22.125 13.550876,22.125 11.163876,21.4285 9.0971252,20.109876 7.4521249,19.060753 6.05825,17.6555 5.0108753,16 6.05825,14.345371 7.4521249,12.939248 9.0971252,11.890124 9.2038751,11.821876 9.312375,11.755371 9.42175,11.690629 9.1496252,12.437876 9,13.244629 9,14.0855 c 0,3.865748 3.134248,7 7,7 3.865753,0 7,-3.134252 7,-7 0,-0.841747 -0.148752,-1.647624 -0.421752,-2.394871 0.108505,0.06476 0.217,0.131247 0.324628,0.199495 z M 16,13.375 C 16,14.824876 14.824876,16 13.375,16 11.925124,16 10.75,14.824876 10.75,13.375 c 0,-1.449876 1.175124,-2.625 2.625,-2.625 1.449876,0 2.625,1.175124 2.625,2.625 z"
     id="path826"
     style="stroke-width:0.99999" />
  <metadata
     id="metadata1036">
    <rdf:RDF>
      <cc:Work
         rdf:about="">
        <dc:title>eye</dc:title>
      </cc:Work>
    </rdf:RDF>
  </metadata>
</svg>
