<?xml version="1.0" encoding="UTF-8" standalone="no"?>
<svg
   version="1.1"
   id="Layer_1"
   x="0px"
   y="0px"
   viewBox="0 0 680.3 680.3"
   style="enable-background:new 0 0 680.3 680.3;"
   xml:space="preserve"
   sodipodi:docname="fill_holes_dark.svg"
   inkscape:version="1.2.2 (732a01da63, 2022-12-09)"
   xmlns:inkscape="http://www.inkscape.org/namespaces/inkscape"
   xmlns:sodipodi="http://sodipodi.sourceforge.net/DTD/sodipodi-0.dtd"
   xmlns="http://www.w3.org/2000/svg"
   xmlns:svg="http://www.w3.org/2000/svg"
   xmlns:rdf="http://www.w3.org/1999/02/22-rdf-syntax-ns#"
   xmlns:cc="http://creativecommons.org/ns#"
   xmlns:dc="http://purl.org/dc/elements/1.1/"><metadata
   id="metadata844"><rdf:RDF><cc:Work
       rdf:about=""><dc:format>image/svg+xml</dc:format><dc:type
         rdf:resource="http://purl.org/dc/dcmitype/StillImage" /></cc:Work></rdf:RDF></metadata><defs
   id="defs842"><inkscape:path-effect
     effect="spiro"
     id="path-effect1989"
     is_visible="true"
     lpeversion="1" /><inkscape:path-effect
     effect="spiro"
     id="path-effect1987"
     is_visible="true"
     lpeversion="1" /><inkscape:path-effect
     effect="spiro"
     id="path-effect1637"
     is_visible="true"
     lpeversion="1" /><marker
     style="overflow:visible"
     id="TriangleOutM"
     refX="0.0"
     refY="0.0"
     orient="auto"
     inkscape:stockid="TriangleOutM"
     inkscape:isstock="true"><path
       transform="scale(0.4)"
       style="fill-rule:evenodd;stroke:#666666;stroke-width:1pt;stroke-opacity:1;fill:#666666;fill-opacity:1"
       d="M 5.77,0.0 L -2.88,5.0 L -2.88,-5.0 L 5.77,0.0 z "
       id="path1064" /></marker><marker
     style="overflow:visible"
     id="TriangleOutS"
     refX="0.0"
     refY="0.0"
     orient="auto"
     inkscape:stockid="TriangleOutS"
     inkscape:isstock="true"><path
       transform="scale(0.2)"
       style="fill-rule:evenodd;stroke:#000000;stroke-width:1pt;stroke-opacity:1;fill:#000000;fill-opacity:1"
       d="M 5.77,0.0 L -2.88,5.0 L -2.88,-5.0 L 5.77,0.0 z "
       id="path1067" /></marker><marker
     style="overflow:visible"
     id="DotS"
     refX="0.0"
     refY="0.0"
     orient="auto"
     inkscape:stockid="DotS"
     inkscape:isstock="true"><path
       transform="scale(0.2) translate(7.4, 1)"
       style="fill-rule:evenodd;stroke:#000000;stroke-width:1pt;stroke-opacity:1;fill:#000000;fill-opacity:1"
       d="M -2.5,-1.0 C -2.5,1.7600000 -4.7400000,4.0 -7.5,4.0 C -10.260000,4.0 -12.5,1.7600000 -12.5,-1.0 C -12.5,-3.7600000 -10.260000,-6.0 -7.5,-6.0 C -4.7400000,-6.0 -2.5,-3.7600000 -2.5,-1.0 z "
       id="path986" /></marker><marker
     style="overflow:visible;"
     id="marker1262"
     refX="0.0"
     refY="0.0"
     orient="auto"
     inkscape:stockid="Arrow2Send"
     inkscape:isstock="true"><path
       transform="scale(0.3) rotate(180) translate(-2.3,0)"
       d="M 8.7185878,4.0337352 L -2.2072895,0.016013256 L 8.7185884,-4.0017078 C 6.9730900,-1.6296469 6.9831476,1.6157441 8.7185878,4.0337352 z "
       style="fill-rule:evenodd;stroke-width:0.625;stroke-linejoin:round;stroke:#000000;stroke-opacity:1;fill:#000000;fill-opacity:1"
       id="path952" /></marker><marker
     style="overflow:visible;"
     id="Arrow2Lend"
     refX="0.0"
     refY="0.0"
     orient="auto"
     inkscape:stockid="Arrow2Lend"
     inkscape:isstock="true"><path
       transform="scale(1.1) rotate(180) translate(1,0)"
       d="M 8.7185878,4.0337352 L -2.2072895,0.016013256 L 8.7185884,-4.0017078 C 6.9730900,-1.6296469 6.9831476,1.6157441 8.7185878,4.0337352 z "
       style="fill-rule:evenodd;stroke-width:0.625;stroke-linejoin:round;stroke:#000000;stroke-opacity:1;fill:#000000;fill-opacity:1"
       id="path940" /></marker><inkscape:path-effect
     effect="spiro"
     id="path-effect917"
     is_visible="true"
     lpeversion="1" /><inkscape:path-effect
     effect="spiro"
     id="path-effect908"
     is_visible="true"
     lpeversion="1" /><inkscape:path-effect
     effect="spiro"
     id="path-effect2007"
     is_visible="true"
     lpeversion="1" /><inkscape:path-effect
     effect="spiro"
     id="path-effect1891"
     is_visible="true"
     lpeversion="1" /><marker
     style="overflow:visible;"
     id="Arrow2Send"
     refX="0.0"
     refY="0.0"
     orient="auto"
     inkscape:stockid="Arrow2Send"
     inkscape:isstock="true"><path
       transform="scale(0.3) rotate(180) translate(-2.3,0)"
       d="M 8.7185878,4.0337352 L -2.2072895,0.016013256 L 8.7185884,-4.0017078 C 6.9730900,-1.6296469 6.9831476,1.6157441 8.7185878,4.0337352 z "
       style="fill-rule:evenodd;stroke-width:0.625;stroke-linejoin:round;stroke:#000000;stroke-opacity:1;fill:#000000;fill-opacity:1"
       id="path1501" /></marker><marker
     style="overflow:visible;"
     id="Arrow1Mend"
     refX="0.0"
     refY="0.0"
     orient="auto"
     inkscape:stockid="Arrow1Mend"
     inkscape:isstock="true"><path
       transform="scale(0.4) rotate(180) translate(10,0)"
       style="fill-rule:evenodd;stroke:#000000;stroke-width:1pt;stroke-opacity:1;fill:#000000;fill-opacity:1"
       d="M 0.0,0.0 L 5.0,-5.0 L -12.5,0.0 L 5.0,5.0 L 0.0,0.0 z "
       id="path1477" /></marker><marker
     style="overflow:visible;"
     id="Arrow1Lend"
     refX="0.0"
     refY="0.0"
     orient="auto"
     inkscape:stockid="Arrow1Lend"
     inkscape:isstock="true"><path
       transform="scale(0.8) rotate(180) translate(12.5,0)"
       style="fill-rule:evenodd;stroke:#000000;stroke-width:1pt;stroke-opacity:1;fill:#000000;fill-opacity:1"
       d="M 0.0,0.0 L 5.0,-5.0 L -12.5,0.0 L 5.0,5.0 L 0.0,0.0 z "
       id="path1471" /></marker><inkscape:path-effect
     effect="spiro"
     id="path-effect1466"
     is_visible="true"
     lpeversion="1" /><inkscape:path-effect
     effect="spiro"
     id="path-effect866"
     is_visible="true"
     lpeversion="1" /><inkscape:path-effect
     effect="spiro"
     id="path-effect862"
     is_visible="true"
     lpeversion="1" /><marker
     style="overflow:visible"
     id="Arrow2Send-9"
     refX="0"
     refY="0"
     orient="auto"
     inkscape:stockid="Arrow2Send"
     inkscape:isstock="true"><path
       transform="matrix(-0.3,0,0,-0.3,0.69,0)"
       d="M 8.7185878,4.0337352 -2.2072895,0.01601326 8.7185884,-4.0017078 c -1.7454984,2.3720609 -1.7354408,5.6174519 -6e-7,8.035443 z"
       style="fill:#666666;fill-opacity:1;fill-rule:evenodd;stroke:#666666;stroke-width:0.625;stroke-linejoin:round;stroke-opacity:1"
       id="path1501-8" /></marker><marker
     style="overflow:visible"
     id="Arrow2Send-9-0"
     refX="0"
     refY="0"
     orient="auto"
     inkscape:stockid="Arrow2Send"
     inkscape:isstock="true"><path
       transform="matrix(-0.3,0,0,-0.3,0.69,0)"
       d="M 8.7185878,4.0337352 -2.2072895,0.01601326 8.7185884,-4.0017078 c -1.7454984,2.3720609 -1.7354408,5.6174519 -6e-7,8.035443 z"
       style="fill:#666666;fill-opacity:1;fill-rule:evenodd;stroke:#666666;stroke-width:0.625;stroke-linejoin:round;stroke-opacity:1"
       id="path1501-8-6" /></marker><marker
     style="overflow:visible"
     id="TriangleOutM-4"
     refX="0"
     refY="0"
     orient="auto"
     inkscape:stockid="TriangleOutM"
     inkscape:isstock="true"><path
       transform="scale(0.4)"
       style="fill:#666666;fill-opacity:1;fill-rule:evenodd;stroke:#666666;stroke-width:1pt;stroke-opacity:1"
       d="M 5.77,0 -2.88,5 V -5 Z"
       id="path1064-9" /></marker><marker
     style="overflow:visible"
     id="TriangleOutM-0"
     refX="0"
     refY="0"
     orient="auto"
     inkscape:stockid="TriangleOutM"
     inkscape:isstock="true"><path
       transform="scale(0.4)"
       style="fill:#666666;fill-opacity:1;fill-rule:evenodd;stroke:#666666;stroke-width:1pt;stroke-opacity:1"
       d="M 5.77,0 -2.88,5 V -5 Z"
       id="path1064-7" /></marker><marker
     style="overflow:visible"
     id="TriangleOutM-4-1"
     refX="0"
     refY="0"
     orient="auto"
     inkscape:stockid="TriangleOutM"
     inkscape:isstock="true"><path
       transform="scale(0.4)"
       style="fill:#666666;fill-opacity:1;fill-rule:evenodd;stroke:#666666;stroke-width:1pt;stroke-opacity:1"
       d="M 5.77,0 -2.88,5 V -5 Z"
       id="path1064-9-2" /></marker></defs><sodipodi:namedview
   pagecolor="#ffffff"
   bordercolor="#666666"
   borderopacity="1"
   objecttolerance="10"
   gridtolerance="10"
   guidetolerance="10"
   inkscape:pageopacity="0"
   inkscape:pageshadow="2"
   inkscape:window-width="1920"
   inkscape:window-height="1137"
   id="namedview840"
   showgrid="false"
   inkscape:object-paths="false"
   inkscape:zoom="0.75136713"
   inkscape:cx="435.20669"
   inkscape:cy="360.67588"
   inkscape:window-x="-8"
   inkscape:window-y="-8"
   inkscape:window-maximized="1"
   inkscape:current-layer="Layer_1"
   inkscape:document-rotation="0"
   inkscape:pagecheckerboard="0"
   inkscape:showpageshadow="2"
   inkscape:deskcolor="#d1d1d1" />
<style
   type="text/css"
   id="style833">
	.st0{fill:#2B9245;}
</style>

<path
   style="opacity:0.997;fill:#ff6060;fill-opacity:0.540793;stroke:#d30000;stroke-width:17.2422;stroke-linecap:butt;stroke-linejoin:miter;stroke-miterlimit:4;stroke-dasharray:none;stroke-opacity:1"
   d="m 174.60751,153.91396 c -31.82756,2.9637 -64.17661,8.25219 -92.296893,23.45176 -14.060142,7.59979 -26.898923,17.66509 -36.827906,30.18945 -9.928983,12.52436 -16.872579,27.56578 -18.938843,43.41428 -2.336721,17.92293 1.532177,36.01452 5.511832,53.64557 11.128335,49.30183 23.377083,99.81373 16.217605,149.84624 -4.779818,33.40276 -18.103566,65.33051 -20.717459,98.97213 -1.306947,16.82081 0.178138,34.10966 6.576527,49.72082 6.398389,15.61116 18.050539,29.43486 33.415453,36.40387 8.871112,4.02364 18.705488,5.68134 28.446208,5.61293 9.740716,-0.0684 19.410576,-1.82192 28.810416,-4.37719 18.79966,-5.11055 36.62143,-13.40869 55.45387,-18.39712 29.42241,-7.79356 60.33719,-7.27911 90.75317,-6.14529 30.41599,1.13381 61.14474,2.8126 91.06521,-2.77162 49.76617,-9.28813 95.07116,-39.15992 124.55412,-80.31447 29.48295,-41.15455 43.16946,-93.01942 39.47713,-143.51009 C 522.41563,339.16455 501.65824,290.32147 469.13551,251.52439 436.61278,212.72731 392.62287,183.96353 344.54336,168.111 290.17225,150.18404 231.61118,148.60592 174.60751,153.91396 Z"
   id="path860"
   inkscape:path-effect="#path-effect862"
   inkscape:original-d="M 174.60751,153.91396 C 91.515321,76.092406 75.900048,218.61993 26.543868,250.96945 c -49.356172,32.34957 -8.055635,23.47362 5.511832,53.64557 13.311931,29.60366 -46.028004,158.01701 16.217605,149.84624 50.414967,-6.6178 -0.09083,151.87289 19.274521,185.09682 C 86.913177,672.782 173.3878,571.68532 180.25832,622.3967 c 6.87053,50.71142 217.94003,-12.27633 181.81838,-8.91691 -28.28476,2.63058 28.49919,-420.59578 -17.53334,-445.36879 -50.70087,-27.28531 -86.84365,63.62451 -169.93585,-14.19704 z"
   sodipodi:nodetypes="scsssssss" /><ellipse
   style="fill:#4d4d4d;fill-rule:evenodd;stroke:#d30000;stroke-width:21.3959;stroke-linecap:round;stroke-linejoin:round;stroke-miterlimit:4;stroke-dasharray:none;stroke-opacity:1;fill-opacity:1"
   id="path911"
   cx="244.14894"
   cy="409.15527"
   rx="135.31432"
   ry="139.28995" /><path
   d="M 466.46152,94.204764 C 483.43177,69.119756 500.8096,47.96239 516.48318,33.326381 a 110.12187,110.12206 0 0 1 26.30767,-19.082383 c 8.04058,-3.853533 20.74983,-7.5959082 32.68083,-0.741067 13.59842,7.892325 15.82167,23.343509 15.93284,33.19965 0.11166,11.264167 -2.37142,24.603317 -6.41009,38.683525 -7.2625,25.455534 -20.60166,56.617254 -38.35,89.001744 l 121.38592,121.38622 c 10.26367,10.26373 9.96742,24.30689 8.07758,34.01483 -2.03791,10.48605 -6.92883,21.97253 -13.33916,33.45902 -12.89434,23.23234 -34.08875,50.42937 -60.24834,76.62597 -26.1965,26.19661 -53.3935,47.35397 -76.62583,60.24848 -11.48633,6.4102 -22.97292,11.30123 -33.45892,13.33915 -9.70783,1.85266 -23.71391,2.18613 -34.01483,-8.07759 L 250.36779,297.3303 c -4.37233,9.52267 -3.409,18.97124 -1.85283,34.79295 1.11175,10.81952 2.51975,24.64036 2.705,43.57454 v 4.55754 h -0.11167 a 37.053117,37.053182 0 0 1 -73.84675,0 h -0.11175 v -2.11203 a 37.423647,37.423714 0 0 1 0.14834,-4.33523 c 2.03775,-46.31647 25.93708,-101.45161 68.91875,-129.46381 a 160.14357,160.14386 0 0 1 7.81825,-16.08109 c 12.93158,-23.19529 34.08883,-50.39232 60.28533,-76.58892 26.19658,-26.1966 53.3935,-47.39102 76.62581,-60.285527 11.48658,-6.37315 22.97291,-11.264167 33.45891,-13.33915 9.70809,-1.852659 23.714,-2.149084 34.01484,8.11465 l 8.04058,8.003483 z M 541.75327,60.375206 C 527.6361,73.566139 510.48052,94.538239 493.17677,120.846 l 26.08541,26.1225 c 14.15425,-26.93767 24.45509,-51.948569 30.12409,-71.809077 a 121.64538,121.6456 0 0 0 4.854,-24.936792 c -3.37184,2.26025 -7.55884,5.557984 -12.487,10.152575 z M 527.15443,207.29107 c -20.00875,31.56932 -41.01783,58.06234 -59.54441,75.32913 a 18.535337,18.535371 0 1 1 -25.27017,-27.12294 c 16.78517,-15.63644 37.68308,-42.09241 57.95117,-75.1068 l -40.31384,-40.31385 c -2.00091,4.44637 -4.26116,9.00391 -6.78066,13.5244 -12.93159,23.23235 -34.089,50.42939 -60.28559,76.62599 -26.15947,26.1966 -53.35639,47.35396 -76.6258,60.24847 -4.5205,2.51962 -9.041,4.81691 -13.52425,6.78073 l 180.11505,180.15257 a 21.157329,21.157367 0 0 0 2.51959,-0.37053 c 5.07641,-1.00044 12.67225,-3.85353 22.52825,-9.3374 19.416,-10.81953 43.94508,-29.64255 68.40016,-54.09765 24.455,-24.4551 43.27809,-48.91019 54.0975,-68.40017 5.44692,-9.8191 8.33692,-17.415 9.30034,-22.49128 a 21.231436,21.231473 0 0 0 0.37058,-2.51962 z m -106.3425,-71.69791 a 90.409608,90.409766 0 0 0 8.92984,-20.78683 c -5.00209,1.22276 -12.00509,4.07585 -20.82375,8.92982 -19.41584,10.81953 -43.94506,29.64255 -68.40014,54.09765 -16.67392,16.67392 -30.754,33.38491 -41.42525,48.53966 a 129.57475,129.57498 0 0 1 39.4985,3.37185 417.58862,417.58936 0 0 0 28.16033,-25.71491 c 24.45506,-24.4551 43.24106,-48.98431 54.02356,-68.43724 z"
   id="path962"
   style="fill:#f0f0f0;fill-opacity:1;stroke-width:37.0532" /><path
   style="fill:#949494;fill-opacity:1;stroke-width:0.456906;stroke-linecap:square"
   d="m 460.02602,139.78103 c -3.02584,3.77877 -4.46742,8.7067 -7.05884,12.8228 -12.94266,22.95831 -29.4185,43.82503 -47.20466,63.23663 -16.87787,17.63092 -34.23894,34.89855 -53.67759,49.7342 -15.37451,12.10214 -31.93317,22.69233 -49.52625,31.26943 -0.17548,1.772 2.5055,2.69048 3.31359,4.15328 58.59767,59.10575 117.57433,117.83759 176.37966,176.73848 8.39192,-0.0497 16.04509,-4.56575 23.39084,-8.20607 30.00375,-16.46074 55.82725,-39.50392 79.406,-64.07898 18.59191,-19.93713 36.28083,-41.20042 48.82958,-65.54249 2.98575,-6.36109 5.96675,-12.92857 6.92608,-19.94944 -11.51016,-12.01348 -23.656,-23.63287 -35.41058,-35.49477 -25.37767,-25.09709 -50.40108,-50.55954 -76.0895,-75.33723 -0.84292,-0.70146 -2.67083,-2.98175 -3.42908,-1.00374 -16.29784,24.96726 -33.79617,49.41424 -55.00834,70.47156 -4.03466,3.8461 -8.62316,8.20827 -14.56225,8.18677 -9.35016,1.05406 -18.54391,-6.76422 -19.07308,-16.1675 -0.55192,-5.39121 1.66367,-10.84652 5.68492,-14.53321 12.61758,-12.94557 24.54625,-26.58322 35.1225,-41.26196 8.16575,-11.10209 15.67841,-22.66388 23.021,-34.32141 -2.28967,-3.38652 -5.96659,-6.1072 -8.77934,-9.24264 -10.62258,-10.49701 -20.97983,-21.29131 -31.9245,-31.44604 l -0.30341,-0.0348 z"
   id="path1628" /></svg>
