<?xml version="1.0" encoding="UTF-8" standalone="no"?>
<svg
   version="1.1"
   id="Layer_1"
   x="0px"
   y="0px"
   viewBox="0 0 680.3 680.3"
   style="enable-background:new 0 0 680.3 680.3;"
   xml:space="preserve"
   sodipodi:docname="fill_holes.svg"
   inkscape:version="1.1 (c68e22c387, 2021-05-23)"
   xmlns:inkscape="http://www.inkscape.org/namespaces/inkscape"
   xmlns:sodipodi="http://sodipodi.sourceforge.net/DTD/sodipodi-0.dtd"
   xmlns="http://www.w3.org/2000/svg"
   xmlns:svg="http://www.w3.org/2000/svg"
   xmlns:rdf="http://www.w3.org/1999/02/22-rdf-syntax-ns#"
   xmlns:cc="http://creativecommons.org/ns#"
   xmlns:dc="http://purl.org/dc/elements/1.1/"><metadata
   id="metadata844"><rdf:RDF><cc:Work
       rdf:about=""><dc:format>image/svg+xml</dc:format><dc:type
         rdf:resource="http://purl.org/dc/dcmitype/StillImage" /></cc:Work></rdf:RDF></metadata><defs
   id="defs842"><inkscape:path-effect
     effect="spiro"
     id="path-effect1989"
     is_visible="true"
     lpeversion="1" /><inkscape:path-effect
     effect="spiro"
     id="path-effect1987"
     is_visible="true"
     lpeversion="1" /><inkscape:path-effect
     effect="spiro"
     id="path-effect1637"
     is_visible="true"
     lpeversion="1" /><marker
     style="overflow:visible"
     id="TriangleOutM"
     refX="0.0"
     refY="0.0"
     orient="auto"
     inkscape:stockid="TriangleOutM"
     inkscape:isstock="true"><path
       transform="scale(0.4)"
       style="fill-rule:evenodd;stroke:#666666;stroke-width:1pt;stroke-opacity:1;fill:#666666;fill-opacity:1"
       d="M 5.77,0.0 L -2.88,5.0 L -2.88,-5.0 L 5.77,0.0 z "
       id="path1064" /></marker><marker
     style="overflow:visible"
     id="TriangleOutS"
     refX="0.0"
     refY="0.0"
     orient="auto"
     inkscape:stockid="TriangleOutS"
     inkscape:isstock="true"><path
       transform="scale(0.2)"
       style="fill-rule:evenodd;stroke:#000000;stroke-width:1pt;stroke-opacity:1;fill:#000000;fill-opacity:1"
       d="M 5.77,0.0 L -2.88,5.0 L -2.88,-5.0 L 5.77,0.0 z "
       id="path1067" /></marker><marker
     style="overflow:visible"
     id="DotS"
     refX="0.0"
     refY="0.0"
     orient="auto"
     inkscape:stockid="DotS"
     inkscape:isstock="true"><path
       transform="scale(0.2) translate(7.4, 1)"
       style="fill-rule:evenodd;stroke:#000000;stroke-width:1pt;stroke-opacity:1;fill:#000000;fill-opacity:1"
       d="M -2.5,-1.0 C -2.5,1.7600000 -4.7400000,4.0 -7.5,4.0 C -10.260000,4.0 -12.5,1.7600000 -12.5,-1.0 C -12.5,-3.7600000 -10.260000,-6.0 -7.5,-6.0 C -4.7400000,-6.0 -2.5,-3.7600000 -2.5,-1.0 z "
       id="path986" /></marker><marker
     style="overflow:visible;"
     id="marker1262"
     refX="0.0"
     refY="0.0"
     orient="auto"
     inkscape:stockid="Arrow2Send"
     inkscape:isstock="true"><path
       transform="scale(0.3) rotate(180) translate(-2.3,0)"
       d="M 8.7185878,4.0337352 L -2.2072895,0.016013256 L 8.7185884,-4.0017078 C 6.9730900,-1.6296469 6.9831476,1.6157441 8.7185878,4.0337352 z "
       style="fill-rule:evenodd;stroke-width:0.625;stroke-linejoin:round;stroke:#000000;stroke-opacity:1;fill:#000000;fill-opacity:1"
       id="path952" /></marker><marker
     style="overflow:visible;"
     id="Arrow2Lend"
     refX="0.0"
     refY="0.0"
     orient="auto"
     inkscape:stockid="Arrow2Lend"
     inkscape:isstock="true"><path
       transform="scale(1.1) rotate(180) translate(1,0)"
       d="M 8.7185878,4.0337352 L -2.2072895,0.016013256 L 8.7185884,-4.0017078 C 6.9730900,-1.6296469 6.9831476,1.6157441 8.7185878,4.0337352 z "
       style="fill-rule:evenodd;stroke-width:0.625;stroke-linejoin:round;stroke:#000000;stroke-opacity:1;fill:#000000;fill-opacity:1"
       id="path940" /></marker><inkscape:path-effect
     effect="spiro"
     id="path-effect917"
     is_visible="true"
     lpeversion="1" /><inkscape:path-effect
     effect="spiro"
     id="path-effect908"
     is_visible="true"
     lpeversion="1" /><inkscape:path-effect
     effect="spiro"
     id="path-effect2007"
     is_visible="true"
     lpeversion="1" /><inkscape:path-effect
     effect="spiro"
     id="path-effect1891"
     is_visible="true"
     lpeversion="1" /><marker
     style="overflow:visible;"
     id="Arrow2Send"
     refX="0.0"
     refY="0.0"
     orient="auto"
     inkscape:stockid="Arrow2Send"
     inkscape:isstock="true"><path
       transform="scale(0.3) rotate(180) translate(-2.3,0)"
       d="M 8.7185878,4.0337352 L -2.2072895,0.016013256 L 8.7185884,-4.0017078 C 6.9730900,-1.6296469 6.9831476,1.6157441 8.7185878,4.0337352 z "
       style="fill-rule:evenodd;stroke-width:0.625;stroke-linejoin:round;stroke:#000000;stroke-opacity:1;fill:#000000;fill-opacity:1"
       id="path1501" /></marker><marker
     style="overflow:visible;"
     id="Arrow1Mend"
     refX="0.0"
     refY="0.0"
     orient="auto"
     inkscape:stockid="Arrow1Mend"
     inkscape:isstock="true"><path
       transform="scale(0.4) rotate(180) translate(10,0)"
       style="fill-rule:evenodd;stroke:#000000;stroke-width:1pt;stroke-opacity:1;fill:#000000;fill-opacity:1"
       d="M 0.0,0.0 L 5.0,-5.0 L -12.5,0.0 L 5.0,5.0 L 0.0,0.0 z "
       id="path1477" /></marker><marker
     style="overflow:visible;"
     id="Arrow1Lend"
     refX="0.0"
     refY="0.0"
     orient="auto"
     inkscape:stockid="Arrow1Lend"
     inkscape:isstock="true"><path
       transform="scale(0.8) rotate(180) translate(12.5,0)"
       style="fill-rule:evenodd;stroke:#000000;stroke-width:1pt;stroke-opacity:1;fill:#000000;fill-opacity:1"
       d="M 0.0,0.0 L 5.0,-5.0 L -12.5,0.0 L 5.0,5.0 L 0.0,0.0 z "
       id="path1471" /></marker><inkscape:path-effect
     effect="spiro"
     id="path-effect1466"
     is_visible="true"
     lpeversion="1" /><inkscape:path-effect
     effect="spiro"
     id="path-effect866"
     is_visible="true"
     lpeversion="1" /><inkscape:path-effect
     effect="spiro"
     id="path-effect862"
     is_visible="true"
     lpeversion="1" /><marker
     style="overflow:visible"
     id="Arrow2Send-9"
     refX="0"
     refY="0"
     orient="auto"
     inkscape:stockid="Arrow2Send"
     inkscape:isstock="true"><path
       transform="matrix(-0.3,0,0,-0.3,0.69,0)"
       d="M 8.7185878,4.0337352 -2.2072895,0.01601326 8.7185884,-4.0017078 c -1.7454984,2.3720609 -1.7354408,5.6174519 -6e-7,8.035443 z"
       style="fill:#666666;fill-opacity:1;fill-rule:evenodd;stroke:#666666;stroke-width:0.625;stroke-linejoin:round;stroke-opacity:1"
       id="path1501-8" /></marker><marker
     style="overflow:visible"
     id="Arrow2Send-9-0"
     refX="0"
     refY="0"
     orient="auto"
     inkscape:stockid="Arrow2Send"
     inkscape:isstock="true"><path
       transform="matrix(-0.3,0,0,-0.3,0.69,0)"
       d="M 8.7185878,4.0337352 -2.2072895,0.01601326 8.7185884,-4.0017078 c -1.7454984,2.3720609 -1.7354408,5.6174519 -6e-7,8.035443 z"
       style="fill:#666666;fill-opacity:1;fill-rule:evenodd;stroke:#666666;stroke-width:0.625;stroke-linejoin:round;stroke-opacity:1"
       id="path1501-8-6" /></marker><marker
     style="overflow:visible"
     id="TriangleOutM-4"
     refX="0"
     refY="0"
     orient="auto"
     inkscape:stockid="TriangleOutM"
     inkscape:isstock="true"><path
       transform="scale(0.4)"
       style="fill:#666666;fill-opacity:1;fill-rule:evenodd;stroke:#666666;stroke-width:1pt;stroke-opacity:1"
       d="M 5.77,0 -2.88,5 V -5 Z"
       id="path1064-9" /></marker><marker
     style="overflow:visible"
     id="TriangleOutM-0"
     refX="0"
     refY="0"
     orient="auto"
     inkscape:stockid="TriangleOutM"
     inkscape:isstock="true"><path
       transform="scale(0.4)"
       style="fill:#666666;fill-opacity:1;fill-rule:evenodd;stroke:#666666;stroke-width:1pt;stroke-opacity:1"
       d="M 5.77,0 -2.88,5 V -5 Z"
       id="path1064-7" /></marker><marker
     style="overflow:visible"
     id="TriangleOutM-4-1"
     refX="0"
     refY="0"
     orient="auto"
     inkscape:stockid="TriangleOutM"
     inkscape:isstock="true"><path
       transform="scale(0.4)"
       style="fill:#666666;fill-opacity:1;fill-rule:evenodd;stroke:#666666;stroke-width:1pt;stroke-opacity:1"
       d="M 5.77,0 -2.88,5 V -5 Z"
       id="path1064-9-2" /></marker></defs><sodipodi:namedview
   pagecolor="#ffffff"
   bordercolor="#666666"
   borderopacity="1"
   objecttolerance="10"
   gridtolerance="10"
   guidetolerance="10"
   inkscape:pageopacity="0"
   inkscape:pageshadow="2"
   inkscape:window-width="1920"
   inkscape:window-height="1137"
   id="namedview840"
   showgrid="false"
   inkscape:object-paths="false"
   inkscape:zoom="0.75136713"
   inkscape:cx="490.43934"
   inkscape:cy="361.34133"
   inkscape:window-x="-8"
   inkscape:window-y="-8"
   inkscape:window-maximized="1"
   inkscape:current-layer="Layer_1"
   inkscape:document-rotation="0"
   inkscape:pagecheckerboard="0" />
<style
   type="text/css"
   id="style833">
	.st0{fill:#2B9245;}
</style>

<path
   style="opacity:0.997;fill:#ff6060;fill-opacity:0.540793;stroke:#d30000;stroke-width:17.2422;stroke-linecap:butt;stroke-linejoin:miter;stroke-miterlimit:4;stroke-dasharray:none;stroke-opacity:1"
   d="m 174.60751,153.91396 c -31.82756,2.9637 -64.17661,8.25219 -92.296893,23.45176 -14.060142,7.59979 -26.898923,17.66509 -36.827906,30.18945 -9.928983,12.52436 -16.872579,27.56578 -18.938843,43.41428 -2.336721,17.92293 1.532177,36.01452 5.511832,53.64557 11.128335,49.30183 23.377083,99.81373 16.217605,149.84624 -4.779818,33.40276 -18.103566,65.33051 -20.717459,98.97213 -1.306947,16.82081 0.178138,34.10966 6.576527,49.72082 6.398389,15.61116 18.050539,29.43486 33.415453,36.40387 8.871112,4.02364 18.705488,5.68134 28.446208,5.61293 9.740716,-0.0684 19.410576,-1.82192 28.810416,-4.37719 18.79966,-5.11055 36.62143,-13.40869 55.45387,-18.39712 29.42241,-7.79356 60.33719,-7.27911 90.75317,-6.14529 30.41599,1.13381 61.14474,2.8126 91.06521,-2.77162 49.76617,-9.28813 95.07116,-39.15992 124.55412,-80.31447 29.48295,-41.15455 43.16946,-93.01942 39.47713,-143.51009 C 522.41563,339.16455 501.65824,290.32147 469.13551,251.52439 436.61278,212.72731 392.62287,183.96353 344.54336,168.111 290.17225,150.18404 231.61118,148.60592 174.60751,153.91396 Z"
   id="path860"
   inkscape:path-effect="#path-effect862"
   inkscape:original-d="M 174.60751,153.91396 C 91.515321,76.092406 75.900048,218.61993 26.543868,250.96945 c -49.356172,32.34957 -8.055635,23.47362 5.511832,53.64557 13.311931,29.60366 -46.028004,158.01701 16.217605,149.84624 50.414967,-6.6178 -0.09083,151.87289 19.274521,185.09682 C 86.913177,672.782 173.3878,571.68532 180.25832,622.3967 c 6.87053,50.71142 217.94003,-12.27633 181.81838,-8.91691 -28.28476,2.63058 28.49919,-420.59578 -17.53334,-445.36879 -50.70087,-27.28531 -86.84365,63.62451 -169.93585,-14.19704 z"
   sodipodi:nodetypes="scsssssss" /><ellipse
   style="fill:#ececec;fill-rule:evenodd;stroke:#d30000;stroke-width:21.3959;stroke-linecap:round;stroke-linejoin:round;stroke-miterlimit:4;stroke-dasharray:none;stroke-opacity:1"
   id="path911"
   cx="244.14894"
   cy="409.15527"
   rx="135.31432"
   ry="139.28995" /><g
   id="g2639"
   transform="matrix(0.83333333,0,0,0.83333333,-444.05798,364.28763)"><path
     d="m 1092.6234,-324.09944 c 20.3643,-30.10201 41.2177,-55.49085 60.026,-73.05406 a 132.14624,132.14647 0 0 1 31.5692,-22.89886 c 9.6487,-4.62424 24.8998,-9.11509 39.217,-0.88928 16.3181,9.47079 18.986,28.01221 19.1194,39.83958 0.134,13.517 -2.8457,29.52398 -7.6921,46.42023 -8.715,30.54664 -24.722,67.94071 -46.02,106.80209 l 145.6631,145.663469 c 12.3164,12.31648 11.9609,29.16827 9.6931,40.81779 -2.4455,12.58326 -8.3146,26.36704 -16.007,40.1508304 -15.4732,27.8788086 -40.9065,60.5152486 -72.298,91.9511686 -31.4358,31.435922 -64.0722,56.824762 -91.951,72.298172 -13.7836,7.69224 -27.5675,13.56147 -40.1507,16.00698 -11.6494,2.22319 -28.4567,2.62336 -40.8178,-9.69311 L 833.31093,-80.348791 c -5.2468,11.4272 -4.0908,22.76548 -2.2234,41.75153 1.3341,12.98343 3.0237,29.5684404 3.246,52.28945 v 5.46905 h -0.134 a 44.46374,44.463819 0 0 1 -88.6161,0 h -0.1341 v -2.53444 a 44.908377,44.908457 0 0 1 0.178,-5.20227 c 2.4453,-55.57977 31.1245,-121.741929 82.7025,-155.356579 a 192.17229,192.17263 0 0 1 9.3819,-19.2973 c 15.5179,-27.83435 40.9066,-60.47079 72.3424,-91.90671 31.4359,-31.43592 64.0722,-56.86922 91.95097,-72.34263 13.7839,-7.64778 27.5675,-13.517 40.1507,-16.00698 11.6497,-2.22319 28.4568,-2.5789 40.8178,9.73758 l 9.6487,9.60418 z m 90.3501,-40.59547 c -16.9406,15.82912 -37.5273,40.99564 -58.2918,72.56495 l 31.3025,31.347 c 16.9851,-32.3252 29.3461,-62.33828 36.1489,-86.17089 a 145.97446,145.97472 0 0 0 5.8248,-29.92415 c -4.0462,2.7123 -9.0706,6.66958 -14.9844,12.18309 z m -17.5186,176.29904 c -24.0105,37.88318 -49.2214,69.67481 -71.4533,90.394949 a 22.242404,22.242445 0 1 1 -30.3242,-32.547519 c 20.1422,-18.76373 45.2197,-50.5109 69.5414,-90.12816 l -48.3766,-48.37663 c -2.4011,5.33565 -5.1134,10.8047 -8.1368,16.22929 -15.5179,27.87881 -40.9068,60.51526 -72.3427,91.95118 -31.39137,31.43592 -64.02767,56.82476 -91.95097,72.298169 -5.4246,3.02354 -10.8492,5.78029 -16.2291,8.13687 L 1112.3207,135.74537 a 25.388795,25.388841 0 0 0 3.0235,-0.44464 c 6.0917,-1.20052 15.2067,-4.62423 27.0339,-11.20488 23.2992,-12.98343 52.7341,-35.571052 82.0802,-64.917172 29.346,-29.34612 51.9337,-58.69223858 64.917,-82.080209 6.5363,-11.78292 10.0043,-20.898 11.1604,-26.98954 a 25.477723,25.477768 0 0 0 0.4447,-3.02354 z m -127.611,-86.03749 a 108.49153,108.49172 0 0 0 10.7158,-24.9442 c -6.0025,1.46731 -14.4061,4.89102 -24.9885,10.71578 -23.299,12.98344 -52.73407,35.57106 -82.08017,64.91718 -20.0087,20.00871 -36.9048,40.0619 -49.7103,58.2476 a 155.4897,155.48998 0 0 1 47.3982,4.04621 501.10635,501.10724 0 0 0 33.7924,-30.85789 c 29.34607,-29.34612 51.88927,-58.78117 64.82827,-82.12468 z"
     id="path962"
     style="fill:#4d4d4d;fill-opacity:1;stroke-width:44.4638" /><path
     style="fill:#949494;fill-opacity:1;stroke-width:0.548287;stroke-linecap:square"
     d="m 1084.9008,-269.40792 c -3.631,4.53452 -5.3609,10.44804 -8.4706,15.38736 -15.5312,27.54997 -35.3022,52.59004 -56.6456,75.88396 -20.25344,21.1571 -41.08672,41.87826 -64.41311,59.68104 -18.44941,14.52256 -38.3198,27.23079 -59.4315,37.523309 -0.21057,2.126399 3.00661,3.228581 3.97631,4.983942 70.31721,70.9268916 141.0892,141.405103 211.6556,212.086169 10.0703,-0.0596 19.2541,-5.47889 28.069,-9.84728 36.0045,-19.75289 66.9927,-47.4047 95.2872,-76.894779 22.3103,-23.924553 43.537,-49.44050281 58.5955,-78.650983 3.5829,-7.633307 7.1601,-15.514281 8.3113,-23.93933 -13.8122,-14.416177 -28.3872,-28.359446 -42.4927,-42.59373 -30.4532,-30.116508 -60.4813,-60.671438 -91.3074,-90.404668 -1.0115,-0.84176 -3.205,-3.5781 -4.1149,-1.20449 -19.5574,29.96071 -40.5554,59.29709 -66.01,84.56587 -4.8416,4.615322 -10.3478,9.849924 -17.4747,9.824127 -11.2202,1.264875 -22.2527,-8.117067 -22.8877,-19.400997 -0.6623,-6.46946 1.9964,-13.01583 6.8219,-17.43986 15.1411,-15.53468 29.4555,-31.89986 42.147,-49.51435 9.7989,-13.32251 18.8141,-27.19665 27.6252,-41.18569 -2.7476,-4.06383 -7.1599,-7.32864 -10.5352,-11.09117 -12.7471,-12.59641 -25.1758,-25.54957 -38.3094,-37.73525 l -0.3641,-0.0418 z"
     id="path1628" /></g></svg>
