<?xml version="1.0" encoding="UTF-8" standalone="no"?>
<svg
   version="1.1"
   id="Layer_1"
   x="0px"
   y="0px"
   viewBox="0 0 32.000001 32"
   xml:space="preserve"
   sodipodi:docname="find.svg"
   inkscape:version="1.1.1 (3bf5ae0d25, 2021-09-20)"
   width="32"
   height="32"
   xmlns:inkscape="http://www.inkscape.org/namespaces/inkscape"
   xmlns:sodipodi="http://sodipodi.sourceforge.net/DTD/sodipodi-0.dtd"
   xmlns="http://www.w3.org/2000/svg"
   xmlns:svg="http://www.w3.org/2000/svg"><defs
     id="defs11" /><sodipodi:namedview
     id="namedview9"
     pagecolor="#ffffff"
     bordercolor="#666666"
     borderopacity="1.0"
     inkscape:pageshadow="2"
     inkscape:pageopacity="0.0"
     inkscape:pagecheckerboard="0"
     showgrid="false"
     inkscape:zoom="8.7565106"
     inkscape:cx="51.219032"
     inkscape:cy="39.227955"
     inkscape:window-width="1920"
     inkscape:window-height="1017"
     inkscape:window-x="1912"
     inkscape:window-y="-8"
     inkscape:window-maximized="1"
     inkscape:current-layer="Layer_1"
     width="32px" /><style
     type="text/css"
     id="style2">.st0{fill-rule:evenodd;clip-rule:evenodd;}</style><path
     class="st0"
     d="M 13.170693,10.257091 C 10.60813,8.4627767 8.0742148,8.0669337 5.4543596,8.7518462 6.0272901,7.3742086 6.8892902,6.4705408 7.9023356,6.0460514 9.3372663,5.4444743 11.686282,5.871568 12.610783,7.1580575 c 0.47397,0.6562659 0.710955,1.6302479 0.55991,3.0990335 z m 8.580937,9.927324 c -0.07031,-0.291674 0.111982,-0.583347 0.403656,-0.653662 0.291673,-0.07031 0.583347,0.111982 0.653661,0.403656 0.140629,0.59116 0.382822,1.049505 0.705747,1.380242 0.330737,0.335946 0.755226,0.552097 1.260447,0.651057 0.294278,0.05729 0.484387,0.341154 0.427093,0.635432 -0.05729,0.294278 -0.341154,0.484387 -0.635432,0.427094 -0.718767,-0.143232 -1.33597,-0.458344 -1.822961,-0.955752 -0.466157,-0.47397 -0.804707,-1.098985 -0.992211,-1.888067 z m -18.2244005,0 c -0.070314,-0.291674 0.1119819,-0.583347 0.4036556,-0.653662 0.2916738,-0.07031 0.5833475,0.111982 0.6536617,0.403656 0.1406284,0.59116 0.3828218,1.049505 0.7057463,1.380242 0.3307372,0.335946 0.7552266,0.552097 1.2604472,0.651057 0.294278,0.05729 0.4843868,0.341154 0.4270937,0.635432 C 6.920541,22.895418 6.6366799,23.085527 6.3424019,23.028234 5.6236345,22.885002 5.006432,22.56989 4.5194411,22.072482 4.0532839,21.598512 3.714734,20.973497 3.5272295,20.184415 Z M 15.965031,18.202596 c 0.729185,0 1.320345,0.575535 1.320345,1.283886 0,0.70835 -0.59116,1.283885 -1.320345,1.283885 -0.729184,0 -1.320344,-0.575535 -1.320344,-1.283885 0,-0.708351 0.59116,-1.283886 1.320344,-1.283886 z M 6.943979,14.780638 c 2.6042299,0 4.71626,2.052133 4.71626,4.586049 0,2.531311 -2.1120301,4.586049 -4.71626,4.586049 -2.6042298,0 -4.7162602,-2.052133 -4.7162602,-4.586049 0,-2.533916 2.1094262,-4.586049 4.7162602,-4.586049 z m 18.2244,0 c 2.60423,0 4.716261,2.052133 4.716261,4.586049 0,2.531311 -2.112031,4.586049 -4.716261,4.586049 -2.604229,0 -4.71626,-2.052133 -4.71626,-4.586049 0,-2.533916 2.109426,-4.586049 4.71626,-4.586049 z M 18.832288,10.257091 C 21.39485,8.4627767 23.928766,8.0669337 26.546017,8.7518462 25.973086,7.3742086 25.111086,6.4705408 24.098041,6.0460514 22.66311,5.4444743 20.314095,5.871568 19.392198,7.1580575 c -0.47397,0.6562659 -0.710955,1.6302479 -0.55991,3.0990335 z m 9.182515,0.05208 c -0.890647,-0.9166893 -2.33339,-1.3307618 -4.330835,-1.242218 -2.263075,0.1119819 -4.653758,1.057317 -5.422006,3.200598 -0.643245,-1.411492 -3.877698,-1.411492 -4.518339,0 C 12.975375,10.124275 10.584692,9.1763356 8.3216166,9.066958 6.3241723,8.9784142 4.8840332,9.3950909 3.9907824,10.309176 2.7355436,11.991508 0.25110835,16.387448 0.04276996,18.535938 -0.80620896,27.254899 11.699303,29.442452 13.70456,20.43963 c 1.138048,2.018278 3.455813,2.018278 4.593861,0 2.005257,9.005426 14.510769,6.815269 13.66179,-1.903692 -0.208338,-2.14849 -2.692774,-6.54443 -3.945408,-8.226762 z"
     id="path4"
     style="fill:#f0f0f0;fill-opacity:1;stroke-width:0.260423" /></svg>
