<svg viewBox="0 0 32 32" xmlns="http://www.w3.org/2000/svg">
    <path 
        d="m18 13-1.41 1.41L19.17 17H10v2h9.17l-2.58 2.59L18 23l5-5-5-5z" 
        fill="#4d4d4d" class="fill-000000">
    </path>
    <path 
        d="m11.172 6 3.414 3.414.586.586H28v16H4V6h7.172m0-2H4a2 2 0 0 0-2 2v20a2 2 0 0 0 2 2h24a2 2 0 0 0 2-2V10a2 2 0 0 0-2-2H16l-3.414-3.414A2 2 0 0 0 11.172 4Z" 
        fill="#4d4d4d" class="fill-000000">
    </path>
    <path 
        d="M0 0h32v32H0z" 
        fill="none">
    </path>
</svg>