<?xml version="1.0" encoding="UTF-8" standalone="no"?>
<svg
   enable-background="new 0 0 48 48"
   height="48px"
   version="1.1"
   viewBox="0 0 48 48"
   width="48px"
   xml:space="preserve"
   id="svg12"
   sodipodi:docname="fork_lift.svg"
   inkscape:version="1.3.2 (091e20e, 2023-11-25, custom)"
   xmlns:inkscape="http://www.inkscape.org/namespaces/inkscape"
   xmlns:sodipodi="http://sodipodi.sourceforge.net/DTD/sodipodi-0.dtd"
   xmlns="http://www.w3.org/2000/svg"
   xmlns:svg="http://www.w3.org/2000/svg"><defs
     id="defs12" /><sodipodi:namedview
     id="namedview12"
     pagecolor="#ffffff"
     bordercolor="#000000"
     borderopacity="0.25"
     inkscape:showpageshadow="2"
     inkscape:pageopacity="0.0"
     inkscape:pagecheckerboard="0"
     inkscape:deskcolor="#d1d1d1"
     inkscape:zoom="13.243521"
     inkscape:cx="23.181147"
     inkscape:cy="23.973987"
     inkscape:window-width="1920"
     inkscape:window-height="1137"
     inkscape:window-x="1912"
     inkscape:window-y="-8"
     inkscape:window-maximized="1"
     inkscape:current-layer="svg12" /><g
     id="Expanded"
     style="fill:#4d4d4d;fill-opacity:1;stroke:#4d4d4d;stroke-opacity:1"
     transform="matrix(0.97959184,0,0,0.97959184,0.48979584,-2.4489797)"><g
       id="g12"
       style="fill:#4d4d4d;fill-opacity:1;stroke:#4d4d4d;stroke-opacity:1"><g
         id="g1"
         style="fill:#4d4d4d;fill-opacity:1;stroke:#4d4d4d;stroke-opacity:1"><path
           d="m 41,46 c -2.757,0 -5,-2.243 -5,-5 0,-2.757 2.243,-5 5,-5 2.757,0 5,2.243 5,5 0,2.757 -2.243,5 -5,5 z m 0,-8 c -1.654,0 -3,1.346 -3,3 0,1.654 1.346,3 3,3 1.654,0 3,-1.346 3,-3 0,-1.654 -1.346,-3 -3,-3 z"
           id="path1"
           style="fill:#4d4d4d;fill-opacity:1;stroke:#4d4d4d;stroke-opacity:1" /></g><g
         id="g2"
         style="fill:#4d4d4d;fill-opacity:1;stroke:#4d4d4d;stroke-opacity:1"><path
           d="M 13,46 H 9 C 8.447,46 8,45.553 8,45 V 11 c 0,-1.654 1.346,-3 3,-3 1.654,0 3,1.346 3,3 v 34 c 0,0.553 -0.447,1 -1,1 z m -3,-2 h 2 V 11 c 0,-0.552 -0.448,-1 -1,-1 -0.552,0 -1,0.448 -1,1 z"
           id="path2"
           style="fill:#4d4d4d;fill-opacity:1;stroke:#4d4d4d;stroke-opacity:1" /></g><g
         id="g3"
         style="fill:#4d4d4d;fill-opacity:1;stroke:#4d4d4d;stroke-opacity:1"><path
           d="m 27,46 c -3.859,0 -7,-3.141 -7,-7 0,-3.859 3.141,-7 7,-7 3.859,0 7,3.141 7,7 0,3.859 -3.141,7 -7,7 z m 0,-12 c -2.757,0 -5,2.243 -5,5 0,2.757 2.243,5 5,5 2.757,0 5,-2.243 5,-5 0,-2.757 -2.243,-5 -5,-5 z"
           id="path3"
           style="fill:#4d4d4d;fill-opacity:1;stroke:#4d4d4d;stroke-opacity:1" /></g><g
         id="g4"
         style="fill:#4d4d4d;fill-opacity:1;stroke:#4d4d4d;stroke-opacity:1"><path
           d="m 36.001,29 c -0.08,0 -0.162,-0.01 -0.243,-0.03 -0.536,-0.134 -0.862,-0.677 -0.728,-1.212 l 2,-8 c 0.134,-0.537 0.676,-0.865 1.212,-0.728 0.536,0.134 0.862,0.677 0.728,1.212 l -2,8 C 36.856,28.697 36.449,29 36.001,29 Z"
           id="path4"
           style="fill:#4d4d4d;fill-opacity:1;stroke:#4d4d4d;stroke-opacity:1" /></g><g
         id="g5"
         style="fill:#4d4d4d;fill-opacity:1;stroke:#4d4d4d;stroke-opacity:1"><path
           d="m 27,27 c -0.256,0 -0.512,-0.098 -0.707,-0.293 l -2,-2 c -0.391,-0.391 -0.391,-1.023 0,-1.414 0.391,-0.391 1.023,-0.391 1.414,0 l 2,2 c 0.391,0.391 0.391,1.023 0,1.414 C 27.512,26.902 27.256,27 27,27 Z"
           id="path5"
           style="fill:#4d4d4d;fill-opacity:1;stroke:#4d4d4d;stroke-opacity:1" /></g><g
         id="g6"
         style="fill:#4d4d4d;fill-opacity:1;stroke:#4d4d4d;stroke-opacity:1"><path
           d="m 17,35 c -0.256,0 -0.512,-0.098 -0.707,-0.293 -0.391,-0.391 -0.391,-1.023 0,-1.414 l 9,-9 c 0.391,-0.391 1.023,-0.391 1.414,0 0.391,0.391 0.391,1.023 0,1.414 l -9,9 C 17.512,34.902 17.256,35 17,35 Z"
           id="path6"
           style="fill:#4d4d4d;fill-opacity:1;stroke:#4d4d4d;stroke-opacity:1" /></g><g
         id="g7"
         style="fill:#4d4d4d;fill-opacity:1;stroke:#4d4d4d;stroke-opacity:1"><path
           d="m 27,34 c -0.256,0 -0.512,-0.098 -0.707,-0.293 -0.391,-0.391 -0.391,-1.023 0,-1.414 l 5,-5 C 31.48,27.105 31.734,27 32,27 h 11 c 0.553,0 1,0.447 1,1 0,0.553 -0.447,1 -1,1 H 32.414 l -4.707,4.707 C 27.512,33.902 27.256,34 27,34 Z"
           id="path7"
           style="fill:#4d4d4d;fill-opacity:1;stroke:#4d4d4d;stroke-opacity:1" /></g><g
         id="g8"
         style="fill:#4d4d4d;fill-opacity:1;stroke:#4d4d4d;stroke-opacity:1"><path
           d="M 13,46 H 1 C 0.447,46 0,45.553 0,45 0,44.447 0.447,44 1,44 h 12 c 0.553,0 1,0.447 1,1 0,0.553 -0.447,1 -1,1 z"
           id="path8"
           style="fill:#4d4d4d;fill-opacity:1;stroke:#4d4d4d;stroke-opacity:1" /></g><g
         id="g9"
         style="fill:#4d4d4d;fill-opacity:1;stroke:#4d4d4d;stroke-opacity:1"><path
           d="M 9,36 H 3 C 2.447,36 2,35.553 2,35 2,34.447 2.447,34 3,34 h 6 c 0.553,0 1,0.447 1,1 0,0.553 -0.447,1 -1,1 z"
           id="path9"
           style="fill:#4d4d4d;fill-opacity:1;stroke:#4d4d4d;stroke-opacity:1" /></g><g
         id="g10"
         style="fill:#4d4d4d;fill-opacity:1;stroke:#4d4d4d;stroke-opacity:1"><rect
           height="2"
           width="4.9299998"
           x="32.196999"
           y="41"
           id="rect9"
           style="fill:#4d4d4d;fill-opacity:1;stroke:#4d4d4d;stroke-opacity:1" /></g><g
         id="g11"
         style="fill:#4d4d4d;fill-opacity:1;stroke:#4d4d4d;stroke-opacity:1"><path
           d="M 47,43 H 44.873 V 41 H 46 V 31.5 L 42.4,28.8 C 42.148,28.611 42,28.314 42,28 V 17 c 0,-1.654 -1.346,-3 -3,-3 h -4 c -9.374,0 -17,7.626 -17,17 v 10 h 3.803 v 2 H 17 c -0.553,0 -1,-0.447 -1,-1 V 31 C 16,20.523 24.523,12 35,12 h 4 c 2.757,0 5,2.243 5,5 v 10.5 l 3.6,2.7 c 0.252,0.188 0.4,0.485 0.4,0.8 v 11 c 0,0.553 -0.447,1 -1,1 z"
           id="path10"
           style="fill:#4d4d4d;fill-opacity:1;stroke:#4d4d4d;stroke-opacity:1" /></g></g></g></svg>
