<?xml version="1.0" encoding="UTF-8" standalone="no"?>
<svg
   version="1.1"
   id="Layer_1"
   x="0px"
   y="0px"
   viewBox="0 0 680.3 680.3"
   style="enable-background:new 0 0 680.3 680.3;"
   xml:space="preserve"
   sodipodi:docname="hull_dark.svg"
   inkscape:version="1.2.2 (732a01da63, 2022-12-09)"
   xmlns:inkscape="http://www.inkscape.org/namespaces/inkscape"
   xmlns:sodipodi="http://sodipodi.sourceforge.net/DTD/sodipodi-0.dtd"
   xmlns="http://www.w3.org/2000/svg"
   xmlns:svg="http://www.w3.org/2000/svg"
   xmlns:rdf="http://www.w3.org/1999/02/22-rdf-syntax-ns#"
   xmlns:cc="http://creativecommons.org/ns#"
   xmlns:dc="http://purl.org/dc/elements/1.1/"><metadata
   id="metadata844"><rdf:RDF><cc:Work
       rdf:about=""><dc:format>image/svg+xml</dc:format><dc:type
         rdf:resource="http://purl.org/dc/dcmitype/StillImage" /><dc:title /></cc:Work></rdf:RDF></metadata><defs
   id="defs842"><inkscape:path-effect
     effect="spiro"
     id="path-effect2007"
     is_visible="true"
     lpeversion="1" /><inkscape:path-effect
     effect="spiro"
     id="path-effect1891"
     is_visible="true"
     lpeversion="1" /><marker
     style="overflow:visible;"
     id="Arrow2Send"
     refX="0.0"
     refY="0.0"
     orient="auto"
     inkscape:stockid="Arrow2Send"
     inkscape:isstock="true"><path
       transform="scale(0.3) rotate(180) translate(-2.3,0)"
       d="M 8.7185878,4.0337352 L -2.2072895,0.016013256 L 8.7185884,-4.0017078 C 6.9730900,-1.6296469 6.9831476,1.6157441 8.7185878,4.0337352 z "
       style="fill-rule:evenodd;stroke-width:0.625;stroke-linejoin:round;stroke:#666666;stroke-opacity:1;fill:#666666;fill-opacity:1"
       id="path1501" /></marker><marker
     style="overflow:visible;"
     id="Arrow1Mend"
     refX="0.0"
     refY="0.0"
     orient="auto"
     inkscape:stockid="Arrow1Mend"
     inkscape:isstock="true"><path
       transform="scale(0.4) rotate(180) translate(10,0)"
       style="fill-rule:evenodd;stroke:#000000;stroke-width:1pt;stroke-opacity:1;fill:#000000;fill-opacity:1"
       d="M 0.0,0.0 L 5.0,-5.0 L -12.5,0.0 L 5.0,5.0 L 0.0,0.0 z "
       id="path1477" /></marker><marker
     style="overflow:visible;"
     id="Arrow1Lend"
     refX="0.0"
     refY="0.0"
     orient="auto"
     inkscape:stockid="Arrow1Lend"
     inkscape:isstock="true"><path
       transform="scale(0.8) rotate(180) translate(12.5,0)"
       style="fill-rule:evenodd;stroke:#000000;stroke-width:1pt;stroke-opacity:1;fill:#000000;fill-opacity:1"
       d="M 0.0,0.0 L 5.0,-5.0 L -12.5,0.0 L 5.0,5.0 L 0.0,0.0 z "
       id="path1471" /></marker><inkscape:path-effect
     effect="spiro"
     id="path-effect1466"
     is_visible="true"
     lpeversion="1" /><inkscape:path-effect
     effect="spiro"
     id="path-effect866"
     is_visible="true"
     lpeversion="1" /><inkscape:path-effect
     effect="spiro"
     id="path-effect862"
     is_visible="true"
     lpeversion="1" /><marker
     style="overflow:visible"
     id="Arrow2Send-9"
     refX="0"
     refY="0"
     orient="auto"
     inkscape:stockid="Arrow2Send"
     inkscape:isstock="true"><path
       transform="matrix(-0.3,0,0,-0.3,0.69,0)"
       d="M 8.7185878,4.0337352 -2.2072895,0.01601326 8.7185884,-4.0017078 c -1.7454984,2.3720609 -1.7354408,5.6174519 -6e-7,8.035443 z"
       style="fill:#666666;fill-opacity:1;fill-rule:evenodd;stroke:#666666;stroke-width:0.625;stroke-linejoin:round;stroke-opacity:1"
       id="path1501-8" /></marker><marker
     style="overflow:visible"
     id="Arrow2Send-9-0"
     refX="0"
     refY="0"
     orient="auto"
     inkscape:stockid="Arrow2Send"
     inkscape:isstock="true"><path
       transform="matrix(-0.3,0,0,-0.3,0.69,0)"
       d="M 8.7185878,4.0337352 -2.2072895,0.01601326 8.7185884,-4.0017078 c -1.7454984,2.3720609 -1.7354408,5.6174519 -6e-7,8.035443 z"
       style="fill:#666666;fill-opacity:1;fill-rule:evenodd;stroke:#666666;stroke-width:0.625;stroke-linejoin:round;stroke-opacity:1"
       id="path1501-8-6" /></marker></defs><sodipodi:namedview
   pagecolor="#ffffff"
   bordercolor="#666666"
   borderopacity="1"
   objecttolerance="10"
   gridtolerance="10"
   guidetolerance="10"
   inkscape:pageopacity="0"
   inkscape:pageshadow="2"
   inkscape:window-width="1920"
   inkscape:window-height="1137"
   id="namedview840"
   showgrid="false"
   inkscape:object-paths="false"
   inkscape:zoom="0.9150375"
   inkscape:cx="112.56369"
   inkscape:cy="332.22682"
   inkscape:window-x="-8"
   inkscape:window-y="-8"
   inkscape:window-maximized="1"
   inkscape:current-layer="Layer_1"
   inkscape:showpageshadow="2"
   inkscape:pagecheckerboard="0"
   inkscape:deskcolor="#d1d1d1" />
<style
   type="text/css"
   id="style833">
	.st0{fill:#2B9245;}
</style>

<path
   style="fill:#d9d9d9;stroke:#d9d9d9;stroke-width:30.23622047;stroke-linecap:round;stroke-linejoin:miter;stroke-miterlimit:4;stroke-dasharray:none;stroke-opacity:1;fill-opacity:1"
   d="M 424.25809,230.88991 221.41918,465.59126"
   id="path1464" /><path
   style="fill:#d9d9d9;stroke:#d9d9d9;stroke-width:29.0444;stroke-linecap:round;stroke-linejoin:miter;stroke-miterlimit:4;stroke-dasharray:none;stroke-opacity:1;fill-opacity:1"
   d="M 460.79495,307.97691 311.48821,550.77958"
   id="path1464-1-5"
   sodipodi:nodetypes="cc" /><path
   style="fill:#d9d9d9;stroke:#d9d9d9;stroke-width:29.7448;stroke-linecap:butt;stroke-linejoin:round;stroke-miterlimit:4;stroke-dasharray:none;stroke-opacity:1;fill-opacity:1"
   d="M 379.96743,185.26079 142.37462,367.09973"
   id="path1464-1-5-3"
   sodipodi:nodetypes="cc" /><path
   sodipodi:type="star"
   style="opacity:0.997;fill:#d9d9d9;fill-opacity:1;fill-rule:evenodd;stroke:#d9d9d9;stroke-width:20.7874;stroke-linecap:round;stroke-linejoin:round;stroke-miterlimit:4;stroke-dasharray:none;stroke-dashoffset:0;stroke-opacity:1"
   id="path2196"
   sodipodi:sides="3"
   sodipodi:cx="180.82646"
   sodipodi:cy="364.74393"
   sodipodi:r1="68.390587"
   sodipodi:r2="34.195293"
   sodipodi:arg1="0.52359878"
   sodipodi:arg2="1.5707963"
   inkscape:flatsided="true"
   inkscape:rounded="0"
   inkscape:randomized="0"
   d="m 240.05445,398.93922 -118.45597,0 59.22798,-102.58588 z"
   inkscape:transform-center-y="-11.060461"
   transform="matrix(0.79523039,-0.09759987,0.10002265,0.81594763,-9.5999704,63.314541)"
   inkscape:transform-center-x="-3.420303" /><path
   sodipodi:type="star"
   style="opacity:0.997;fill:#d9d9d9;fill-opacity:1;fill-rule:evenodd;stroke:#d9d9d9;stroke-width:20.7874;stroke-linecap:round;stroke-linejoin:round;stroke-miterlimit:4;stroke-dasharray:none;stroke-dashoffset:0;stroke-opacity:1"
   id="path2196-5"
   sodipodi:sides="3"
   sodipodi:cx="180.82646"
   sodipodi:cy="364.74393"
   sodipodi:r1="68.390587"
   sodipodi:r2="34.195293"
   sodipodi:arg1="0.52359878"
   sodipodi:arg2="1.5707963"
   inkscape:flatsided="true"
   inkscape:rounded="0"
   inkscape:randomized="0"
   inkscape:transform-center-y="-2.2340116"
   transform="matrix(0.72012967,-0.35118416,0.36021984,0.73892945,73.942922,309.03365)"
   inkscape:transform-center-x="-12.317812"
   d="m 240.05445,398.93922 -118.45597,0 59.22798,-102.58588 z" /><path
   sodipodi:type="star"
   style="opacity:0.997;fill:#d9d9d9;fill-opacity:1;fill-rule:evenodd;stroke:#d9d9d9;stroke-width:20.7874;stroke-linecap:round;stroke-linejoin:round;stroke-miterlimit:4;stroke-dasharray:none;stroke-dashoffset:0;stroke-opacity:1"
   id="path2196-5-6"
   sodipodi:sides="3"
   sodipodi:cx="180.82646"
   sodipodi:cy="364.74393"
   sodipodi:r1="68.390587"
   sodipodi:r2="34.195293"
   sodipodi:arg1="0.52359878"
   sodipodi:arg2="1.5707963"
   inkscape:flatsided="true"
   inkscape:rounded="0"
   inkscape:randomized="0"
   inkscape:transform-center-y="-5.094715"
   transform="matrix(0.75289347,-0.2739863,0.28100736,0.77253475,3.6781386,211.5125)"
   inkscape:transform-center-x="-9.6091205"
   d="m 240.05445,398.93922 -118.45597,0 59.22798,-102.58588 z" /><path
   style="fill:none;stroke:#ff0000;stroke-width:22.67716535;stroke-linecap:butt;stroke-linejoin:miter;stroke-opacity:1;stroke-miterlimit:4;stroke-dasharray:45.35433071,45.35433071;stroke-dashoffset:0"
   d="m 59.356694,173.53524 c -0.05396,86.29119 24.3855,172.46423 69.733536,245.879 52.8762,85.60225 135.5398,154.00855 232.0819,182.35042 59.91412,17.58899 124.32027,19.63432 185.22968,5.88228"
   id="path864"
   inkscape:path-effect="#path-effect866"
   inkscape:original-d="m 59.356694,173.53524 c 23.245458,81.96069 46.489966,163.92035 69.733536,245.879 23.24355,81.95862 154.72222,121.56797 232.0819,182.35042 77.35969,60.78246 123.4874,3.92254 185.22968,5.88228" /><path
   style="opacity:0.99699998;fill:#aeaeae;stroke:#d30000;stroke-width:22.67716535;stroke-linecap:butt;stroke-linejoin:miter;stroke-opacity:1;fill-opacity:1;stroke-miterlimit:4;stroke-dasharray:none"
   d="m 268.85665,51.894053 c -45.25721,-7.705628 -93.50238,-7.592466 -135.0672,11.900039 -20.78241,9.746252 -39.490488,24.319573 -52.795143,43.024758 -13.304656,18.70519 -21.002146,41.62193 -20.174496,64.56126 0.664031,18.40442 6.852258,36.63182 17.858105,51.39782 11.005847,14.766 26.826694,25.95954 44.528864,31.03858 19.57784,5.6172 40.73282,3.72482 60.22324,-2.18861 19.49042,-5.91342 37.57131,-15.67475 55.19051,-25.89281 17.6192,-10.21806 34.9949,-20.99115 53.64621,-29.17488 18.65131,-8.18372 38.83253,-13.7478 59.18265,-12.90075 23.06653,0.96012 45.47405,10.29585 63.34886,24.90673 17.87481,14.61087 31.3014,34.31051 39.75759,55.79258 16.91238,42.96414 13.93284,91.47096 2.66052,136.24685 -7.22514,28.69969 -17.73544,56.66068 -22.02944,85.94269 -2.147,14.64101 -2.70972,29.59818 -0.47646,44.22628 2.23326,14.6281 7.33582,28.94198 15.84923,41.04531 8.33371,11.84785 19.84256,21.38806 32.88449,27.69125 13.04194,6.30319 27.58212,9.38852 42.06688,9.27057 28.96953,-0.23589 57.12936,-13.41857 77.78453,-33.73244 29.88139,-29.38765 43.94955,-72.31513 44.30445,-114.22463 0.3549,-41.9095 -11.89217,-83.03995 -28.50417,-121.51817 C 587.89419,267.03431 540.5663,201.48652 480.22027,150.93785 419.87424,100.38919 346.45968,65.106976 268.85665,51.894053 Z"
   id="path860"
   inkscape:path-effect="#path-effect862"
   inkscape:original-d="M 268.85665,51.894053 C 152.10795,-43.912897 130.16771,131.55426 60.819811,171.38011 c -69.3478941,39.8259 43.323999,45.29138 62.386969,82.4364 18.70393,36.44539 140.78441,-60.09792 228.24261,-70.15705 70.83556,-8.14725 78.55768,176.04382 105.76697,216.94616 27.20929,40.90233 -16.31009,108.78296 -6.65667,171.21428 9.65344,62.43137 101.82624,2.15574 152.7359,3.22938 50.90968,1.07364 10.53582,-157.15904 15.80028,-235.7428 C 624.36033,260.72275 385.60536,147.701 268.85665,51.894053 Z"
   sodipodi:nodetypes="scsssssss" /></svg>
