<?xml version="1.0" encoding="UTF-8" standalone="no"?>
<!-- Generator: Adobe Illustrator 21.0.2, SVG Export Plug-In . SVG Version: 6.00 Build 0)  -->

<svg
   version="1.1"
   id="Layer_1"
   x="0px"
   y="0px"
   viewBox="0 0 680.3 680.3"
   style="enable-background:new 0 0 680.3 680.3;"
   xml:space="preserve"
   sodipodi:docname="interp_dark.svg"
   inkscape:version="1.2.2 (732a01da63, 2022-12-09)"
   xmlns:inkscape="http://www.inkscape.org/namespaces/inkscape"
   xmlns:sodipodi="http://sodipodi.sourceforge.net/DTD/sodipodi-0.dtd"
   xmlns="http://www.w3.org/2000/svg"
   xmlns:svg="http://www.w3.org/2000/svg"><defs
   id="defs35" /><sodipodi:namedview
   id="namedview33"
   pagecolor="#ffffff"
   bordercolor="#000000"
   borderopacity="0.25"
   inkscape:showpageshadow="2"
   inkscape:pageopacity="0.0"
   inkscape:pagecheckerboard="0"
   inkscape:deskcolor="#d1d1d1"
   showgrid="false"
   inkscape:zoom="0.98119773"
   inkscape:cx="261.92478"
   inkscape:cy="352.63025"
   inkscape:window-width="1920"
   inkscape:window-height="1137"
   inkscape:window-x="-8"
   inkscape:window-y="-8"
   inkscape:window-maximized="1"
   inkscape:current-layer="Layer_1" />
<style
   type="text/css"
   id="style2">
	.st0{fill:#4D4D4E;stroke:#000000;stroke-linecap:round;stroke-miterlimit:10;}
	.st1{fill:none;stroke:#ED2024;stroke-width:25;stroke-linecap:round;stroke-miterlimit:10;}
	.st2{fill:none;stroke:#ED2024;stroke-width:25;stroke-linecap:round;stroke-miterlimit:10;stroke-dasharray:24.5369,58.8886;}
	.st3{fill:none;stroke:#ED2024;stroke-width:25;stroke-linecap:round;stroke-miterlimit:10;stroke-dasharray:25,60;}
	.st4{opacity:0.5;fill:#4D4D4E;stroke:#000000;stroke-linecap:round;stroke-miterlimit:10;}
	.st5{fill:#4D4D4E;}
</style>
<circle
   class="st0"
   cx="108.2"
   cy="571.4"
   r="56.7"
   id="circle4"
   style="fill:#d9d9d9;fill-opacity:1" />
<circle
   class="st0"
   cx="582.2"
   cy="100.9"
   r="56.7"
   id="circle6"
   style="fill:#d9d9d9;fill-opacity:1" />
<g
   id="g16">
	<g
   id="g14">
		<line
   class="st1"
   x1="108.2"
   y1="571.4"
   x2="117"
   y2="562.6"
   id="line8" />
		<line
   class="st2"
   x1="158.8"
   y1="521.1"
   x2="552.4"
   y2="130.4"
   id="line10" />
		<line
   class="st1"
   x1="573.3"
   y1="109.7"
   x2="582.2"
   y2="100.9"
   id="line12" />
	</g>
</g>
<line
   class="st3"
   x1="345.2"
   y1="336.1"
   x2="345.2"
   y2="571.4"
   id="line18" />
<line
   class="st3"
   x1="108.2"
   y1="571.4"
   x2="345.2"
   y2="571.4"
   id="line20" />
<circle
   class="st4"
   cx="345.2"
   cy="336.1"
   r="56.7"
   id="circle22"
   style="fill:#f2f2f2;fill-opacity:1" />
<line
   class="st3"
   x1="582.2"
   y1="100.9"
   x2="582.2"
   y2="571.4"
   id="line24" />
<line
   class="st3"
   x1="345.2"
   y1="571.4"
   x2="582.2"
   y2="571.4"
   id="line26" />
<g
   id="g30"
   style="fill:#f0f0f0;fill-opacity:1">
	<path
   class="st5"
   d="M258.8,262.1c0,4.4-0.3,8.2-0.9,11.3c-0.6,3.1-1.4,5.6-2.4,7.4c-1,1.8-2.3,3.1-3.9,3.8c-1.6,0.7-3.4,1-5.4,1   H71.1c-5.4,0-9.6-1.4-12.5-4.1c-2.9-2.7-4.4-7.2-4.4-13.5v-10.5c0-2.7,0.2-5.2,0.5-7.4c0.3-2.2,0.9-4.3,1.8-6.4   c0.9-2.1,2.1-4.1,3.6-6.3c1.5-2.1,3.5-4.5,5.9-7.1l100.3-117.8H71.4c-3.8,0-6.9-1.8-9.2-5.5c-2.3-3.7-3.5-9.5-3.5-17.6   c0-4.4,0.2-8.1,0.8-11.1c0.5-3,1.2-5.3,2.3-7.1c1-1.7,2.3-3,3.9-3.8c1.6-0.8,3.5-1.1,5.7-1.1H235c2.8,0,5.2,0.2,7.2,0.7   c2,0.5,3.7,1.3,5,2.5c1.3,1.2,2.3,2.9,3,5c0.7,2.1,1.1,4.8,1.1,8v11.2c0,3-0.2,5.7-0.6,8.1c-0.4,2.4-1,4.6-1.8,6.7   c-0.8,2.1-2,4.3-3.5,6.4c-1.5,2.1-3.3,4.4-5.3,6.9l-99.7,117.6h105.7c1.8,0,3.5,0.3,5.1,0.9c1.6,0.6,3,1.8,4.1,3.4   c1.1,1.7,2,4,2.6,7C258.5,253.8,258.8,257.5,258.8,262.1z"
   id="path28"
   style="fill:#f0f0f0;fill-opacity:1" />
</g>
</svg>
