<?xml version="1.0" encoding="UTF-8" standalone="no"?>
<svg
   fill="none"
   stroke-width="1.5"
   viewBox="0 0 24 24"
   version="1.1"
   id="svg828"
   sodipodi:docname="keep_objects.svg"
   inkscape:version="1.1.1 (3bf5ae0d25, 2021-09-20)"
   xmlns:inkscape="http://www.inkscape.org/namespaces/inkscape"
   xmlns:sodipodi="http://sodipodi.sourceforge.net/DTD/sodipodi-0.dtd"
   xmlns="http://www.w3.org/2000/svg"
   xmlns:svg="http://www.w3.org/2000/svg">
  <defs
     id="defs832">
    <inkscape:path-effect
       effect="spiro"
       id="path-effect1318"
       is_visible="true"
       lpeversion="1" />
  </defs>
  <sodipodi:namedview
     id="namedview830"
     pagecolor="#ffffff"
     bordercolor="#666666"
     borderopacity="1.0"
     inkscape:pageshadow="2"
     inkscape:pageopacity="0.0"
     inkscape:pagecheckerboard="0"
     showgrid="false"
     inkscape:zoom="18.280875"
     inkscape:cx="15.672116"
     inkscape:cy="14.085759"
     inkscape:window-width="1920"
     inkscape:window-height="1017"
     inkscape:window-x="1912"
     inkscape:window-y="-8"
     inkscape:window-maximized="1"
     inkscape:current-layer="svg828" />
  <path
     style="fill:#d43d3d;fill-opacity:0.403226;stroke:#d43d3d;stroke-width:2.23633;stroke-linecap:butt;stroke-linejoin:miter;stroke-miterlimit:4;stroke-dasharray:none;stroke-opacity:1"
     d="M 5.2374706,1.6520706 C 4.5232463,1.7740836 3.8335213,2.0510038 3.245494,2.4743562 2.6574666,2.8977086 2.1732146,3.468498 1.8705293,4.1268179 1.5634457,4.794704 1.4465363,5.5483932 1.5342051,6.2782469 c 0.087669,0.7298536 0.3793387,1.4337709 0.8314622,2.0133885 0.6079966,0.7794451 1.4724842,1.3097724 2.3193971,1.8196086 0.8469128,0.509837 1.7145721,1.032305 2.3349022,1.801971 0.5925439,0.73519 0.917388,1.643969 1.2468664,2.528875 0.3294785,0.884905 0.6875655,1.78697 1.3278536,2.480976 0.7779124,0.843176 1.9315884,1.300874 3.0787324,1.313311 1.147144,0.01244 2.279542,-0.400135 3.209523,-1.071871 1.221851,-0.882557 2.107165,-2.215828 2.460864,-3.680998 0.353699,-1.46517 0.175896,-3.050282 -0.480313,-4.4071963 C 17.301981,7.9152127 16.412865,6.9374318 15.417343,6.1174425 14.421821,5.2974532 13.316271,4.623428 12.218918,3.9457385 11.152219,3.2869799 10.082214,2.6183474 8.9172166,2.1551082 7.7522192,1.6918689 6.4732856,1.4409527 5.2374706,1.6520706 Z"
     id="path1190-6"
     inkscape:original-d="M 5.2374706,1.6520706 C 2.9100293,0.88716101 2.9931353,3.3022576 1.8705293,4.1268179 c -1.12260405,0.8245603 0.330384,2.7769005 0.495138,4.1648175 0.164756,1.3879168 3.1031593,2.4147426 4.6542993,3.6215796 1.551141,1.206837 1.716771,3.340257 2.57472,5.009851 0.8579474,1.669596 4.1924614,0.161316 6.2882554,0.24144 2.095794,0.08012 1.320659,-5.391775 1.980551,-8.0881943 C 18.523389,6.3798893 14.100735,5.656285 12.218918,3.9457385 10.337103,2.2351921 7.5649116,2.4169825 5.2374706,1.6520706 Z"
     inkscape:path-effect="#path-effect1318" />
  <path
     style="fill:#e0e0e0;fill-opacity:1;stroke:#f0f0f0;stroke-width:0.031942;stroke-linejoin:round;stroke-miterlimit:4;stroke-dasharray:none;stroke-opacity:1;paint-order:stroke fill markers"
     d="M 7.0680468,6.4330496 C 6.4245432,6.4062847 5.8666958,7.0151475 5.9475837,7.6545795 5.8667682,10.660731 5.9591454,13.709515 5.8380273,16.690157 5.1040407,16.189356 4.5847267,15.394403 3.7788949,15.002475 c -0.874623,-0.262633 -1.7990339,0.717927 -1.4370134,1.57077 0.6789141,0.967871 1.5597478,1.781698 2.3439521,2.664656 1.0264579,1.067951 2.0046649,2.191603 3.0846818,3.20318 0.6262532,0.373954 1.3961058,0.186474 2.0874505,0.252608 1.0973571,-0.02046 2.2097691,0.06624 3.2971391,-0.101007 1.442093,-0.343898 2.552688,-1.777821 2.440065,-3.271679 0.02486,-2.377585 0.06566,-4.7584 -0.01884,-7.134659 -0.01431,-0.787256 -0.960358,-1.341768 -1.646508,-0.933179 -0.634422,0.334756 -0.598735,1.113937 -0.674026,1.720374 -0.171883,-0.09879 -0.0794,-0.436537 -0.121154,-0.617128 -0.03773,-0.674586 0.142665,-1.590361 -0.542265,-2.011345 -0.636577,-0.4027639 -1.604672,0.0018 -1.692174,0.772097 -0.110993,0.608017 -0.0334,1.267252 -0.150103,1.853506 -0.122527,-0.908177 0.04035,-1.848788 -0.174433,-2.741393 C 10.273865,9.4082072 8.9785792,9.2862144 8.5705651,10.074433 8.2261639,10.994275 8.4944444,12.017421 8.3342441,12.956446 8.1555135,13.003195 8.2819827,12.619508 8.2294293,12.529845 8.1696585,10.799377 8.2812936,9.0456489 8.1529465,7.3117039 8.1205152,6.7747362 7.574636,6.412184 7.0680433,6.4330508 Z"
     id="path4091" />
  <path
     d="M 5.8398223,16.662477 4.3427801,15.236878 a 1.2794251,1.2794251 0 0 0 -1.8452295,0.08459 v 0 a 1.2794251,1.2794251 0 0 0 0.028741,1.717945 l 4.8795536,5.204747 c 0.3112329,0.330943 0.7440044,0.518996 1.1981266,0.518996 h 3.8054272 c 1.970873,0 3.284787,-1.642394 3.284787,-3.284789 0,0 0,0 0,0 v -7.038484"
     stroke="#f0f0f0"
     stroke-linecap="round"
     stroke-linejoin="round"
     class="stroke-000000"
     id="path824"
     style="stroke-width:0.583927;stroke-miterlimit:4;stroke-dasharray:none" />
  <path
     d="m 13.230597,12.908784 v -0.468903 c 0,-1.877257 2.463591,-1.877257 2.463591,0 m -4.927182,0.468903 v -1.407532 c 0,-1.8772561 2.463591,-1.8772561 2.463591,0 v 1.407532 m -4.9271831,0 v -2.052993 c 0,-1.877256 2.4635921,-1.877256 2.4635921,0 0,0 0,0 0,0 v 2.052993 M 5.8398223,16.662477 V 7.5710031 A 1.2317957,1.2317957 0 0 1 7.0716181,6.3392074 v 0 c 0.6799512,0 1.2317958,0.5502021 1.2317958,1.2309746 v 5.338602"
     stroke="#f0f0f0"
     stroke-linecap="round"
     stroke-linejoin="round"
     class="stroke-000000"
     id="path826"
     style="stroke-width:0.583927;stroke-miterlimit:4;stroke-dasharray:none" />
  <path
     class="st0"
     d="M 14.901101,9.8015351 10.820929,5.721363 c -0.171797,-0.1717967 -0.171797,-0.4724409 0,-0.6871869 l 0.644238,-0.6442376 c 0.171797,-0.1717967 0.472441,-0.1717967 0.687187,0 l 3.092341,3.0923403 6.871868,-6.87186793 c 0.171797,-0.1717967 0.472442,-0.1717967 0.687187,0 l 0.644238,0.64423773 c 0.171797,0.1717967 0.171797,0.472441 0,0.6871868 l -7.8597,7.8596997 c -0.214746,0.171797 -0.51539,0.171797 -0.687187,0 z"
     id="check_x5F_mark_1_"
     style="fill:#24c31d;fill-opacity:1;stroke-width:0.644238" />
</svg>
