<svg fill="none" viewBox="0 0 151 135" xmlns="http://www.w3.org/2000/svg"><path d="M123.499 13.515c3.911 0 7.82-.024 11.73.013 1.34-.064 2.682.044 3.993.321a4.13 4.13 0 0 1 2.596 1.999 4.141 4.141 0 0 1 .332 3.258c-2.104 8.013-4.267 16.015-6.245 24.057-1.898 7.725-3.525 15.516-5.447 23.234a8.742 8.742 0 0 1-2.407 3.907 57.49 57.49 0 0 1-6.498 5.34 26244.788 26244.788 0 0 1-58.13 41.426c-5.576 3.975-11.073 8.059-16.689 11.976a63.158 63.158 0 0 1-7.229 4.287c-3.552 1.827-5.732 1.291-8.165-1.907-1.698-2.232-3.331-4.524-4.832-6.892a9873.021 9873.021 0 0 1-23.886-37.86 8.824 8.824 0 0 1-.497-.878c-3.21-6.695-1.914-8.723 1.86-11.848C16.35 63.71 28.614 53.34 41.224 43.411c11.73-9.235 23.882-17.93 35.783-26.95 3.265-2.474 6.687-3.823 10.872-3.676 6.846.236 13.704.062 20.555.19 1.943.037 3.309-.377 4.563-2.043 4.744-6.306 11.327-9.487 19.066-9.946 3.988-.236 8.035.315 12.038.697a8.332 8.332 0 0 1 3.393 1.365 4.294 4.294 0 0 1 2.086 5.058 4.303 4.303 0 0 1-4.569 3.009 18.178 18.178 0 0 1-3.913-.865c-6.235-1.762-12.132-1.214-17.639 2.21l.039 1.055ZM7.502 81.81c9.827 14.871 20.137 28.696 30.485 42.743 1.433-.955 2.56-1.657 3.638-2.428 17.108-12.333 34.28-24.58 51.286-37.052 9.315-6.831 18.376-14.008 27.472-21.134a7.09 7.09 0 0 0 2.251-3.538c3.22-12.006 6.311-24.047 9.43-36.08.188-.728.297-1.476.539-2.706l-16.39-.608-.992 4.429c1.099.767 1.969 1.28 2.733 1.924 3.171 2.678 4.162 6.568 2.495 10.314a12.442 12.442 0 0 1-8.406 7.194c-6.401 1.716-11.724-2.61-11.678-9.211.027-3.68 1.528-6.619 4.509-8.553 2.42-1.57 3.008-3.596 2.724-6.18a1.984 1.984 0 0 0-.621-.256c-6.508-.193-13.015-.424-19.524-.498a5.465 5.465 0 0 0-3.04 1.106c-20.42 15.038-41.022 29.84-60.44 46.185-5.489 4.613-10.818 9.412-16.471 14.35Zm99.413-49.984a28.97 28.97 0 0 0-.303 3.53c.066 1.64.883 2.72 2.682 2.721 1.516 0 3.917-1.73 4.004-3.02.117-1.7-1.289-2.214-2.525-2.61a26.468 26.468 0 0 0-3.858-.62Z" fill="#4d4d4d" class="fill-000000"></path></svg>