<?xml version="1.0" encoding="UTF-8" standalone="no"?>
<svg
   enable-background="new 0 0 100 100"
   height="100px"
   id="Layer_1"
   version="1.1"
   viewBox="0 0 100 100"
   width="100px"
   xml:space="preserve"
   sodipodi:docname="load_annotation.svg"
   inkscape:version="1.2.2 (732a01da63, 2022-12-09)"
   xmlns:inkscape="http://www.inkscape.org/namespaces/inkscape"
   xmlns:sodipodi="http://sodipodi.sourceforge.net/DTD/sodipodi-0.dtd"
   xmlns="http://www.w3.org/2000/svg"
   xmlns:svg="http://www.w3.org/2000/svg"><defs
     id="defs33"><inkscape:path-effect
       effect="bspline"
       id="path-effect2803"
       is_visible="true"
       lpeversion="1"
       weight="33.333333"
       steps="2"
       helper_size="0"
       apply_no_weight="true"
       apply_with_weight="true"
       only_selected="false" /><inkscape:path-effect
       effect="bspline"
       id="path-effect2799"
       is_visible="true"
       lpeversion="1"
       weight="33.333333"
       steps="2"
       helper_size="0"
       apply_no_weight="true"
       apply_with_weight="true"
       only_selected="false" /></defs><sodipodi:namedview
     id="namedview31"
     pagecolor="#ffffff"
     bordercolor="#666666"
     borderopacity="1.0"
     inkscape:pageshadow="2"
     inkscape:pageopacity="0.0"
     inkscape:pagecheckerboard="0"
     showgrid="false"
     inkscape:zoom="3.0334881"
     inkscape:cx="-2.9668816"
     inkscape:cy="7.2523772"
     inkscape:window-width="1920"
     inkscape:window-height="1017"
     inkscape:window-x="-8"
     inkscape:window-y="-8"
     inkscape:window-maximized="1"
     inkscape:current-layer="Layer_1"
     inkscape:showpageshadow="2"
     inkscape:deskcolor="#d1d1d1" /><g
     id="g10"><g
       id="g8"><g
         id="g4"><g
           id="g2" /></g><g
         id="g6" /></g></g><path
     id="path2805"
     style="color:#4d4d4d;fill:currentColor;fill-opacity:1;stroke:none;stroke-width:2.65165"
     class="ColorScheme-Text"
     d="M 8.7225712,26.212782 V 95.155041 L 19.328123,47.425942 h 58.336704 v -10.60556 h -34.47215 l -10.60556,-10.6076 z" /><g
     id="g2006"
     transform="translate(63.039664,57.810712)"><rect
       style="opacity:1;fill:#fffffe;fill-opacity:1;stroke:none;stroke-width:6.35485;stroke-linecap:round;stroke-linejoin:round;stroke-dasharray:none;stroke-opacity:1"
       id="rect1888"
       width="50.452248"
       height="62.907982"
       x="-32.708191"
       y="-52.072987"
       rx="17.270811" /><g
       id="g1834"
       transform="translate(43.674094,-44.522145)"><rect
         fill="#231f20"
         height="1.6817416"
         width="23.544382"
         x="-59.564869"
         y="12.63871"
         id="rect12"
         style="fill:#4d4d4d;fill-opacity:1;stroke-width:0.840871" /><circle
         cx="-64.440239"
         cy="13.479581"
         fill="#231f20"
         r="1.6817416"
         id="circle14"
         style="fill:#4d4d4d;fill-opacity:1;stroke-width:0.840871" /><rect
         fill="#231f20"
         height="1.6817416"
         width="23.544382"
         x="-59.564869"
         y="21.047419"
         id="rect16"
         style="fill:#4d4d4d;fill-opacity:1;stroke-width:0.840871" /><circle
         cx="-64.440239"
         cy="21.888288"
         fill="#231f20"
         r="1.6817416"
         id="circle18"
         style="fill:#4d4d4d;fill-opacity:1;stroke-width:0.840871" /><circle
         cx="-64.440239"
         cy="30.296997"
         fill="#231f20"
         r="1.6817416"
         id="circle20"
         style="fill:#4d4d4d;fill-opacity:1;stroke-width:0.840871" /><rect
         fill="#231f20"
         height="1.6817416"
         width="13.453933"
         x="-59.564869"
         y="37.864834"
         id="rect22"
         style="fill:#4d4d4d;fill-opacity:1;stroke-width:0.840871" /><circle
         cx="-64.440239"
         cy="38.705704"
         fill="#231f20"
         r="1.6817416"
         id="circle24"
         style="fill:#4d4d4d;fill-opacity:1;stroke-width:0.840871" /><path
         d="m -10.965902,8.5260112 -2.377983,-2.3779826 -1.486659,1.4866596 -0.594496,-0.5944957 -2.316599,2.2291484 -8.188399,8.1034721 V 3.3891316 c 0,-5.5640418 -4.35487,-10.0904492 -9.918912,-10.0904492 h -1.012408 v -0.8408708 c 0,-0.9249578 -0.585246,-1.6817415 -1.510204,-1.6817415 h -9.249579 c 0,-1.8574831 -1.505999,-3.3634831 -3.363483,-3.3634831 -1.857483,0 -3.363483,1.506 -3.363483,3.3634831 h -9.249578 c -0.924958,0 -1.85328,0.7567837 -1.85328,1.6817415 v 0.8408708 h -0.669333 c -5.564042,0 -10.261987,4.5264074 -10.261987,10.0904492 V 45.43267 c 0,5.564042 4.697945,10.090449 10.261987,10.090449 h 30.271348 c 5.564042,0 9.918912,-4.526407 9.918912,-10.090449 V 24.50676 l 11.013725,-11.027179 h 0.04288 l 2.995182,-2.922867 -0.584405,-0.5701103 z M -50.984624,-10.905671 c 0.928321,0 1.681742,0.75342 1.681742,1.6817411 0,0.9283213 -0.753421,1.6817415 -1.681742,1.6817415 -0.928321,0 -1.681741,-0.7534202 -1.681741,-1.6817415 0,-0.9283211 0.75342,-1.6817411 1.681741,-1.6817411 z m 21.691103,56.338341 c 0,3.709081 -2.846348,6.726966 -6.555429,6.726966 h -30.271348 c -3.709081,0 -6.898504,-3.017885 -6.898504,-6.726966 V 3.3891316 c 0,-3.70908093 3.189423,-6.7269661 6.898504,-6.7269661 h 0.840871 l -0.840871,3.36348306 c 0,0.92495785 0.756784,1.68174154 1.681742,1.68174154 h 26.907864 c 0.924958,0 1.681742,-0.75678369 1.681742,-1.68174154 l -0.840871,-3.36348306 h 0.840871 c 3.709081,0 6.555429,3.01788517 6.555429,6.7269661 V 20.736296 l -8.547452,8.71983 h -21.723896 v 1.681741 h 20.042155 l -1.915504,1.915504 -1.48666,3.270146 h -8.4e-4 l -1.48666,3.270987 6.455365,-2.97416 8.663492,-8.750101 z m -9.894527,-8.939297 -2.451979,1.114995 -0.787055,-0.786215 1.114995,-2.45282 1.954183,1.953343 z m 24.505497,-24.251554 -2.377983,-2.3779824 1.508523,-1.5076813 -0.169856,0.1698559 2.377141,2.3771418 0.297669,-0.297668 8.41e-4,8.4e-4 z"
         fill="#231f20"
         id="path26"
         style="fill:#4d4d4d;fill-opacity:1;stroke-width:0.840871" /></g></g><path
     id="path252"
     style="color:#4d4d4d;fill:currentColor;fill-opacity:1;stroke:none;stroke-width:2.65165"
     class="ColorScheme-Text"
     d="M 8.7225712,95.155041 H 77.664827 l 15.91038,-42.42632 H 24.630904 Z" /></svg>
