<?xml version="1.0" encoding="UTF-8" standalone="no"?>
<svg
   width="42mm"
   height="42mm"
   viewBox="0 0 42 42"
   version="1.1"
   id="svg8"
   inkscape:version="1.3 (0e150ed6c4, 2023-07-21)"
   sodipodi:docname="manual_background.svg"
   xmlns:inkscape="http://www.inkscape.org/namespaces/inkscape"
   xmlns:sodipodi="http://sodipodi.sourceforge.net/DTD/sodipodi-0.dtd"
   xmlns="http://www.w3.org/2000/svg"
   xmlns:svg="http://www.w3.org/2000/svg"
   xmlns:rdf="http://www.w3.org/1999/02/22-rdf-syntax-ns#"
   xmlns:cc="http://creativecommons.org/ns#"
   xmlns:dc="http://purl.org/dc/elements/1.1/">
  <defs
     id="defs2">
    <inkscape:path-effect
       effect="spiro"
       id="path-effect4"
       is_visible="true"
       lpeversion="1" />
    <inkscape:path-effect
       effect="spiro"
       id="path-effect3"
       is_visible="true"
       lpeversion="1" />
    <inkscape:path-effect
       effect="spiro"
       id="path-effect2"
       is_visible="true"
       lpeversion="1" />
    <inkscape:path-effect
       effect="spiro"
       id="path-effect1"
       is_visible="true"
       lpeversion="1" />
    <inkscape:path-effect
       effect="spiro"
       id="path-effect1722"
       is_visible="true"
       lpeversion="1" />
    <marker
       style="overflow:visible"
       id="Arrow1Lstart"
       refX="0"
       refY="0"
       orient="auto"
       inkscape:stockid="Arrow1Lstart"
       inkscape:isstock="true">
      <path
         transform="matrix(0.8,0,0,0.8,10,0)"
         style="fill-rule:evenodd;stroke:#000000;stroke-width:1pt"
         d="M 0,0 5,-5 -12.5,0 5,5 Z"
         id="path835" />
    </marker>
    <marker
       style="overflow:visible"
       id="Arrow2Lend"
       refX="0"
       refY="0"
       orient="auto"
       inkscape:stockid="Arrow2Lend"
       inkscape:isstock="true">
      <path
         transform="matrix(-1.1,0,0,-1.1,-1.1,0)"
         d="M 8.7185878,4.0337352 -2.2072895,0.01601326 8.7185884,-4.0017078 c -1.7454984,2.3720609 -1.7354408,5.6174519 -6e-7,8.035443 z"
         style="fill:#000000;fill-opacity:1;fill-rule:evenodd;stroke:#000000;stroke-width:0.625;stroke-linejoin:round;stroke-opacity:1"
         id="path856" />
    </marker>
    <marker
       style="overflow:visible"
       id="Arrow2Lend-9"
       refX="0"
       refY="0"
       orient="auto"
       inkscape:stockid="Arrow2Lend"
       inkscape:isstock="true">
      <path
         transform="matrix(-1.1,0,0,-1.1,-1.1,0)"
         d="M 8.7185878,4.0337352 -2.2072895,0.01601326 8.7185884,-4.0017078 c -1.7454984,2.3720609 -1.7354408,5.6174519 -6e-7,8.035443 z"
         style="fill:#000000;fill-opacity:1;fill-rule:evenodd;stroke:#000000;stroke-width:0.625;stroke-linejoin:round;stroke-opacity:1"
         id="path856-1" />
    </marker>
    <inkscape:path-effect
       effect="spiro"
       id="path-effect1318"
       is_visible="true"
       lpeversion="1" />
    <inkscape:path-effect
       effect="spiro"
       id="path-effect4-0"
       is_visible="true"
       lpeversion="1" />
    <inkscape:path-effect
       effect="spiro"
       id="path-effect4-1"
       is_visible="true"
       lpeversion="1" />
  </defs>
  <sodipodi:namedview
     id="base"
     pagecolor="#ffffff"
     bordercolor="#666666"
     borderopacity="1.0"
     inkscape:pageopacity="0.0"
     inkscape:pageshadow="2"
     inkscape:zoom="3.959798"
     inkscape:cx="37.123106"
     inkscape:cy="61.493036"
     inkscape:document-units="mm"
     inkscape:current-layer="layer1"
     inkscape:document-rotation="0"
     showgrid="false"
     inkscape:window-width="1920"
     inkscape:window-height="1137"
     inkscape:window-x="1912"
     inkscape:window-y="-8"
     inkscape:window-maximized="1"
     inkscape:pagecheckerboard="0"
     inkscape:showpageshadow="2"
     inkscape:deskcolor="#d1d1d1" />
  <metadata
     id="metadata5">
    <rdf:RDF>
      <cc:Work
         rdf:about="">
        <dc:format>image/svg+xml</dc:format>
        <dc:type
           rdf:resource="http://purl.org/dc/dcmitype/StillImage" />
      </cc:Work>
    </rdf:RDF>
  </metadata>
  <g
     inkscape:label="Layer 1"
     inkscape:groupmode="layer"
     id="layer1"
     transform="translate(-37.219475,-123.56999)">
    <path
       style="fill:#ff2d2d;fill-opacity:0.414;stroke:#e60000;stroke-width:1.32292;stroke-dasharray:none;stroke-dashoffset:0;stroke-opacity:1"
       d="m 48.043891,134.66385 c -1.003236,0.0823 -1.973836,0.45254 -2.811561,1.01063 -0.837725,0.55809 -1.545272,1.3 -2.11416,2.13043 -1.508221,2.20162 -2.014053,4.94668 -2.086881,7.61436 -0.05014,1.83676 0.0905,3.69428 0.621973,5.45318 0.531472,1.75891 1.471493,3.42059 2.849308,4.63625 1.195939,1.05519 2.711684,1.75205 4.296345,1.93246 1.584662,0.18041 3.230817,-0.16316 4.590366,-0.99702 1.68779,-1.03519 2.872576,-2.77766 3.468911,-4.66569 0.596335,-1.88802 0.640584,-3.91581 0.396225,-5.88063 -0.281958,-2.26714 -0.947447,-4.4973 -2.061066,-6.49211 -0.737061,-1.32029 -1.682685,-2.54739 -2.90421,-3.43862 -1.221525,-0.89124 -2.738216,-1.42682 -4.24525,-1.30324 z"
       id="path3-2"
       inkscape:path-effect="#path-effect4-1"
       inkscape:original-d="m 48.043891,134.66385 c -2.383153,-1.58062 -3.283814,2.09404 -4.925721,3.14106 -1.641907,1.04701 -1.391254,5.07624 -2.086881,7.61436 -0.695627,2.53813 2.314187,6.72629 3.471281,10.08943 1.157093,3.36314 5.924474,0.62363 8.886711,0.93544 2.962237,0.31181 2.576757,-7.03088 3.865136,-10.54632 1.288379,-3.51544 -1.374044,-4.32807 -2.061066,-6.49211 -0.687023,-2.16404 -4.766307,-3.16124 -7.14946,-4.74186 z"
       transform="matrix(1.0768208,0,0,0.9976592,15.618351,4.4108149)" />
    <path
       style="fill:#ff2d2d;fill-opacity:0.414;stroke:#e60000;stroke-width:1.32292;stroke-dasharray:none;stroke-dashoffset:0;stroke-opacity:1"
       d="m 48.043891,134.66385 c -1.003236,0.0823 -1.973836,0.45254 -2.811561,1.01063 -0.837725,0.55809 -1.545272,1.3 -2.11416,2.13043 -1.508221,2.20162 -2.014053,4.94668 -2.086881,7.61436 -0.05014,1.83676 0.0905,3.69428 0.621973,5.45318 0.531472,1.75891 1.471493,3.42059 2.849308,4.63625 1.195939,1.05519 2.711684,1.75205 4.296345,1.93246 1.584662,0.18041 3.230817,-0.16316 4.590366,-0.99702 1.68779,-1.03519 2.872576,-2.77766 3.468911,-4.66569 0.596335,-1.88802 0.640584,-3.91581 0.396225,-5.88063 -0.281958,-2.26714 -0.947447,-4.4973 -2.061066,-6.49211 -0.737061,-1.32029 -1.682685,-2.54739 -2.90421,-3.43862 -1.221525,-0.89124 -2.738216,-1.42682 -4.24525,-1.30324 z"
       id="path3"
       inkscape:path-effect="#path-effect4"
       inkscape:original-d="m 48.043891,134.66385 c -2.383153,-1.58062 -3.283814,2.09404 -4.925721,3.14106 -1.641907,1.04701 -1.391254,5.07624 -2.086881,7.61436 -0.695627,2.53813 2.314187,6.72629 3.471281,10.08943 1.157093,3.36314 5.924474,0.62363 8.886711,0.93544 2.962237,0.31181 2.576757,-7.03088 3.865136,-10.54632 1.288379,-3.51544 -1.374044,-4.32807 -2.061066,-6.49211 -0.687023,-2.16404 -4.766307,-3.16124 -7.14946,-4.74186 z"
       transform="matrix(1.0768208,0,0,0.9976592,-4.5352037,3.677061)" />
    <g
       id="g1505"
       transform="matrix(1.8832575,0,0,1.8832575,-47.042466,-125.37966)"
       style="stroke:#4d4d4d;stroke-width:0.414827;stroke-dasharray:none;stroke-opacity:1">
      <path
         style="fill:#e0e0e0;fill-opacity:1;stroke:#4d4d4d;stroke-width:0.414827;stroke-linejoin:round;stroke-miterlimit:4;stroke-dasharray:none;stroke-opacity:1;paint-order:stroke fill markers"
         d="m 50.923343,141.98171 c -0.458068,-0.019 -0.855162,0.41436 -0.797583,0.86952 -0.05753,2.13988 0.0082,4.31011 -0.07799,6.43183 -0.522476,-0.35649 -0.892141,-0.92236 -1.465759,-1.20135 -0.622586,-0.18695 -1.280612,0.51104 -1.022914,1.11813 0.483274,0.68896 1.11028,1.26827 1.668503,1.89679 0.730667,0.7602 1.426987,1.56005 2.195779,2.28013 0.445788,0.26619 0.993795,0.13274 1.485917,0.17981 0.781135,-0.0146 1.572987,0.0472 2.347013,-0.0719 1.02653,-0.2448 1.817088,-1.26551 1.736919,-2.32889 0.0177,-1.69244 0.04674,-3.38719 -0.01341,-5.07869 -0.01019,-0.56039 -0.683614,-0.95511 -1.172039,-0.66426 -0.451602,0.23829 -0.426199,0.79293 -0.479794,1.22462 -0.122352,-0.0703 -0.05652,-0.31075 -0.08624,-0.4393 -0.02686,-0.48019 0.101553,-1.13207 -0.386002,-1.43174 -0.453137,-0.2867 -1.142259,0.001 -1.204546,0.54961 -0.07901,0.4328 -0.02378,0.90207 -0.106848,1.31938 -0.08722,-0.64647 0.02872,-1.31603 -0.124168,-1.95141 -0.214832,-0.58447 -1.13686,-0.6713 -1.427298,-0.11022 -0.245156,0.65477 -0.05419,1.38308 -0.168221,2.05151 -0.127226,0.0333 -0.0372,-0.23984 -0.07461,-0.30367 -0.04255,-1.2318 0.03692,-2.48017 -0.05444,-3.71445 -0.02309,-0.38223 -0.41166,-0.6403 -0.772269,-0.62545 z"
         id="path4091" />
      <path
         d="m 50.049052,149.26335 -1.065645,-1.01478 a 0.91073731,0.91073731 0 0 0 -1.313495,0.0602 v 0 a 0.91073731,0.91073731 0 0 0 0.02046,1.22289 l 3.473429,3.70491 c 0.221546,0.23558 0.529607,0.36944 0.852866,0.36944 h 2.70883 c 1.402933,0 2.33822,-1.16911 2.33822,-2.33822 0,0 0,0 0,0 v -5.01023"
         stroke="#4d4d4d"
         stroke-linecap="round"
         stroke-linejoin="round"
         class="stroke-000000"
         id="path824"
         style="fill:none;stroke:#4d4d4d;stroke-width:0.414827;stroke-miterlimit:4;stroke-dasharray:none;stroke-opacity:1" />
      <path
         d="m 55.310051,146.59135 v -0.33378 c 0,-1.33629 1.753666,-1.33629 1.753666,0 m -3.507332,0.33378 v -1.00193 c 0,-1.33629 1.753666,-1.33629 1.753666,0 v 1.00193 m -3.507333,0 v -1.46139 c 0,-1.33629 1.753667,-1.33629 1.753667,0 0,0 0,0 0,0 v 1.46139 m -3.507333,2.672 v -6.47161 a 0.87683312,0.87683312 0 0 1 0.876833,-0.87683 v 0 c 0.484012,0 0.876833,0.39165 0.876833,0.87625 v 3.80019"
         stroke="#4d4d4d"
         stroke-linecap="round"
         stroke-linejoin="round"
         class="stroke-000000"
         id="path826"
         style="fill:none;stroke:#4d4d4d;stroke-width:0.414827;stroke-miterlimit:4;stroke-dasharray:none;stroke-opacity:1" />
    </g>
    <g
       aria-label="Track"
       id="text1379"
       style="font-style:normal;font-variant:normal;font-weight:bold;font-stretch:normal;font-size:10.5833px;line-height:1.25;font-family:sans-serif;-inkscape-font-specification:'sans-serif Bold';fill:#4d4d4d;fill-opacity:1;stroke:none;stroke-width:0;stroke-dasharray:none"
       transform="matrix(1.1739294,0,0,1.1739294,-7.9457424,-35.767245)">
      <path
         d="m 49.146392,142.50903 q 0,0.5705 -0.232427,1.01951 -0.227144,0.44901 -0.628608,0.74482 -0.464853,0.34864 -1.02479,0.49655 -0.554654,0.14791 -1.410407,0.14791 h -3.433574 v -7.86553 h 3.05324 q 0.950836,0 1.389277,0.0634 0.443723,0.0634 0.876882,0.27997 0.449006,0.22714 0.665585,0.61276 0.221862,0.38033 0.221862,0.8716 0,0.5705 -0.301098,1.00894 -0.301098,0.43316 -0.85047,0.67615 v 0.0423 q 0.771233,0.15319 1.220239,0.63389 0.454289,0.4807 0.454289,1.26778 z m -2.598952,-3.23284 q 0,-0.19545 -0.100366,-0.3909 -0.09508,-0.19545 -0.343357,-0.29053 -0.221862,-0.0845 -0.554655,-0.0898 -0.32751,-0.0106 -0.924424,-0.0106 h -0.190167 v 1.66396 h 0.316945 q 0.480701,0 0.818776,-0.0158 0.338075,-0.0159 0.533525,-0.10565 0.274685,-0.1215 0.359204,-0.31166 0.08452,-0.19545 0.08452,-0.44901 z m 0.496548,3.20115 q 0,-0.37505 -0.147908,-0.57579 -0.142626,-0.20601 -0.491265,-0.30638 -0.237709,-0.0687 -0.655021,-0.0739 -0.417311,-0.005 -0.871599,-0.005 h -0.443724 v 1.95977 h 0.147908 q 0.855752,0 1.225522,-0.005 0.369769,-0.005 0.681432,-0.13734 0.316946,-0.13206 0.433159,-0.34864 0.121496,-0.22186 0.121496,-0.50711 z m 9.804175,2.44048 h -2.213335 l -1.663963,-2.58311 -0.517677,0.62861 v 1.9545 h -1.901672 v -8.21945 h 1.901672 v 4.90737 l 2.04958,-2.62008 h 2.192205 l -2.134099,2.55669 z m 6.729806,-0.68144 q 0,0.83463 -0.237709,1.40513 -0.237709,0.5705 -0.665585,0.89273 -0.427876,0.32751 -1.035355,0.47013 -0.602196,0.14791 -1.362865,0.14791 -0.618043,0 -1.220239,-0.0739 -0.596914,-0.074 -1.035355,-0.17961 v -1.48436 h 0.232427 q 0.348639,0.13735 0.85047,0.24828 0.50183,0.11621 0.898011,0.11621 0.528243,0 0.855753,-0.10037 0.332792,-0.0951 0.507112,-0.27468 0.163755,-0.16904 0.237709,-0.43316 0.07395,-0.26412 0.07395,-0.63389 v -0.11093 q -0.343357,0.27997 -0.760669,0.44372 -0.417311,0.16376 -0.929706,0.16376 -1.246652,0 -1.922802,-0.75011 -0.67615,-0.7501 -0.67615,-2.282 0,-0.73426 0.206015,-1.26778 0.206014,-0.53353 0.581066,-0.92971 0.34864,-0.36977 0.855753,-0.57578 0.512395,-0.20602 1.045919,-0.20602 0.480701,0 0.8716,0.11621 0.396182,0.11094 0.718409,0.31167 l 0.06867,-0.26412 h 1.843565 z m -1.901672,-1.18854 v -2.68875 q -0.163755,-0.0687 -0.401464,-0.10565 -0.237709,-0.0423 -0.427876,-0.0423 -0.750104,0 -1.125156,0.43316 -0.375052,0.42787 -0.375052,1.19911 0,0.85575 0.316945,1.19382 0.322228,0.33808 0.950836,0.33808 0.285251,0 0.559937,-0.0898 0.274686,-0.0898 0.50183,-0.23771 z m 7.997587,-2.25031 h -0.169037 q -0.121496,-0.0423 -0.3909,-0.0634 -0.269403,-0.0211 -0.449006,-0.0211 -0.406746,0 -0.718409,0.0528 -0.311663,0.0528 -0.670868,0.1796 v 3.97239 h -1.901671 v -5.93216 h 1.901671 v 0.8716 q 0.628609,-0.53881 1.093462,-0.71313 0.464853,-0.1796 0.855752,-0.1796 0.100366,0 0.227144,0.005 0.126778,0.005 0.221862,0.0159 z"
         id="text1"
         style="font-size:10.8184px;fill:#4d4d4d;fill-opacity:1;stroke:#737373"
         aria-label="Bkgr" />
    </g>
  </g>
</svg>
