<?xml version="1.0" encoding="UTF-8" standalone="no"?>
<!-- Generator: Adobe Illustrator 21.0.2, SVG Export Plug-In . SVG Version: 6.00 Build 0)  -->

<svg
   version="1.1"
   id="Layer_1"
   x="0px"
   y="0px"
   viewBox="0 0 96.4 96.4"
   style="enable-background:new 0 0 96.4 96.4;"
   xml:space="preserve"
   sodipodi:docname="merge-multiple-IDs.svg"
   inkscape:version="1.4.2 (f4327f4, 2025-05-13)"
   xmlns:inkscape="http://www.inkscape.org/namespaces/inkscape"
   xmlns:sodipodi="http://sodipodi.sourceforge.net/DTD/sodipodi-0.dtd"
   xmlns="http://www.w3.org/2000/svg"
   xmlns:svg="http://www.w3.org/2000/svg"><defs
   id="defs9"><radialGradient
     id="SVGID_1_-2"
     cx="71.091797"
     cy="18.0362"
     r="14.5193"
     gradientUnits="userSpaceOnUse">
	<stop
   offset="0"
   style="stop-color:#858585"
   id="stop1-7" />
	<stop
   offset="1"
   style="stop-color:#383838"
   id="stop2-7" />
</radialGradient><radialGradient
     id="SVGID_1_-1"
     cx="71.091797"
     cy="18.0362"
     r="14.5193"
     gradientUnits="userSpaceOnUse">
	<stop
   offset="0"
   style="stop-color:#858585"
   id="stop1-9" />
	<stop
   offset="1"
   style="stop-color:#383838"
   id="stop2-8" />
</radialGradient></defs><sodipodi:namedview
   id="namedview9"
   pagecolor="#ffffff"
   bordercolor="#000000"
   borderopacity="0.25"
   inkscape:showpageshadow="2"
   inkscape:pageopacity="0.0"
   inkscape:pagecheckerboard="0"
   inkscape:deskcolor="#d1d1d1"
   inkscape:zoom="6.1670124"
   inkscape:cx="25.782338"
   inkscape:cy="44.186712"
   inkscape:window-width="2560"
   inkscape:window-height="1369"
   inkscape:window-x="-8"
   inkscape:window-y="-8"
   inkscape:window-maximized="1"
   inkscape:current-layer="Layer_1" />
<style
   type="text/css"
   id="style1">
	.st0{fill:url(#SVGID_1_);stroke:#000000;stroke-width:0.5;stroke-miterlimit:10;}
	.st1{fill:url(#SVGID_2_);stroke:#000000;stroke-width:0.5;stroke-miterlimit:10;}
	.st2{fill:none;stroke:#ED2024;stroke-width:5;stroke-miterlimit:10;}
	.st3{fill:none;stroke:#ED2024;stroke-width:5;stroke-miterlimit:10;stroke-dasharray:4.0011,2.0006;}
	.st4{fill:#ED2024;}
</style>
<radialGradient
   id="SVGID_1_"
   cx="71.0918"
   cy="18.0362"
   r="14.5193"
   gradientUnits="userSpaceOnUse">
	<stop
   offset="0"
   style="stop-color:#858585"
   id="stop1" />
	<stop
   offset="1"
   style="stop-color:#383838"
   id="stop2" />
</radialGradient>
<path
   class="st0"
   d="M80.6,5.5c5.8,4.4,6.3,13.6,1.1,20.5c-5.2,6.9-14.2,9-20,4.6S55.3,17,60.5,10.1S74.7,1.1,80.6,5.5z"
   id="path2"
   style="fill:#cccccc;fill-opacity:1;stroke:#4d4d4d;stroke-opacity:1;stroke-width:4;stroke-dasharray:none" /><path
   class="st0"
   d="m 36.039951,4.5516154 c 5.8,4.4 6.3,13.6000016 1.1,20.5000016 -5.2,6.9 -14.2,9 -20,4.6 -5.8,-4.4 -6.4,-13.6 -1.2,-20.5000016 5.2,-6.9 14.2,-9.0000002 20.1,-4.6 z"
   id="path2-3"
   style="fill:#cccccc;fill-opacity:1;stroke:#4d4d4d;stroke-width:4;stroke-miterlimit:10;stroke-dasharray:none;stroke-opacity:1" /><path
   class="st0"
   d="m 89.632041,66.904555 c 5.8,4.4 6.3,13.6 1.1,20.5 -5.2,6.9 -14.2,9 -20,4.6 -5.8,-4.4 -6.4,-13.6 -1.2,-20.5 5.2,-6.9 14.2,-9 20.1,-4.6 z"
   id="path2-5"
   style="fill:#cccccc;fill-opacity:1;stroke:#4d4d4d;stroke-width:4;stroke-miterlimit:10;stroke-dasharray:none;stroke-opacity:1" />
<radialGradient
   id="SVGID_2_"
   cx="42.6751"
   cy="59.2862"
   r="32.6995"
   gradientTransform="matrix(1 0 0 1.15 0 -8.8929)"
   gradientUnits="userSpaceOnUse">
	<stop
   offset="0"
   style="stop-color:#858585"
   id="stop3" />
	<stop
   offset="1"
   style="stop-color:#383838"
   id="stop4" />
</radialGradient>
<path
   class="st1"
   d="M59.1,28.2c14.6,7.7,19.2,27.9,10.1,45.1S40.9,98.1,26.3,90.4S7.1,62.5,16.1,45.3S44.4,20.4,59.1,28.2z"
   id="path4"
   style="fill:#cccccc;fill-opacity:1;stroke:#4d4d4d;stroke-opacity:1;stroke-width:4;stroke-dasharray:none" />
<g
   id="g9">
	<g
   id="g8">
		<line
   class="st2"
   x1="44.2"
   y1="56.6"
   x2="45.3"
   y2="55"
   id="line4" />
		<line
   class="st3"
   x1="46.5"
   y1="53.3"
   x2="62.9"
   y2="29.4"
   id="line5" />
		<line
   class="st2"
   x1="63.5"
   y1="28.6"
   x2="64.6"
   y2="27"
   id="line6" />
		<g
   id="g6">
			<path
   class="st4"
   d="M37.3,66.6c5-3.5,11.9-7.2,17.5-8.7l-9.8-2.6l-5.9-8.2C39.9,52.8,38.8,60.7,37.3,66.6z"
   id="path6" />
		</g>
		<g
   id="g7">
			<path
   class="st4"
   d="M71.5,17c-1.5,5.9-2.5,13.7-1.9,19.5l-5.9-8.2l-9.8-2.6C59.5,24.3,66.5,20.5,71.5,17z"
   id="path7" />
		</g>
	</g>
</g><g
   id="g9-6"
   transform="matrix(1.2598773,0,0,-0.26556496,-9.5028471,84.241607)"
   style="stroke-width:1.72882">
	<g
   id="g8-0"
   style="stroke-width:1.72882">
		<line
   class="st2"
   x1="44.200001"
   y1="56.599998"
   x2="45.299999"
   y2="55"
   id="line4-6"
   style="fill:none;stroke:#ed2024;stroke-width:8.64412;stroke-miterlimit:10" />
		<line
   class="st3"
   x1="46.5"
   y1="53.299999"
   x2="62.900002"
   y2="29.4"
   id="line5-6"
   style="fill:none;stroke:#ed2024;stroke-width:8.64412;stroke-miterlimit:10;stroke-dasharray:6.9172, 3.45869" />
		<line
   class="st2"
   x1="63.5"
   y1="28.6"
   x2="64.599998"
   y2="27"
   id="line6-1"
   style="fill:none;stroke:#ed2024;stroke-width:8.64412;stroke-miterlimit:10" />
		<g
   id="g6-8"
   style="stroke-width:1.72882">
			<path
   class="st4"
   d="m 37.3,66.6 c 5,-3.5 11.9,-7.2 17.5,-8.7 L 45,55.3 39.1,47.1 c 0.8,5.7 -0.3,13.6 -1.8,19.5 z"
   id="path6-4"
   style="fill:#ed2024;stroke-width:1.72882" />
		</g>
		<g
   id="g7-9"
   style="stroke-width:1.72882">
			<path
   class="st4"
   d="M 71.5,17 C 70,22.9 69,30.7 69.6,36.5 L 63.7,28.3 53.9,25.7 C 59.5,24.3 66.5,20.5 71.5,17 Z"
   id="path7-6"
   style="fill:#ed2024;stroke-width:1.72882" />
		</g>
	</g>
</g><g
   id="g9-6-7"
   transform="matrix(-0.29746313,0,0,1.0208052,48.866056,-0.96677189)"
   style="stroke-width:1.81473">
	<g
   id="g8-0-8"
   style="stroke-width:1.81473">
		<line
   class="st2"
   x1="44.200001"
   y1="56.599998"
   x2="45.299999"
   y2="55"
   id="line4-6-8"
   style="fill:none;stroke:#ed2024;stroke-width:9.07365;stroke-miterlimit:10" />
		<line
   class="st3"
   x1="46.5"
   y1="53.299999"
   x2="62.900002"
   y2="29.4"
   id="line5-6-2"
   style="fill:none;stroke:#ed2024;stroke-width:9.07365;stroke-miterlimit:10;stroke-dasharray:7.26092, 3.63055" />
		<line
   class="st2"
   x1="63.5"
   y1="28.6"
   x2="64.599998"
   y2="27"
   id="line6-1-9"
   style="fill:none;stroke:#ed2024;stroke-width:9.07365;stroke-miterlimit:10" />
		<g
   id="g6-8-1"
   style="stroke-width:1.81473">
			<path
   class="st4"
   d="m 37.3,66.6 c 5,-3.5 11.9,-7.2 17.5,-8.7 L 45,55.3 39.1,47.1 c 0.8,5.7 -0.3,13.6 -1.8,19.5 z"
   id="path6-4-3"
   style="fill:#ed2024;stroke-width:1.81473" />
		</g>
		<g
   id="g7-9-5"
   style="stroke-width:1.81473">
			<path
   class="st4"
   d="M 71.5,17 C 70,22.9 69,30.7 69.6,36.5 L 63.7,28.3 53.9,25.7 C 59.5,24.3 66.5,20.5 71.5,17 Z"
   id="path7-6-9"
   style="fill:#ed2024;stroke-width:1.81473" />
		</g>
	</g>
</g>
</svg>
