<?xml version="1.0" encoding="UTF-8" standalone="no"?>
<svg
   version="1.1"
   id="Layer_1"
   x="0px"
   y="0px"
   viewBox="0 0 680.3 680.3"
   style="enable-background:new 0 0 680.3 680.3;"
   xml:space="preserve"
   sodipodi:docname="moveLabel_dark.svg"
   inkscape:version="1.2.2 (732a01da63, 2022-12-09)"
   xmlns:inkscape="http://www.inkscape.org/namespaces/inkscape"
   xmlns:sodipodi="http://sodipodi.sourceforge.net/DTD/sodipodi-0.dtd"
   xmlns="http://www.w3.org/2000/svg"
   xmlns:svg="http://www.w3.org/2000/svg"
   xmlns:rdf="http://www.w3.org/1999/02/22-rdf-syntax-ns#"
   xmlns:cc="http://creativecommons.org/ns#"
   xmlns:dc="http://purl.org/dc/elements/1.1/"><metadata
   id="metadata844"><rdf:RDF><cc:Work
       rdf:about=""><dc:format>image/svg+xml</dc:format><dc:type
         rdf:resource="http://purl.org/dc/dcmitype/StillImage" /></cc:Work></rdf:RDF></metadata><defs
   id="defs842"><inkscape:path-effect
     effect="spiro"
     id="path-effect6059"
     is_visible="true"
     lpeversion="1" /><marker
     style="overflow:visible;"
     id="marker4773"
     refX="0.0"
     refY="0.0"
     orient="auto"
     inkscape:stockid="Arrow2Mend"
     inkscape:isstock="true"><path
       transform="scale(0.6) rotate(180) translate(0,0)"
       d="M 8.7185878,4.0337352 L -2.2072895,0.016013256 L 8.7185884,-4.0017078 C 6.9730900,-1.6296469 6.9831476,1.6157441 8.7185878,4.0337352 z "
       style="stroke:context-stroke;fill-rule:evenodd;fill:context-stroke;stroke-width:0.62500000;stroke-linejoin:round;"
       id="path4771" /></marker><marker
     style="overflow:visible;"
     id="marker4763"
     refX="0.0"
     refY="0.0"
     orient="auto"
     inkscape:stockid="Arrow2Send"
     inkscape:isstock="true"><path
       transform="scale(0.3) rotate(180) translate(-2.3,0)"
       d="M 8.7185878,4.0337352 L -2.2072895,0.016013256 L 8.7185884,-4.0017078 C 6.9730900,-1.6296469 6.9831476,1.6157441 8.7185878,4.0337352 z "
       style="stroke:context-stroke;fill-rule:evenodd;fill:context-stroke;stroke-width:0.62500000;stroke-linejoin:round;"
       id="path4488" /></marker><marker
     style="overflow:visible;"
     id="Arrow2Mend"
     refX="0.0"
     refY="0.0"
     orient="auto"
     inkscape:stockid="Arrow2Mend"
     inkscape:isstock="true"><path
       transform="scale(0.6) rotate(180) translate(0,0)"
       d="M 8.7185878,4.0337352 L -2.2072895,0.016013256 L 8.7185884,-4.0017078 C 6.9730900,-1.6296469 6.9831476,1.6157441 8.7185878,4.0337352 z "
       style="stroke:context-stroke;fill-rule:evenodd;fill:context-stroke;stroke-width:0.62500000;stroke-linejoin:round;"
       id="path4482" /></marker><marker
     style="overflow:visible;"
     id="marker4716"
     refX="0.0"
     refY="0.0"
     orient="auto"
     inkscape:stockid="Arrow1Mend"
     inkscape:isstock="true"><path
       transform="scale(0.4) rotate(180) translate(10,0)"
       style="fill-rule:evenodd;fill:context-stroke;stroke:context-stroke;stroke-width:1.0pt;"
       d="M 0.0,0.0 L 5.0,-5.0 L -12.5,0.0 L 5.0,5.0 L 0.0,0.0 z "
       id="path4464" /></marker><inkscape:path-effect
     effect="spiro"
     id="path-effect4319"
     is_visible="true"
     lpeversion="1" /><inkscape:path-effect
     effect="spiro"
     id="path-effect4079"
     is_visible="true"
     lpeversion="1" /><inkscape:path-effect
     effect="spiro"
     id="path-effect2347"
     is_visible="true"
     lpeversion="1" /><inkscape:path-effect
     effect="spiro"
     id="path-effect2007"
     is_visible="true"
     lpeversion="1" /><inkscape:path-effect
     effect="spiro"
     id="path-effect1891"
     is_visible="true"
     lpeversion="1" /><marker
     style="overflow:visible;"
     id="Arrow2Send"
     refX="0.0"
     refY="0.0"
     orient="auto"
     inkscape:stockid="Arrow2Send"
     inkscape:isstock="true"><path
       transform="scale(0.3) rotate(180) translate(-2.3,0)"
       d="M 8.7185878,4.0337352 L -2.2072895,0.016013256 L 8.7185884,-4.0017078 C 6.9730900,-1.6296469 6.9831476,1.6157441 8.7185878,4.0337352 z "
       style="fill-rule:evenodd;stroke-width:0.625;stroke-linejoin:round;stroke:#666666;stroke-opacity:1;fill:#666666;fill-opacity:1"
       id="path1501" /></marker><marker
     style="overflow:visible;"
     id="Arrow1Mend"
     refX="0.0"
     refY="0.0"
     orient="auto"
     inkscape:stockid="Arrow1Mend"
     inkscape:isstock="true"><path
       transform="scale(0.4) rotate(180) translate(10,0)"
       style="fill-rule:evenodd;stroke:#000000;stroke-width:1pt;stroke-opacity:1;fill:#000000;fill-opacity:1"
       d="M 0.0,0.0 L 5.0,-5.0 L -12.5,0.0 L 5.0,5.0 L 0.0,0.0 z "
       id="path1477" /></marker><marker
     style="overflow:visible;"
     id="Arrow1Lend"
     refX="0.0"
     refY="0.0"
     orient="auto"
     inkscape:stockid="Arrow1Lend"
     inkscape:isstock="true"><path
       transform="scale(0.8) rotate(180) translate(12.5,0)"
       style="fill-rule:evenodd;stroke:#000000;stroke-width:1pt;stroke-opacity:1;fill:#000000;fill-opacity:1"
       d="M 0.0,0.0 L 5.0,-5.0 L -12.5,0.0 L 5.0,5.0 L 0.0,0.0 z "
       id="path1471" /></marker><inkscape:path-effect
     effect="spiro"
     id="path-effect1466"
     is_visible="true"
     lpeversion="1" /><inkscape:path-effect
     effect="spiro"
     id="path-effect866"
     is_visible="true"
     lpeversion="1" /><inkscape:path-effect
     effect="spiro"
     id="path-effect862"
     is_visible="true"
     lpeversion="1" /><marker
     style="overflow:visible"
     id="Arrow2Send-9"
     refX="0"
     refY="0"
     orient="auto"
     inkscape:stockid="Arrow2Send"
     inkscape:isstock="true"><path
       transform="matrix(-0.3,0,0,-0.3,0.69,0)"
       d="M 8.7185878,4.0337352 -2.2072895,0.01601326 8.7185884,-4.0017078 c -1.7454984,2.3720609 -1.7354408,5.6174519 -6e-7,8.035443 z"
       style="fill:#666666;fill-opacity:1;fill-rule:evenodd;stroke:#666666;stroke-width:0.625;stroke-linejoin:round;stroke-opacity:1"
       id="path1501-8" /></marker><marker
     style="overflow:visible"
     id="Arrow2Send-9-0"
     refX="0"
     refY="0"
     orient="auto"
     inkscape:stockid="Arrow2Send"
     inkscape:isstock="true"><path
       transform="matrix(-0.3,0,0,-0.3,0.69,0)"
       d="M 8.7185878,4.0337352 -2.2072895,0.01601326 8.7185884,-4.0017078 c -1.7454984,2.3720609 -1.7354408,5.6174519 -6e-7,8.035443 z"
       style="fill:#666666;fill-opacity:1;fill-rule:evenodd;stroke:#666666;stroke-width:0.625;stroke-linejoin:round;stroke-opacity:1"
       id="path1501-8-6" /></marker></defs><sodipodi:namedview
   pagecolor="#ffffff"
   bordercolor="#666666"
   borderopacity="1"
   objecttolerance="10"
   gridtolerance="10"
   guidetolerance="10"
   inkscape:pageopacity="0"
   inkscape:pageshadow="2"
   inkscape:window-width="1920"
   inkscape:window-height="1137"
   id="namedview840"
   showgrid="false"
   inkscape:object-paths="false"
   inkscape:zoom="1.0163713"
   inkscape:cx="225.80332"
   inkscape:cy="327.63618"
   inkscape:window-x="-8"
   inkscape:window-y="-8"
   inkscape:window-maximized="1"
   inkscape:current-layer="Layer_1"
   inkscape:pagecheckerboard="0"
   inkscape:showpageshadow="2"
   inkscape:deskcolor="#d1d1d1" />
<style
   type="text/css"
   id="style833">
	.st0{fill:#2B9245;}
</style>

<path
   style="opacity:0.997;fill:#c8c8c8;fill-opacity:1;stroke:#d30000;stroke-width:22.6772;stroke-linecap:butt;stroke-linejoin:miter;stroke-miterlimit:4;stroke-dasharray:none;stroke-opacity:1"
   d="m 372.46704,67.19397 c -19.54675,13.074941 -35.04546,31.728899 -45.96199,52.55818 -10.91653,20.82928 -17.38102,43.79891 -20.77694,67.06901 -6.79183,46.54018 -1.51659,93.8593 0.77277,140.83671 3.10395,63.69255 1.08656,129.65064 25.82037,188.42661 17.85274,42.42421 50.05304,79.38832 91.52542,99.3527 20.73619,9.98219 43.58928,15.66806 66.60004,16.04021 23.01076,0.37215 46.15141,-4.61384 66.73863,-14.89976 22.83739,-11.41016 42.24242,-29.17182 56.96273,-50.02968 14.72031,-20.85787 24.85967,-44.75037 31.2248,-69.4733 12.73027,-49.44586 10.49561,-101.41842 6.29805,-152.30391 C 648.39289,305.03228 643.94031,265.21841 633.8689,226.63788 623.79748,188.05736 607.9014,150.5669 583.47407,119.05189 559.04674,87.536882 525.65282,62.237493 487.29308,51.355358 448.93335,40.473222 405.60944,45.024813 372.46704,67.19397 Z"
   id="path860-9"
   inkscape:path-effect="#path-effect2347"
   inkscape:original-d="m 372.46704,67.19397 c -116.7487,-95.806945 -136.50324,119.00286 -65.96616,260.4639 79.6864,167.54723 -0.79985,-39.09015 25.82037,188.42661 9.65343,62.43137 173.95443,99.41952 224.86409,100.49315 50.90968,1.07364 136.18017,1098.15067 94.48558,-271.80689 C 649.27497,266.04732 489.21575,163.00092 372.46704,67.19397 Z"
   sodipodi:nodetypes="sccsss" /><path
   style="opacity:0.997;fill:#e2e2e2;fill-opacity:0.7651515;stroke:#d30000;stroke-width:22.67700005;stroke-linecap:butt;stroke-linejoin:miter;stroke-miterlimit:4;stroke-dasharray:45.35400009, 22.67700005;stroke-opacity:0.5;stroke-dashoffset:0"
   d="M 105.32171,67.193972 C 85.774962,80.268913 70.276249,98.922871 59.35972,119.75215 c -10.916528,20.82928 -17.381018,43.79891 -20.776934,67.069 -6.791833,46.54019 -1.516593,93.8593 0.772767,140.83671 3.103944,63.69256 1.086558,129.65065 25.820365,188.42662 17.852743,42.42421 50.053042,79.38832 91.525422,99.3527 20.73618,9.98219 43.58928,15.66806 66.60004,16.04021 23.01076,0.37215 46.15141,-4.61384 66.73863,-14.89976 22.83739,-11.41016 42.24242,-29.17182 56.96273,-50.02968 14.72031,-20.85787 24.85966,-44.75037 31.2248,-69.4733 12.73026,-49.44586 10.49561,-101.41842 6.29805,-152.30391 -3.27803,-39.73846 -7.73061,-79.55233 -17.80202,-118.13286 C 356.65215,188.05736 340.75607,150.5669 316.32874,119.05189 291.90141,87.536881 258.50749,62.237492 220.14775,51.355357 181.78802,40.473222 138.46411,45.024814 105.32171,67.193972 Z"
   id="path860"
   inkscape:path-effect="#path-effect862"
   inkscape:original-d="M 105.32171,67.193972 C -11.426987,-28.612978 -31.181527,186.19683 39.355553,327.65786 119.04195,495.2051 38.555698,288.56772 65.175918,516.08448 74.829358,578.51585 239.13035,615.50399 290.04001,616.57763 340.94969,617.65127 426.22018,1714.7284 384.52559,344.77074 382.12964,266.04732 222.07042,163.00092 105.32171,67.193972 Z"
   sodipodi:nodetypes="sccsss" /><path
   sodipodi:type="star"
   style="fill:#4d4d4d;fill-opacity:0.99770093;fill-rule:evenodd;stroke:#4d4d4d;stroke-width:8.63689;stroke-linecap:round;stroke-linejoin:round;stroke-miterlimit:4;stroke-dasharray:none;stroke-dashoffset:0;stroke-opacity:1"
   id="path4883"
   inkscape:flatsided="true"
   sodipodi:sides="3"
   sodipodi:cx="402.72281"
   sodipodi:cy="350.01471"
   sodipodi:r1="114.19065"
   sodipodi:r2="57.095325"
   sodipodi:arg1="-2.0943951"
   sodipodi:arg2="-1.0471976"
   inkscape:rounded="0"
   inkscape:randomized="0"
   d="m 345.62748,251.1227 171.28598,98.89201 -171.28598,98.892 z"
   inkscape:transform-center-x="-14.547076"
   transform="matrix(0.50957145,0,0,1.5031944,245.50912,-176.12543)"
   inkscape:transform-center-y="1.1655511e-05" /><path
   style="fill:none;stroke:#4d4d4d;stroke-width:37.79527559;stroke-linecap:round;stroke-linejoin:miter;stroke-miterlimit:4;stroke-dasharray:none;stroke-opacity:1"
   d="M 196.79894,347.07924 H 429.73802"
   id="path6057"
   inkscape:path-effect="#path-effect6059"
   inkscape:original-d="M 196.79894,347.07924 H 429.73802" /></svg>
