<?xml version="1.0" encoding="UTF-8" standalone="no"?>
<svg
   enable-background="new 0 0 48 48"
   height="48px"
   version="1.1"
   viewBox="0 0 48 48"
   width="48px"
   xml:space="preserve"
   id="svg6"
   sodipodi:docname="no.svg"
   inkscape:version="1.1.1 (3bf5ae0d25, 2021-09-20)"
   xmlns:inkscape="http://www.inkscape.org/namespaces/inkscape"
   xmlns:sodipodi="http://sodipodi.sourceforge.net/DTD/sodipodi-0.dtd"
   xmlns="http://www.w3.org/2000/svg"
   xmlns:svg="http://www.w3.org/2000/svg"><defs
     id="defs10" /><sodipodi:namedview
     id="namedview8"
     pagecolor="#ffffff"
     bordercolor="#666666"
     borderopacity="1.0"
     inkscape:pageshadow="2"
     inkscape:pageopacity="0.0"
     inkscape:pagecheckerboard="0"
     showgrid="false"
     inkscape:zoom="12.639534"
     inkscape:cx="23.102118"
     inkscape:cy="23.853728"
     inkscape:window-width="1920"
     inkscape:window-height="1017"
     inkscape:window-x="-8"
     inkscape:window-y="-8"
     inkscape:window-maximized="1"
     inkscape:current-layer="svg6" /><g
     id="Guides" /><path
     d="M 24,4 C 12.954167,4 4,12.954167 4,24 4,35.045833 12.954167,44 24,44 35.045833,44 44,35.045833 44,24 44,12.954167 35.045833,4 24,4 Z M 7.3333333,24 C 7.3333333,14.795 14.795,7.3333333 24,7.3333333 c 4.040833,0 7.744167,1.4391667 10.629167,3.8308337 l -23.465,23.465 C 8.7725,31.744167 7.3333333,28.040833 7.3333333,24 Z M 24,40.666667 c -3.963333,0 -7.599167,-1.389167 -10.46,-3.699167 L 36.966667,13.540833 c 2.310833,2.86 3.7,6.495834 3.7,10.459167 0,9.205 -7.461667,16.666667 -16.666667,16.666667 z"
     fill="#4d4d4d"
     id="path3"
     style="stroke-width:0.833333;fill:#4d4d4d;fill-opacity:1" /></svg>
