<svg viewBox="0 0 64 64" xmlns="http://www.w3.org/2000/svg"><g data-name="Glyph"><path d="M32 15h20a1 1 0 0 0 0-2H32a1 1 0 0 0 0 2ZM52 17H37a1 1 0 0 0 0 2h15a1 1 0 0 0 0-2Z" fill="#f0f0f0" class="fill-000000"></path><path d="M59 14h-2V9a1 1 0 0 0-1-1h-6V3a1 1 0 0 0-1-1H7a1 1 0 0 0-1 1v11h-.32A3.85 3.85 0 0 0 2 18v39.92A3.93 3.93 0 0 0 5.74 62h52.67A3.86 3.86 0 0 0 62 57.92V17a3 3 0 0 0-3-3ZM13 9v5.06A3.87 3.87 0 0 0 10 18v38H8V4h40v4H14a1 1 0 0 0-1 1Zm23 47a14 14 0 1 1 14-14 14 14 0 0 1-14 14Zm19-34H34.36a.83.83 0 0 1-.57-.23l-7.42-7a2.83 2.83 0 0 0-1.94-.77H15v-4h40Z" fill="#f0f0f0" class="fill-000000"></path><path d="M36 30a12 12 0 1 0 12 12 12 12 0 0 0-12-12Zm6.12 13.67-5 4.86a1.52 1.52 0 0 1-2.12.07l-5.09-4.93c-1.28-1.33.9-3 2-1.87l1 .94a1 1 0 0 0 1.68-.74v-4.68a1.42 1.42 0 0 1 2.83 0V42a1 1 0 0 0 1.7.71l1-.94a1.4 1.4 0 0 1 2 .06 1.23 1.23 0 0 1 0 1.84Z" fill="#f0f0f0" class="fill-000000"></path></g></svg>