<svg viewBox="0 0 32 32" xml:space="preserve" xmlns="http://www.w3.org/2000/svg" enable-background="new 0 0 32 32"><path d="M22.4 8.1c.3-.1.7-.1 1.1-.1 3 0 5.5 2.5 5.5 5.5S26.5 19 23.5 19l.5 9H8l.5-9c-3 0-5.5-2.5-5.5-5.5S5.5 8 8.5 8c.4 0 .8 0 1.1.1" fill="none" stroke="#4d4d4d" stroke-width="2" stroke-linecap="round" stroke-linejoin="round" stroke-miterlimit="10" class="stroke-000000"></path><path d="M23 11c0-3.9-3.1-7-7-7s-7 3.1-7 7M16 21v3M12.5 21l-.5 2.7M19.5 21l.5 2.7" fill="none" stroke="#4d4d4d" stroke-width="2" stroke-linecap="round" stroke-linejoin="round" stroke-miterlimit="10" class="stroke-000000"></path></svg>