<svg viewBox="0 0 32 32" xml:space="preserve" xmlns="http://www.w3.org/2000/svg"><path d="M16.5.1c-.3-.2-.7-.2-.9 0C11.6 2.2 9 8.8 9 16.5c0 3.1.5 6.2 1.3 8.9.1.4.5.7 1 .7h9.5c.4 0 .8-.3 1-.7.9-2.7 1.3-5.7 1.3-8.9C23 8.8 20.4 2.2 16.5.1zM19 16c0 1.7-1.3 3-3 3s-3-1.3-3-3v-4c0-1.7 1.3-3 3-3s3 1.3 3 3v4zM20.3 28h-8.6l-.7 2.8c-.1.3 0 .6.2.9s.5.3.8.3h8c.3 0 .6-.1.8-.4s.3-.6.2-.9l-.7-2.7zM8.4 25.9C7.5 23.1 7 19.8 7 16.5 5 20 4 24.1 4 28.2v.8c0 .4.2.7.6.9.1.1.3.1.4.1.2 0 .4-.1.6-.2L9.1 27c-.3-.3-.6-.7-.7-1.1zM25 16.4c0 3.4-.5 6.7-1.4 9.5-.1.4-.4.8-.7 1.1l3.4 2.7c.2.1.4.2.6.2.1 0 .3 0 .4-.1.3-.2.6-.5.6-.9v-.8c.1-4-.9-8.1-2.9-11.7z" fill="#4d4d4d" class="fill-000000"></path></svg>