<?xml version="1.0" encoding="UTF-8" standalone="no"?>
<!-- Generator: Adobe Illustrator 21.0.2, SVG Export Plug-In . SVG Version: 6.00 Build 0)  -->

<svg
   version="1.1"
   id="Layer_1"
   x="0px"
   y="0px"
   viewBox="0 0 680.3 680.3"
   style="enable-background:new 0 0 680.3 680.3;"
   xml:space="preserve"
   sodipodi:docname="reinitCca_dark.svg"
   inkscape:version="1.2.2 (732a01da63, 2022-12-09)"
   xmlns:inkscape="http://www.inkscape.org/namespaces/inkscape"
   xmlns:sodipodi="http://sodipodi.sourceforge.net/DTD/sodipodi-0.dtd"
   xmlns="http://www.w3.org/2000/svg"
   xmlns:svg="http://www.w3.org/2000/svg"><defs
   id="defs27">
	
	
	
</defs><sodipodi:namedview
   id="namedview25"
   pagecolor="#ffffff"
   bordercolor="#000000"
   borderopacity="0.25"
   inkscape:showpageshadow="2"
   inkscape:pageopacity="0.0"
   inkscape:pagecheckerboard="0"
   inkscape:deskcolor="#d1d1d1"
   showgrid="false"
   inkscape:zoom="0.34690578"
   inkscape:cx="219.07966"
   inkscape:cy="340.14999"
   inkscape:window-width="1920"
   inkscape:window-height="1137"
   inkscape:window-x="-8"
   inkscape:window-y="-8"
   inkscape:window-maximized="1"
   inkscape:current-layer="Layer_1" />
<style
   type="text/css"
   id="style2">
	.st0{fill:#4D4D4E;stroke:#4D4D4E;stroke-miterlimit:10;}
	.st1{fill:#4D4D4E;}
	.st2{enable-background:new    ;}
</style>
<g
   id="g6"
   style="fill:#f0f0f0;fill-opacity:1;stroke:none">
		<path
   class="st0"
   d="M 504.7,633.1 C 564.2,548.7 571.6,437.7 523.9,348.8 470.8,250 359.1,196.1 247,216.5 l -3.8,-102.2 c 21.8,-2.1 210,-18.1 323,120.8 22.3,27.2 88.7,109 70,218.8 -19.5,115.3 -117.6,171.6 -131.5,179.2 z"
   id="path4"
   style="fill:#f0f0f0;fill-opacity:1;stroke:none" />
	</g><g
   id="g12"
   style="fill:#f0f0f0;fill-opacity:1">
		<g
   id="g10"
   style="fill:#f0f0f0;fill-opacity:1">
			<polygon
   class="st1"
   points="267.6,162.8 334,45.7 53.5,162.8 334,279.9 "
   id="polygon8"
   style="fill:#f0f0f0;fill-opacity:1" />
		</g>
	</g><g
   class="st2"
   id="g20"
   style="fill:#f0f0f0;fill-opacity:1">
		<path
   class="st1"
   d="m 188.5,515 c -9,4.1 -26,7.8 -45.3,7.8 -52.7,0 -86.3,-33 -86.3,-85.5 0,-48.7 32.7,-88.6 93.3,-88.6 13.3,0 28,2.4 38.7,6.5 l -8,38.5 c -6,-2.7 -15,-5.1 -28.3,-5.1 -26.7,0 -44,19.4 -43.7,46.7 0,30.7 20,46.7 44.7,46.7 12,0 21.3,-2 29,-5.4 z"
   id="path14"
   style="fill:#f0f0f0;fill-opacity:1" />
		<path
   class="st1"
   d="m 335.1,515 c -9,4.1 -26,7.8 -45.3,7.8 -52.7,0 -86.3,-33 -86.3,-85.5 0,-48.7 32.7,-88.6 93.3,-88.6 13.3,0 28,2.4 38.7,6.5 l -8,38.5 c -6,-2.7 -15,-5.1 -28.3,-5.1 -26.7,0 -44,19.4 -43.7,46.7 0,30.7 20,46.7 44.7,46.7 12,0 21.3,-2 29,-5.4 z"
   id="path16"
   style="fill:#f0f0f0;fill-opacity:1" />
		<path
   class="st1"
   d="m 500.4,478.6 c 0,16 0.7,31.3 2.3,40.5 H 457 l -3,-16.7 h -1 c -10.7,13.3 -27.3,20.4 -46.7,20.4 -33,0 -52.7,-24.5 -52.7,-51.1 0,-43.3 38,-64 95.7,-63.7 v -2.4 c 0,-8.9 -4.7,-21.5 -29.7,-21.5 -16.7,0 -34.3,5.8 -45,12.6 l -9.3,-33.4 c 11.3,-6.5 33.7,-14.6 63.3,-14.6 54.3,0 71.7,32.7 71.7,71.9 v 58 z m -49.3,-38.2 c -26.7,-0.3 -47.3,6.1 -47.3,26.2 0,13.3 8.7,19.8 20,19.8 12.7,0 23,-8.5 26.3,-19.1 0.7,-2.7 1,-5.8 1,-8.9 z"
   id="path18"
   style="fill:#f0f0f0;fill-opacity:1" />
	</g>
</svg>
