<?xml version="1.0" ?><svg style="enable-background:new 0 0 512 512;" version="1.1" viewBox="0 0 512 512" xml:space="preserve" xmlns="http://www.w3.org/2000/svg" xmlns:xlink="http://www.w3.org/1999/xlink"><g id="_x31__x2C__count_x2C__grave_x2C__mortality_x2C__rip"><g id="XMLID_4175_"><g id="XMLID_4176_"><path d="M421,198.5v200H91v-200c0-91.13,73.87-165,165-165S421,107.37,421,198.5z" id="XMLID_4251_" style="fill:#757D8C;"/><path d="M46,308.5c11.05,0,20,8.95,20,20s-8.95,20-20,20s-20-8.95-20-20     S34.95,308.5,46,308.5z" id="XMLID_31_" style="fill:#07CC66;"/><circle cx="451" cy="68.5" id="XMLID_30_" r="30" style="fill:#07CC66;"/><rect height="30" id="XMLID_29_" style="fill:#94D4FF;" width="190" x="161" y="313.5"/><rect height="55" id="XMLID_28_" style="fill:#BCE4FF;" width="190" x="161" y="263.5"/><polygon id="XMLID_27_" points="441,393.5 441,433.5 71,433.5 71,393.5 91,393.5 421,393.5    " style="fill:#545B66;"/><circle cx="463.5" cy="206" id="XMLID_26_" r="7.5" style="fill:#FFD400;"/><circle cx="448.5" cy="341" id="XMLID_25_" r="7.5" style="fill:#FFD400;"/><path d="M486,466v17.5H26V466c0-20.71,16.79-37.5,37.5-37.5H71h370h7.5     C469.21,428.5,486,445.29,486,466z" id="XMLID_24_" style="fill:#3F4751;"/><circle cx="363.5" cy="36" id="XMLID_23_" r="7.5" style="fill:#FFD400;"/><path d="M346,180c0,3.24-0.57,6.33-1.7,9.29c-1.14,2.96-2.72,5.61-4.75,7.94     c-2.03,2.34-4.49,4.2-7.38,5.58c-2.89,1.37-6.09,2.06-9.59,2.06h-14.86v23.63h-16.93v-73.26h31.27c3.51,0,6.72,0.72,9.65,2.16     c2.92,1.45,5.43,3.34,7.53,5.68c2.1,2.34,3.75,4.99,4.95,7.94C345.4,173.98,346,176.98,346,180z M328.87,180     c0-1.72-0.22-3.2-0.67-4.44c-0.45-1.23-1.05-2.27-1.81-3.09c-0.75-0.83-1.61-1.43-2.58-1.81c-0.96-0.37-1.92-0.56-2.89-0.56     h-13.2v20.01h13.82c2,0,3.72-0.86,5.16-2.58C328.15,185.82,328.87,183.3,328.87,180z" id="XMLID_4193_" style="fill:#FFFFFF;"/><rect height="73.26" id="XMLID_20_" style="fill:#FFFFFF;" width="16.92" x="247.49" y="155.24"/><path d="M210.99,201.26l16.1,27.24H208l-14.04-23.63h-11.04v23.63H166v-73.26h33.02     c3.44,0,6.62,0.72,9.54,2.16c2.93,1.45,5.46,3.34,7.59,5.68c2.13,2.34,3.8,4.99,5,7.94c1.21,2.96,1.81,5.96,1.81,8.98     c0,2.27-0.28,4.46-0.83,6.55c-0.55,2.1-1.34,4.08-2.37,5.94c-1.03,1.85-2.29,3.52-3.77,5     C214.51,198.97,212.85,200.23,210.99,201.26z M203.56,187.28c1.45-1.9,2.17-4.32,2.17-7.28c0-3.02-0.83-5.43-2.48-7.22     c-1.65-1.79-3.44-2.68-5.36-2.68h-14.97v20.01h15.48C200.4,190.11,202.12,189.17,203.56,187.28z" id="XMLID_4189_" style="fill:#FFFFFF;"/><circle cx="103.5" cy="36" id="XMLID_17_" r="7.5" style="fill:#FFD400;"/><circle cx="63.5" cy="251" id="XMLID_16_" r="7.5" style="fill:#FFD400;"/><circle cx="38.5" cy="136" id="XMLID_15_" r="7.5" style="fill:#FFD400;"/></g></g></g><g id="Layer_1"/></svg>