<?xml version="1.0" encoding="UTF-8" standalone="no"?>
<svg
   viewBox="0 0 32 32"
   version="1.1"
   id="svg2"
   sodipodi:docname="select-list.svg"
   inkscape:version="1.3.2 (091e20e, 2023-11-25, custom)"
   xmlns:inkscape="http://www.inkscape.org/namespaces/inkscape"
   xmlns:sodipodi="http://sodipodi.sourceforge.net/DTD/sodipodi-0.dtd"
   xmlns="http://www.w3.org/2000/svg"
   xmlns:svg="http://www.w3.org/2000/svg">
  <defs
     id="defs2" />
  <sodipodi:namedview
     id="namedview2"
     pagecolor="#ffffff"
     bordercolor="#000000"
     borderopacity="0.25"
     inkscape:showpageshadow="2"
     inkscape:pageopacity="0.0"
     inkscape:pagecheckerboard="0"
     inkscape:deskcolor="#d1d1d1"
     inkscape:zoom="19.865281"
     inkscape:cx="11.577989"
     inkscape:cy="17.140457"
     inkscape:window-width="1920"
     inkscape:window-height="1137"
     inkscape:window-x="-8"
     inkscape:window-y="-8"
     inkscape:window-maximized="1"
     inkscape:current-layer="svg2" />
  <path
     d="m 2,12 h 8 v 2 H 2 Z M 2,2 H 18 V 4 H 2 Z M 2,7 H 18 V 9 H 2 Z"
     fill="#4d4d4d"
     class="fill-000000"
     id="path1"
     sodipodi:nodetypes="ccccccccccccccc" />
  <path
     d="M0 0h32v32H0z"
     fill="none"
     id="path2" />
  <path
     d="m 24.047402,30.719724 a 0.78250212,0.78250212 0 0 1 -0.509635,-0.316911 l -3.922765,-5.541157 -3.225154,3.419936 a 0.78250212,0.78250212 0 0 1 -0.82917,0.208152 0.78250212,0.78250212 0 0 1 -0.532956,-0.646318 L 13.024639,11.627551 a 0.78250212,0.78250212 0 0 1 1.151658,-0.843838 l 14.640639,7.253871 a 0.78250212,0.78250212 0 0 1 0.43366,0.716733 0.78250212,0.78250212 0 0 1 -0.470692,0.713654 l -4.294192,1.912456 3.931792,5.534757 a 0.78250212,0.78250212 0 0 1 -0.186403,1.095406 l -3.610731,2.560572 a 0.78250212,0.78250212 0 0 1 -0.572968,0.148562 z m 0.31636,-1.859104 2.337947,-1.657971 -4.584737,-6.455493 4.509362,-2.010779 -11.851203,-5.874322 1.623809,13.127144 3.389111,-3.590474 z"
     id="path1-2"
     style="fill:#4d4d4d;fill-opacity:1;stroke:none;stroke-width:0.782501;stroke-opacity:1" />
</svg>
