<?xml version="1.0" encoding="UTF-8" standalone="no"?>
<svg
   viewBox="0 0 32 32"
   version="1.1"
   id="svg4"
   sodipodi:docname="spinner_0_dark.svg"
   inkscape:version="1.2.2 (732a01da63, 2022-12-09)"
   xmlns:inkscape="http://www.inkscape.org/namespaces/inkscape"
   xmlns:sodipodi="http://sodipodi.sourceforge.net/DTD/sodipodi-0.dtd"
   xmlns="http://www.w3.org/2000/svg"
   xmlns:svg="http://www.w3.org/2000/svg">
  <defs
     id="defs8" />
  <sodipodi:namedview
     id="namedview6"
     pagecolor="#ffffff"
     bordercolor="#000000"
     borderopacity="0.25"
     inkscape:showpageshadow="2"
     inkscape:pageopacity="0.0"
     inkscape:pagecheckerboard="0"
     inkscape:deskcolor="#d1d1d1"
     showgrid="false"
     inkscape:zoom="20.85965"
     inkscape:cx="15.412531"
     inkscape:cy="17.354078"
     inkscape:window-width="1920"
     inkscape:window-height="1137"
     inkscape:window-x="-8"
     inkscape:window-y="-8"
     inkscape:window-maximized="1"
     inkscape:current-layer="svg4" />
  <path
     d="m 16.574469,1.7819153 c -1.902926,0 -3.446809,1.5438829 -3.446809,3.4468084 0,1.9029255 1.543883,3.4468084 3.446809,3.4468084 1.902925,0 3.446807,-1.5438829 3.446807,-3.4468084 0,-1.9029255 -1.543882,-3.4468084 -3.446807,-3.4468084 z m -8.1143622,3.949468 c -1.5842751,0 -2.8723405,1.2880653 -2.8723405,2.8723403 0,1.5842754 1.2880654,2.8723404 2.8723405,2.8723404 1.5842752,0 2.8723402,-1.288065 2.8723402,-2.8723404 0,-1.584275 -1.288065,-2.8723403 -2.8723402,-2.8723403 z M 24.68883,7.4547875 c -0.632812,0 -1.148936,0.5161239 -1.148936,1.1489361 0,0.6328122 0.516124,1.148936 1.148936,1.148936 0.632813,0 1.148936,-0.5161238 1.148936,-1.148936 0,-0.6328122 -0.516123,-1.1489361 -1.148936,-1.1489361 z M 5.0851067,14.13298 c -1.4271935,0 -2.5851064,1.157912 -2.5851064,2.585106 0,1.427195 1.1579129,2.585105 2.5851064,2.585105 1.4271947,0 2.5851063,-1.15791 2.5851063,-2.585105 0,-1.427194 -1.1579116,-2.585106 -2.5851063,-2.585106 z M 28.06383,15.281915 c -0.794381,0 -1.436171,0.641789 -1.436171,1.436171 0,0.794381 0.64179,1.43617 1.436171,1.43617 0.794382,0 1.43617,-0.641789 1.43617,-1.43617 0,-0.794382 -0.641788,-1.436171 -1.43617,-1.436171 z M 8.4601068,22.534574 c -1.2701135,0 -2.2978724,1.02776 -2.2978724,2.297873 0,1.270113 1.0277589,2.297873 2.2978724,2.297873 1.2701128,0 2.2978732,-1.02776 2.2978732,-2.297873 0,-1.270113 -1.0277604,-2.297873 -2.2978732,-2.297873 z M 24.68883,23.109043 c -0.951463,0 -1.723404,0.771941 -1.723404,1.723404 0,0.951463 0.771941,1.723405 1.723404,1.723405 0.951463,0 1.723405,-0.771942 1.723405,-1.723405 0,-0.951463 -0.771942,-1.723404 -1.723405,-1.723404 z m -8.114361,3.087766 c -1.108545,0 -2.010639,0.902094 -2.010639,2.010638 0,1.108544 0.902094,2.010638 2.010639,2.010638 1.108543,0 2.010638,-0.902094 2.010638,-2.010638 0,-1.108544 -0.902095,-2.010638 -2.010638,-2.010638 z"
     id="path2"
     style="stroke-width:0.999999;fill:#d9d9d9;fill-opacity:1" />
</svg>
