<?xml version="1.0" encoding="UTF-8" standalone="no"?>
<svg
   fill="none"
   stroke-width="1.5"
   viewBox="0 0 24 24"
   version="1.1"
   id="svg828"
   sodipodi:docname="whitelist.svg"
   inkscape:version="1.3.2 (091e20e, 2023-11-25, custom)"
   xmlns:inkscape="http://www.inkscape.org/namespaces/inkscape"
   xmlns:sodipodi="http://sodipodi.sourceforge.net/DTD/sodipodi-0.dtd"
   xmlns="http://www.w3.org/2000/svg"
   xmlns:svg="http://www.w3.org/2000/svg">
  <defs
     id="defs832">
    <inkscape:path-effect
       effect="spiro"
       id="path-effect1318"
       is_visible="true"
       lpeversion="1" />
  </defs>
  <sodipodi:namedview
     id="namedview830"
     pagecolor="#ffffff"
     bordercolor="#666666"
     borderopacity="1.0"
     inkscape:pageshadow="2"
     inkscape:pageopacity="0.0"
     inkscape:pagecheckerboard="0"
     showgrid="false"
     inkscape:zoom="25.853061"
     inkscape:cx="8.7417114"
     inkscape:cy="13.286628"
     inkscape:window-width="1920"
     inkscape:window-height="1137"
     inkscape:window-x="-8"
     inkscape:window-y="-8"
     inkscape:window-maximized="1"
     inkscape:current-layer="svg828"
     inkscape:showpageshadow="2"
     inkscape:deskcolor="#d1d1d1"
     showguides="true">
    <sodipodi:guide
       position="7.138608,25.805165"
       orientation="0,-1"
       id="guide1"
       inkscape:locked="false" />
  </sodipodi:namedview>
  <g
     id="g1"
     transform="matrix(1.1165645,0,0,1.1165645,2.9836059,-1.6836696)">
    <path
       style="fill:#d43d3d;fill-opacity:0.403226;stroke:#d43d3d;stroke-width:2.23633;stroke-linecap:butt;stroke-linejoin:miter;stroke-miterlimit:4;stroke-dasharray:none;stroke-opacity:1"
       d="M 5.2374706,1.6520706 C 4.5232463,1.7740836 3.8335213,2.0510038 3.245494,2.4743562 2.6574666,2.8977086 2.1732146,3.468498 1.8705293,4.1268179 1.5634457,4.794704 1.4465363,5.5483932 1.5342051,6.2782469 c 0.087669,0.7298536 0.3793387,1.4337709 0.8314622,2.0133885 0.6079966,0.7794451 1.4724842,1.3097724 2.3193971,1.8196086 0.8469128,0.509837 1.7145721,1.032305 2.3349022,1.801971 0.5925439,0.73519 0.917388,1.643969 1.2468664,2.528875 0.3294785,0.884905 0.6875655,1.78697 1.3278536,2.480976 0.7779124,0.843176 1.9315884,1.300874 3.0787324,1.313311 1.147144,0.01244 2.279542,-0.400135 3.209523,-1.071871 1.221851,-0.882557 2.107165,-2.215828 2.460864,-3.680998 0.353699,-1.46517 0.175896,-3.050282 -0.480313,-4.4071963 C 17.301981,7.9152127 16.412865,6.9374318 15.417343,6.1174425 14.421821,5.2974532 13.316271,4.623428 12.218918,3.9457385 11.152219,3.2869799 10.082214,2.6183474 8.9172166,2.1551082 7.7522192,1.6918689 6.4732856,1.4409527 5.2374706,1.6520706 Z"
       id="path1190-6"
       inkscape:original-d="M 5.2374706,1.6520706 C 2.9100293,0.88716101 2.9931353,3.3022576 1.8705293,4.1268179 c -1.12260405,0.8245603 0.330384,2.7769005 0.495138,4.1648175 0.164756,1.3879168 3.1031593,2.4147426 4.6542993,3.6215796 1.551141,1.206837 1.716771,3.340257 2.57472,5.009851 0.8579474,1.669596 4.1924614,0.161316 6.2882554,0.24144 2.095794,0.08012 1.320659,-5.391775 1.980551,-8.0881943 C 18.523389,6.3798893 14.100735,5.656285 12.218918,3.9457385 10.337103,2.2351921 7.5649116,2.4169825 5.2374706,1.6520706 Z"
       inkscape:path-effect="#path-effect1318"
       transform="matrix(0.68395229,0,0,0.68395229,0.12242832,7.2865176)" />
    <path
       style="fill:#e0e0e0;fill-opacity:1;stroke:#4d4d4d;stroke-width:0.0218468;stroke-linejoin:round;stroke-miterlimit:4;stroke-dasharray:none;stroke-opacity:1;paint-order:stroke fill markers"
       d="m 4.9566351,11.686417 c -0.4401257,-0.01831 -0.8216667,0.398127 -0.7663433,0.835468 -0.055274,2.056064 0.00791,4.141287 -0.074931,6.179904 C 3.6133489,18.359265 3.258163,17.815555 2.7070125,17.547495 2.108812,17.367866 1.4765591,18.038522 1.7241638,18.621827 c 0.4643449,0.661977 1.0667931,1.218596 1.6031514,1.822497 0.7020483,0.730427 1.3710952,1.498952 2.1097753,2.190822 0.4283273,0.255767 0.9548697,0.12754 1.4277165,0.172772 0.7505399,-0.01399 1.5113766,0.04531 2.2550858,-0.06909 0.9863222,-0.23521 1.7459162,-1.215945 1.6688882,-2.237672 0.017,-1.626155 0.04491,-3.254518 -0.01289,-4.879767 -0.0098,-0.538445 -0.656839,-0.917705 -1.1261326,-0.638249 -0.4339144,0.228956 -0.4095062,0.761879 -0.4610017,1.176653 -0.1175598,-0.06756 -0.054306,-0.29857 -0.082864,-0.422086 -0.025806,-0.461385 0.097576,-1.087731 -0.3708833,-1.375664 -0.4353884,-0.275472 -1.0975191,0.0013 -1.1573662,0.528078 -0.075914,0.415854 -0.022844,0.866739 -0.1026636,1.267709 -0.083803,-0.621149 0.027597,-1.264483 -0.1193038,-1.874982 -0.206419,-0.561567 -1.0923328,-0.645005 -1.371395,-0.105901 -0.2355539,0.629128 -0.052063,1.328911 -0.1616322,1.97116 -0.1222433,0.03197 -0.035744,-0.23045 -0.071688,-0.291775 -0.04088,-1.183558 0.035473,-2.383024 -0.05231,-3.56896 -0.022182,-0.36726 -0.3955368,-0.615228 -0.7420221,-0.600957 z"
       id="path4091" />
    <path
       d="m 4.1165882,18.682856 -1.0239054,-0.97504 a 0.87506573,0.87506573 0 0 0 -1.262049,0.05785 v 0 a 0.87506573,0.87506573 0 0 0 0.019658,1.174993 l 3.3373819,3.559799 c 0.2128686,0.226349 0.5088636,0.354968 0.8194615,0.354968 h 2.6027306 c 1.3479832,0 2.2466382,-1.123318 2.2466382,-2.246638 0,0 0,0 0,0 V 15.7948"
       stroke="#4d4d4d"
       stroke-linecap="round"
       stroke-linejoin="round"
       class="stroke-000000"
       id="path824"
       style="stroke-width:0.399378;stroke-miterlimit:4;stroke-dasharray:none" />
    <path
       d="m 9.1715254,16.11551 v -0.320707 c 0,-1.283955 1.6849786,-1.283955 1.6849786,0 M 7.4865467,16.11551 v -0.962684 c 0,-1.283954 1.6849787,-1.283954 1.6849787,0 v 0.962684 m -3.3699581,0 v -1.40415 c 0,-1.283952 1.6849794,-1.283952 1.6849794,0 0,0 0,0 0,0 v 1.40415 m -3.3699585,2.567346 v -6.218134 a 0.84248949,0.84248949 0 0 1 0.8424896,-0.842489 v 0 c 0.4650541,0 0.8424895,0.376312 0.8424895,0.841928 v 3.651349"
       stroke="#4d4d4d"
       stroke-linecap="round"
       stroke-linejoin="round"
       class="stroke-000000"
       id="path826"
       style="stroke-width:0.399378;stroke-miterlimit:4;stroke-dasharray:none" />
    <path
       class="st0"
       d="M 10.31407,13.9903 7.5234275,11.199657 c -0.1175009,-0.1175 -0.1175009,-0.323128 0,-0.470003 l 0.4406281,-0.440628 c 0.1175009,-0.117501 0.3231271,-0.117501 0.4700031,0 l 2.1150143,2.115014 4.70003,-4.7000305 c 0.1175,-0.1175006 0.323127,-0.1175006 0.470002,0 l 0.440629,0.4406279 c 0.117501,0.1175008 0.117501,0.3231272 0,0.470003 L 10.784074,13.9903 c -0.146877,0.117501 -0.352503,0.117501 -0.470004,0 z"
       id="check_x5F_mark_1_"
       style="fill:#24c31d;fill-opacity:1;stroke-width:0.440628" />
  </g>
  <g
     aria-label="Track"
     id="text1379"
     style="font-style:normal;font-variant:normal;font-weight:bold;font-stretch:normal;font-size:10.5833px;line-height:1.25;font-family:sans-serif;-inkscape-font-specification:'sans-serif Bold';fill:#4d4d4d;fill-opacity:1;stroke:none;stroke-width:1.59446"
     transform="matrix(0.73625526,0,0,0.73625526,-30.451984,-99.978461)">
    <path
       d="M 48.150896,137.7183 H 45.74795 v 6.20632 h -1.984369 v -6.20632 h -2.402947 v -1.48827 h 6.790262 z"
       style="font-style:normal;font-variant:normal;font-weight:bold;font-stretch:normal;font-family:sans-serif;-inkscape-font-specification:'sans-serif Bold';fill:#4d4d4d;fill-opacity:1;stroke-width:1.59446"
       id="path1401" />
    <path
       d="m 53.447713,139.89387 h -0.165364 q -0.118855,-0.0413 -0.382404,-0.062 -0.263549,-0.0207 -0.439248,-0.0207 -0.397908,0 -0.702798,0.0517 -0.30489,0.0517 -0.656288,0.1757 v 3.88605 h -1.860346 v -5.80324 h 1.860346 v 0.85266 q 0.614947,-0.5271 1.069699,-0.69763 0.454751,-0.1757 0.837155,-0.1757 0.09819,0 0.222208,0.005 0.124023,0.005 0.21704,0.0155 z"
       style="font-style:normal;font-variant:normal;font-weight:bold;font-stretch:normal;font-family:sans-serif;-inkscape-font-specification:'sans-serif Bold';fill:#4d4d4d;fill-opacity:1;stroke-width:1.59446"
       id="path1403" />
    <path
       d="m 58.015896,142.41051 v -1.20923 q -0.377237,0.031 -0.816485,0.0879 -0.439248,0.0517 -0.666624,0.12402 -0.279052,0.0879 -0.428913,0.25839 -0.144694,0.16536 -0.144694,0.43924 0,0.18087 0.03101,0.29456 0.03101,0.11369 0.155029,0.21704 0.118855,0.10335 0.284219,0.15503 0.165364,0.0465 0.516763,0.0465 0.279052,0 0.563271,-0.11369 0.289388,-0.11369 0.506428,-0.29972 z m 0,0.89916 q -0.149861,0.11369 -0.372069,0.27389 -0.222208,0.16019 -0.418578,0.25321 -0.273884,0.12402 -0.568439,0.18087 -0.294555,0.062 -0.645953,0.062 -0.826821,0 -1.384924,-0.51159 -0.558104,-0.5116 -0.558104,-1.30741 0,-0.63562 0.284219,-1.0387 0.28422,-0.40307 0.80615,-0.63562 0.516763,-0.23254 1.281572,-0.33072 0.764808,-0.0982 1.586461,-0.1447 v -0.031 q 0,-0.48059 -0.39274,-0.66146 -0.392739,-0.18603 -1.157548,-0.18603 -0.459919,0 -0.981849,0.16536 -0.52193,0.1602 -0.749306,0.24805 h -0.170532 v -1.40043 q 0.294555,-0.0775 0.956011,-0.18087 0.666624,-0.10852 1.333248,-0.10852 1.586461,0 2.289259,0.49093 0.707965,0.48575 0.707965,1.52961 v 3.94807 h -1.844843 z"
       style="font-style:normal;font-variant:normal;font-weight:bold;font-stretch:normal;font-family:sans-serif;-inkscape-font-specification:'sans-serif Bold';fill:#4d4d4d;fill-opacity:1;stroke-width:1.59446"
       id="path1405" />
    <path
       d="m 64.594284,144.07965 q -0.759641,0 -1.390091,-0.18087 -0.625283,-0.18086 -1.09037,-0.5581 -0.459918,-0.37724 -0.713132,-0.95084 -0.253214,-0.57361 -0.253214,-1.34359 0,-0.81131 0.268717,-1.40042 0.273884,-0.58911 0.759641,-0.97668 0.470254,-0.36691 1.085202,-0.53744 0.614947,-0.17053 1.276403,-0.17053 0.594278,0 1.095537,0.12919 0.50126,0.12919 0.935341,0.3359 v 1.58646 h -0.263549 q -0.10852,-0.093 -0.263549,-0.21704 -0.149861,-0.12403 -0.372069,-0.24288 -0.211873,-0.11369 -0.465087,-0.18604 -0.253213,-0.0775 -0.589109,-0.0775 -0.744138,0 -1.147213,0.47542 -0.397908,0.47026 -0.397908,1.28157 0,0.83716 0.408243,1.27124 0.41341,0.43408 1.167884,0.43408 0.351398,0 0.63045,-0.0775 0.28422,-0.0827 0.470254,-0.19121 0.175699,-0.10335 0.310058,-0.21704 0.134358,-0.11368 0.248046,-0.2222 h 0.263549 v 1.58646 q -0.439248,0.2067 -0.919838,0.32556 -0.475421,0.12402 -1.054196,0.12402 z"
       style="font-style:normal;font-variant:normal;font-weight:bold;font-stretch:normal;font-family:sans-serif;-inkscape-font-specification:'sans-serif Bold';fill:#4d4d4d;fill-opacity:1;stroke-width:1.59446"
       id="path1407" />
    <path
       d="m 73.958024,143.92462 h -2.165236 l -1.627803,-2.52697 -0.506427,0.61495 v 1.91202 h -1.860346 v -8.04083 h 1.860346 v 4.80073 l 2.005039,-2.56314 h 2.144565 l -2.087721,2.50113 z"
       style="font-style:normal;font-variant:normal;font-weight:bold;font-stretch:normal;font-family:sans-serif;-inkscape-font-specification:'sans-serif Bold';fill:#4d4d4d;fill-opacity:1;stroke-width:1.59446"
       id="path1409" />
  </g>
</svg>
