<?xml version="1.0" encoding="UTF-8" standalone="no"?>
<svg
   fill="none"
   stroke-width="1.5"
   viewBox="0 0 24 24"
   version="1.1"
   id="svg828"
   sodipodi:docname="whitelist_dark.svg"
   inkscape:version="1.3.2 (091e20e, 2023-11-25, custom)"
   xmlns:inkscape="http://www.inkscape.org/namespaces/inkscape"
   xmlns:sodipodi="http://sodipodi.sourceforge.net/DTD/sodipodi-0.dtd"
   xmlns="http://www.w3.org/2000/svg"
   xmlns:svg="http://www.w3.org/2000/svg">
  <defs
     id="defs832">
    <inkscape:path-effect
       effect="spiro"
       id="path-effect1318"
       is_visible="true"
       lpeversion="1" />
  </defs>
  <sodipodi:namedview
     id="namedview830"
     pagecolor="#ffffff"
     bordercolor="#666666"
     borderopacity="1.0"
     inkscape:pageshadow="2"
     inkscape:pageopacity="0.0"
     inkscape:pagecheckerboard="0"
     showgrid="false"
     inkscape:zoom="25.853061"
     inkscape:cx="8.7417114"
     inkscape:cy="13.286628"
     inkscape:window-width="1920"
     inkscape:window-height="1137"
     inkscape:window-x="-8"
     inkscape:window-y="-8"
     inkscape:window-maximized="1"
     inkscape:current-layer="svg828"
     inkscape:showpageshadow="2"
     inkscape:deskcolor="#d1d1d1"
     showguides="true">
    <sodipodi:guide
       position="7.138608,25.805165"
       orientation="0,-1"
       id="guide1"
       inkscape:locked="false" />
  </sodipodi:namedview>
  <path
     style="fill:#d43d3d;fill-opacity:0.403226;stroke:#d43d3d;stroke-width:2.23633;stroke-linecap:butt;stroke-linejoin:miter;stroke-miterlimit:4;stroke-dasharray:none;stroke-opacity:1"
     d="M 5.2374706,1.6520706 C 4.5232463,1.7740836 3.8335213,2.0510038 3.245494,2.4743562 2.6574666,2.8977086 2.1732146,3.468498 1.8705293,4.1268179 1.5634457,4.794704 1.4465363,5.5483932 1.5342051,6.2782469 c 0.087669,0.7298536 0.3793387,1.4337709 0.8314622,2.0133885 0.6079966,0.7794451 1.4724842,1.3097724 2.3193971,1.8196086 0.8469128,0.509837 1.7145721,1.032305 2.3349022,1.801971 0.5925439,0.73519 0.917388,1.643969 1.2468664,2.528875 0.3294785,0.884905 0.6875655,1.78697 1.3278536,2.480976 0.7779124,0.843176 1.9315884,1.300874 3.0787324,1.313311 1.147144,0.01244 2.279542,-0.400135 3.209523,-1.071871 1.221851,-0.882557 2.107165,-2.215828 2.460864,-3.680998 0.353699,-1.46517 0.175896,-3.050282 -0.480313,-4.4071963 C 17.301981,7.9152127 16.412865,6.9374318 15.417343,6.1174425 14.421821,5.2974532 13.316271,4.623428 12.218918,3.9457385 11.152219,3.2869799 10.082214,2.6183474 8.9172166,2.1551082 7.7522192,1.6918689 6.4732856,1.4409527 5.2374706,1.6520706 Z"
     id="path1190-6"
     inkscape:original-d="M 5.2374706,1.6520706 C 2.9100293,0.88716101 2.9931353,3.3022576 1.8705293,4.1268179 c -1.12260405,0.8245603 0.330384,2.7769005 0.495138,4.1648175 0.164756,1.3879168 3.1031593,2.4147426 4.6542993,3.6215796 1.551141,1.206837 1.716771,3.340257 2.57472,5.009851 0.8579474,1.669596 4.1924614,0.161316 6.2882554,0.24144 2.095794,0.08012 1.320659,-5.391775 1.980551,-8.0881943 C 18.523389,6.3798893 14.100735,5.656285 12.218918,3.9457385 10.337103,2.2351921 7.5649116,2.4169825 5.2374706,1.6520706 Z"
     inkscape:path-effect="#path-effect1318"
     transform="matrix(0.76367685,0,0,0.76367685,3.120305,6.4521973)" />
  <path
     style="fill:#e5e5e5;fill-opacity:1;stroke:#4d4d4d;stroke-width:0.0243934;stroke-linejoin:round;stroke-miterlimit:4;stroke-dasharray:none;stroke-opacity:1;paint-order:stroke fill markers"
     d="M 8.5180087,11.364969 C 8.02658,11.344524 7.6005648,11.809503 7.662337,12.297823 7.60062,14.593551 7.671169,16.921837 7.5786717,19.198084 7.018143,18.815634 6.621555,18.208547 6.00616,17.90924 5.3382305,17.708673 4.6322794,18.457504 4.908746,19.108801 c 0.518471,0.73914 1.1911433,1.360641 1.7900219,2.034936 0.7838822,0.815569 1.5309163,1.673676 2.3557002,2.446194 0.4782551,0.28558 1.0661739,0.142407 1.5941379,0.192911 0.838026,-0.01562 1.687549,0.05059 2.517948,-0.07714 1.101293,-0.262628 1.949428,-1.357682 1.863422,-2.498506 0.01898,-1.815707 0.05015,-3.633879 -0.01439,-5.448574 -0.01094,-0.601209 -0.733403,-1.024677 -1.257399,-0.712646 -0.484494,0.255644 -0.457241,0.850687 -0.514739,1.313809 -0.131263,-0.07544 -0.06064,-0.333373 -0.09252,-0.471287 -0.02881,-0.515166 0.10895,-1.214521 -0.414115,-1.536017 -0.486139,-0.307582 -1.225451,0.0015 -1.292274,0.589633 -0.08476,0.464328 -0.02551,0.96777 -0.11463,1.415479 -0.09357,-0.693553 0.03081,-1.411877 -0.133211,-2.093539 -0.23048,-0.627025 -1.2196597,-0.720189 -1.5312506,-0.118245 -0.2630111,0.702462 -0.058132,1.483815 -0.1804728,2.200927 -0.1364925,0.0357 -0.03991,-0.257312 -0.080044,-0.325785 -0.045645,-1.321519 0.039608,-2.6608 -0.058407,-3.984974 C 9.3217556,11.625907 8.9048812,11.349035 8.518008,11.36497 Z"
     id="path4091" />
  <path
     d="M 7.5800421,19.176944 6.4367857,18.088249 a 0.97706733,0.97706733 0 0 0 -1.4091591,0.06459 v 0 a 0.97706733,0.97706733 0 0 0 0.021949,1.311956 l 3.7264022,3.974745 c 0.2376815,0.252733 0.568179,0.396345 0.9149816,0.396345 h 2.9061166 c 1.505111,0 2.508517,-1.254257 2.508517,-2.508517 0,0 0,0 0,0 V 15.95224"
     stroke="#4d4d4d"
     stroke-linecap="round"
     stroke-linejoin="round"
     class="stroke-000000"
     id="path824"
     style="stroke-width:0.445931;stroke-miterlimit:4;stroke-dasharray:none;stroke:#d9d9d9;stroke-opacity:1" />
  <path
     d="m 13.224206,16.310337 v -0.35809 c 0,-1.433619 1.881387,-1.433619 1.881387,0 m -3.762775,0.35809 v -1.074899 c 0,-1.433617 1.881388,-1.433617 1.881388,0 v 1.074899 m -3.762776,0 v -1.567824 c 0,-1.433616 1.881388,-1.433616 1.881388,0 0,0 0,0 0,0 v 1.567824 m -3.7627759,2.866607 v -6.942948 a 0.94069386,0.94069386 0 0 1 0.940694,-0.940693 v 0 c 0.5192629,0 0.9406939,0.420177 0.9406939,0.940067 v 4.076967"
     stroke="#4d4d4d"
     stroke-linecap="round"
     stroke-linejoin="round"
     class="stroke-000000"
     id="path826"
     style="stroke-width:0.445931;stroke-miterlimit:4;stroke-dasharray:none;stroke:#d9d9d9;stroke-opacity:1" />
  <path
     class="st0"
     d="M 14.49993,13.937403 11.383998,10.82147 c -0.131197,-0.131197 -0.131197,-0.360793 0,-0.524789 l 0.49199,-0.4919894 c 0.131197,-0.1311975 0.360792,-0.1311975 0.524788,0 l 2.36155,2.3615494 5.247887,-5.2478871 c 0.131196,-0.131197 0.360792,-0.131197 0.524788,0 l 0.49199,0.4919895 c 0.131198,0.1311972 0.131198,0.3607923 0,0.5247887 L 15.02472,13.937403 c -0.163998,0.131197 -0.393592,0.131197 -0.52479,0 z"
     id="check_x5F_mark_1_"
     style="fill:#24c31d;fill-opacity:1;stroke-width:0.49199" />
  <g
     aria-label="Track"
     id="text1379"
     style="font-style:normal;font-variant:normal;font-weight:bold;font-stretch:normal;font-size:10.5833px;line-height:1.25;font-family:sans-serif;-inkscape-font-specification:'sans-serif Bold';fill:#d9d9d9;fill-opacity:1;stroke:none;stroke-width:1.59446"
     transform="matrix(0.73625526,0,0,0.73625526,-30.451984,-99.978461)">
    <path
       d="M 48.150896,137.7183 H 45.74795 v 6.20632 h -1.984369 v -6.20632 h -2.402947 v -1.48827 h 6.790262 z"
       style="font-style:normal;font-variant:normal;font-weight:bold;font-stretch:normal;font-family:sans-serif;-inkscape-font-specification:'sans-serif Bold';fill:#d9d9d9;fill-opacity:1;stroke-width:1.59446"
       id="path1401" />
    <path
       d="m 53.447713,139.89387 h -0.165364 q -0.118855,-0.0413 -0.382404,-0.062 -0.263549,-0.0207 -0.439248,-0.0207 -0.397908,0 -0.702798,0.0517 -0.30489,0.0517 -0.656288,0.1757 v 3.88605 h -1.860346 v -5.80324 h 1.860346 v 0.85266 q 0.614947,-0.5271 1.069699,-0.69763 0.454751,-0.1757 0.837155,-0.1757 0.09819,0 0.222208,0.005 0.124023,0.005 0.21704,0.0155 z"
       style="font-style:normal;font-variant:normal;font-weight:bold;font-stretch:normal;font-family:sans-serif;-inkscape-font-specification:'sans-serif Bold';fill:#d9d9d9;fill-opacity:1;stroke-width:1.59446"
       id="path1403" />
    <path
       d="m 58.015896,142.41051 v -1.20923 q -0.377237,0.031 -0.816485,0.0879 -0.439248,0.0517 -0.666624,0.12402 -0.279052,0.0879 -0.428913,0.25839 -0.144694,0.16536 -0.144694,0.43924 0,0.18087 0.03101,0.29456 0.03101,0.11369 0.155029,0.21704 0.118855,0.10335 0.284219,0.15503 0.165364,0.0465 0.516763,0.0465 0.279052,0 0.563271,-0.11369 0.289388,-0.11369 0.506428,-0.29972 z m 0,0.89916 q -0.149861,0.11369 -0.372069,0.27389 -0.222208,0.16019 -0.418578,0.25321 -0.273884,0.12402 -0.568439,0.18087 -0.294555,0.062 -0.645953,0.062 -0.826821,0 -1.384924,-0.51159 -0.558104,-0.5116 -0.558104,-1.30741 0,-0.63562 0.284219,-1.0387 0.28422,-0.40307 0.80615,-0.63562 0.516763,-0.23254 1.281572,-0.33072 0.764808,-0.0982 1.586461,-0.1447 v -0.031 q 0,-0.48059 -0.39274,-0.66146 -0.392739,-0.18603 -1.157548,-0.18603 -0.459919,0 -0.981849,0.16536 -0.52193,0.1602 -0.749306,0.24805 h -0.170532 v -1.40043 q 0.294555,-0.0775 0.956011,-0.18087 0.666624,-0.10852 1.333248,-0.10852 1.586461,0 2.289259,0.49093 0.707965,0.48575 0.707965,1.52961 v 3.94807 h -1.844843 z"
       style="font-style:normal;font-variant:normal;font-weight:bold;font-stretch:normal;font-family:sans-serif;-inkscape-font-specification:'sans-serif Bold';fill:#d9d9d9;fill-opacity:1;stroke-width:1.59446"
       id="path1405" />
    <path
       d="m 64.594284,144.07965 q -0.759641,0 -1.390091,-0.18087 -0.625283,-0.18086 -1.09037,-0.5581 -0.459918,-0.37724 -0.713132,-0.95084 -0.253214,-0.57361 -0.253214,-1.34359 0,-0.81131 0.268717,-1.40042 0.273884,-0.58911 0.759641,-0.97668 0.470254,-0.36691 1.085202,-0.53744 0.614947,-0.17053 1.276403,-0.17053 0.594278,0 1.095537,0.12919 0.50126,0.12919 0.935341,0.3359 v 1.58646 h -0.263549 q -0.10852,-0.093 -0.263549,-0.21704 -0.149861,-0.12403 -0.372069,-0.24288 -0.211873,-0.11369 -0.465087,-0.18604 -0.253213,-0.0775 -0.589109,-0.0775 -0.744138,0 -1.147213,0.47542 -0.397908,0.47026 -0.397908,1.28157 0,0.83716 0.408243,1.27124 0.41341,0.43408 1.167884,0.43408 0.351398,0 0.63045,-0.0775 0.28422,-0.0827 0.470254,-0.19121 0.175699,-0.10335 0.310058,-0.21704 0.134358,-0.11368 0.248046,-0.2222 h 0.263549 v 1.58646 q -0.439248,0.2067 -0.919838,0.32556 -0.475421,0.12402 -1.054196,0.12402 z"
       style="font-style:normal;font-variant:normal;font-weight:bold;font-stretch:normal;font-family:sans-serif;-inkscape-font-specification:'sans-serif Bold';fill:#d9d9d9;fill-opacity:1;stroke-width:1.59446"
       id="path1407" />
    <path
       d="m 73.958024,143.92462 h -2.165236 l -1.627803,-2.52697 -0.506427,0.61495 v 1.91202 h -1.860346 v -8.04083 h 1.860346 v 4.80073 l 2.005039,-2.56314 h 2.144565 l -2.087721,2.50113 z"
       style="font-style:normal;font-variant:normal;font-weight:bold;font-stretch:normal;font-family:sans-serif;-inkscape-font-specification:'sans-serif Bold';fill:#d9d9d9;fill-opacity:1;stroke-width:1.59446"
       id="path1409" />
  </g>
</svg>
