<?xml version="1.0" encoding="UTF-8" standalone="no"?>
<!-- Generator: Adobe Illustrator 21.0.2, SVG Export Plug-In . SVG Version: 6.00 Build 0)  -->

<svg
   version="1.1"
   id="Layer_1"
   x="0px"
   y="0px"
   viewBox="0 0 680.3 680.3"
   style="enable-background:new 0 0 680.3 680.3;"
   xml:space="preserve"
   sodipodi:docname="zback_dark.svg"
   inkscape:version="1.2.2 (732a01da63, 2022-12-09)"
   xmlns:inkscape="http://www.inkscape.org/namespaces/inkscape"
   xmlns:sodipodi="http://sodipodi.sourceforge.net/DTD/sodipodi-0.dtd"
   xmlns="http://www.w3.org/2000/svg"
   xmlns:svg="http://www.w3.org/2000/svg"><defs
   id="defs23" /><sodipodi:namedview
   id="namedview21"
   pagecolor="#ffffff"
   bordercolor="#000000"
   borderopacity="0.25"
   inkscape:showpageshadow="2"
   inkscape:pageopacity="0.0"
   inkscape:pagecheckerboard="0"
   inkscape:deskcolor="#d1d1d1"
   showgrid="false"
   inkscape:zoom="0.34690578"
   inkscape:cx="219.07966"
   inkscape:cy="340.14999"
   inkscape:window-width="1920"
   inkscape:window-height="1137"
   inkscape:window-x="-8"
   inkscape:window-y="-8"
   inkscape:window-maximized="1"
   inkscape:current-layer="Layer_1" />
<style
   type="text/css"
   id="style2">
	.st0{fill:#4D4D4E;}
	.st1{fill:none;stroke:#ED2024;stroke-width:100;stroke-miterlimit:10;}
	.st2{fill:#ED2024;}
	.st3{fill:none;stroke:#ED2024;stroke-width:38;stroke-linecap:round;stroke-miterlimit:10;}
</style>
<g
   id="g6"
   style="fill:#f0f0f0;fill-opacity:1">
	<path
   class="st0"
   d="M258.8,262.1c0,4.4-0.3,8.2-0.9,11.3c-0.6,3.1-1.4,5.6-2.4,7.4c-1,1.8-2.3,3.1-3.9,3.8c-1.6,0.7-3.4,1-5.4,1   H71.1c-5.4,0-9.6-1.4-12.5-4.1c-2.9-2.7-4.4-7.2-4.4-13.5v-10.5c0-2.7,0.2-5.2,0.5-7.4c0.3-2.2,0.9-4.3,1.8-6.4   c0.9-2.1,2.1-4.1,3.6-6.3c1.5-2.1,3.5-4.5,5.9-7.1l100.3-117.8H71.4c-3.8,0-6.9-1.8-9.2-5.5c-2.3-3.7-3.5-9.5-3.5-17.6   c0-4.4,0.2-8.1,0.8-11.1c0.5-3,1.2-5.3,2.3-7.1c1-1.7,2.3-3,3.9-3.8c1.6-0.8,3.5-1.1,5.7-1.1H235c2.8,0,5.2,0.2,7.2,0.7   c2,0.5,3.7,1.3,5,2.5c1.3,1.2,2.3,2.9,3,5c0.7,2.1,1.1,4.8,1.1,8v11.2c0,3-0.2,5.7-0.6,8.1c-0.4,2.4-1,4.6-1.8,6.7   c-0.8,2.1-2,4.3-3.5,6.4c-1.5,2.1-3.3,4.4-5.3,6.9l-99.7,117.6h105.7c1.8,0,3.5,0.3,5.1,0.9c1.6,0.6,3,1.8,4.1,3.4   c1.1,1.7,2,4,2.6,7C258.5,253.8,258.8,257.5,258.8,262.1z"
   id="path4"
   style="fill:#f0f0f0;fill-opacity:1" />
</g>
<g
   id="g16">
	<g
   id="g14">
		<line
   class="st1"
   x1="310.2"
   y1="395.9"
   x2="569"
   y2="395.9"
   id="line8" />
		<g
   id="g12">
			<polygon
   class="st2"
   points="345.2,515.6 138,395.9 345.2,276.2    "
   id="polygon10" />
		</g>
	</g>
</g>
<line
   class="st3"
   x1="557"
   y1="181.9"
   x2="557"
   y2="609.9"
   id="line18" />
</svg>
