<?xml version="1.0" encoding="UTF-8" standalone="no"?>
<svg
   viewBox="0 0 32 32"
   xml:space="preserve"
   version="1.1"
   id="svg2"
   sodipodi:docname="zoom_rect_dark.svg"
   inkscape:version="1.3.2 (091e20e, 2023-11-25, custom)"
   xmlns:inkscape="http://www.inkscape.org/namespaces/inkscape"
   xmlns:sodipodi="http://sodipodi.sourceforge.net/DTD/sodipodi-0.dtd"
   xmlns="http://www.w3.org/2000/svg"
   xmlns:svg="http://www.w3.org/2000/svg"><defs
     id="defs2" /><sodipodi:namedview
     id="namedview2"
     pagecolor="#ffffff"
     bordercolor="#000000"
     borderopacity="0.25"
     inkscape:showpageshadow="2"
     inkscape:pageopacity="0.0"
     inkscape:pagecheckerboard="0"
     inkscape:deskcolor="#d1d1d1"
     inkscape:zoom="13.859375"
     inkscape:cx="11.075536"
     inkscape:cy="22.403608"
     inkscape:window-width="1920"
     inkscape:window-height="1129"
     inkscape:window-x="1912"
     inkscape:window-y="-8"
     inkscape:window-maximized="1"
     inkscape:current-layer="svg2" /><path
     d="m 30.263308,27.961126 -6.199442,-6.837194 c 1.085823,-1.631991 1.664448,-3.548795 1.663,-5.509 0,-5.514 -4.486,-9.9999997 -10,-9.9999997 -5.514,0 -9.9999994,4.4859997 -9.9999994,9.9999997 0,5.514 4.4859994,10 9.9999994,10 1.960205,0.0014 3.877009,-0.577177 5.509,-1.663 l 6.199442,6.837194 c 1.885043,1.951728 4.779729,-0.942958 2.828,-2.828 z M 8.7268666,15.614932 c 0,-3.86 3.1399994,-6.9999999 6.9999994,-6.9999999 3.86,0 7,3.1399999 7,6.9999999 0,3.86 -3.14,7 -7,7 -3.86,0 -6.9999994,-3.14 -6.9999994,-7 z"
     fill="#4d4d4d"
     class="fill-000000"
     id="path1"
     sodipodi:nodetypes="cccssccccsssss"
     style="fill:#d9d9d9;fill-opacity:1" /><rect
     style="fill:none;stroke:#ff0000;stroke-width:2.70441;stroke-linejoin:round;stroke-dasharray:5.40882, 2.70441;stroke-dashoffset:0;stroke-opacity:1"
     id="rect2"
     width="27.295589"
     height="27.295588"
     x="1.352205"
     y="1.352205" /></svg>
