<?xml version="1.0" encoding="UTF-8" standalone="no"?>
<svg
   xmlns:dc="http://purl.org/dc/elements/1.1/"
   xmlns:cc="http://creativecommons.org/ns#"
   xmlns:rdf="http://www.w3.org/1999/02/22-rdf-syntax-ns#"
   xmlns:svg="http://www.w3.org/2000/svg"
   xmlns="http://www.w3.org/2000/svg"
   xmlns:sodipodi="http://sodipodi.sourceforge.net/DTD/sodipodi-0.dtd"
   xmlns:inkscape="http://www.inkscape.org/namespaces/inkscape"
   version="1.1"
   id="Layer_1"
   x="0px"
   y="0px"
   viewBox="0 0 680.3 680.3"
   style="enable-background:new 0 0 680.3 680.3;"
   xml:space="preserve"
   sodipodi:docname="cancel.svg"
   inkscape:version="1.0.2-2 (e86c870879, 2021-01-15)"><metadata
   id="metadata857"><rdf:RDF><cc:Work
       rdf:about=""><dc:format>image/svg+xml</dc:format><dc:type
         rdf:resource="http://purl.org/dc/dcmitype/StillImage" /><dc:title></dc:title></cc:Work></rdf:RDF></metadata><defs
   id="defs855" /><sodipodi:namedview
   pagecolor="#ffffff"
   bordercolor="#666666"
   borderopacity="1"
   objecttolerance="10"
   gridtolerance="10"
   guidetolerance="10"
   inkscape:pageopacity="0"
   inkscape:pageshadow="2"
   inkscape:window-width="1920"
   inkscape:window-height="1017"
   id="namedview853"
   showgrid="false"
   inkscape:zoom="1.0039688"
   inkscape:cx="294.82987"
   inkscape:cy="340.15"
   inkscape:window-x="-8"
   inkscape:window-y="-8"
   inkscape:window-maximized="1"
   inkscape:current-layer="Layer_1" />
<style
   type="text/css"
   id="style846">
	.st0{fill:#2B9245;}
</style>

<g
   aria-label="X"
   transform="scale(1.0629879,0.94074448)"
   id="text861"
   style="font-style:normal;font-weight:normal;font-size:781.099px;line-height:1.25;font-family:sans-serif;fill:#ff0000;fill-opacity:1;stroke:none;stroke-width:19.5275"><path
     d="m 196.57149,240.60373 -5.33954,-13.34886 q -4.95815,-9.1535 -16.40003,-36.61401 -19.4512,-45.38612 -28.6047,-62.93034 -8.77211,-17.92561 -17.54422,-27.07912 -5.33954,-4.195352 -12.58607,-8.390708 -9.5349,-6.102336 -9.5349,-8.772108 0,-2.669772 3.43257,-5.339544 6.86513,-6.865128 36.61401,-13.730256 29.74889,-7.246524 53.77684,-7.246524 32.41866,0 55.30242,16.400028 23.26515,16.018632 47.6745,56.065212 35.85122,59.11638 67.50709,149.88863 16.40003,-19.4512 30.13028,-39.28379 13.73026,-20.21399 29.74889,-46.53031 20.21399,-31.65587 24.79074,-38.521 4.95815,-7.24652 12.20467,-16.40003 7.62792,-9.5349 17.92561,-20.97678 16.01864,-14.49304 40.42798,-24.40934 24.79074,-9.916296 43.86054,-9.916296 17.92561,0 17.92561,15.637236 0,10.29769 -16.01863,36.99541 -15.63724,26.69772 -49.20008,72.08384 -33.56285,45.00473 -88.86527,115.1816 -0.76279,1.14418 -5.33955,6.86512 -4.19535,5.72094 -9.5349,12.58607 -5.33954,6.48373 -9.1535,11.06049 19.4512,44.24193 36.61402,68.65127 12.20467,18.30701 25.17213,33.94425 12.96747,15.25584 28.22331,29.36749 17.54421,17.92561 39.66518,31.27447 8.39071,6.10234 8.39071,9.5349 0,4.95815 -6.10233,9.9163 -12.20468,11.82327 -30.89308,22.50236 -18.6884,10.29769 -36.61402,16.01863 -17.54421,5.33955 -33.18145,5.33955 -48.81868,0 -89.24666,-37.37681 -14.49305,-14.87444 -22.88376,-27.07912 -8.39071,-12.58606 -22.12097,-39.66518 l -23.64655,25.17214 q -65.21871,69.79546 -124.71649,118.23275 -59.497775,48.81869 -78.948971,48.81869 -10.679088,0 -17.925612,-11.06048 -7.246524,-11.06049 -7.246524,-27.84191 0,-21.73957 8.009316,-43.86054 8.009316,-22.12097 19.451196,-33.56285 6.865128,-6.86513 38.139595,-28.98609 57.9722,-36.99541 99.16296,-74.75362 18.68841,-16.40003 49.96288,-50.72567 L 208.39477,267.30145 Z"
     style="font-style:normal;font-variant:normal;font-weight:normal;font-stretch:normal;font-family:Forte;-inkscape-font-specification:Forte;fill:#ff0000;stroke-width:19.5275"
     id="path863" /></g></svg>
