<?xml version="1.0" encoding="utf-8"?>
<!-- Generator: Adobe Illustrator 21.0.2, SVG Export Plug-In . SVG Version: 6.00 Build 0)  -->
<svg version="1.1" id="Layer_1" xmlns="http://www.w3.org/2000/svg" xmlns:xlink="http://www.w3.org/1999/xlink" x="0px" y="0px"
	 viewBox="0 0 680.3 680.3" style="enable-background:new 0 0 680.3 680.3;" xml:space="preserve">
<style type="text/css">
	.st0{fill:#4D4D4E;stroke:#4D4D4E;stroke-miterlimit:10;}
	.st1{fill:#4D4D4E;}
	.st2{enable-background:new    ;}
</style>
<g>
	<g>
		<path class="st0" d="M504.7,633.1c59.5-84.4,66.9-195.4,19.2-284.3c-53.1-98.8-164.8-152.7-276.9-132.3l-3.8-102.2
			c21.8-2.1,210-18.1,323,120.8c22.3,27.2,88.7,109,70,218.8C616.7,569.2,518.6,625.5,504.7,633.1z"/>
	</g>
	<g>
		<g>
			<polygon class="st1" points="53.5,162.8 334,279.9 267.6,162.8 334,45.7 			"/>
		</g>
	</g>
	<g class="st2">
		<path class="st1" d="M188.5,515c-9,4.1-26,7.8-45.3,7.8c-52.7,0-86.3-33-86.3-85.5c0-48.7,32.7-88.6,93.3-88.6
			c13.3,0,28,2.4,38.7,6.5l-8,38.5c-6-2.7-15-5.1-28.3-5.1c-26.7,0-44,19.4-43.7,46.7c0,30.7,20,46.7,44.7,46.7c12,0,21.3-2,29-5.4
			L188.5,515z"/>
		<path class="st1" d="M335.1,515c-9,4.1-26,7.8-45.3,7.8c-52.7,0-86.3-33-86.3-85.5c0-48.7,32.7-88.6,93.3-88.6
			c13.3,0,28,2.4,38.7,6.5l-8,38.5c-6-2.7-15-5.1-28.3-5.1c-26.7,0-44,19.4-43.7,46.7c0,30.7,20,46.7,44.7,46.7c12,0,21.3-2,29-5.4
			L335.1,515z"/>
		<path class="st1" d="M500.4,478.6c0,16,0.7,31.3,2.3,40.5h-45.7l-3-16.7h-1c-10.7,13.3-27.3,20.4-46.7,20.4
			c-33,0-52.7-24.5-52.7-51.1c0-43.3,38-64,95.7-63.7v-2.4c0-8.9-4.7-21.5-29.7-21.5c-16.7,0-34.3,5.8-45,12.6l-9.3-33.4
			c11.3-6.5,33.7-14.6,63.3-14.6c54.3,0,71.7,32.7,71.7,71.9V478.6z M451.1,440.4c-26.7-0.3-47.3,6.1-47.3,26.2
			c0,13.3,8.7,19.8,20,19.8c12.7,0,23-8.5,26.3-19.1c0.7-2.7,1-5.8,1-8.9V440.4z"/>
	</g>
</g>
</svg>
