<?xml version="1.0" encoding="UTF-8" standalone="no"?>
<svg
   viewBox="0 0 36 36"
   xml:space="preserve"
   enable-background="new 0 0 36 36"
   version="1.1"
   id="svg830"
   sodipodi:docname="backspace.svg"
   inkscape:version="1.1.2 (b8e25be8, 2022-02-05)"
   xmlns:inkscape="http://www.inkscape.org/namespaces/inkscape"
   xmlns:sodipodi="http://sodipodi.sourceforge.net/DTD/sodipodi-0.dtd"
   xmlns="http://www.w3.org/2000/svg"
   xmlns:svg="http://www.w3.org/2000/svg"><defs
     id="defs834" /><sodipodi:namedview
     id="namedview832"
     pagecolor="#ffffff"
     bordercolor="#666666"
     borderopacity="1.0"
     inkscape:pageshadow="2"
     inkscape:pageopacity="0.0"
     inkscape:pagecheckerboard="0"
     showgrid="false"
     inkscape:zoom="19.527778"
     inkscape:cx="18"
     inkscape:cy="18"
     inkscape:window-width="1312"
     inkscape:window-height="925"
     inkscape:window-x="0"
     inkscape:window-y="25"
     inkscape:window-maximized="0"
     inkscape:current-layer="svg830" /><g
     id="icons"
     style="stroke-width:2.26772;stroke-miterlimit:4;stroke-dasharray:none"
     transform="translate(0.07207084)"><g
       id="backspace_2_"
       style="stroke-width:2.26772;stroke-miterlimit:4;stroke-dasharray:none"><path
         d="m 26.2,23.1 -0.7,0.7 c -0.3,0.3 -0.8,0.3 -1.1,0 l -4,-4 -4,4 c -0.3,0.3 -0.8,0.3 -1.1,0 l -0.7,-0.7 c -0.3,-0.3 -0.3,-0.8 0,-1.1 l 4,-4 -4,-4 c -0.3,-0.3 -0.3,-0.8 0,-1.1 l 0.7,-0.7 c 0.3,-0.3 0.8,-0.3 1.1,0 l 4,4 4,-4 c 0.3,-0.3 0.8,-0.3 1.1,0 l 0.7,0.7 c 0.3,0.3 0.3,0.8 0,1.1 l -4,4 4,4 c 0.3,0.3 0.3,0.8 0,1.1 z"
         fill="#4d4d4d"
         class="fill-000000"
         id="path824"
         style="stroke-width:2.26772;stroke-miterlimit:4;stroke-dasharray:none" /><path
         d="M 30.5,6.7 H 11.6 c -0.9,0 -1.5,0.4 -2,1.1 l -6.5,9.8 c -0.2,0.3 -0.2,0.6 0,0.8 l 6.5,9.8 c 0.5,0.6 1.1,1.1 2,1.1 h 18.8 c 1.4,0 2.5,-1.1 2.5,-2.5 V 9.2 C 33,7.8 31.9,6.7 30.5,6.7 Z"
         fill="none"
         stroke="#4d4d4d"
         stroke-width="2.0101"
         stroke-linejoin="round"
         stroke-miterlimit="10"
         class="stroke-222a30"
         id="path826"
         style="stroke-width:2.26772;stroke-miterlimit:4;stroke-dasharray:none" /></g></g></svg>
