<?xml version="1.0" encoding="UTF-8" standalone="no"?>
<svg
   class="icon icon-tabler icon-tabler-square-root"
   fill="none"
   stroke="#000000"
   stroke-linecap="round"
   stroke-linejoin="round"
   stroke-width="2"
   viewBox="0 0 24 24"
   version="1.1"
   id="svg6"
   sodipodi:docname="ln.svg"
   inkscape:version="1.1.2 (b8e25be8, 2022-02-05)"
   xmlns:inkscape="http://www.inkscape.org/namespaces/inkscape"
   xmlns:sodipodi="http://sodipodi.sourceforge.net/DTD/sodipodi-0.dtd"
   xmlns="http://www.w3.org/2000/svg"
   xmlns:svg="http://www.w3.org/2000/svg">
  <defs
     id="defs10">
    <inkscape:path-effect
       effect="spiro"
       id="path-effect2536"
       is_visible="true"
       lpeversion="1" />
    <inkscape:path-effect
       effect="spiro"
       id="path-effect2392"
       is_visible="true"
       lpeversion="1" />
    <pattern
       id="EMFhbasepattern"
       patternUnits="userSpaceOnUse"
       width="6"
       height="6"
       x="0"
       y="0" />
    <pattern
       id="EMFhbasepattern-1"
       patternUnits="userSpaceOnUse"
       width="6"
       height="6"
       x="0"
       y="0" />
    <pattern
       id="EMFhbasepattern-12"
       patternUnits="userSpaceOnUse"
       width="6"
       height="6"
       x="0"
       y="0" />
    <pattern
       id="EMFhbasepattern-3"
       patternUnits="userSpaceOnUse"
       width="6"
       height="6"
       x="0"
       y="0" />
    <pattern
       id="EMFhbasepattern-7"
       patternUnits="userSpaceOnUse"
       width="6"
       height="6"
       x="0"
       y="0" />
    <pattern
       id="EMFhbasepattern-9"
       patternUnits="userSpaceOnUse"
       width="6"
       height="6"
       x="0"
       y="0" />
  </defs>
  <sodipodi:namedview
     id="namedview8"
     pagecolor="#ffffff"
     bordercolor="#666666"
     borderopacity="1.0"
     inkscape:pageshadow="2"
     inkscape:pageopacity="0.0"
     inkscape:pagecheckerboard="0"
     showgrid="false"
     inkscape:zoom="17.265274"
     inkscape:cx="9.5277955"
     inkscape:cy="15.03017"
     inkscape:window-width="1296"
     inkscape:window-height="917"
     inkscape:window-x="0"
     inkscape:window-y="25"
     inkscape:window-maximized="0"
     inkscape:current-layer="svg6"
     showguides="true"
     inkscape:guide-bbox="true">
    <sodipodi:guide
       position="9.8875313,4.5669292"
       orientation="0,-1"
       id="guide831" />
  </sodipodi:namedview>
  <g
     aria-label="ln "
     id="text841"
     style="font-size:22.533px;line-height:125%;font-family:'Cambria Math';letter-spacing:0px;word-spacing:0px;fill:#4d4d4d;stroke:#4d4d4d;stroke-width:0.892481;stroke-miterlimit:4;stroke-dasharray:none;stroke-opacity:1"
     transform="matrix(0.88394473,0,0,0.81154462,1.7427835,2.6361339)">
    <path
       d="m 6.3117371,17.121637 q 0,0.94621 0.08802,1.320293 0.088019,0.363081 0.3300732,0.561125 0.2530562,0.187041 0.8141807,0.330073 v 0.53912 H 3.1760412 v -0.53912 q 0.5501221,-0.143032 0.7591685,-0.297066 0.2200488,-0.154034 0.3080684,-0.36308 0.099022,-0.220049 0.1320293,-0.58313 0.04401,-0.374083 0.04401,-0.968215 V 7.9125934 q 0,-1.0562344 -0.022005,-1.4743272 Q 4.3863098,6.0201734 4.3092927,5.7341099 4.2432781,5.437044 4.1112488,5.2720073 3.9902219,5.1069707 3.7701731,5.0079487 3.5611267,4.9089268 3.0000021,4.8099048 V 4.2377778 L 5.6515906,4.1277534 h 0.6601465 z"
       style="font-size:22.533px;stroke:#4d4d4d;stroke-width:0.892481;stroke-miterlimit:4;stroke-dasharray:none;stroke-opacity:1"
       id="path847" />
    <path
       d="m 20.207821,19.872248 h -4.334962 v -0.53912 q 0.429095,-0.132029 0.616137,-0.231051 0.187041,-0.09902 0.308068,-0.275061 0.13203,-0.176039 0.198044,-0.53912 0.07702,-0.374083 0.07702,-1.122249 v -2.88264 q 0,-0.770171 -0.04401,-1.39731 -0.04401,-0.627139 -0.154035,-1.023227 -0.09902,-0.40709 -0.253056,-0.627139 -0.143032,-0.231051 -0.352078,-0.385086 -0.198044,-0.165036 -0.462102,-0.253056 -0.264059,-0.09902 -0.693154,-0.09902 -0.429096,0 -0.814181,0.176039 -0.385085,0.165037 -0.847188,0.58313 -0.462103,0.418093 -0.671149,0.825183 -0.209046,0.40709 -0.209046,0.935207 v 4.103911 q 0,0.94621 0.08802,1.320293 0.08802,0.363081 0.330073,0.561125 0.253057,0.187041 0.814181,0.330073 v 0.53912 H 9.4914429 v -0.53912 q 0.4290952,-0.132029 0.6051341,-0.231051 0.187042,-0.09902 0.308069,-0.275061 0.132029,-0.176039 0.198044,-0.53912 0.07702,-0.363081 0.07702,-1.133251 V 12.35758 q 0,-0.704156 -0.02201,-1.133252 -0.02201,-0.429095 -0.154034,-0.682151 -0.13203,-0.264059 -0.407091,-0.385085 Q 9.8325186,10.025062 9.3374087,9.9370427 V 9.3539133 L 11.91198,9.2548913 h 0.671149 l -0.121027,1.7933977 0.154034,0.04401 q 0.814181,-0.825183 1.309291,-1.1772612 0.506112,-0.3520781 1.012225,-0.5391196 0.517114,-0.198044 1.089241,-0.198044 0.594132,0 1.056235,0.1430317 0.473105,0.1320293 0.825183,0.4180928 0.36308,0.2860633 0.594132,0.7151583 0.231051,0.418093 0.341075,1.012225 0.121027,0.594132 0.121027,1.507335 v 4.14792 q 0,0.759169 0.04401,1.100244 0.04401,0.341076 0.154034,0.528118 0.110025,0.187041 0.319071,0.31907 0.209046,0.121027 0.726161,0.264059 z"
       style="font-size:22.533px;stroke:#4d4d4d;stroke-width:0.892481;stroke-miterlimit:4;stroke-dasharray:none;stroke-opacity:1"
       id="path849" />
  </g>
</svg>
