<?xml version="1.0" encoding="UTF-8" standalone="no"?>
<svg
   class="icon icon-tabler icon-tabler-square-root"
   fill="none"
   stroke="#000000"
   stroke-linecap="round"
   stroke-linejoin="round"
   stroke-width="2"
   viewBox="0 0 24 24"
   version="1.1"
   id="svg6"
   sodipodi:docname="log10.svg"
   inkscape:version="1.1.2 (b8e25be8, 2022-02-05)"
   xmlns:inkscape="http://www.inkscape.org/namespaces/inkscape"
   xmlns:sodipodi="http://sodipodi.sourceforge.net/DTD/sodipodi-0.dtd"
   xmlns="http://www.w3.org/2000/svg"
   xmlns:svg="http://www.w3.org/2000/svg">
  <defs
     id="defs10">
    <inkscape:path-effect
       effect="spiro"
       id="path-effect2536"
       is_visible="true"
       lpeversion="1" />
    <inkscape:path-effect
       effect="spiro"
       id="path-effect2392"
       is_visible="true"
       lpeversion="1" />
    <pattern
       id="EMFhbasepattern"
       patternUnits="userSpaceOnUse"
       width="6"
       height="6"
       x="0"
       y="0" />
    <pattern
       id="EMFhbasepattern-1"
       patternUnits="userSpaceOnUse"
       width="6"
       height="6"
       x="0"
       y="0" />
    <pattern
       id="EMFhbasepattern-12"
       patternUnits="userSpaceOnUse"
       width="6"
       height="6"
       x="0"
       y="0" />
    <pattern
       id="EMFhbasepattern-3"
       patternUnits="userSpaceOnUse"
       width="6"
       height="6"
       x="0"
       y="0" />
    <pattern
       id="EMFhbasepattern-7"
       patternUnits="userSpaceOnUse"
       width="6"
       height="6"
       x="0"
       y="0" />
  </defs>
  <sodipodi:namedview
     id="namedview8"
     pagecolor="#ffffff"
     bordercolor="#666666"
     borderopacity="1.0"
     inkscape:pageshadow="2"
     inkscape:pageopacity="0.0"
     inkscape:pagecheckerboard="0"
     showgrid="false"
     inkscape:zoom="18.400837"
     inkscape:cx="7.6898676"
     inkscape:cy="13.776547"
     inkscape:window-width="1680"
     inkscape:window-height="917"
     inkscape:window-x="0"
     inkscape:window-y="25"
     inkscape:window-maximized="1"
     inkscape:current-layer="svg6"
     showguides="true"
     inkscape:guide-bbox="true">
    <sodipodi:guide
       position="-4.8910819,4.56693"
       orientation="0,1"
       id="guide843"
       inkscape:label=""
       inkscape:locked="false"
       inkscape:color="rgb(0,0,255)" />
  </sodipodi:namedview>
  <g
     aria-label="log "
     id="text1290"
     style="font-size:13.5719px;line-height:125%;font-family:'Cambria Math';letter-spacing:0px;word-spacing:0px;fill:#f0f0f0;stroke:#f0f0f0;stroke-width:0.572639;stroke-miterlimit:4;stroke-dasharray:none;stroke-opacity:1"
     transform="matrix(1.3170711,0,0,1.3230141,-0.5501388,1.6741298)">
    <path
       d="m 2.9946934,11.098202 q 0,0.569914 0.053015,0.795229 0.053015,0.218688 0.1988072,0.337972 0.1524188,0.112658 0.4903909,0.198807 v 0.324719 H 1.1060256 V 12.43021 q 0.3313452,-0.08615 0.4572564,-0.178926 0.1325381,-0.09278 0.1855533,-0.218688 0.059642,-0.132538 0.079523,-0.351226 0.026508,-0.225315 0.026508,-0.583168 V 5.5514834 q 0,-0.6361828 -0.013254,-0.8880052 Q 1.8349851,4.4116559 1.7885968,4.2393563 1.7488353,4.0604299 1.6693125,3.9610263 1.5964165,3.8616228 1.4638785,3.8019806 1.3379673,3.7423385 0.99999514,3.6826964 V 3.3380973 L 2.5970791,3.2718283 h 0.3976143 z"
       style="font-size:13.5719px;stroke:#f0f0f0;stroke-width:0.572639;stroke-miterlimit:4;stroke-dasharray:none;stroke-opacity:1"
       id="path5552" />
    <path
       d="m 7.7925722,12.860959 q -1.3783961,0 -2.1073556,-0.808482 Q 4.962884,11.237367 4.962884,9.6469104 4.962884,8.5534712 5.3406176,7.798004 5.724978,7.0425369 6.3876685,6.6780572 7.0503589,6.3069505 7.8986027,6.3069505 q 1.4181575,0 2.1471173,0.8283631 0.728959,0.8217361 0.728959,2.3658049 0,1.1000665 -0.36448,1.8555335 -0.364479,0.755467 -1.0337966,1.1332 -0.6693174,0.371107 -1.5838302,0.371107 z M 6.2153689,9.5077454 q 0,1.3651426 0.4307488,2.1007286 0.4373757,0.72896 1.2458581,0.72896 0.4440026,0 0.7554671,-0.212061 0.3114645,-0.218688 0.5036447,-0.583168 0.1988072,-0.36448 0.2849569,-0.841617 0.08615,-0.483764 0.08615,-1.0072893 0,-0.9741549 -0.2186879,-1.6169647 Q 9.0914455,7.4335243 8.7203388,7.1353136 8.3492322,6.830476 7.8720951,6.830476 q -0.8018555,0 -1.2326043,0.695825 -0.4241219,0.6958249 -0.4241219,1.9814444 z"
       style="font-size:13.5719px;stroke:#f0f0f0;stroke-width:0.572639;stroke-miterlimit:4;stroke-dasharray:none;stroke-opacity:1"
       id="path5554" />
    <path
       d="m 18.057648,7.0889253 -1.225978,-0.046388 -0.05964,0.072896 q 0.205434,0.205434 0.324718,0.5632869 0.119285,0.3512259 0.119285,0.762094 0,1.0801854 -0.669318,1.6699798 -0.66269,0.583167 -1.888667,0.583167 -0.550034,0 -0.947648,-0.139165 -0.503645,0.384361 -0.503645,0.755467 0,0.245196 0.09278,0.371107 0.0994,0.125911 0.318092,0.178926 0.225314,0.05302 0.675944,0.05302 h 1.590457 q 0.702452,0 1.146454,0.218688 0.444003,0.218687 0.629556,0.589794 0.19218,0.36448 0.19218,0.854871 0,0.622929 -0.357852,1.106693 -0.357853,0.490391 -1.033797,0.762094 -0.675945,0.271703 -1.577204,0.271703 -0.669317,0 -1.225977,-0.07952 -0.550033,-0.07952 -0.947647,-0.271703 -0.390988,-0.185553 -0.609676,-0.497018 -0.212061,-0.304837 -0.212061,-0.768721 0,-0.417495 0.27833,-0.762094 0.27833,-0.337972 0.788602,-0.596421 -0.311464,-0.125911 -0.490391,-0.371107 -0.178926,-0.245195 -0.178926,-0.576541 0,-0.377733 0.212061,-0.689198 0.212061,-0.318091 0.74884,-0.722332 Q 12.769383,10.104174 12.51756,9.6270371 12.272365,9.1499 12.272365,8.5402247 q 0,-0.5699137 0.185553,-0.9874087 0.19218,-0.4241219 0.523526,-0.695825 0.337972,-0.27833 0.795228,-0.4108681 0.457257,-0.139165 0.987409,-0.139165 0.477137,0 0.947647,0.1126574 h 2.345925 z m -4.599072,1.3452616 q 0,0.828363 0.337972,1.2789925 0.337972,0.4506296 0.974155,0.4506296 0.337972,0 0.576541,-0.125911 0.238568,-0.1325383 0.38436,-0.3578531 0.152419,-0.2253147 0.218688,-0.5168985 0.0729,-0.2982107 0.0729,-0.6229291 0,-0.5831676 -0.165673,-0.9741549 Q 15.691843,7.175075 15.406886,6.9961486 15.121929,6.8105953 14.750822,6.8105953 q -0.629556,0 -0.960901,0.417495 -0.331345,0.4174949 -0.331345,1.2060966 z m 0.165672,4.4267721 q -0.337972,0.251822 -0.510271,0.530152 -0.165673,0.284957 -0.165673,0.64281 0,0.596422 0.47051,0.874752 0.477138,0.284956 1.451292,0.284956 0.596422,0 1.020544,-0.159045 0.430749,-0.159046 0.656063,-0.457257 0.225315,-0.29821 0.225315,-0.695825 0,-0.185553 -0.04639,-0.364479 -0.04639,-0.1723 -0.178927,-0.311465 -0.125911,-0.139165 -0.364479,-0.225315 -0.238569,-0.07952 -0.622929,-0.07952 h -0.987409 q -0.53678,0 -0.947648,-0.03976 z"
       style="font-size:13.5719px;stroke:#f0f0f0;stroke-width:0.572639;stroke-miterlimit:4;stroke-dasharray:none;stroke-opacity:1"
       id="path5556" />
  </g>
</svg>
