<?xml version="1.0" encoding="UTF-8" standalone="no"?>
<svg
   class="icon icon-tabler icon-tabler-square-root"
   fill="none"
   stroke="#000000"
   stroke-linecap="round"
   stroke-linejoin="round"
   stroke-width="2"
   viewBox="0 0 24 24"
   version="1.1"
   id="svg6"
   sodipodi:docname="pow.svg"
   inkscape:version="1.1.2 (b8e25be8, 2022-02-05)"
   xmlns:inkscape="http://www.inkscape.org/namespaces/inkscape"
   xmlns:sodipodi="http://sodipodi.sourceforge.net/DTD/sodipodi-0.dtd"
   xmlns="http://www.w3.org/2000/svg"
   xmlns:svg="http://www.w3.org/2000/svg">
  <defs
     id="defs10">
    <inkscape:path-effect
       effect="spiro"
       id="path-effect2536"
       is_visible="true"
       lpeversion="1" />
    <inkscape:path-effect
       effect="spiro"
       id="path-effect2392"
       is_visible="true"
       lpeversion="1" />
    <pattern
       id="EMFhbasepattern"
       patternUnits="userSpaceOnUse"
       width="6"
       height="6"
       x="0"
       y="0" />
    <pattern
       id="EMFhbasepattern-1"
       patternUnits="userSpaceOnUse"
       width="6"
       height="6"
       x="0"
       y="0" />
  </defs>
  <sodipodi:namedview
     id="namedview8"
     pagecolor="#ffffff"
     bordercolor="#666666"
     borderopacity="1.0"
     inkscape:pageshadow="2"
     inkscape:pageopacity="0.0"
     inkscape:pagecheckerboard="0"
     showgrid="false"
     inkscape:zoom="17.875"
     inkscape:cx="17.538462"
     inkscape:cy="7.1888112"
     inkscape:window-width="1680"
     inkscape:window-height="917"
     inkscape:window-x="0"
     inkscape:window-y="25"
     inkscape:window-maximized="1"
     inkscape:current-layer="svg6" />
  <g
     aria-label="ð‘¥ð‘¦ "
     id="text20060"
     style="font-size:21.1813px;line-height:125%;font-family:'Cambria Math';letter-spacing:0px;word-spacing:0px;fill:#f0f0f0;stroke:#f0f0f0;stroke-width:0.755906;stroke-miterlimit:4;stroke-dasharray:none;stroke-opacity:1"
     transform="translate(0.3289961)">
    <path
       d="M 5.8101321,15.063342 Q 5.6549956,14.24629 5.4895167,13.491293 5.3240378,12.736295 5.1482165,12.084722 4.9723951,11.433149 4.8586284,11.236643 4.7448617,11.029794 4.6104101,10.957397 q -0.1241092,-0.08274 -0.3206154,-0.08274 -0.2171911,0 -0.3930124,0.103425 -0.1758213,0.09308 -0.38267,0.3413 -0.2068486,0.237876 -0.5481488,0.754997 l -0.672258,-0.444724 q 0.6515731,-0.982531 1.2514341,-1.468625 0.599861,-0.4860946 1.4169131,-0.4860946 0.3206154,0 0.5584913,0.072397 0.2482184,0.072397 0.4343821,0.2275335 0.1861638,0.1447941 0.3309578,0.3826701 0.1447941,0.237876 0.2792457,0.651573 0.1344516,0.403355 0.2482183,1.013558 0.1241092,0.599861 0.2171911,1.251434 H 7.1339633 Q 8.1268367,11.877873 8.6336158,11.236643 9.1507374,10.585069 9.50238,10.274796 9.8540227,9.9541811 10.174638,9.8300719 q 0.330958,-0.1344516 0.868764,-0.1344516 0.486095,0 0.796368,0.1241092 L 11.426072,11.69171 h -0.72397 q -0.06206,-0.434383 -0.361985,-0.434383 -0.09308,0 -0.196506,0.03103 -0.103425,0.03103 -0.258561,0.134451 -0.144794,0.103425 -0.4343821,0.403355 -0.2895881,0.299931 -0.6515732,0.734313 -0.3619851,0.434382 -0.744655,0.910134 l -0.7032854,0.879106 q 0.1861638,0.992874 0.3516427,1.716844 0.1654789,0.72397 0.2895881,1.210064 0.1344516,0.475752 0.2275335,0.754998 0.1034243,0.279246 0.217191,0.42404 0.1137668,0.134451 0.2275335,0.196506 0.1241092,0.05171 0.2792456,0.05171 0.2792457,0 0.5378065,-0.217191 0.2689032,-0.217191 0.7653398,-0.982531 l 0.672258,0.444724 Q 10.195323,19.024493 9.6058044,19.469218 9.0266282,19.9036 8.2199186,19.9036 7.775194,19.9036 7.4649211,19.738121 7.1546481,19.582985 6.9271147,19.231342 6.6995812,18.879699 6.5237598,18.135044 6.2031445,16.811213 6.1307474,16.107928 H 6.0273231 q -1.0962977,1.541022 -1.6341041,2.21328 -0.527464,0.672258 -0.8791067,0.992873 -0.3413002,0.320616 -0.672258,0.444725 -0.3206154,0.134452 -0.8584218,0.134452 -0.4860943,0 -0.7963672,-0.12411 l 0.4136973,-1.87198 h 0.7239701 q 0.062055,0.434382 0.3619851,0.434382 0.1447941,0 0.2999305,-0.0724 0.1654789,-0.08274 0.4654095,-0.372327 0.2999305,-0.299931 0.8273945,-0.930819 0.5274639,-0.630888 1.5306798,-1.892665 z"
       style="font-size:21.1813px;stroke:#f0f0f0;stroke-width:0.755906;stroke-miterlimit:4;stroke-dasharray:none;stroke-opacity:1"
       id="path829" />
    <path
       d="M 17.428802,11.941637 Q 17.210209,10.62254 16.833324,8.7607294 16.433826,6.7707779 16.305685,6.2959031 16.147394,5.7230383 15.974027,5.5647467 q -0.105528,-0.09799 -0.26382,-0.09799 -0.241206,0 -0.452261,0.1959801 -0.211056,0.1959801 -0.520101,0.6783926 l -0.489951,-0.324121 q 0.520101,-0.7763826 0.972363,-1.0929658 0.452262,-0.3241209 1.010051,-0.3241209 0.309046,0 0.527639,0.082915 0.150754,0.060301 0.301508,0.2035177 0.150754,0.1356785 0.263819,0.3844225 0.120603,0.2487439 0.203518,0.5577894 0.09045,0.3090455 0.19598,0.889448 0.180905,0.9723627 0.346734,2.0502531 0.173367,1.0703527 0.29397,1.9899516 0.731156,-1.0552774 1.236182,-2.0653285 0.512563,-1.0100512 0.731156,-1.756283 0.226131,-0.7462318 0.226131,-1.2135689 0,-0.3542717 -0.150754,-0.4824125 Q 20.255437,5.112485 19.893628,5.0898719 l 0.07538,-0.3693471 h 1.982414 l 0.203518,0.3768848 q -0.572865,1.5678406 -1.552766,3.3542743 -0.964825,1.7487451 -2.208544,3.4824151 -1.190956,1.650755 -1.982414,2.389449 -0.550252,0.505026 -1.062815,0.723619 -0.407036,0.165829 -0.866835,0.165829 -0.158292,0 -0.369347,-0.03015 -0.203518,-0.02261 -0.316583,-0.06784 l 0.324121,-1.462312 h 0.595478 q 0,0.482412 0.331658,0.482412 0.437186,0 1.017589,-0.550252 0.580402,-0.542714 1.364323,-1.643217 z"
       style="font-size:15.4372px;stroke:#f0f0f0;stroke-width:0.755906;stroke-miterlimit:4;stroke-dasharray:none;stroke-opacity:1"
       id="path831" />
  </g>
</svg>
