<?xml version="1.0" encoding="UTF-8" standalone="no"?>
<svg
   class="icon icon-tabler icon-tabler-square-root"
   fill="none"
   stroke="#000000"
   stroke-linecap="round"
   stroke-linejoin="round"
   stroke-width="2"
   viewBox="0 0 24 24"
   version="1.1"
   id="svg6"
   sodipodi:docname="square.svg"
   inkscape:version="1.1.2 (b8e25be8, 2022-02-05)"
   xmlns:inkscape="http://www.inkscape.org/namespaces/inkscape"
   xmlns:sodipodi="http://sodipodi.sourceforge.net/DTD/sodipodi-0.dtd"
   xmlns="http://www.w3.org/2000/svg"
   xmlns:svg="http://www.w3.org/2000/svg">
  <defs
     id="defs10">
    <inkscape:path-effect
       effect="spiro"
       id="path-effect2536"
       is_visible="true"
       lpeversion="1" />
    <inkscape:path-effect
       effect="spiro"
       id="path-effect2392"
       is_visible="true"
       lpeversion="1" />
    <pattern
       id="EMFhbasepattern"
       patternUnits="userSpaceOnUse"
       width="6"
       height="6"
       x="0"
       y="0" />
    <pattern
       id="EMFhbasepattern-1"
       patternUnits="userSpaceOnUse"
       width="6"
       height="6"
       x="0"
       y="0" />
    <pattern
       id="EMFhbasepattern-12"
       patternUnits="userSpaceOnUse"
       width="6"
       height="6"
       x="0"
       y="0" />
  </defs>
  <sodipodi:namedview
     id="namedview8"
     pagecolor="#ffffff"
     bordercolor="#666666"
     borderopacity="1.0"
     inkscape:pageshadow="2"
     inkscape:pageopacity="0.0"
     inkscape:pagecheckerboard="0"
     showgrid="false"
     inkscape:zoom="18.400837"
     inkscape:cx="7.0377233"
     inkscape:cy="10.407135"
     inkscape:window-width="1680"
     inkscape:window-height="917"
     inkscape:window-x="0"
     inkscape:window-y="25"
     inkscape:window-maximized="1"
     inkscape:current-layer="svg6" />
  <g
     aria-label="ð‘¥2 "
     id="text840"
     style="font-size:21.5107px;line-height:125%;font-family:'Cambria Math';letter-spacing:0px;word-spacing:0px;fill:#4d4d4d;stroke:#4d4d4d;stroke-width:0.755906;stroke-miterlimit:4;stroke-dasharray:none;stroke-opacity:1"
     transform="translate(0.99331567,1.2891169)">
    <path
       d="M 5.8506613,15.131618 Q 5.6931122,14.30186 5.5250599,13.535121 5.3570075,12.768382 5.1784519,12.106676 4.9998963,11.44497 4.8843603,11.245408 4.7688243,11.035342 4.6322818,10.961819 q -0.1260393,-0.08403 -0.3256014,-0.08403 -0.2205687,0 -0.3991244,0.105033 -0.1785556,0.09453 -0.388621,0.346608 -0.2100654,0.241575 -0.5566734,0.766739 L 2.2795489,11.644532 Q 2.941255,10.646721 3.5504448,10.153067 4.1596346,9.6594137 4.989393,9.6594137 q 0.3256014,0 0.5671767,0.073523 0.2520785,0.073523 0.4411374,0.231072 0.1890589,0.1470453 0.3361047,0.3886213 0.1470458,0.241575 0.2835883,0.661706 0.1365425,0.409627 0.2520785,1.02932 0.1260393,0.60919 0.2205687,1.270896 H 7.19508 Q 8.2033941,11.896611 8.7180544,11.245408 9.243218,10.583702 9.6003292,10.268603 9.9574405,9.9430021 10.283042,9.8169628 q 0.336105,-0.1365425 0.882275,-0.1365425 0.493653,0 0.808752,0.1260392 l -0.420131,1.9010925 h -0.735229 q -0.06302,-0.441138 -0.367615,-0.441138 -0.09453,0 -0.199562,0.03151 -0.105033,0.03151 -0.2625817,0.136543 -0.1470458,0.105032 -0.4411374,0.409627 -0.2940916,0.304595 -0.6617061,0.745732 -0.3676145,0.441138 -0.7562356,0.924288 l -0.7142225,0.892778 q 0.1890589,1.008315 0.3571113,1.743544 0.1680523,0.735229 0.2940916,1.228882 0.1365425,0.483151 0.231072,0.766739 0.1050327,0.283589 0.2205687,0.430634 0.115536,0.136543 0.2310719,0.199562 0.1260393,0.05252 0.2835884,0.05252 0.2835883,0 0.5461701,-0.220569 0.2730851,-0.220569 0.7772423,-0.997811 l 0.682712,0.451641 q -0.735229,1.09234 -1.333915,1.543981 -0.5881833,0.441137 -1.4074384,0.441137 -0.4516407,0 -0.7667389,-0.168052 Q 7.2160866,19.721548 6.9850146,19.364437 6.7539426,19.007325 6.575387,18.25109 6.2497856,16.906671 6.1762627,16.192449 H 6.07123 q -1.1133468,1.564987 -1.6595169,2.2477 -0.5356669,0.682712 -0.8927781,1.008314 -0.346608,0.325601 -0.6827127,0.451641 -0.3256014,0.136542 -0.8717715,0.136542 -0.4936538,0 -0.8087519,-0.126039 l 0.4201308,-1.901092 h 0.7352291 q 0.06302,0.441137 0.3676145,0.441137 0.1470458,0 0.3045948,-0.07352 0.1680524,-0.08403 0.4726473,-0.378118 0.3045948,-0.304595 0.8402617,-0.945294 0.5356668,-0.6407 1.5544842,-1.922099 z"
       style="font-size:21.5107px;stroke:#4d4d4d;stroke-width:0.755906;stroke-miterlimit:4;stroke-dasharray:none;stroke-opacity:1"
       id="path830" />
    <path
       d="m 18.813825,10.721167 q 0.375087,0 0.604732,-0.04593 0.229645,-0.04593 0.367432,-0.153097 0.137787,-0.107168 0.214336,-0.275574 0.0842,-0.176061 0.20668,-0.5358385 h 0.650661 L 20.727534,11.94594 h -6.299929 v -0.367432 q 0.329158,-0.803758 0.887961,-1.6457893 0.558803,-0.8420318 1.584551,-1.9826021 0.887961,-0.9798187 1.278357,-1.4850378 0.428671,-0.551148 0.635351,-0.9491994 0.214336,-0.4057062 0.306194,-0.7578286 0.09186,-0.3597772 0.09186,-0.7195544 0,-0.5741125 -0.183716,-1.0104381 -0.183716,-0.4439804 -0.566458,-0.6965899 -0.375087,-0.2526095 -0.949199,-0.2526095 -1.431454,0 -1.929019,1.5922055 H 14.657251 V 2.2013362 q 0.926234,-0.4363255 1.729992,-0.6276964 0.811412,-0.1990256 1.454418,-0.1990256 1.4238,0 2.151009,0.6276964 0.727209,0.6200415 0.727209,1.8065408 0,0.4057062 -0.0842,0.7501737 -0.07655,0.3368127 -0.25261,0.6736254 -0.168406,0.3291579 -0.45929,0.7118996 -0.290883,0.3827417 -0.643006,0.7807931 -0.352122,0.3903965 -1.217118,1.3089766 -1.454419,1.5386217 -2.135699,2.6868472 z"
       style="font-size:15.6771px;stroke:#4d4d4d;stroke-width:0.755906;stroke-miterlimit:4;stroke-dasharray:none;stroke-opacity:1"
       id="path832" />
  </g>
</svg>
